<?xml version="1.0" encoding="UTF-8" standalone="no"?>
<!-- Created with Inkscape (http://www.inkscape.org/) -->

<svg
   width="376.62451mm"
   height="46.264584mm"
   viewBox="0 0 376.62451 46.264584"
   version="1.1"
   id="svg2164"
   inkscape:version="1.1.2 (0a00cf5339, 2022-02-04, custom)"
   sodipodi:docname="1x_end_b.svg"
   xmlns:inkscape="http://www.inkscape.org/namespaces/inkscape"
   xmlns:sodipodi="http://sodipodi.sourceforge.net/DTD/sodipodi-0.dtd"
   xmlns="http://www.w3.org/2000/svg"
   xmlns:svg="http://www.w3.org/2000/svg">
  <sodipodi:namedview
     id="namedview2166"
     pagecolor="#ffffff"
     bordercolor="#666666"
     borderopacity="1.0"
     inkscape:pageshadow="2"
     inkscape:pageopacity="0.0"
     inkscape:pagecheckerboard="0"
     inkscape:document-units="mm"
     showgrid="false"
     lock-margins="true"
     fit-margin-top="20"
     fit-margin-left="10"
     fit-margin-right="0"
     fit-margin-bottom="0"
     inkscape:zoom="1.0494603"
     inkscape:cx="594.59133"
     inkscape:cy="159.60585"
     inkscape:current-layer="layer1"
     showguides="true"
     inkscape:guide-bbox="true">
    <sodipodi:guide
       position="349.55565,18.279962"
       orientation="1,0"
       id="guide1621" />
    <sodipodi:guide
       position="352.47224,23.132295"
       orientation="0,-1"
       id="guide2125" />
  </sodipodi:namedview>
  <defs
     id="defs2161" />
  <g
     inkscape:label="Layer 1"
     inkscape:groupmode="layer"
     id="layer1"
     transform="translate(82.070961,-106.27587)">
    <path
       id="path2088"
       style="fill:none;stroke:#000000;stroke-width:0.999999px;stroke-linecap:butt;stroke-linejoin:miter;stroke-opacity:1"
       d="M 1309.4636 163.01968 L 1286.7866 163.01968 L 1286.7866 174.35826 L 1264.0716 174.35826 L 1264.0716 163.01968 L 1241.3946 163.01968 L 1241.3946 174.35826 L 1218.6796 174.35826 L 1218.6796 163.01968 L 1195.9646 163.01968 L 1195.9646 174.35826 L 1173.2876 174.35826 L 1173.2876 163.01968 L 1150.5726 163.01968 L 1150.5726 174.35826 L 1127.8956 174.35826 L 1127.8956 163.01968 L 1105.1806 163.01968 L 1105.1806 174.35826 L 1082.4656 174.35826 L 1082.4656 163.01968 L 1059.7886 163.01968 L 1059.7886 174.35826 L 1037.0736 174.35826 L 1037.0736 163.01968 L 1014.3586 163.01968 L 1014.3586 174.35826 L 991.68148 174.35826 L 991.68148 163.01968 L 968.96659 163.01968 L 968.96659 174.35826 L 946.28856 174.35826 L 946.28856 163.01968 L 923.57356 163.01968 L 923.57356 174.35826 L 900.85958 174.35826 L 900.85958 163.01968 L 878.18158 163.01968 L 878.18158 174.35826 L 855.46659 174.35826 L 855.46659 163.01968 L 832.78957 163.01968 L 832.78957 174.35826 L 810.07457 174.35826 L 810.07457 163.01968 L 787.35988 163.01968 L 787.35988 174.35826 L 764.68267 174.35826 L 764.68267 163.01968 L 741.96779 163.01968 L 741.96779 174.35826 L 719.29059 174.35826 L 719.29059 163.01968 L 696.57559 163.01968 L 696.57559 174.35826 L 673.86067 174.35826 L 673.86067 163.01968 L 651.18346 163.01968 L 651.18346 174.35826 L 628.46858 174.35826 L 628.46858 163.01968 L 605.79137 163.01968 L 605.79137 174.35826 L 583.07638 174.35826 L 583.07638 163.01968 L 560.36149 163.01968 L 560.36149 174.35826 L 537.68429 174.35826 L 537.68429 163.01968 L 514.96929 163.01968 L 514.96929 174.35826 L 492.2922 174.35826 L 492.2922 163.01968 L 469.5772 163.01968 L 469.5772 174.35826 L 446.86228 174.35826 L 446.86228 163.01968 L 424.18507 163.01968 L 424.18507 174.35826 L 401.47008 174.35826 L 401.47008 163.01968 L 378.79299 163.01968 L 378.79299 174.35826 L 356.07799 174.35826 L 356.07799 163.01968 L 333.36299 163.01968 L 333.36299 174.35826 L 310.6859 174.35826 L 310.6859 163.01968 L 287.9709 163.01968 L 287.9709 174.35826 L 265.2937 174.35826 L 265.2937 163.01968 L 242.57878 163.01968 L 242.57878 174.35826 L 219.86378 174.35826 L 219.86378 163.01968 L 197.18669 163.01968 L 197.18669 174.35826 L 174.47169 174.35826 L 174.47169 163.01968 L 151.79449 163.01968 L 151.79449 174.35826 L 129.0796 174.35826 L 129.0796 163.01968 L 106.3646 163.01968 L 106.3646 174.35826 L 83.687475 174.35826 L 83.687475 163.01968 L 60.972476 163.01968 "
       transform="matrix(0.26458333,0,0,0.26458333,-82.070961,106.27587)" />
    <path
       id="path2250"
       style="fill:none;stroke:#000000;stroke-width:0.999999px;stroke-linecap:butt;stroke-linejoin:miter;stroke-opacity:1"
       d="M 38.295273 87.429128 L 38.295273 87.429128 L 38.295273 76.090545 L 60.972476 76.090545 L 60.972476 87.429128 L 83.687475 87.429128 L 83.687475 76.090545 L 106.3646 76.090545 L 106.3646 87.429128 L 129.0796 87.429128 L 129.0796 76.090545 L 151.79449 76.090545 L 151.79449 87.429128 L 174.47169 87.429128 L 174.47169 76.090545 L 197.18669 76.090545 L 197.18669 87.429128 L 219.86378 87.429128 L 219.86378 76.090545 L 242.57878 76.090545 L 242.57878 87.429128 L 265.2937 87.429128 L 265.2937 76.090545 L 287.9709 76.090545 L 287.9709 87.429128 L 310.6859 87.429128 L 310.6859 76.090545 L 333.36299 76.090545 L 333.36299 87.429128 L 356.07799 87.429128 L 356.07799 76.090545 L 378.79299 76.090545 L 378.79299 87.429128 L 401.47008 87.429128 L 401.47008 76.090545 L 424.18507 76.090545 L 424.18507 87.429128 L 446.86228 87.429128 L 446.86228 76.090545 L 469.5772 76.090545 L 469.5772 87.429128 L 492.2922 87.429128 L 492.2922 76.090545 L 514.96929 76.090545 L 514.96929 87.429128 L 537.68429 87.429128 L 537.68429 76.090545 L 560.36149 76.090545 L 560.36149 87.429128 L 583.07638 87.429128 L 583.07638 76.090545 L 605.79137 76.090545 L 605.79137 87.429128 L 628.46858 87.429128 L 628.46858 76.090545 L 651.18346 76.090545 L 651.18346 87.429128 L 673.86067 87.429128 L 673.86067 76.090545 L 696.57559 76.090545 L 696.57559 87.429128 L 719.29059 87.429128 L 719.29059 76.090545 L 741.96779 76.090545 L 741.96779 87.429128 L 764.68267 87.429128 L 764.68267 76.090545 L 787.35988 76.090545 L 787.35988 87.429128 L 810.07457 87.429128 L 810.07457 76.090545 L 832.78957 76.090545 L 832.78957 87.429128 L 855.46659 87.429128 L 855.46659 76.090545 L 878.18158 76.090545 L 878.18158 87.429128 L 900.85958 87.429128 L 900.85958 76.090545 L 923.57356 76.090545 L 923.57356 87.429128 L 946.28856 87.429128 L 946.28856 76.090545 L 968.96659 76.090545 L 968.96659 87.429128 L 991.68148 87.429128 L 991.68148 76.090545 L 1014.3586 76.090545 L 1014.3586 87.429128 L 1037.0736 87.429128 L 1037.0736 76.090545 L 1059.7886 76.090545 L 1059.7886 87.429128 L 1082.4656 87.429128 L 1082.4656 76.090545 L 1105.1806 76.090545 L 1105.1806 87.429128 L 1127.8956 87.429128 L 1127.8956 76.090545 L 1150.5726 76.090545 L 1150.5726 87.429128 L 1173.2876 87.429128 L 1173.2876 76.090545 L 1195.9646 76.090545 L 1195.9646 87.429128 L 1218.6796 87.429128 L 1218.6796 76.090545 L 1241.3946 76.090545 L 1241.3946 87.429128 L 1264.0716 87.429128 L 1264.0716 76.090545 L 1286.7866 76.090545 L 1286.7866 87.429128 L 1309.4636 87.429128 "
       transform="matrix(0.26458333,0,0,0.26458333,-82.070961,106.27587)" />
    <path
       id="path2248"
       style="fill:none;stroke:#000000;stroke-width:0.999999px;stroke-linecap:butt;stroke-linejoin:miter;stroke-opacity:1"
       d="M 38.295273 125.2244 L 60.972476 125.2244 "
       transform="matrix(0.26458333,0,0,0.26458333,-82.070961,106.27587)" />
    <path
       id="path2246"
       style="fill:none;stroke:#000000;stroke-width:0.999999px;stroke-linecap:butt;stroke-linejoin:miter;stroke-opacity:1"
       d="M 60.972476 125.2244 L 60.972476 163.01968 "
       transform="matrix(0.26458333,0,0,0.26458333,-82.070961,106.27587)" />
    <path
       id="path2244"
       style="fill:none;stroke:#000000;stroke-width:0.999999px;stroke-linecap:butt;stroke-linejoin:miter;stroke-opacity:1"
       d="M 38.295273 125.2244 L 38.295273 87.429128 "
       transform="matrix(0.26458333,0,0,0.26458333,-82.070961,106.27587)" />
    <path
       id="path1746"
       style="fill:none;stroke:#000000;stroke-width:0.264583px;stroke-linecap:butt;stroke-linejoin:miter;stroke-opacity:1"
       d="m 258.39129,149.40816 v 0 h 5.99999 v -7 h 3 v -6 h -3 v -7 h -5.99999" />
  </g>
</svg>
