<?xml version="1.0" encoding="UTF-8" standalone="no"?>
<!-- Created with Inkscape (http://www.inkscape.org/) -->

<svg
   width="241.48456mm"
   height="46.264584mm"
   viewBox="0 0 241.48456 46.264584"
   version="1.1"
   id="svg12167"
   inkscape:version="1.1.2 (0a00cf5339, 2022-02-04, custom)"
   sodipodi:docname="1x_end_a.svg"
   xmlns:inkscape="http://www.inkscape.org/namespaces/inkscape"
   xmlns:sodipodi="http://sodipodi.sourceforge.net/DTD/sodipodi-0.dtd"
   xmlns="http://www.w3.org/2000/svg"
   xmlns:svg="http://www.w3.org/2000/svg">
  <sodipodi:namedview
     id="namedview12169"
     pagecolor="#ffffff"
     bordercolor="#666666"
     borderopacity="1.0"
     inkscape:pageshadow="2"
     inkscape:pageopacity="0.0"
     inkscape:pagecheckerboard="0"
     inkscape:document-units="mm"
     showgrid="false"
     inkscape:zoom="0.74208053"
     inkscape:cx="520.15918"
     inkscape:cy="208.19843"
     inkscape:current-layer="layer1"
     fit-margin-top="20"
     fit-margin-left="10"
     fit-margin-right="0"
     fit-margin-bottom="0" />
  <defs
     id="defs12164" />
  <g
     inkscape:label="Layer 1"
     inkscape:groupmode="layer"
     id="layer1"
     transform="translate(-100.30574,-113.05018)">
    <path
       id="path12018"
       style="fill:none;stroke:#000000;stroke-width:0.264583px;stroke-linecap:butt;stroke-linejoin:miter;stroke-opacity:1"
       d="m 335.65803,146.18247 v 10 m 5.99998,-20 v 10 m -5.99998,0 h 5.99998 m 0,-10 v 0 -3 h -5.99998 v 3 h -6.01001 v -3 h -6.00001 v 3 h -6.00998 v -3 h -6.01002 v 3 h -5.99998 v -3 h -6.01001 v 3 h -6.00001 v -3 h -6.00998 v 3 h -6.01001 v -3 h -5.99998 v 3 h -6.01001 v -3 h -6.00001 v 3 h -6.00999 v -3 h -6.01001 v 3 h -6.00001 v -3 h -6.00998 v 3 h -6.01001 v -3 h -5.99998 v 3 h -6.01001 v -3 h -6.00001 v 3 h -6.00999 v -3 h -6.01001 v 3 h -6.00001 v -3 h -6.00998 v 3 h -6.00001 v -3 h -6.00998 v 3 h -6.01001 v -3 h -6.00001 v 3 h -6.00999 v -3 h -6.00001 v 3 h -6.01001 v -3 h -6.00998 v 3 h -6.00001 v -3 h -6.00998 v 3 h -6.00001 v -3 h -6.01001 v 3 h -5.99999 v 7 h -3 v 6 h 3 v 7 h 5.99999 v 3 h 6.01001 v -3 0 h 6.00001 v 3 h 6.00998 v -3 h 6.00001 v 3 h 6.00998 v -3 h 6.01001 v 3 h 6.00001 v -3 h 6.00999 v 3 h 6.00001 v -3 h 6.01001 v 3 h 6.00998 v -3 h 6.00001 v 3 h 6.00998 v -3 h 6.00001 v 3 h 6.01001 v -3 h 6.00999 v 3 h 6.00001 v -3 h 6.01001 v 3 h 5.99998 v -3 h 6.01001 v 3 h 6.00998 v -3 h 6.00001 v 3 h 6.01001 v -3 h 5.99999 v 3 h 6.01001 v -3 h 6.01001 v 3 h 5.99998 v -3 h 6.01001 v 3 h 6.00998 v -3 h 6.00001 v 3 h 6.01001 v -3 h 5.99998 v 3 h 6.01002 v -3 h 6.00998 v 3 h 6.00001 v -3 h 6.01001" />
  </g>
</svg>
