<?xml version="1.0" encoding="UTF-8" standalone="no"?>
<!-- Created with Inkscape (http://www.inkscape.org/) -->

<svg
   width="380mm"
   height="165mm"
   viewBox="0 0 380 165"
   version="1.1"
   id="svg2164"
   inkscape:version="1.1.2 (0a00cf5339, 2022-02-04, custom)"
   sodipodi:docname="5_x_modular_all.svg"
   xmlns:inkscape="http://www.inkscape.org/namespaces/inkscape"
   xmlns:sodipodi="http://sodipodi.sourceforge.net/DTD/sodipodi-0.dtd"
   xmlns="http://www.w3.org/2000/svg"
   xmlns:svg="http://www.w3.org/2000/svg">
  <sodipodi:namedview
     id="namedview2166"
     pagecolor="#ffffff"
     bordercolor="#666666"
     borderopacity="1.0"
     inkscape:pageshadow="2"
     inkscape:pageopacity="0.0"
     inkscape:pagecheckerboard="0"
     inkscape:document-units="mm"
     showgrid="false"
     lock-margins="true"
     fit-margin-top="10"
     fit-margin-left="10"
     fit-margin-right="10"
     fit-margin-bottom="10"
     inkscape:zoom="0.74208053"
     inkscape:cx="755.98265"
     inkscape:cy="121.95442"
     inkscape:current-layer="layer1" />
  <defs
     id="defs2161" />
  <g
     inkscape:label="Layer 1"
     inkscape:groupmode="layer"
     id="layer1"
     transform="translate(82.070961,-116.27587)">
    <path
       id="path9826"
       style="fill:none;stroke:#000000;stroke-width:0.264583px;stroke-linecap:butt;stroke-linejoin:miter;stroke-opacity:1"
       d="m 288.42126,253.40816 v 10 m 6.00001,-10 v -10 m -6.00001,10 h 6.00001 m -366.35994,0 v 10 m 6.00001,-10 v -10 m -6.00001,10 h 6.00001 m -6.00001,10 v 0 3 h 6.00001 v -3 h 6.01001 v 3 h 5.99999 v -3 h 6.01001 v 3 h 6.00998 v -3 h 6.00001 v 3 h 6.01001 v -3 h 5.99998 v 3 h 6.01001 v -3 h 6.00999 v 3 h 6.00001 v -3 h 6.01001 v 3 h 5.99998 v -3 h 6.01001 v 3 h 6.01001 v -3 h 5.99998 v 3 h 6.01001 v -3 h 6.00001 v 3 h 6.00999 v -3 h 6.01001 v 3 h 5.99998 v -3 h 6.01001 v 3 h 6.00001 v -3 h 6.00998 v 3 h 6.01001 v -3 h 6.00001 v 3 h 6.00998 v -3 h 6.00001 v 3 h 6.00999 v -3 h 6.01001 v 3 h 6.00001 v -3 h 6.00998 v 3 h 6.00001 v -3 h 6.00993 v 3 h 6.01001 v -3 h 5.99996 v 3 h 6.01001 v -3 h 6.00022 v 3 h 6.00974 v -3 h 6.01001 v 3 h 6.00023 v -3 h 6.00998 v 3 h 5.99998 v -3 h 6.01001 v 3 h 6.01001 v -3 h 5.99996 v 3 h 6.01001 v -3 h 6.01001 v 3 h 5.99996 v -3 h 6.01001 v 3 h 5.99995 v -3 h 6.01001 v 3 h 6.01001 v -3 h 5.99996 v 3 h 6.01001 v -3 h 5.99996 v 3 h 6.01001 v -3 h 6.01001 v 3 h 5.99995 v -3 h 6.01001 m 5.99996,-20 v 0 -3 h -5.99996 v 3 h -6.01001 v -3 h -5.99995 v 3 h -6.01001 v -3 h -6.01001 v 3 h -5.99996 v -3 h -6.01001 v 3 h -5.99996 v -3 h -6.01001 v 3 h -6.01001 v -3 h -5.99995 v 3 h -6.01001 v -3 h -5.99996 v 3 h -6.01001 v -3 h -6.01001 v 3 h -5.99996 v -3 h -6.01001 v 3 h -6.01001 v -3 h -5.99998 v 3 h -6.00998 v -3 h -6.00023 v 3 h -6.01001 v -3 h -6.00974 v 3 h -6.00022 v -3 h -6.01001 v 3 h -5.99996 v -3 h -6.01001 v 3 h -6.00993 v -3 h -6.00001 v 3 h -6.00998 v -3 h -6.00001 v 3 h -6.01001 v -3 h -6.00999 v 3 h -6.00001 v -3 h -6.00998 v 3 h -6.00001 v -3 h -6.01001 v 3 h -6.00998 v -3 h -6.00001 v 3 h -6.01001 v -3 h -5.99998 v 3 h -6.01001 v -3 h -6.00999 v 3 h -6.00001 v -3 h -6.01001 v 3 h -5.99998 v -3 h -6.01001 v 3 H 6.13133 v -3 H 0.13135 v 3 h -6.01001 v -3 h -6.00001 v 3 h -6.00999 v -3 h -6.01001 v 3 h -5.99998 v -3 h -6.01001 v 3 h -6.00001 v -3 h -6.00998 v 3 h -6.01001 v -3 h -5.99999 v 3 h -6.01001 m 354.35992,-16 v 10 m 6.00001,-10 v -10 m -6.00001,10 h 6.00001 m -366.35994,0 v 10 m 6.00001,-10 v -10 m -6.00001,10 h 6.00001 m -6.00001,10 v 0 3 h 6.00001 v -3 h 6.01001 v 3 h 5.99999 v -3 h 6.01001 v 3 h 6.00998 v -3 h 6.00001 v 3 h 6.01001 v -3 h 5.99998 v 3 h 6.01001 v -3 h 6.00999 v 3 h 6.00001 v -3 h 6.01001 v 3 h 5.99998 v -3 h 6.01001 v 3 h 6.01001 v -3 h 5.99998 v 3 h 6.01001 v -3 h 6.00001 v 3 h 6.00999 v -3 h 6.01001 v 3 h 5.99998 v -3 h 6.01001 v 3 h 6.00001 v -3 h 6.00998 v 3 h 6.01001 v -3 h 6.00001 v 3 h 6.00998 v -3 h 6.00001 v 3 h 6.00999 v -3 h 6.01001 v 3 h 6.00001 v -3 h 6.00998 v 3 h 6.00001 v -3 h 6.00993 v 3 h 6.01001 v -3 h 5.99996 v 3 h 6.01001 v -3 h 6.00022 v 3 h 6.00974 v -3 h 6.01001 v 3 h 6.00023 v -3 h 6.00998 v 3 h 5.99998 v -3 h 6.01001 v 3 h 6.01001 v -3 h 5.99996 v 3 h 6.01001 v -3 h 6.01001 v 3 h 5.99996 v -3 h 6.01001 v 3 h 5.99995 v -3 h 6.01001 v 3 h 6.01001 v -3 h 5.99996 v 3 h 6.01001 v -3 h 5.99996 v 3 h 6.01001 v -3 h 6.01001 v 3 h 5.99995 v -3 h 6.01001 m 5.99996,-20 v 0 -3 h -5.99996 v 3 h -6.01001 v -3 h -5.99995 v 3 h -6.01001 v -3 h -6.01001 v 3 h -5.99996 v -3 h -6.01001 v 3 h -5.99996 v -3 h -6.01001 v 3 h -6.01001 v -3 h -5.99995 v 3 h -6.01001 v -3 h -5.99996 v 3 h -6.01001 v -3 h -6.01001 v 3 h -5.99996 v -3 h -6.01001 v 3 h -6.01001 v -3 h -5.99998 v 3 h -6.00998 v -3 h -6.00023 v 3 h -6.01001 v -3 h -6.00974 v 3 h -6.00022 v -3 h -6.01001 v 3 h -5.99996 v -3 h -6.01001 v 3 h -6.00993 v -3 h -6.00001 v 3 h -6.00998 v -3 h -6.00001 v 3 h -6.01001 v -3 h -6.00999 v 3 h -6.00001 v -3 h -6.00998 v 3 h -6.00001 v -3 h -6.01001 v 3 h -6.00998 v -3 h -6.00001 v 3 h -6.01001 v -3 h -5.99998 v 3 h -6.01001 v -3 h -6.00999 v 3 h -6.00001 v -3 h -6.01001 v 3 h -5.99998 v -3 h -6.01001 v 3 H 6.13133 v -3 H 0.13135 v 3 h -6.01001 v -3 h -6.00001 v 3 h -6.00999 v -3 h -6.01001 v 3 h -5.99998 v -3 h -6.01001 v 3 h -6.00001 v -3 h -6.00998 v 3 h -6.01001 v -3 h -5.99999 v 3 h -6.01001 m 354.35992,-16 v 10 m 6.00001,-10 v -10 m -6.00001,10 h 6.00001 m -366.35994,0 v 10 m 6.00001,-10 v -10 m -6.00001,10 h 6.00001 m -6.00001,10 v 0 3 h 6.00001 v -3 h 6.01001 v 3 h 5.99999 v -3 h 6.01001 v 3 h 6.00998 v -3 h 6.00001 v 3 h 6.01001 v -3 h 5.99998 v 3 h 6.01001 v -3 h 6.00999 v 3 h 6.00001 v -3 h 6.01001 v 3 h 5.99998 v -3 h 6.01001 v 3 h 6.01001 v -3 h 5.99998 v 3 h 6.01001 v -3 h 6.00001 v 3 h 6.00999 v -3 h 6.01001 v 3 h 5.99998 v -3 h 6.01001 v 3 h 6.00001 v -3 h 6.00998 v 3 h 6.01001 v -3 h 6.00001 v 3 h 6.00998 v -3 h 6.00001 v 3 h 6.00999 v -3 h 6.01001 v 3 h 6.00001 v -3 h 6.00998 v 3 h 6.00001 v -3 h 6.00993 v 3 h 6.01001 v -3 h 5.99996 v 3 h 6.01001 v -3 h 6.00022 v 3 h 6.00974 v -3 h 6.01001 v 3 h 6.00023 v -3 h 6.00998 v 3 h 5.99998 v -3 h 6.01001 v 3 h 6.01001 v -3 h 5.99996 v 3 h 6.01001 v -3 h 6.01001 v 3 h 5.99996 v -3 h 6.01001 v 3 h 5.99995 v -3 h 6.01001 v 3 h 6.01001 v -3 h 5.99996 v 3 h 6.01001 v -3 h 5.99996 v 3 h 6.01001 v -3 h 6.01001 v 3 h 5.99995 v -3 h 6.01001 m 5.99996,-20 v 0 -3 h -5.99996 v 3 h -6.01001 v -3 h -5.99995 v 3 h -6.01001 v -3 h -6.01001 v 3 h -5.99996 v -3 h -6.01001 v 3 h -5.99996 v -3 h -6.01001 v 3 h -6.01001 v -3 h -5.99995 v 3 h -6.01001 v -3 h -5.99996 v 3 h -6.01001 v -3 h -6.01001 v 3 h -5.99996 v -3 h -6.01001 v 3 h -6.01001 v -3 h -5.99998 v 3 h -6.00998 v -3 h -6.00023 v 3 h -6.01001 v -3 h -6.00974 v 3 h -6.00022 v -3 h -6.01001 v 3 h -5.99996 v -3 h -6.01001 v 3 h -6.00993 v -3 h -6.00001 v 3 h -6.00998 v -3 h -6.00001 v 3 h -6.01001 v -3 h -6.00999 v 3 h -6.00001 v -3 h -6.00998 v 3 h -6.00001 v -3 h -6.01001 v 3 h -6.00998 v -3 h -6.00001 v 3 h -6.01001 v -3 h -5.99998 v 3 h -6.01001 v -3 h -6.00999 v 3 h -6.00001 v -3 h -6.01001 v 3 h -5.99998 v -3 h -6.01001 v 3 H 6.13133 v -3 H 0.13135 v 3 h -6.01001 v -3 h -6.00001 v 3 h -6.00999 v -3 h -6.01001 v 3 h -5.99998 v -3 h -6.01001 v 3 h -6.00001 v -3 h -6.00998 v 3 h -6.01001 v -3 h -5.99999 v 3 h -6.01001 m 354.35992,-16 v 10 m 6.00001,-10 v -10 m -6.00001,10 h 6.00001 m -366.35994,0 v 10 m 6.00001,-10 v -10 m -6.00001,10 h 6.00001 m -6.00001,10 v 0 3 h 6.00001 v -3 h 6.01001 v 3 h 5.99999 v -3 h 6.01001 v 3 h 6.00998 v -3 h 6.00001 v 3 h 6.01001 v -3 h 5.99998 v 3 h 6.01001 v -3 h 6.00999 v 3 h 6.00001 v -3 h 6.01001 v 3 h 5.99998 v -3 h 6.01001 v 3 h 6.01001 v -3 h 5.99998 v 3 h 6.01001 v -3 h 6.00001 v 3 h 6.00999 v -3 h 6.01001 v 3 h 5.99998 v -3 h 6.01001 v 3 h 6.00001 v -3 h 6.00998 v 3 h 6.01001 v -3 h 6.00001 v 3 h 6.00998 v -3 h 6.00001 v 3 h 6.00999 v -3 h 6.01001 v 3 h 6.00001 v -3 h 6.00998 v 3 h 6.00001 v -3 h 6.00993 v 3 h 6.01001 v -3 h 5.99996 v 3 h 6.01001 v -3 h 6.00022 v 3 h 6.00974 v -3 h 6.01001 v 3 h 6.00023 v -3 h 6.00998 v 3 h 5.99998 v -3 h 6.01001 v 3 h 6.01001 v -3 h 5.99996 v 3 h 6.01001 v -3 h 6.01001 v 3 h 5.99996 v -3 h 6.01001 v 3 h 5.99995 v -3 h 6.01001 v 3 h 6.01001 v -3 h 5.99996 v 3 h 6.01001 v -3 h 5.99996 v 3 h 6.01001 v -3 h 6.01001 v 3 h 5.99995 v -3 h 6.01001 m 5.99996,-20 v 0 -3 h -5.99996 v 3 h -6.01001 v -3 h -5.99995 v 3 h -6.01001 v -3 h -6.01001 v 3 h -5.99996 v -3 h -6.01001 v 3 h -5.99996 v -3 h -6.01001 v 3 h -6.01001 v -3 h -5.99995 v 3 h -6.01001 v -3 h -5.99996 v 3 h -6.01001 v -3 h -6.01001 v 3 h -5.99996 v -3 h -6.01001 v 3 h -6.01001 v -3 h -5.99998 v 3 h -6.00998 v -3 h -6.00023 v 3 h -6.01001 v -3 h -6.00974 v 3 h -6.00022 v -3 h -6.01001 v 3 h -5.99996 v -3 h -6.01001 v 3 h -6.00993 v -3 h -6.00001 v 3 h -6.00998 v -3 h -6.00001 v 3 h -6.01001 v -3 h -6.00999 v 3 h -6.00001 v -3 h -6.00998 v 3 h -6.00001 v -3 h -6.01001 v 3 h -6.00998 v -3 h -6.00001 v 3 h -6.01001 v -3 h -5.99998 v 3 h -6.01001 v -3 h -6.00999 v 3 h -6.00001 v -3 h -6.01001 v 3 h -5.99998 v -3 h -6.01001 v 3 H 6.13133 v -3 H 0.13135 v 3 h -6.01001 v -3 h -6.00001 v 3 h -6.00999 v -3 h -6.01001 v 3 h -5.99998 v -3 h -6.01001 v 3 h -6.00001 v -3 h -6.00998 v 3 h -6.01001 v -3 h -5.99999 v 3 h -6.01001 m 354.35992,-16 v 10 m 6.00001,-10 v -10 m -6.00001,10 h 6.00001 m -366.35994,0 v 10 m 6.00001,-10 v -10 m -6.00001,10 h 6.00001 m -6.00001,10 v 0 3 h 6.00001 v -3 h 6.01001 v 3 h 5.99999 v -3 h 6.01001 v 3 h 6.00998 v -3 h 6.00001 v 3 h 6.01001 v -3 h 5.99998 v 3 h 6.01001 v -3 h 6.00999 v 3 h 6.00001 v -3 h 6.01001 v 3 h 5.99998 v -3 h 6.01001 v 3 h 6.01001 v -3 h 5.99998 v 3 h 6.01001 v -3 h 6.00001 v 3 h 6.00999 v -3 h 6.01001 v 3 h 5.99998 v -3 h 6.01001 v 3 h 6.00001 v -3 h 6.00998 v 3 h 6.01001 v -3 h 6.00001 v 3 h 6.00998 v -3 h 6.00001 v 3 h 6.00999 v -3 h 6.01001 v 3 h 6.00001 v -3 h 6.00998 v 3 h 6.00001 v -3 h 6.00993 v 3 h 6.01001 v -3 h 5.99996 v 3 h 6.01001 v -3 h 6.00022 v 3 h 6.00974 v -3 h 6.01001 v 3 h 6.00023 v -3 h 6.00998 v 3 h 5.99998 v -3 h 6.01001 v 3 h 6.01001 v -3 h 5.99996 v 3 h 6.01001 v -3 h 6.01001 v 3 h 5.99996 v -3 h 6.01001 v 3 h 5.99995 v -3 h 6.01001 v 3 h 6.01001 v -3 h 5.99996 v 3 h 6.01001 v -3 h 5.99996 v 3 h 6.01001 v -3 h 6.01001 v 3 h 5.99995 v -3 h 6.01001 m 5.99996,-20 v 0 -3 h -5.99996 v 3 h -6.01001 v -3 h -5.99995 v 3 h -6.01001 v -3 h -6.01001 v 3 h -5.99996 v -3 h -6.01001 v 3 h -5.99996 v -3 h -6.01001 v 3 h -6.01001 v -3 h -5.99995 v 3 h -6.01001 v -3 h -5.99996 v 3 h -6.01001 v -3 h -6.01001 v 3 h -5.99996 v -3 h -6.01001 v 3 h -6.01001 v -3 h -5.99998 v 3 h -6.00998 v -3 h -6.00023 v 3 h -6.01001 v -3 h -6.00974 v 3 h -6.00022 v -3 h -6.01001 v 3 h -5.99996 v -3 h -6.01001 v 3 h -6.00993 v -3 h -6.00001 v 3 h -6.00998 v -3 h -6.00001 v 3 h -6.01001 v -3 h -6.00999 v 3 h -6.00001 v -3 h -6.00998 v 3 h -6.00001 v -3 h -6.01001 v 3 h -6.00998 v -3 h -6.00001 v 3 h -6.01001 v -3 h -5.99998 v 3 h -6.01001 v -3 h -6.00999 v 3 h -6.00001 v -3 h -6.01001 v 3 h -5.99998 v -3 h -6.01001 v 3 H 6.13133 v -3 H 0.13135 v 3 h -6.01001 v -3 h -6.00001 v 3 h -6.00999 v -3 h -6.01001 v 3 h -5.99998 v -3 h -6.01001 v 3 h -6.00001 v -3 h -6.00998 v 3 h -6.01001 v -3 h -5.99999 v 3 h -6.01001" />
  </g>
</svg>
