<?xml version="1.0" encoding="UTF-8" standalone="no"?>
<!-- Created with Inkscape (http://www.inkscape.org/) -->

<svg
   width="146.22522mm"
   height="99.999817mm"
   viewBox="0 0 146.22522 99.999817"
   version="1.1"
   id="svg5"
   inkscape:version="1.1.2 (0a00cf5339, 2022-02-04, custom)"
   sodipodi:docname="be.svg"
   xmlns:inkscape="http://www.inkscape.org/namespaces/inkscape"
   xmlns:sodipodi="http://sodipodi.sourceforge.net/DTD/sodipodi-0.dtd"
   xmlns="http://www.w3.org/2000/svg"
   xmlns:svg="http://www.w3.org/2000/svg">
  <sodipodi:namedview
     id="namedview7"
     pagecolor="#ffffff"
     bordercolor="#666666"
     borderopacity="1.0"
     inkscape:pageshadow="2"
     inkscape:pageopacity="0.0"
     inkscape:pagecheckerboard="0"
     inkscape:document-units="mm"
     showgrid="false"
     inkscape:zoom="0.74208053"
     inkscape:cx="270.86009"
     inkscape:cy="201.46062"
     inkscape:current-layer="layer1"
     fit-margin-top="0"
     fit-margin-left="0"
     fit-margin-right="0"
     fit-margin-bottom="0" />
  <defs
     id="defs2" />
  <g
     inkscape:label="Layer 1"
     inkscape:groupmode="layer"
     id="layer1"
     transform="translate(-32.994506,-95.151213)">
    <g
       aria-label="Be"
       id="text1442"
       style="font-size:153.276px;line-height:1.25;stroke-width:3.83191">
      <path
         d="m 98.136806,132.2951 q 1.226208,0.15327 2.145864,0.15327 1.07293,-0.15327 1.99259,0.15328 7.35725,1.37948 11.95553,5.82449 4.59828,4.445 6.74414,11.34242 0.76638,2.14587 1.22621,2.60569 0.45983,0.30656 2.60569,0.30656 1.07293,0 1.99259,0 1.07293,-0.15328 2.14586,-0.15328 2.29914,0 3.8319,1.53276 0.45983,0.30655 0.91966,0.76638 0.45983,0.45983 0.15327,1.07293 -0.15327,0.76638 -0.76638,0.91966 -0.45982,0 -1.07293,0 h -2.60569 q -1.37948,-0.15328 -2.75897,-0.15328 -1.37948,0 -2.91224,0 -1.37949,-0.15327 -1.68604,0.15328 -0.15327,0.30655 -0.45983,1.68603 -0.91965,9.34984 -6.28431,17.01364 -4.90483,7.51052 -11.64898,12.41536 -6.590866,4.90483 -15.63415,6.59086 -5.36466,1.07294 -10.422768,0.30656 -4.904832,-0.76638 -9.656388,-3.8319 -1.53276,-1.22621 -2.912244,-2.45242 -1.226208,-1.22621 -2.145864,-2.91224 -3.06552,-5.21139 0.306552,-9.96294 1.379484,-1.83932 0.153276,-3.37208 -1.839312,-2.60569 -2.758968,-5.51793 -0.919656,-3.06552 -1.379484,-6.13104 -1.226208,-7.81708 -1.686036,-15.63415 -0.306552,-7.81708 0.459828,-15.78743 0.306552,-2.14587 0.306552,-3.98518 0.153276,-1.99259 0.459828,-4.13845 -0.76638,0 -0.919656,0.15328 -3.218796,2.29914 -6.437592,4.75155 -3.06552,2.45242 -5.977764,5.36466 -4.445004,4.90483 -6.437592,10.8826 -0.459828,1.68603 -0.306552,3.98517 0.306552,2.14587 1.072932,4.44501 0.919656,2.14586 2.29914,3.98517 1.53276,1.68604 3.525348,2.45242 0.306552,0 0.76638,0.45983 0.459828,0.30655 0.459828,0.76638 -0.153276,0.30655 -0.76638,0.6131 -0.613104,0 -1.226208,0 -0.613104,0 -1.226208,-0.30655 -1.992588,-0.6131 -3.678624,-1.68604 -1.53276,-1.2262 -2.758968,-2.75896 -4.138452,-5.36466 -4.138452,-11.03588 0.153276,-5.67121 4.138452,-10.88259 3.372072,-4.44501 8.123628,-7.81708 3.218796,-2.45241 6.437592,-4.75155 3.218796,-2.29914 6.437592,-4.59828 1.992588,-1.53276 2.452416,-3.98518 0.613104,-2.75897 1.53276,-5.36466 1.072932,-2.60569 2.758968,-5.05811 l 0.919656,-1.379483 q 4.445004,-5.058108 9.96294,-1.379484 3.06552,2.145867 1.839312,6.437597 -0.153276,0.91965 -0.76638,1.68603 -1.226208,1.68604 -1.839312,3.67863 -0.459828,1.99258 -0.76638,4.13845 -0.306552,3.52535 -0.613104,6.89742 -0.306552,3.37207 -0.613104,6.89742 0,0.45983 0,0.91965 0,0.30656 0.306552,0.91966 0.306552,-0.76638 0.459828,-1.37948 0.153276,-0.61311 0.306552,-1.37949 1.686036,-6.59087 3.985176,-12.72191 2.452416,-6.13104 5.977764,-11.95552 1.226208,-2.145869 2.912244,-3.525353 1.686036,-1.379484 3.8319,-2.452416 0.919656,-0.459828 1.839312,-0.76638 1.072932,-0.306552 2.145864,-0.153276 3.678624,0.306552 6.897416,1.686036 3.2188,1.226208 5.82449,3.831899 4.59828,5.05811 2.91225,11.64898 -1.37949,5.82449 -4.90484,10.72932 -1.68603,2.29914 -3.52534,4.59828 -1.68604,2.14586 -3.831904,4.59828 z M 77.29127,154.97995 h 0.153276 q 0.153276,1.68603 0.153276,3.37207 0,1.68603 0.306552,3.37207 0.153276,1.68604 0.306552,1.83931 0.306552,0.15328 1.686036,-0.6131 1.226208,-0.61311 2.452416,-1.07293 1.226208,-0.61311 2.452416,-1.07294 5.058108,-2.14586 10.116216,-3.67862 5.21138,-1.68604 10.57604,-3.2188 0.61311,-0.15327 1.07294,-0.15327 0.6131,-0.15328 0.91965,-0.91966 0.76638,-2.60569 1.07293,-5.05811 0.30656,-2.60569 -0.45982,-5.21138 -0.30656,-1.37948 -0.76638,-1.68604 -0.45983,-0.45982 -1.83932,-0.6131 -4.29172,-0.45983 -9.04328,1.07293 -5.36466,1.53276 -9.809664,4.44501 -4.445004,2.75896 -8.736732,5.97776 -0.613104,0.45983 -0.613104,1.37948 z m 0.153276,-13.48829 q 0.76638,-0.15328 1.226208,-0.61311 0.459828,-0.45982 0.919656,-0.76638 4.904832,-4.29172 8.583456,-9.34983 3.8319,-5.05811 6.89742,-10.72932 1.072932,-2.14587 1.992588,-4.44501 0.919656,-2.29914 1.53276,-4.75155 0.306552,-1.83931 0.459828,-3.67863 0.306552,-1.83931 -0.306552,-3.67862 -0.459828,-1.53276 -0.919656,-1.83931 -0.459828,-0.30655 -1.992588,0.30655 -4.59828,1.68604 -7.510524,6.13104 -5.36466,7.51052 -7.817076,15.9407 -2.29914,8.27691 -3.06552,17.47347 z m 27.283124,18.08657 q -1.53276,0.15327 -2.29914,0.6131 -2.452412,0.76638 -4.904828,1.53276 -2.29914,0.6131 -4.59828,1.53276 -2.758968,0.91966 -5.36466,2.14586 -2.605692,1.22621 -5.211384,2.6057 -1.992588,1.2262 -2.912244,2.60569 -0.919656,1.22621 -0.459828,3.8319 0.459828,2.29914 -0.76638,3.37207 -1.072932,0.91966 -2.912244,1.07293 -0.76638,0 -1.686036,-0.15327 -0.76638,-0.15328 -1.53276,-0.30656 -1.072932,-0.30655 -1.686036,0.45983 -1.686036,2.14587 -1.839312,4.59828 0,1.83931 1.839312,1.99259 1.072932,0 1.992588,0 1.072932,0 2.145864,-0.30655 6.744144,-1.53276 12.108804,-4.90483 5.36466,-3.37208 9.809664,-8.27691 2.605692,-2.60569 4.59828,-5.67121 2.14586,-3.06552 3.67862,-6.74414 z"
         style="font-family:'Hello Valentica';-inkscape-font-specification:'Hello Valentica'"
         id="path3042" />
      <path
         d="m 128.02554,166.16909 q 0,-9.19656 3.67863,-17.93329 1.53276,-3.37207 3.37207,-6.28431 1.99259,-3.06552 5.05811,-5.36466 7.81707,-5.97777 17.47346,-3.2188 5.21139,1.53276 7.0507,5.36466 1.99259,3.8319 1.53276,7.81708 -1.37949,9.65638 -7.97035,16.70708 -5.82449,5.97776 -14.1014,5.97776 -2.14586,0.15328 -2.45241,0.45983 -0.30655,0.15328 0,2.29914 0.45983,3.2188 1.22621,6.28432 0.76638,3.06552 2.45241,5.82449 1.07293,1.83931 2.75897,3.8319 1.83931,1.83931 3.67862,0.91965 1.68604,-0.45983 3.06552,-1.07293 1.37949,-0.6131 2.6057,-1.68604 2.14586,-1.68603 3.8319,-3.52534 1.83931,-1.99259 3.37207,-4.29173 3.52535,-5.51794 6.28431,-11.34243 2.75897,-5.82448 4.59828,-12.26208 0.30656,-0.6131 0.45983,-1.07293 0.61311,-1.07293 1.99259,-0.91965 1.22621,0.30655 1.22621,1.68603 v 1.53276 q -1.83931,8.27691 -5.05811,15.63415 -3.06552,7.35725 -8.12363,14.25467 -0.91965,1.37949 -2.14586,2.60569 -1.22621,1.07294 -2.45242,2.14587 -3.37207,3.06552 -7.35725,3.52535 -3.8319,0.6131 -7.97035,-0.30656 -7.05069,-1.68603 -11.03587,-6.13104 -3.98518,-4.59828 -5.97776,-11.18914 -0.76638,-2.45242 -1.07294,-4.90484 -0.30655,-2.60569 0,-5.36466 z m 13.48829,-1.83931 v 0.76638 q 0,1.22621 0.15328,1.53276 0.30655,0.15328 1.53276,-0.15327 2.91224,-0.45983 4.90483,-1.99259 4.90483,-3.52535 7.6638,-8.12363 2.91224,-4.59828 3.67862,-10.57604 0.30656,-3.67863 -1.53276,-6.74415 -1.2262,-2.14586 -3.37207,-0.91965 -2.60569,1.2262 -4.59828,3.8319 -4.13845,4.90483 -5.97776,10.57604 -1.68604,5.67121 -2.45242,11.80225 z"
         style="font-family:'Hello Valentica';-inkscape-font-specification:'Hello Valentica'"
         id="path3044" />
    </g>
  </g>
</svg>
