<?xml version="1.0" encoding="UTF-8" standalone="no"?>
<!-- Created with Inkscape (http://www.inkscape.org/) -->

<svg
   width="294.55505mm"
   height="74.720848mm"
   viewBox="0 0 294.55505 74.720849"
   version="1.1"
   id="svg12211"
   inkscape:version="1.1.2 (0a00cf5339, 2022-02-04, custom)"
   sodipodi:docname="segment_and_side_a.svg"
   xmlns:inkscape="http://www.inkscape.org/namespaces/inkscape"
   xmlns:sodipodi="http://sodipodi.sourceforge.net/DTD/sodipodi-0.dtd"
   xmlns="http://www.w3.org/2000/svg"
   xmlns:svg="http://www.w3.org/2000/svg">
  <sodipodi:namedview
     id="namedview12213"
     pagecolor="#ffffff"
     bordercolor="#666666"
     borderopacity="1.0"
     inkscape:pageshadow="2"
     inkscape:pageopacity="0.0"
     inkscape:pagecheckerboard="0"
     inkscape:document-units="mm"
     showgrid="false"
     fit-margin-top="0"
     fit-margin-left="0"
     fit-margin-right="0"
     fit-margin-bottom="0"
     inkscape:zoom="1.0494603"
     inkscape:cx="169.61098"
     inkscape:cy="163.41732"
     inkscape:current-layer="g15146"
     showguides="true"
     inkscape:guide-bbox="true">
    <sodipodi:guide
       position="-93.104399,0.13214658"
       orientation="1,0"
       id="guide17571" />
    <sodipodi:guide
       position="-87.094389,23.132147"
       orientation="0,-1"
       id="guide17573" />
    <sodipodi:guide
       position="-99.104378,28.093497"
       orientation="1,0"
       id="guide17641" />
  </sodipodi:namedview>
  <defs
     id="defs12208">
    <inkscape:path-effect
       effect="fill_between_many"
       method="originald"
       linkedpaths="#path11868,0,1"
       id="path-effect15845"
       is_visible="true"
       lpeversion="0"
       join="true"
       close="true"
       autoreverse="true"
       applied="false" />
  </defs>
  <g
     inkscape:label="Layer 1"
     inkscape:groupmode="layer"
     id="layer1"
     transform="translate(372.94439,-163.50285)">
    <g
       id="g15180"
       transform="translate(-0.05057)">
      <path
         id="path10414"
         style="fill:none;stroke:#000000;stroke-width:0.264583px;stroke-linecap:butt;stroke-linejoin:miter;stroke-opacity:1"
         d="m -234.63131,209.99638 h 6.00006 m 0,0 v 5.09503 h -6.00005 v -5.09503 0" />
      <path
         id="path5691"
         style="fill:none;stroke:#000000;stroke-width:0.344806px;stroke-linecap:butt;stroke-linejoin:miter;stroke-opacity:1"
         d="m -360.75151,209.99638 v 5.09503 h -6.00001 v -5.09503 0" />
      <path
         id="path5693"
         style="fill:none;stroke:#000000;stroke-width:0.344806px;stroke-linecap:butt;stroke-linejoin:miter;stroke-opacity:1"
         d="m -348.74151,209.99638 v 5.09503 h -6.00001 v -5.09503 0" />
      <path
         id="path5695"
         style="fill:none;stroke:#000000;stroke-width:0.344806px;stroke-linecap:butt;stroke-linejoin:miter;stroke-opacity:1"
         d="m -336.72151,209.99638 v 5.09503 h -6.01002 v -5.09503 0" />
      <path
         id="path5697"
         style="fill:none;stroke:#000000;stroke-width:0.344806px;stroke-linecap:butt;stroke-linejoin:miter;stroke-opacity:1"
         d="m -324.7115,209.99638 v 5.09503 h -6.01 v -5.09503 0" />
      <path
         id="path5699"
         style="fill:none;stroke:#000000;stroke-width:0.344806px;stroke-linecap:butt;stroke-linejoin:miter;stroke-opacity:1"
         d="m -312.70147,209.99638 v 5.09503 h -6.01002 v -5.09503 0" />
      <path
         id="path5701"
         style="fill:none;stroke:#000000;stroke-width:0.344806px;stroke-linecap:butt;stroke-linejoin:miter;stroke-opacity:1"
         d="m -300.69141,209.99638 v 5.09503 h -6.00005 v -5.09503 0" />
      <path
         style="fill:none;stroke:#000000;stroke-width:0.264583px;stroke-linecap:butt;stroke-linejoin:miter;stroke-opacity:1"
         d="m -366.75152,209.99638 h 6.00001"
         id="path5703" />
      <path
         style="fill:none;stroke:#000000;stroke-width:0.264583px;stroke-linecap:butt;stroke-linejoin:miter;stroke-opacity:1"
         d="m -354.74152,209.99638 h 6.00001"
         id="path5705" />
      <path
         style="fill:none;stroke:#000000;stroke-width:0.264583px;stroke-linecap:butt;stroke-linejoin:miter;stroke-opacity:1"
         d="m -342.73153,209.99638 h 6.01002"
         id="path5707" />
      <path
         style="fill:none;stroke:#000000;stroke-width:0.264583px;stroke-linecap:butt;stroke-linejoin:miter;stroke-opacity:1"
         d="m -330.7215,209.99638 h 6.01"
         id="path5709" />
      <path
         style="fill:none;stroke:#000000;stroke-width:0.264583px;stroke-linecap:butt;stroke-linejoin:miter;stroke-opacity:1"
         d="m -318.71149,209.99638 h 6.01002"
         id="path5711" />
      <path
         style="fill:none;stroke:#000000;stroke-width:0.264583px;stroke-linecap:butt;stroke-linejoin:miter;stroke-opacity:1"
         d="m -306.69146,209.99638 h 6.00005"
         id="path5713" />
      <path
         style="fill:none;stroke:#000000;stroke-width:0.187088px;stroke-linecap:butt;stroke-linejoin:miter;stroke-opacity:1"
         d="m -300.69143,238.09141 h 3.005"
         id="path8144" />
      <path
         id="path11577"
         style="fill:none;stroke:#000000;stroke-width:0.264583px;stroke-linecap:butt;stroke-linejoin:miter;stroke-opacity:1"
         d="m -300.69143,207.99607 v 0" />
      <path
         id="path10404"
         style="fill:none;stroke:#000000;stroke-width:0.264583px;stroke-linecap:butt;stroke-linejoin:miter;stroke-opacity:1"
         d="m -294.69136,209.99638 h 6.00001 m 0,0 v 5.09503 h -6.00001 v -5.09503 0" />
      <path
         id="path10406"
         style="fill:none;stroke:#000000;stroke-width:0.264583px;stroke-linecap:butt;stroke-linejoin:miter;stroke-opacity:1"
         d="m -282.68136,209.99638 h 6.00001 m 0,0 v 5.09503 h -6.00001 v -5.09503 0" />
      <path
         id="path10408"
         style="fill:none;stroke:#000000;stroke-width:0.264583px;stroke-linecap:butt;stroke-linejoin:miter;stroke-opacity:1"
         d="m -270.67137,209.99638 h 6.01002 m 0,0 v 5.09503 h -6.01002 v -5.09503 0" />
      <path
         id="path10410"
         style="fill:none;stroke:#000000;stroke-width:0.264583px;stroke-linecap:butt;stroke-linejoin:miter;stroke-opacity:1"
         d="m -258.66134,209.99638 h 6.01 m 0,0 v 5.09503 h -6.01 v -5.09503 0" />
      <path
         id="path10412"
         style="fill:none;stroke:#000000;stroke-width:0.264583px;stroke-linecap:butt;stroke-linejoin:miter;stroke-opacity:1"
         d="m -246.65133,209.99638 h 6.01002 v 0 m 0,0 v 5.09503 h -6.01002 v -5.09503 0" />
      <path
         id="path10612"
         style="fill:none;stroke:#000000;stroke-width:0.264583px;stroke-linecap:butt;stroke-linejoin:miter;stroke-opacity:1"
         d="m -162.57115,209.99638 h 6.00006 m 0,0 v 5.09503 h -6.00005 v -5.09503 0" />
      <path
         id="path10614"
         style="fill:none;stroke:#000000;stroke-width:0.264583px;stroke-linecap:butt;stroke-linejoin:miter;stroke-opacity:1"
         d="m -222.6312,209.99638 h 6.00001 m 0,0 v 5.09503 h -6.00001 v -5.09503 0" />
      <path
         id="path10616"
         style="fill:none;stroke:#000000;stroke-width:0.264583px;stroke-linecap:butt;stroke-linejoin:miter;stroke-opacity:1"
         d="m -210.6212,209.99638 h 6.00001 m 0,0 v 5.09503 h -6.00001 v -5.09503 0" />
      <path
         id="path10618"
         style="fill:none;stroke:#000000;stroke-width:0.264583px;stroke-linecap:butt;stroke-linejoin:miter;stroke-opacity:1"
         d="m -198.61121,209.99638 h 6.01002 m 0,0 v 5.09503 h -6.01002 v -5.09503 0" />
      <path
         id="path10620"
         style="fill:none;stroke:#000000;stroke-width:0.264583px;stroke-linecap:butt;stroke-linejoin:miter;stroke-opacity:1"
         d="m -186.60118,209.99638 h 6.01 m 0,0 v 5.09503 h -6.01 v -5.09503 0" />
      <path
         id="path10622"
         style="fill:none;stroke:#000000;stroke-width:0.264583px;stroke-linecap:butt;stroke-linejoin:miter;stroke-opacity:1"
         d="m -174.59117,209.99638 h 6.01002 v 0 m 0,0 v 5.09503 h -6.01002 v -5.09503 0" />
      <path
         id="path10624"
         style="fill:none;stroke:#000000;stroke-width:0.264583px;stroke-linecap:butt;stroke-linejoin:miter;stroke-opacity:1"
         d="m -138.55102,209.99638 h 6.00006 m 0,0 v 5.09503 h -6.00005 v -5.09503 0" />
      <path
         id="path10626"
         style="fill:none;stroke:#000000;stroke-width:0.264583px;stroke-linecap:butt;stroke-linejoin:miter;stroke-opacity:1"
         d="m -150.57104,209.99638 h 6.01002 v 0 m 0,0 v 5.09503 h -6.01002 v -5.09503 0" />
      <path
         id="path10630"
         style="fill:none;stroke:#000000;stroke-width:0.264583px;stroke-linecap:butt;stroke-linejoin:miter;stroke-opacity:1"
         d="m -126.55091,209.99638 h 6.00001 m 0,0 v 5.09503 h -6.00001 v -5.09503 0" />
      <path
         id="path10632"
         style="fill:none;stroke:#000000;stroke-width:0.264583px;stroke-linecap:butt;stroke-linejoin:miter;stroke-opacity:1"
         d="m -114.54091,209.99638 h 6.00001 m 0,0 v 5.09503 h -6.00001 v -5.09503 0" />
      <path
         id="path10634"
         style="fill:none;stroke:#000000;stroke-width:0.264583px;stroke-linecap:butt;stroke-linejoin:miter;stroke-opacity:1"
         d="m -102.53092,209.99638 h 6.01002 m 0,0 v 5.09503 h -6.01002 v -5.09503 0" />
      <path
         inkscape:original-d="M 0,0"
         inkscape:path-effect="#path-effect15845"
         d="m -84.48109,205.94322 -0.0298,4.05316 z"
         id="path15847" />
      <path
         id="path11868"
         style="fill:none;stroke:#000000;stroke-width:0.264583px;stroke-linecap:butt;stroke-linejoin:miter;stroke-opacity:1"
         d="m -84.48109,205.94322 -0.0298,4.05316 m -216.18053,-4.05316 216.21033,0.053 m -216.21034,-0.053 h -66.06013 m 288.28049,29.14819 v -12.24205 m 0.0471,0 h -6.05712 l -0.0298,-7.75795 h -6.01 v -5.09503 h 6.01 m -72.04029,25.09503 v 0 3 h 6.01 v -3 0 h 6.00002 v 3 h 6.00998 v -3 h 6.00001 v 3 h 6.00999 v -3 h 6.01001 v 3 h 6.00002 v -3 h 6.00999 v 3 h 6.00001 v -3 h 6.01002 v 3 h 6.01002 v -3 h 6.00004 v 3 h 6.01001 v -3 m -288.28048,0 v 0 0 h 6.00002 v 3 h 6.00998 v -3 h 6.00001 v 3 h 6.00999 v -3 h 6.01001 v 3 h 6.00002 v -3 h 6.00999 v 3 h 6.00001 v -3 h 6.01002 v 3 h 6.01002 v -3 h 6.00004 v 3 h 6.01001 v -3 m 66.06012,0 v 0 3 h 6.01 v -3 0 h 6.00002 v 3 h 6.00998 v -3 h 6.00001 v 3 h 6.00999 v -3 h 6.01001 v 3 h 6.00002 v -3 h 6.00999 v 3 h 6.00001 v -3 h 6.01002 v 3 h 6.01002 v -3 h 6.00004 v 3 h 6.01001 v -3 m -150.15024,0 v 0 3 h 6.01 v -3 0 h 6.00002 v 3 h 6.00998 v -3 h 6.00001 v 3 h 6.00999 v -3 h 6.01001 v 3 h 6.00002 v -3 h 6.00999 v 3 h 6.00001 v -3 h 6.01002 v 3 h 6.01002 v -3 h 6.00004 v 3 h 6.01001 v -3 m -144.14026,-29.14819 -6.00997,0.053 v 16.853 m 6.00999,12.24219 2e-5,-12.24205 h -6.01001" />
    </g>
    <g
       id="g15146"
       transform="translate(21.336107,10.273764)">
      <path
         id="path4008"
         style="fill:none;stroke:#000000;stroke-width:0.344806px;stroke-linecap:butt;stroke-linejoin:miter;stroke-opacity:1"
         d="m -370.16639,157.36167 v 5.09503 h -6.00001 v -5.09503 0" />
      <path
         id="path4004"
         style="fill:none;stroke:#000000;stroke-width:0.344806px;stroke-linecap:butt;stroke-linejoin:miter;stroke-opacity:1"
         d="m -358.1564,157.36167 v 5.09503 h -6.00001 v -5.09503 0" />
      <path
         id="path4000"
         style="fill:none;stroke:#000000;stroke-width:0.344806px;stroke-linecap:butt;stroke-linejoin:miter;stroke-opacity:1"
         d="m -346.13641,157.36167 v 5.09503 h -6.01001 v -5.09503 0" />
      <path
         id="path3996"
         style="fill:none;stroke:#000000;stroke-width:0.344806px;stroke-linecap:butt;stroke-linejoin:miter;stroke-opacity:1"
         d="m -334.12641,157.36167 v 5.09503 h -6.00999 v -5.09503 0" />
      <path
         id="path3992"
         style="fill:none;stroke:#000000;stroke-width:0.344806px;stroke-linecap:butt;stroke-linejoin:miter;stroke-opacity:1"
         d="m -322.11639,157.36167 v 5.09503 h -6.01001 v -5.09503 0" />
      <path
         style="fill:none;stroke:#000000;stroke-width:0.264583px;stroke-linecap:butt;stroke-linejoin:miter;stroke-opacity:1"
         d="m -376.1664,157.36167 h 6.00001"
         id="path5013" />
      <path
         style="fill:none;stroke:#000000;stroke-width:0.264583px;stroke-linecap:butt;stroke-linejoin:miter;stroke-opacity:1"
         d="m -364.15641,157.36167 h 6.00001"
         id="path5015" />
      <path
         style="fill:none;stroke:#000000;stroke-width:0.264583px;stroke-linecap:butt;stroke-linejoin:miter;stroke-opacity:1"
         d="m -352.14642,157.36167 h 6.01001"
         id="path5017" />
      <path
         style="fill:none;stroke:#000000;stroke-width:0.264583px;stroke-linecap:butt;stroke-linejoin:miter;stroke-opacity:1"
         d="m -340.1364,157.36167 h 6.00999"
         id="path5019" />
      <path
         style="fill:none;stroke:#000000;stroke-width:0.264583px;stroke-linecap:butt;stroke-linejoin:miter;stroke-opacity:1"
         d="m -328.1264,157.36167 h 6.01001"
         id="path5021" />
      <path
         id="path12834"
         style="fill:none;stroke:#000000;stroke-width:0.264583px;stroke-linecap:butt;stroke-linejoin:miter;stroke-opacity:1"
         d="m -291.7421,159.20051 v 0" />
      <path
         id="path17766"
         style="fill:none;stroke:#000000;stroke-width:0.264583px;stroke-linecap:butt;stroke-linejoin:miter;stroke-opacity:1"
         d="m -382.17641,153.36138 v 0" />
      <path
         id="path17758"
         style="fill:none;stroke:#000000;stroke-width:0.264583px;stroke-linecap:butt;stroke-linejoin:miter;stroke-opacity:1"
         d="m -316.10639,153.36138 h 5.99999" />
      <path
         id="path18282"
         style="fill:none;stroke:#000000;stroke-width:0.264583px;stroke-linecap:butt;stroke-linejoin:miter;stroke-opacity:1"
         d="m -382.17641,153.36138 v 9.09532 h -5.99998 m -10e-6,0 v 7 h -3 v 6 h 3 v 7 h 5.99999 v 3 h 6.01001 v -3 0 h 6.00001 v 3 h 6.00998 v -3 h 6.00001 v 3 h 6.00998 v -3 h 6.01001 v 3 h 6.00001 v -3 h 6.00999 v 3 h 6.00001 v -3 h 6.01001 v 3 h 6.00998 v -3 h 6.00001 v 3 h 6.00998 v -3 m -12.00998,-29.09532 h -66.06986 m 72.06986,0 v 4.0003 h -6.00001 v 5.09503 h 6.00001 m 6.00999,20 2e-5,-12.24205 h -6.01001 m 0,-7.75795 v 7.75781" />
    </g>
  </g>
</svg>
