<?xml version="1.0" encoding="UTF-8" standalone="no"?>
<!-- Created with Inkscape (http://www.inkscape.org/) -->

<svg
   width="200cm"
   height="12cm"
   viewBox="0 0 2000 120"
   version="1.1"
   id="svg5"
   inkscape:version="1.1.2 (0a00cf5339, 2022-02-04)"
   sodipodi:docname="be-excellent-to-each-other-object.svg"
   xmlns:inkscape="http://www.inkscape.org/namespaces/inkscape"
   xmlns:sodipodi="http://sodipodi.sourceforge.net/DTD/sodipodi-0.dtd"
   xmlns="http://www.w3.org/2000/svg"
   xmlns:svg="http://www.w3.org/2000/svg">
  <sodipodi:namedview
     id="namedview7"
     pagecolor="#ffffff"
     bordercolor="#666666"
     borderopacity="1.0"
     inkscape:pageshadow="2"
     inkscape:pageopacity="0.0"
     inkscape:pagecheckerboard="0"
     inkscape:document-units="mm"
     showgrid="false"
     units="cm"
     inkscape:zoom="0.1767767"
     inkscape:cx="4197.3858"
     inkscape:cy="175.36248"
     inkscape:current-layer="layer1" />
  <defs
     id="defs2" />
  <g
     inkscape:label="Layer 1"
     inkscape:groupmode="layer"
     id="layer1">
    <g
       aria-label="Be Excellent to Each Other"
       id="text1043"
       style="font-size:132.743px;line-height:1.25;letter-spacing:11.9468px;fill:none;stroke:#ff0000;stroke-width:0.398229"
       transform="matrix(1.0810995,0,0,1.1047524,-81.149715,-2.9561287)">
      <path
         d="m 102.85722,30.324052 c 1.99114,6.238921 3.7168,12.610585 5.30972,19.114991 0.26548,1.460173 0.66371,2.920346 0.9292,4.380519 0.9292,4.513262 1.99114,9.159267 2.7876,14.070758 0.9292,6.504407 1.59292,13.141556 1.59292,19.51322 v 3.451318 c -0.13275,1.194687 -0.13275,2.123888 -0.13275,2.920346 -0.13274,0.929201 -0.13274,1.858402 -0.13274,2.65486 2.65486,-0.530972 6.23892,-0.929201 10.75218,-1.32743 4.51327,-0.265486 9.29201,-0.663715 14.46899,-1.061944 10.22121,-0.929201 21.37162,-1.991145 29.86717,-4.513262 8.49556,-2.522117 14.46899,-6.371664 14.46899,-12.610584 0,-7.300865 -7.69909,-11.94687 -22.96454,-14.999959 h -0.13274 c 4.11503,-2.123888 7.03538,-3.849547 8.89378,-5.575206 1.8584,-1.725659 2.65486,-3.849547 2.65486,-6.63715 0,-3.849547 -3.58406,-7.699093 -9.02652,-10.884925 -5.44247,-3.185832 -13.00882,-6.106178 -20.84065,-8.495552 -7.96458,-2.389374 -16.32739,-4.247776 -23.62826,-5.442463 z m 24.69019,11.415898 c 7.03538,0 12.87608,1.32743 16.99111,3.185831 4.11503,1.858402 6.23892,4.247776 6.23892,5.973435 0,2.123888 -1.06194,4.247776 -4.11503,5.840692 -3.05309,1.592916 -7.6991,2.65486 -14.99996,2.65486 l -1.19469,-7.035379 c -0.9292,-3.849547 -1.72566,-8.097323 -2.92035,-10.619439 z m 5.44247,26.946828 c 2.52211,0 5.44246,0 8.49555,0.132743 6.10618,0.265486 11.54864,1.194687 15.1327,2.65486 1.72566,0.796458 2.65486,1.725659 2.65486,2.920346 0,1.460173 -1.59292,2.522117 -3.98229,3.451318 -2.38937,1.061944 -5.5752,1.858401 -8.76104,2.389373 -3.7168,0.663715 -7.96458,1.194687 -12.61058,1.592916 z"
         id="path106389"
         style="fill:none" />
      <path
         d="m 236.13115,28.598393 -43.80519,-1.592916 -11.81413,9.159267 c 1.99115,5.30972 4.11504,15.265444 5.8407,26.283113 1.59291,11.017669 2.7876,22.831795 2.7876,31.725576 l 55.48657,-9.424753 6.63715,-15.663673 -45.26536,6.371664 c -0.13274,-3.053089 -0.39823,-6.504407 -0.79646,-10.486697 l 33.18575,-2.920346 1.59292,-12.743328 -35.57513,1.991145 -1.99114,-9.557495 11.68138,-0.398229 c 8.6283,0 16.85836,0.398229 26.01763,0.929201 z"
         id="path106391"
         style="fill:none" />
      <path
         d="m 354.53776,28.598393 -43.80519,-1.592916 -11.81413,9.159267 c 1.99115,5.30972 4.11504,15.265444 5.84069,26.283113 1.59292,11.017669 2.78761,22.831795 2.78761,31.725576 l 55.48657,-9.424753 6.63715,-15.663673 -45.26536,6.371664 c -0.13275,-3.053089 -0.39823,-6.504407 -0.79646,-10.486697 l 33.18575,-2.920346 1.59291,-12.743328 -35.57512,1.991145 -1.99114,-9.557495 11.68138,-0.398229 c 8.6283,0 16.85836,0.398229 26.01763,0.929201 z"
         id="path106393"
         style="fill:none" />
      <path
         d="m 392.23666,28.731136 -17.25659,5.30972 5.04423,6.238921 c 1.59292,1.991145 3.18584,4.115032 4.91149,6.106177 3.31858,4.115033 6.7699,8.097323 10.88493,12.743328 l -26.41586,30.265403 20.44243,-0.132743 c 3.05308,-3.584061 5.84069,-7.168122 8.49555,-10.619439 2.52211,-3.451318 5.04423,-6.504407 7.56635,-9.026524 0.79646,0.796458 1.46017,1.725659 2.25663,2.522117 4.91149,5.707949 10.4867,12.079612 16.46013,19.51322 l 17.9203,-4.911491 -22.43356,-27.610543 c 7.30086,-9.557496 14.86721,-18.982248 21.90259,-27.4778 l -20.97339,1.725659 c -3.05309,4.380519 -6.63715,9.29201 -10.61944,14.867215 z"
         id="path106395"
         style="fill:none" />
      <path
         d="m 483.43103,21.297528 c -7.30086,0 -15.1327,2.389374 -21.37162,7.566351 -6.23892,5.30972 -10.61944,13.539786 -10.61944,24.82294 0,11.283155 3.58406,20.840651 10.4867,27.610543 6.90263,6.769893 17.12384,10.61944 30.79637,10.61944 9.02652,0 16.59288,-2.389374 23.23003,-6.106178 6.63715,-3.716804 11.94687,-9.026523 17.12384,-14.867215 l -21.63711,1.991145 c -2.52211,3.849547 -6.63715,6.504406 -16.85836,6.504406 -8.49555,0 -14.07075,-3.982289 -17.65482,-9.955724 -3.7168,-5.840692 -5.04423,-13.672529 -5.04423,-21.23888 0,-7.964579 4.38052,-14.468986 10.22121,-14.468986 3.18583,0 6.10618,1.725659 8.36281,4.380519 2.25663,2.65486 4.11503,6.23892 5.57521,9.557495 1.72566,4.115033 3.05309,8.761038 4.24777,13.938015 l 17.12385,-6.63715 c -2.25663,-12.345098 -7.03538,-20.84065 -12.87607,-26.15037 -5.97344,-5.30972 -13.53979,-7.566351 -21.10614,-7.566351 z"
         id="path106397"
         style="fill:none" />
      <path
         d="m 583.38654,28.598393 -43.80519,-1.592916 -11.81412,9.159267 c 1.99114,5.30972 4.11503,15.265444 5.84069,26.283113 1.59292,11.017669 2.7876,22.831795 2.7876,31.725576 l 55.48657,-9.424753 6.63715,-15.663673 -45.26536,6.371664 c -0.13274,-3.053089 -0.39823,-6.504407 -0.79645,-10.486697 l 33.18574,-2.920346 1.59292,-12.743328 -35.57512,1.991145 -1.99115,-9.557495 11.68139,-0.398229 c 8.62829,0 16.85836,0.398229 26.01762,0.929201 z"
         id="path106399"
         style="fill:none" />
      <path
         d="m 601.04122,31.518739 c 1.99115,5.30972 4.24778,16.460131 6.10618,28.539744 1.8584,12.212356 3.05309,25.221169 3.05309,34.11495 0.26548,0 5.5752,-0.132743 15.92916,-0.530972 l 35.30963,-6.769893 5.57521,-16.460131 -38.49547,5.575206 c -2.38937,-20.575165 -5.44246,-37.168039 -9.29201,-50.04411 z"
         id="path106401"
         style="fill:none" />
      <path
         d="m 663.03225,31.518739 c 1.99114,5.30972 4.24778,16.460131 6.10618,28.539744 1.8584,12.212356 3.05309,25.221169 3.05309,34.11495 0.26548,0 5.5752,-0.132743 15.92916,-0.530972 l 35.30963,-6.769893 5.57521,-16.460131 -38.49547,5.575206 c -2.38937,-20.575165 -5.44246,-37.168039 -9.29201,-50.04411 z"
         id="path106403"
         style="fill:none" />
      <path
         d="m 779.31516,28.598393 -43.80519,-1.592916 -11.81412,9.159267 c 1.99114,5.30972 4.11503,15.265444 5.84069,26.283113 1.59291,11.017669 2.7876,22.831795 2.7876,31.725576 l 55.48657,-9.424753 6.63715,-15.663673 -45.26536,6.371664 c -0.13274,-3.053089 -0.39823,-6.504407 -0.79646,-10.486697 l 33.18575,-2.920346 1.59292,-12.743328 -35.57512,1.991145 -1.99115,-9.557495 11.68139,-0.398229 c 8.62829,0 16.85836,0.398229 26.01762,0.929201 z"
         id="path106405"
         style="fill:none" />
      <path
         d="m 849.40335,18.377182 c 0,0 0,0.796458 0.13275,2.522117 l 0.39823,6.63715 c 0.26548,5.575206 0.66371,13.008814 1.72566,20.707907 0.9292,7.699094 2.38937,15.663674 4.646,22.035338 -6.23892,-8.628295 -13.67253,-17.787562 -21.10614,-25.884885 -7.4336,-7.964579 -14.86721,-15.398187 -20.7079,-20.84065 l -15.26545,5.442463 c 3.84955,9.424753 5.97344,19.778706 7.16812,29.601688 1.06195,9.822982 1.19469,19.247735 1.19469,26.15037 v 3.451318 c -0.13274,1.194687 -0.13274,2.123888 -0.13274,2.920346 -0.13274,0.929201 -0.13274,1.858402 -0.13274,2.65486 l 22.16808,-4.247776 c 0,-2.920346 -0.13275,-6.106178 -0.26549,-9.424753 -0.39823,-6.637149 -0.9292,-12.477841 -1.46017,-16.327388 -0.26549,-1.858402 -0.39823,-2.920346 -0.53098,-3.053089 3.58407,3.716804 7.16813,7.699094 10.75219,11.814127 5.97343,7.035378 13.40704,16.592874 18.58402,26.15037 l 18.45127,-4.247776 -1.59291,-14.867216 c -1.06195,-10.486696 -1.99115,-21.371622 -2.65486,-31.858319 -0.66372,-10.486696 -1.06195,-19.778706 -1.06195,-27.079571 0,-3.584061 0.13275,-6.504407 0.39823,-8.628295 z"
         id="path106407"
         style="fill:none" />
      <path
         d="m 914.31461,34.306342 c -5.84069,0 -10.88492,0.265486 -14.99995,0.663715 -8.36281,0.929201 -13.80528,1.858402 -17.65482,3.318575 l -3.84955,13.141556 c 1.99115,-0.530972 4.24778,-0.929201 6.76989,-1.32743 4.38052,-0.663715 10.61944,-1.32743 18.71677,-1.32743 0,10.61944 0,26.283114 3.58406,43.937932 1.99114,-0.398229 3.98229,-0.663715 6.5044,-1.061944 1.19469,-0.132743 2.52212,-0.398229 3.84955,-0.663715 l 10.35395,-1.858402 c -2.52211,-12.477841 -3.31857,-22.433566 -3.31857,-30.13266 0,-4.380519 0.26549,-8.097323 0.66371,-11.150412 h 1.06195 c 0.66371,0.132743 1.59291,0.132743 2.7876,0.132743 2.25663,0.132743 5.44246,0.265486 8.49555,0.265486 l 12.21236,0.265486 2.7876,-12.87607 c -3.05309,-0.132743 -6.37166,-0.398229 -10.22121,-0.663715 -6.76989,-0.398229 -16.0619,-0.663715 -27.74329,-0.663715 z"
         id="path106409"
         style="fill:none" />
      <path
         d="m 1025.2876,34.306342 c -5.8407,0 -10.8849,0.265486 -14.9999,0.663715 -8.3628,0.929201 -13.80529,1.858402 -17.65484,3.318575 l -3.84955,13.141556 c 1.99115,-0.530972 4.24778,-0.929201 6.7699,-1.32743 4.38052,-0.663715 10.61939,-1.32743 18.71679,-1.32743 0,10.61944 0,26.283114 3.584,43.937932 1.9912,-0.398229 3.9823,-0.663715 6.5044,-1.061944 1.1947,-0.132743 2.5222,-0.398229 3.8496,-0.663715 l 10.3539,-1.858402 c -2.5221,-12.477841 -3.3185,-22.433566 -3.3185,-30.13266 0,-4.380519 0.2654,-8.097323 0.6637,-11.150412 h 1.0619 c 0.6637,0.132743 1.5929,0.132743 2.7876,0.132743 2.2567,0.132743 5.4425,0.265486 8.4956,0.265486 l 12.2123,0.265486 2.7876,-12.87607 c -3.0531,-0.132743 -6.3716,-0.398229 -10.2212,-0.663715 -6.7699,-0.398229 -16.0619,-0.663715 -27.7433,-0.663715 z"
         id="path106411"
         style="fill:none" />
      <path
         d="m 1096.305,32.315197 c -9.6902,0 -18.3185,2.389374 -24.5574,7.035379 -6.3717,4.778748 -10.2212,11.946869 -10.2212,21.504365 0,4.778748 1.3274,11.150412 5.8407,16.327389 4.5132,5.309719 12.0796,9.292009 24.9557,9.292009 11.0176,0 19.5132,-3.185832 25.3539,-8.362808 5.7079,-5.176977 8.761,-12.345099 8.761,-20.176936 0,-7.831837 -3.4513,-14.2035 -8.8938,-18.716762 -5.4424,-4.513262 -13.1415,-6.902636 -21.2389,-6.902636 z m -1.7256,12.610584 c 5.7079,0 11.0177,4.646005 11.0177,13.539786 0,8.893781 -2.9204,15.530931 -11.0177,15.530931 -9.0265,0 -11.6814,-5.442463 -11.6814,-13.938015 0,-9.557496 4.7787,-15.132702 11.6814,-15.132702 z"
         id="path106413"
         style="fill:none" />
      <path
         d="m 1235.5523,28.598393 -43.8052,-1.592916 -11.8141,9.159267 c 1.9911,5.30972 4.115,15.265444 5.8407,26.283113 1.5929,11.017669 2.7876,22.831795 2.7876,31.725576 l 55.4865,-9.424753 6.6372,-15.663673 -45.2654,6.371664 c -0.1327,-3.053089 -0.3982,-6.504407 -0.7964,-10.486697 l 33.1857,-2.920346 1.5929,-12.743328 -35.5751,1.991145 -1.9911,-9.557495 11.6813,-0.398229 c 8.6283,0 16.8584,0.398229 26.0177,0.929201 z"
         id="path106415"
         style="fill:none" />
      <path
         d="m 1283.2068,20.368327 c -2.5221,7.831837 -5.0442,15.265445 -8.6282,23.893739 -3.7168,8.628295 -7.6991,17.123847 -12.3451,25.088427 -4.7788,7.96458 -8.8938,14.468986 -13.2743,20.973393 l 17.7875,10.221214 11.6814,-19.513224 20.9734,-0.929201 10.6194,19.114992 23.2301,2.787603 c -5.708,-10.61944 -10.6195,-22.300824 -14.469,-32.522034 -3.8496,-10.221211 -6.6372,-18.982249 -8.0974,-24.159226 -3.1858,-10.752182 -6.1061,-20.442421 -6.1061,-29.601688 z m -0.9292,49.247652 9.1593,-18.982249 6.2389,18.185791 z"
         id="path106417"
         style="fill:none" />
      <path
         d="m 1364.4456,21.297528 c -7.3009,0 -15.1327,2.389374 -21.3717,7.566351 -6.2389,5.30972 -10.6194,13.539786 -10.6194,24.82294 0,11.283155 3.5841,20.840651 10.4867,27.610543 6.9026,6.769893 17.1238,10.61944 30.7964,10.61944 9.0265,0 16.5928,-2.389374 23.23,-6.106178 6.6371,-3.716804 11.9469,-9.026523 17.1238,-14.867215 l -21.6371,1.991145 c -2.5221,3.849547 -6.6371,6.504406 -16.8583,6.504406 -8.4956,0 -14.0708,-3.982289 -17.6548,-9.955724 -3.7169,-5.840692 -5.0443,-13.672529 -5.0443,-21.23888 0,-7.964579 4.3805,-14.468986 10.2212,-14.468986 3.1859,0 6.1062,1.725659 8.3628,4.380519 2.2567,2.65486 4.1151,6.23892 5.5752,9.557495 1.7257,4.115033 3.0531,8.761038 4.2478,13.938015 l 17.1239,-6.63715 c -2.2567,-12.345098 -7.0354,-20.84065 -12.8761,-26.15037 -5.9734,-5.30972 -13.5398,-7.566351 -21.1061,-7.566351 z"
         id="path106419"
         style="fill:none" />
      <path
         d="m 1413.6932,31.253253 c 0,1.991145 0,3.98229 0,6.106178 0,5.442463 0.1328,10.884925 0.2655,16.327388 0.1327,6.371664 0.531,13.2743 1.0619,20.176936 0.531,6.902635 1.3275,13.672528 2.3894,19.380477 l 9.292,-1.592916 c 2.2567,-0.398229 4.3805,-0.796458 6.2389,-1.194687 l 2.6549,-0.398229 c -0.9292,-6.238921 -1.5929,-12.87607 -1.9911,-19.247734 l 17.7875,-1.32743 c 0.3983,9.557496 1.3275,19.247734 2.7876,26.814085 l 9.292,-1.592916 c 2.2567,-0.398229 4.3806,-0.796458 6.239,-1.194687 l 2.6548,-0.398229 c -1.0619,-7.168122 -1.7256,-14.601729 -2.1239,-22.433566 -0.3982,-9.159267 -0.6637,-17.787562 -0.6637,-26.283114 0,-5.840691 0.1328,-11.54864 0.3982,-17.522075 l -19.1149,5.044234 c -0.1328,2.522117 -0.1328,5.30972 -0.1328,8.230066 v 8.761037 c 0,3.318575 0.1328,6.902636 0.2655,10.61944 l -18.0531,1.194687 -0.3982,-13.407043 c 0,-3.053089 -0.1327,-5.840691 -0.1327,-8.495551 0,-4.513262 0.1327,-8.628295 0.3982,-12.610585 z"
         id="path106421"
         style="fill:none" />
      <path
         d="m 1570.3298,25.943533 c -12.0796,0 -22.5663,2.920346 -30.3982,8.761038 -7.8318,5.840692 -12.4778,14.734472 -12.4778,26.415856 0,5.840692 1.5929,13.805272 7.0354,20.176935 5.4424,6.504407 14.9999,11.548641 30.9291,11.548641 13.6725,0 24.1592,-3.98229 31.3273,-10.353954 7.1682,-6.371663 10.7522,-15.265444 10.7522,-24.82294 0,-9.557496 -4.115,-17.654818 -10.8849,-23.097281 -6.9026,-5.442463 -16.1947,-8.628295 -26.2831,-8.628295 z m -2.1239,11.283155 c 4.2478,0 8.4955,1.858402 11.6814,5.30972 3.1858,3.451317 5.3097,8.89378 5.3097,15.398187 0,6.769893 -1.0619,12.610585 -3.7168,16.858361 -2.6549,4.247776 -6.9026,6.769892 -13.2743,6.769892 -6.9026,0 -11.2832,-2.123888 -13.938,-5.840691 -2.6549,-3.716804 -3.7168,-9.159267 -3.7168,-15.663674 0,-14.203501 7.4336,-22.831795 17.6548,-22.831795 z"
         id="path106423"
         style="fill:none" />
      <path
         d="m 1642.9402,34.306342 c -5.8407,0 -10.8849,0.265486 -14.9999,0.663715 -8.3628,0.929201 -13.8053,1.858402 -17.6549,3.318575 l -3.8495,13.141556 c 1.9911,-0.530972 4.2478,-0.929201 6.7699,-1.32743 4.3805,-0.663715 10.6194,-1.32743 18.7168,-1.32743 0,10.61944 0,26.283114 3.584,43.937932 1.9912,-0.398229 3.9823,-0.663715 6.5044,-1.061944 1.1947,-0.132743 2.5221,-0.398229 3.8496,-0.663715 l 10.3539,-1.858402 c -2.5221,-12.477841 -3.3185,-22.433566 -3.3185,-30.13266 0,-4.380519 0.2654,-8.097323 0.6637,-11.150412 h 1.0619 c 0.6637,0.132743 1.5929,0.132743 2.7876,0.132743 2.2566,0.132743 5.4425,0.265486 8.4956,0.265486 l 12.2123,0.265486 2.7876,-12.87607 c -3.0531,-0.132743 -6.3716,-0.398229 -10.2212,-0.663715 -6.7699,-0.398229 -16.0619,-0.663715 -27.7433,-0.663715 z"
         id="path106425"
         style="fill:none" />
      <path
         d="m 1683.5594,31.253253 c 0,1.991145 0,3.98229 0,6.106178 0,5.442463 0.1328,10.884925 0.2655,16.327388 0.1328,6.371664 0.531,13.2743 1.062,20.176936 0.5309,6.902635 1.3274,13.672528 2.3893,19.380477 l 9.292,-1.592916 c 2.2567,-0.398229 4.3806,-0.796458 6.239,-1.194687 l 2.6548,-0.398229 c -0.9292,-6.238921 -1.5929,-12.87607 -1.9911,-19.247734 l 17.7875,-1.32743 c 0.3983,9.557496 1.3275,19.247734 2.7876,26.814085 l 9.292,-1.592916 c 2.2567,-0.398229 4.3806,-0.796458 6.239,-1.194687 l 2.6548,-0.398229 c -1.0619,-7.168122 -1.7256,-14.601729 -2.1239,-22.433566 -0.3982,-9.159267 -0.6637,-17.787562 -0.6637,-26.283114 0,-5.840691 0.1328,-11.54864 0.3983,-17.522075 l -19.115,5.044234 c -0.1328,2.522117 -0.1328,5.30972 -0.1328,8.230066 v 8.761037 c 0,3.318575 0.1328,6.902636 0.2655,10.61944 l -18.053,1.194687 -0.3983,-13.407043 c 0,-3.053089 -0.1327,-5.840691 -0.1327,-8.495551 0,-4.513262 0.1327,-8.628295 0.3982,-12.610585 z"
         id="path106427"
         style="fill:none" />
      <path
         d="m 1804.7538,28.598393 -43.8052,-1.592916 -11.8141,9.159267 c 1.9912,5.30972 4.115,15.265444 5.8407,26.283113 1.5929,11.017669 2.7876,22.831795 2.7876,31.725576 l 55.4866,-9.424753 6.6371,-15.663673 -45.2653,6.371664 c -0.1328,-3.053089 -0.3983,-6.504407 -0.7965,-10.486697 l 33.1858,-2.920346 1.5929,-12.743328 -35.5752,1.991145 -1.9911,-9.557495 11.6814,-0.398229 c 8.6283,0 16.8583,0.398229 26.0176,0.929201 z"
         id="path106429"
         style="fill:none" />
      <path
         d="m 1820.4173,35.235543 c 1.7257,4.646005 3.1859,9.424752 4.5133,14.336243 2.2566,8.495552 4.5132,19.513221 4.5132,29.734431 v 3.716804 c -0.1327,2.920346 -0.2654,5.840692 -0.2654,9.026524 l 17.6548,0.796458 v -4.646005 c -0.1328,-1.991145 -0.1328,-4.247776 -0.1328,-6.504407 -0.1327,-3.053088 -0.2654,-5.973434 -0.5309,-8.362808 0,-1.194687 -0.1328,-2.256631 -0.1328,-3.053089 2.7876,0 5.5752,0.398229 8.2301,1.32743 5.3097,1.858402 10.3539,4.778748 14.3362,7.964579 3.9823,3.185832 6.9027,5.973435 8.6283,7.831837 l 1.1947,1.460173 c 0.1328,0 1.1947,-0.398229 3.1858,-1.194687 1.9912,-0.663715 4.1151,-1.460173 6.5045,-2.389374 l 6.3716,-2.522117 c 1.7257,-0.796458 2.6549,-1.194687 2.6549,-1.194687 -2.2567,-2.389373 -5.177,-4.646004 -8.4956,-6.902635 -6.7699,-4.247776 -13.1415,-7.831837 -21.1061,-11.150412 4.3805,-1.194687 8.2301,-2.389374 11.0177,-3.98229 2.7876,-1.592916 4.5132,-3.716804 4.5132,-6.902636 0,-3.716804 -3.7168,-7.168122 -9.1592,-10.088467 -5.4425,-2.920346 -12.8761,-5.176977 -20.3097,-7.168122 -7.4336,-1.991145 -15,-3.451318 -20.8407,-4.513262 z m 20.5752,10.22121 c 2.9203,0 5.7079,0.265486 8.2301,0.929201 5.0442,1.194687 9.0265,2.920346 11.2831,4.911491 1.062,0.929201 1.5929,1.858402 1.5929,2.522117 0,2.920346 -5.8407,4.380519 -17.6548,4.380519 -0.3982,-1.725659 -0.6637,-3.451318 -1.0619,-5.044234 -0.6638,-2.787603 -1.4602,-5.973435 -2.3894,-7.699094 z"
         style="font-family:'Philly Sans';-inkscape-font-specification:'Philly Sans';fill:none"
         id="path106431" />
    </g>
    <rect
       style="vector-effect:non-scaling-stroke;fill:none;stroke:#000000;stroke-width:0.000219916;-inkscape-stroke:hairline"
       id="rect6623"
       width="290"
       height="160"
       x="65.19191"
       y="-339.47528" />
  </g>
</svg>
