<?xml version="1.0" encoding="UTF-8" standalone="no"?>
<!-- Created with Inkscape (http://www.inkscape.org/) -->

<svg
   width="45.304604mm"
   height="126.26457mm"
   viewBox="0 0 45.304604 126.26457"
   version="1.1"
   id="svg1541"
   sodipodi:docname="end-b-reduced.svg"
   inkscape:version="1.1.2 (0a00cf5339, 2022-02-04, custom)"
   xmlns:inkscape="http://www.inkscape.org/namespaces/inkscape"
   xmlns:sodipodi="http://sodipodi.sourceforge.net/DTD/sodipodi-0.dtd"
   xmlns="http://www.w3.org/2000/svg"
   xmlns:svg="http://www.w3.org/2000/svg">
  <sodipodi:namedview
     id="namedview1543"
     pagecolor="#ffffff"
     bordercolor="#666666"
     borderopacity="1.0"
     inkscape:pageshadow="2"
     inkscape:pageopacity="0.0"
     inkscape:pagecheckerboard="0"
     inkscape:document-units="mm"
     showgrid="false"
     inkscape:zoom="1.0494603"
     inkscape:cx="-141.02486"
     inkscape:cy="248.22281"
     inkscape:current-layer="layer1"
     fit-margin-left="0"
     fit-margin-top="0"
     fit-margin-right="0"
     fit-margin-bottom="0"
     showguides="true"
     inkscape:guide-bbox="true">
    <sodipodi:guide
       position="-35.897687,63.132269"
       orientation="0,-1"
       id="guide1431" />
  </sodipodi:namedview>
  <defs
     id="defs1538" />
  <g
     inkscape:label="Layer 1"
     inkscape:groupmode="layer"
     id="layer1"
     transform="translate(-301.69153,-5.680437)">
    <path
       id="path1567"
       style="fill:none;stroke:#000000;stroke-width:0.264583px;stroke-linecap:butt;stroke-linejoin:miter;stroke-opacity:1"
       d="M 301.82382,8.8127384 V 68.812739 h 6.01001 l 3.2e-4,59.999981 m 2e-4,-1e-5 6.00949,1e-5 v 3 h 5.99998 v -3 h 6.01001 v 3 h 6.00001 v -3 h 6.00999 v 3 h 9.00001 v -9 h -3 v -6.353 h 3 v -6.35299 h -3 v -6.3528 h 3 v -6.353001 h -3 v -6.3529 h 3 v -6.3529 h -3 v -6.353 h 3 v -6.352911 h -3 v -6.352997 h 3 v -6.3529 h -3 v -6.3529 h 3 v -6.353 h -3 v -6.352887 h 3 v -6.352995 h -3 v -6.352901 h 3 v -6.35291 h -3 v -6.35301 h 3 V 5.8127285 h -9.00001 v 3.00001 0 h -6.00999 v -3.00001 h -6.00001 v 3.00001 h -6.01001 v -3.00001 h -5.99998 v 3.00001 h -6.01001 v -3.00001 h -6.01001 v 3.00001 0" />
  </g>
</svg>
