<?xml version="1.0" encoding="UTF-8" standalone="no"?>
<!-- Created with Inkscape (http://www.inkscape.org/) -->

<svg
   width="495.75458mm"
   height="126.26458mm"
   viewBox="0 0 495.75458 126.26458"
   version="1.1"
   id="svg1541"
   sodipodi:docname="end-a.svg"
   inkscape:version="1.1.2 (0a00cf5339, 2022-02-04, custom)"
   xmlns:inkscape="http://www.inkscape.org/namespaces/inkscape"
   xmlns:sodipodi="http://sodipodi.sourceforge.net/DTD/sodipodi-0.dtd"
   xmlns="http://www.w3.org/2000/svg"
   xmlns:svg="http://www.w3.org/2000/svg">
  <sodipodi:namedview
     id="namedview1543"
     pagecolor="#ffffff"
     bordercolor="#666666"
     borderopacity="1.0"
     inkscape:pageshadow="2"
     inkscape:pageopacity="0.0"
     inkscape:pagecheckerboard="0"
     inkscape:document-units="mm"
     showgrid="false"
     inkscape:zoom="0.74208053"
     inkscape:cx="567.32387"
     inkscape:cy="539.69884"
     inkscape:current-layer="layer1"
     fit-margin-left="10" />
  <defs
     id="defs1538" />
  <g
     inkscape:label="Layer 1"
     inkscape:groupmode="layer"
     id="layer1"
     transform="translate(148.75844,-5.6804335)">
    <path
       id="path1392"
       style="fill:none;stroke:#000000;stroke-width:0.264583px;stroke-linecap:butt;stroke-linejoin:miter;stroke-opacity:1"
       d="M 340.85383,68.812725 V 128.81271 M 346.86384,8.812725 v 60 m -6.01001,0 h 6.01001 m 0,-60 h -6.01001 v -3 h -5.99998 v 3 h -6.01001 v -3 h -5.99998 v 3 h -6.01001 v -3 h -6.01001 v 3 h -5.99999 v -3 h -6.01001 v 3 h -6.00001 v -3 h -6.00998 v 3 h -6.01001 v -3 h -5.99998 v 3 h -6.01001 v -3 h -6.01001 v 3 h -5.99999 v -3 h -6.01001 v 3 h -6.00001 v -3 h -6.00998 v 3 h -6.01001 v -3 h -5.99998 v 3 h -6.01001 v -3 h -6.00001 v 3 h -6.00999 v -3 h -6.01001 v 3 h -6.00001 v -3 h -6.00998 v 3 h -6.00001 v -3 h -6.00998 v 3 h -6.01001 v -3 h -6.00001 v 3 h -6.00999 v -3 h -6 v 3 h -6.01001 v -3 h -6.00999 v 3 h -6.00001 v -3 h -6.00998 v 3 h -6.00001 v -3 h -6.01001 v 3 h -6.00999 v -3 h -6 v 3 h -6.01 v -3 h -6 v 3 h -6.01 v -3 h -6.01 v 3 h -6 v -3 h -6.01 v 3 h -6 v -3 h -6.01 v 3 h -6.01 v -3 h -6 v 3 h -6.01 v -3 h -6 v 3 h -6.01 v -3 h -6.01 v 3 h -6 v -3 h -6.01 v 3 h -6 v -3 h -6.01 v 3 h -6.01 v -3 h -6 v 3 h -6.01 v -3 h -6.01 v 3 h -6 v -3 h -6.01 v 3 h -6 v -3 h -6.01 v 3 h -6.01 v -3 h -6 v 3 h -6.01 v -3 h -6 v 3 h -6.01 v -3 h -6.01 v 3 h -6 v -3 h -6.01 v 3 h -6 v -3 h -6.01 v 3 h -6.01 v -3 h -6 v 3 h -6.01 v -3 h -6 v 3 h -6.01 v -3 h -9 v 9 h 3 v 6.353 h -3 v 6.352996 h 3 v 6.3528 h -3 v 6.353 h 3 v 6.3529 h -3 v 6.352899 h 3 v 6.353001 h -3 v 6.352904 h 3 v 6.353 h -3 v 6.3529 h 3 v 6.3529 h -3 v 6.353 h 3 v 6.35289 h -3 v 6.352995 h 3 v 6.3529 h -3 v 6.35291 h 3 v 6.35301 h -3 v 8.99999 h 9 v -3.00001 0 h 6.01 v 3.00001 h 6 v -3.00001 h 6.01 v 3.00001 h 6 v -3.00001 h 6.01 v 3.00001 h 6.01 v -3.00001 h 6 v 3.00001 h 6.01 v -3.00001 h 6 v 3.00001 h 6.01 v -3.00001 h 6.01 v 3.00001 h 6 v -3.00001 h 6.01 v 3.00001 h 6 v -3.00001 h 6.01 v 3.00001 h 6.01 v -3.00001 h 6 v 3.00001 h 6.01 v -3.00001 h 6 v 3.00001 h 6.01 v -3.00001 h 6.01 v 3.00001 h 6 v -3.00001 h 6.01 v 3.00001 h 6 v -3.00001 h 6.01 v 3.00001 h 6.01 v -3.00001 h 6 v 3.00001 h 6.01 v -3.00001 h 6.01 v 3.00001 h 6 v -3.00001 h 6.01 v 3.00001 h 6 v -3.00001 h 6.01 v 3.00001 h 6.01 v -3.00001 h 6 v 3.00001 h 6.01 v -3.00001 h 6 v 3.00001 h 6.01 v -3.00001 h 6.01 v 3.00001 h 6 v -3.00001 h 6.01 v 3.00001 h 6 v -3.00001 h 6.00999 v 3.00001 h 6.01001 v -3.00001 h 6.00001 v 3.00001 h 6.00998 v -3.00001 h 6.00001 v 3.00001 h 6.00999 v -3.00001 h 6.01001 v 3.00001 h 6 v -3.00001 h 6.00999 v 3.00001 h 6.00001 v -3.00001 h 6.01001 v 3.00001 h 6.00998 v -3.00001 h 6.00001 v 3.00001 h 6.00998 v -3.00001 h 6.00001 v 3.00001 h 6.01001 v -3.00001 h 6.00999 v 3.00001 h 6.00001 v -3.00001 h 6.01001 v 3.00001 h 5.99998 v -3.00001 h 6.01001 v 3.00001 h 6.00998 v -3.00001 h 6.00001 v 3.00001 h 6.01001 v -3.00001 h 5.99999 v 3.00001 h 6.01001 v -3.00001 h 6.01001 v 3.00001 h 5.99998 v -3.00001 h 6.01001 v 3.00001 h 6.00998 v -3.00001 h 6.00001 v 3.00001 h 6.01001 v -3.00001 h 5.99999 v 3.00001 h 6.01001 v -3.00001 h 6.01001 v 3.00001 h 5.99998 v -3.00001 h 6.01001 v 3.00001 h 5.99998 v -3.00001" />
    <path
       style="fill:none;stroke:#000000;stroke-width:0.264583px;stroke-linecap:butt;stroke-linejoin:miter;stroke-opacity:1"
       d="M 346.86384,8.8127249 V 68.812725 h -6.01001 v 62.999995"
       id="path4154" />
  </g>
</svg>
