<?xml version="1.0" encoding="UTF-8" standalone="no"?>
<!-- Created with Inkscape (http://www.inkscape.org/) -->

<svg
   width="487.03748mm"
   height="126.26453mm"
   viewBox="0 0 487.03748 126.26454"
   version="1.1"
   id="svg1541"
   sodipodi:docname="segment.svg"
   inkscape:version="1.1.2 (0a00cf5339, 2022-02-04, custom)"
   xmlns:inkscape="http://www.inkscape.org/namespaces/inkscape"
   xmlns:sodipodi="http://sodipodi.sourceforge.net/DTD/sodipodi-0.dtd"
   xmlns="http://www.w3.org/2000/svg"
   xmlns:svg="http://www.w3.org/2000/svg">
  <sodipodi:namedview
     id="namedview1543"
     pagecolor="#ffffff"
     bordercolor="#666666"
     borderopacity="1.0"
     inkscape:pageshadow="2"
     inkscape:pageopacity="0.0"
     inkscape:pagecheckerboard="0"
     inkscape:document-units="mm"
     showgrid="false"
     inkscape:zoom="1.4841611"
     inkscape:cx="1408.203"
     inkscape:cy="207.18776"
     inkscape:current-layer="layer1"
     fit-margin-left="0"
     showguides="true"
     inkscape:guide-bbox="true"
     fit-margin-top="0"
     fit-margin-right="0"
     fit-margin-bottom="0">
    <sodipodi:guide
       position="468.74374,136.71558"
       orientation="0,-1"
       id="guide2605" />
  </sodipodi:namedview>
  <defs
     id="defs1538" />
  <g
     inkscape:label="Layer 1"
     inkscape:groupmode="layer"
     id="layer1"
     transform="translate(139.89989,-16.263768)">
    <path
       id="path2937"
       style="fill:none;stroke:#000000;stroke-width:0.00070004;stroke-linecap:butt;stroke-linejoin:miter;stroke-opacity:1;vector-effect:non-scaling-stroke;-inkscape-stroke:hairline;stroke-miterlimit:4;stroke-dasharray:none"
       d="m -133.61615,16.396059 -0.14144,63.000003 h -6.01001 v 59.999678 m 0.14145,2.6e-4 v 0 0 h 6.01 v 3.00001 h 6 V 139.396 h 6.01 v 3.00001 h 6 V 139.396 h 6.01 v 3.00001 h 6.01 V 139.396 h 5.999999 v 3.00001 h 6.01 V 139.396 h 6.000001 v 3.00001 h 6.01 V 139.396 h 6.01 v 3.00001 h 5.999998 V 139.396 h 6.01 v 3.00001 h 6.000001 V 139.396 h 6.01 v 3.00001 h 6.009994 V 139.396 h 6.000001 v 3.00001 h 6.01 V 139.396 h 5.999999 v 3.00001 h 6.01 V 139.396 h 6.009999 v 3.00001 h 6.0000014 V 139.396 h 6.0099998 v 3.00001 H 4.5138417 V 139.396 h 6.0099993 v 3.00001 h 6.010003 V 139.396 h 5.999998 v 3.00001 h 6.01 V 139.396 h 6.01 v 3.00001 h 6.000001 V 139.396 h 6.01 v 3.00001 h 5.999998 V 139.396 h 6.01 v 3.00001 h 6.01 V 139.396 h 6.000001 v 3.00001 h 6.01 V 139.396 h 6.000001 v 3.00001 h 6.01 V 139.396 h 6.009999 v 3.00001 h 5.999998 V 139.396 h 6.01 v 3.00001 h 6 V 139.396 h 6.01 v 3.00001 h 6.01001 V 139.396 h 6.00001 v 3.00001 h 6.00998 V 139.396 h 6.00001 v 3.00001 h 6.00999 V 139.396 h 6.01001 v 3.00001 h 6 V 139.396 h 6.00999 v 3.00001 h 6.00001 V 139.396 h 6.01001 v 3.00001 h 6.00998 V 139.396 h 6.00001 v 3.00001 h 6.00998 V 139.396 h 6.00001 v 3.00001 h 6.01001 V 139.396 h 6.00999 v 3.00001 h 6.00001 V 139.396 h 6.01001 v 3.00001 h 5.99998 V 139.396 h 6.01001 v 3.00001 h 6.00998 V 139.396 h 6.00001 v 3.00001 h 6.01001 V 139.396 h 5.99999 v 3.00001 h 6.01001 V 139.396 h 6.01001 v 3.00001 h 5.99998 V 139.396 h 6.01001 v 3.00001 h 6.00998 V 139.396 h 6.00001 v 3.00001 h 6.01001 V 139.396 h 5.99999 v 3.00001 h 6.01001 V 139.396 h 6.01001 v 3.00001 h 5.99998 V 139.396 h 6.01001 v 3.00001 h 5.99998 V 139.396 m 6.15146,-122.999944 -0.14145,63.000003 h -6.01001 v 63.000001 m 6.01001,-123.000001 h -6.01001 v -3 h -5.99998 v 3 h -6.01001 v -3 h -5.99998 v 3 h -6.01001 v -3 h -6.01001 v 3 h -5.99999 v -3 h -6.01001 v 3 h -6.00001 v -3 h -6.00998 v 3 h -6.01001 v -3 h -5.99998 v 3 h -6.01001 v -3 h -6.01001 v 3 h -5.99999 v -3 h -6.01001 v 3 h -6.00001 v -3 h -6.00998 v 3 h -6.01001 v -3 h -5.99998 v 3 h -6.01001 v -3 h -6.00001 v 3 h -6.00999 v -3 h -6.01001 v 3 h -6.00001 v -3 h -6.00998 v 3 h -6.00001 v -3 h -6.00998 v 3 h -6.01001 v -3 h -6.00001 v 3 h -6.00999 v -3 h -6 v 3 h -6.01001 v -3 h -6.00999 v 3 h -6.00001 v -3 h -6.00998 v 3 h -6.00001 v -3 h -6.01001 v 3 h -6.00999 v -3 h -6 v 3 h -6.01 v -3 h -6.000002 v 3 h -6.01 v -3 h -6.01 v 3 h -6.000001 v -3 h -6.01 v 3 h -6.000001 v -3 h -6.01 v 3 h -6.009999 v -3 h -5.999999 v 3 h -6.01 v -3 h -6.000001 v 3 h -6.01 v -3 h -6.009999 v 3 h -5.999999 v -3 h -6.010002 v 3 H 4.5238482 v -3 h -6.0099997 v 3 h -6.0099998 v -3 h -6.0000007 v 3 h -6.01 v -3 h -6.01 v 3 h -5.999998 v -3 h -6.01 v 3 h -6.000001 v -3 h -6.01 v 3 h -6.01 v -3 h -6.000001 v 3 h -6.01 v -3 h -5.999998 v 3 h -6.01 v -3 h -6.01 v 3 h -6.000001 v -3 h -6.01 v 3 h -5.999999 v -3 h -6.01 v 3 h -6.01 v -3 h -6 v 3 h -6.01 v -3 h -6 v 0" />
  </g>
</svg>
