<?xml version="1.0" encoding="UTF-8" standalone="no"?>
<!-- Created with Inkscape (http://www.inkscape.org/) -->

<svg
   width="30cm"
   height="30cm"
   viewBox="0 0 300 300"
   version="1.1"
   id="svg5"
   inkscape:version="1.1.2 (0a00cf5339, 2022-02-04)"
   sodipodi:docname="part_1.svg"
   xmlns:inkscape="http://www.inkscape.org/namespaces/inkscape"
   xmlns:sodipodi="http://sodipodi.sourceforge.net/DTD/sodipodi-0.dtd"
   xmlns="http://www.w3.org/2000/svg"
   xmlns:svg="http://www.w3.org/2000/svg">
  <sodipodi:namedview
     id="namedview7"
     pagecolor="#ffffff"
     bordercolor="#666666"
     borderopacity="1.0"
     inkscape:pageshadow="2"
     inkscape:pageopacity="0.0"
     inkscape:pagecheckerboard="0"
     inkscape:document-units="mm"
     showgrid="false"
     units="cm"
     inkscape:zoom="0.13165499"
     inkscape:cx="535.49053"
     inkscape:cy="539.28833"
     inkscape:current-layer="layer1"
     height="12cm" />
  <defs
     id="defs2" />
  <g
     inkscape:label="Layer 1"
     inkscape:groupmode="layer"
     id="layer1">
    <path
       d="m 11.653966,114.73122 h 38.050315 c 19.198114,0 22.657234,-8.30188 22.657234,-26.462252 V 73.048842 c 0,-8.474845 -3.45912,-18.506291 -12.798741,-18.506291 v -0.691823 c 8.12893,0 12.279873,-10.723271 12.279873,-20.754719 v -4.150944 c 0,-16.949688 -8.820757,-21.4465418 -22.138366,-21.4465418 H 11.653966 Z M 38.462143,46.932487 V 26.523681 h 2.248425 c 3.977986,0 4.842769,3.113208 4.842769,8.12893 v 3.286164 c 0,6.745285 -1.72956,8.993712 -5.015722,8.993712 z m 0,47.216983 V 67.341294 h 2.075472 c 2.594339,0 5.015722,1.037736 5.015722,6.226414 v 13.144655 c 0,4.842768 -1.72956,7.437107 -4.66981,7.437107 z"
       style="font-weight:900;font-size:88.1944px;line-height:1.25;font-family:'Smooch Sans';-inkscape-font-specification:'Smooch Sans, Heavy';letter-spacing:3.96875px;baseline-shift:baseline;vector-effect:non-scaling-stroke;fill:none;stroke:#000000;stroke-width:0.00137283;stroke-miterlimit:4;stroke-dasharray:none;-inkscape-stroke:hairline"
       id="path9751" />
    <path
       d="m 116.29228,115.59601 c 21.79246,0 29.92139,-8.30189 29.92139,-21.273584 V 83.77211 l -25.9434,1.729561 v 3.286164 c 0,2.075472 0,5.707549 -4.15094,5.707549 -4.15094,0 -4.15094,-3.632077 -4.15094,-5.707549 v -9.51258 h 34.24528 V 53.677771 c 0,-12.971701 -8.12893,-21.273587 -29.92139,-21.273587 -25.078609,0 -30.267291,8.993712 -30.267291,21.619497 v 39.952835 c 0,12.625784 5.188682,21.619494 30.267291,21.619494 z m -4.32389,-57.075472 c 0,-1.902516 0,-6.226415 4.15094,-6.226415 4.15094,0 4.15094,4.323899 4.15094,6.226415 v 7.26415 h -8.30188 z"
       style="font-weight:900;font-size:88.1944px;line-height:1.25;font-family:'Smooch Sans';-inkscape-font-specification:'Smooch Sans, Heavy';letter-spacing:3.96875px;baseline-shift:baseline;vector-effect:non-scaling-stroke;fill:none;stroke:#000000;stroke-width:0.00137283;stroke-miterlimit:4;stroke-dasharray:none;-inkscape-stroke:hairline"
       id="path9753" />
    <path
       d="M 161.13076,7.4985232 V 114.73122 h 56.9025 V 93.976516 H 187.76597 V 67.514251 h 23.00316 l 3.1132,-20.754721 H 187.76597 V 28.253242 h 30.26729 V 7.4985232 Z"
       style="font-weight:900;font-size:88.1944px;line-height:1.25;font-family:'Smooch Sans';-inkscape-font-specification:'Smooch Sans, Heavy';letter-spacing:3.96875px;baseline-shift:baseline;vector-effect:non-scaling-stroke;fill:none;stroke:#000000;stroke-width:0.00137283;stroke-miterlimit:4;stroke-dasharray:none;-inkscape-stroke:hairline"
       id="path9755" />
    <path
       d="m 227.19984,114.73122 h 22.13836 l 8.6478,-20.927662 8.64782,20.927662 h 22.13836 L 271.64954,73.048842 288.42626,33.441921 H 266.2879 l -8.3019,19.37107 -8.30188,-19.37107 h -22.13835 l 16.77675,39.606921 z"
       style="font-weight:900;font-size:88.1944px;line-height:1.25;font-family:'Smooch Sans';-inkscape-font-specification:'Smooch Sans, Heavy';letter-spacing:3.96875px;baseline-shift:baseline;vector-effect:non-scaling-stroke;fill:none;stroke:#000000;stroke-width:0.00137283;stroke-miterlimit:4;stroke-dasharray:none;-inkscape-stroke:hairline"
       id="path9757" />
    <path
       d="m 47.77881,290.22112 c 21.792428,0 29.921355,-8.30189 29.921355,-21.27359 v -16.08492 l -25.943375,1.72957 v 8.82076 c 0,2.07547 0,5.70755 -4.15096,5.70755 -4.150927,0 -4.150927,-3.63208 -4.150927,-5.70755 v -30.26732 c 0,-1.90252 0,-6.22642 4.150927,-6.22642 4.15096,0 4.15096,4.3239 4.15096,6.22642 v 10.37737 l 25.943375,-1.72957 v -13.49057 c 0,-12.97171 -8.128927,-21.2736 -29.921355,-21.2736 -25.078605,0 -30.267282,8.99372 -30.267282,21.61951 v 39.95286 c 0,12.62579 5.188677,21.6195 30.267282,21.6195 z"
       style="font-weight:900;font-size:88.1944px;line-height:1.25;font-family:'Smooch Sans';-inkscape-font-specification:'Smooch Sans, Heavy';letter-spacing:3.96875px;baseline-shift:baseline;vector-effect:non-scaling-stroke;fill:none;stroke:#000000;stroke-width:0.00137283;stroke-miterlimit:4;stroke-dasharray:none;-inkscape-stroke:hairline"
       id="path9759" />
    <path
       d="m 121.63099,290.22112 c 21.79242,0 29.92136,-8.30189 29.92136,-21.27359 v -10.55032 l -25.94338,1.72956 v 3.28617 c 0,2.07547 0,5.70755 -4.15095,5.70755 -4.15093,0 -4.15093,-3.63208 -4.15093,-5.70755 v -9.51259 h 34.24526 v -25.5975 c 0,-12.97171 -8.12894,-21.2736 -29.92136,-21.2736 -25.078627,0 -30.267304,8.99372 -30.267304,21.61951 v 39.95286 c 0,12.62579 5.188677,21.6195 30.267304,21.6195 z m -4.3239,-57.0755 c 0,-1.90252 0,-6.22642 4.15093,-6.22642 4.15095,0 4.15095,4.3239 4.15095,6.22642 v 7.26416 h -8.30188 z"
       style="font-weight:900;font-size:88.1944px;line-height:1.25;font-family:'Smooch Sans';-inkscape-font-specification:'Smooch Sans, Heavy';letter-spacing:3.96875px;baseline-shift:baseline;vector-effect:non-scaling-stroke;fill:none;stroke:#000000;stroke-width:0.00137283;stroke-miterlimit:4;stroke-dasharray:none;-inkscape-stroke:hairline"
       id="path9761" />
    <path
       d="m 166.94541,182.12358 v 107.23275 h 25.94338 V 182.12358 Z"
       style="font-weight:900;font-size:88.1944px;line-height:1.25;font-family:'Smooch Sans';-inkscape-font-specification:'Smooch Sans, Heavy';letter-spacing:3.96875px;baseline-shift:baseline;vector-effect:non-scaling-stroke;fill:none;stroke:#000000;stroke-width:0.00137283;stroke-miterlimit:4;stroke-dasharray:none;-inkscape-stroke:hairline"
       id="path9763" />
    <path
       d="m 209.31973,182.12358 v 107.23275 h 25.94343 V 182.12358 Z"
       style="font-weight:900;font-size:88.1944px;line-height:1.25;font-family:'Smooch Sans';-inkscape-font-specification:'Smooch Sans, Heavy';letter-spacing:3.96875px;baseline-shift:baseline;vector-effect:non-scaling-stroke;fill:none;stroke:#000000;stroke-width:0.00137283;stroke-miterlimit:4;stroke-dasharray:none;-inkscape-stroke:hairline"
       id="path9765" />
    <path
       d="m 42.798533,201.85024 c 21.792458,0 29.921395,-8.30189 29.921395,-21.27359 v -10.55032 l -25.943375,1.72956 v 3.28617 c 0,2.07547 0,5.70755 -4.15096,5.70755 -4.150957,0 -4.150957,-3.63208 -4.150957,-5.70755 v -9.51259 h 34.245292 v -25.5975 c 0,-12.97171 -8.128937,-21.2736 -29.921395,-21.2736 -25.078575,0 -30.267252,8.99372 -30.267252,21.61951 v 39.95286 c 0,12.62579 5.188677,21.6195 30.267252,21.6195 z m -4.323897,-57.0755 c 0,-1.90252 0,-6.22642 4.150957,-6.22642 4.15096,0 4.15096,4.3239 4.15096,6.22642 v 7.26416 h -8.301917 z"
       style="font-weight:900;font-size:88.1944px;line-height:1.25;font-family:'Smooch Sans';-inkscape-font-specification:'Smooch Sans, Heavy';letter-spacing:3.96875px;baseline-shift:baseline;vector-effect:non-scaling-stroke;fill:none;stroke:#000000;stroke-width:0.00137283;stroke-miterlimit:4;stroke-dasharray:none;-inkscape-stroke:hairline"
       id="path9767" />
    <path
       d="m 88.112929,119.69611 v 81.28934 h 25.943391 v -56.38366 c 0,-3.97799 1.38365,-5.5346 4.32391,-5.5346 3.11319,0 3.97797,1.55661 3.97797,5.5346 v 56.38366 h 25.94339 v -65.20442 c 0,-12.27989 -6.74528,-17.64152 -17.81445,-17.64152 -8.47485,0 -15.39308,3.28616 -18.67925,10.03145 l -2.4214,-8.47485 z"
       style="font-weight:900;font-size:88.1944px;line-height:1.25;font-family:'Smooch Sans';-inkscape-font-specification:'Smooch Sans, Heavy';letter-spacing:3.96875px;baseline-shift:baseline;vector-effect:non-scaling-stroke;fill:none;stroke:#000000;stroke-width:0.00137283;stroke-miterlimit:4;stroke-dasharray:none;-inkscape-stroke:hairline"
       id="path9769" />
    <path
       d="M 276.71595,289.35633 H 292.282 v -20.75471 h -7.43711 c -5.18868,0 -7.26414,-2.59434 -7.26414,-9.51258 v -31.65097 h 8.99369 l 5.8805,-19.37108 h -14.87419 v -15.22013 h -19.02518 l -4.3239,15.22013 h -8.12893 v 19.37108 h 5.70755 v 44.27676 c 0,16.43081 11.58807,17.6415 24.90566,17.6415 z"
       style="font-weight:900;font-size:88.1944px;line-height:1.25;font-family:'Smooch Sans';-inkscape-font-specification:'Smooch Sans, Heavy';letter-spacing:3.96875px;baseline-shift:baseline;vector-effect:non-scaling-stroke;fill:none;stroke:#000000;stroke-width:0.00137283;stroke-miterlimit:4;stroke-dasharray:none;-inkscape-stroke:hairline"
       id="path9771" />
  </g>
</svg>
