<?xml version="1.0" encoding="UTF-8" standalone="no"?>
<!-- Created with Inkscape (http://www.inkscape.org/) -->

<svg
   width="300mm"
   height="300mm"
   viewBox="0 0 300 300"
   version="1.1"
   id="svg12512"
   inkscape:version="1.1.2 (0a00cf5339, 2022-02-04)"
   sodipodi:docname="to_each_other.svg"
   xmlns:inkscape="http://www.inkscape.org/namespaces/inkscape"
   xmlns:sodipodi="http://sodipodi.sourceforge.net/DTD/sodipodi-0.dtd"
   xmlns="http://www.w3.org/2000/svg"
   xmlns:svg="http://www.w3.org/2000/svg">
  <sodipodi:namedview
     id="namedview12514"
     pagecolor="#ffffff"
     bordercolor="#666666"
     borderopacity="1.0"
     inkscape:pageshadow="2"
     inkscape:pageopacity="0.0"
     inkscape:pagecheckerboard="0"
     inkscape:document-units="mm"
     showgrid="false"
     width="300mm"
     inkscape:zoom="0.74475309"
     inkscape:cx="722.38707"
     inkscape:cy="555.88893"
     inkscape:current-layer="layer1" />
  <defs
     id="defs12509" />
  <g
     inkscape:label="Layer 1"
     inkscape:groupmode="layer"
     id="layer1">
    <path
       d="M 3.5568396,4.7184843 V 109.02665 H 58.907439 V 88.837982 h -29.4419 v -25.74057 h 22.3758 l 3.0283,-20.188676 h -25.4041 V 24.907164 h 29.4419 V 4.7184843 Z"
       style="font-weight:900;font-size:88.1944px;line-height:1.25;font-family:'Smooch Sans';-inkscape-font-specification:'Smooch Sans, Heavy';letter-spacing:3.96875px;baseline-shift:baseline;vector-effect:non-scaling-stroke;fill:none;stroke:#000000;stroke-width:0.00133539;stroke-miterlimit:4;stroke-dasharray:none;-inkscape-stroke:hairline"
       id="path9779" />
    <path
       d="m 77.092905,109.02665 h 13.963801 l 2.3554,-20.188668 h -1.8507 c -3.028297,0 -4.374197,-0.16823 -4.374197,-5.88836 V 54.853705 c 0,-3.19654 1.3459,-4.710692 4.037697,-4.710692 h 4.037797 V 109.02665 H 120.4985 V 29.954335 H 82.308305 c -15.1415,0 -20.3569,8.24371 -20.3569,21.366351 v 35.330186 c 0,15.646218 0.8412,22.375778 15.1415,22.375778 z"
       style="font-weight:900;font-size:88.1944px;line-height:1.25;font-family:'Smooch Sans';-inkscape-font-specification:'Smooch Sans, Heavy';letter-spacing:3.96875px;baseline-shift:baseline;vector-effect:non-scaling-stroke;fill:none;stroke:#000000;stroke-width:0.00133539;stroke-miterlimit:4;stroke-dasharray:none;-inkscape-stroke:hairline"
       id="path9781" />
    <path
       d="m 154.33016,109.86785 c 21.1981,0 29.1054,-8.07547 29.1054,-20.693388 v -15.64623 l -25.2359,1.68239 v 8.58019 c 0,2.01887 0,5.55189 -4.0377,5.55189 -4.0377,0 -4.0377,-3.53302 -4.0377,-5.55189 V 54.348988 c 0,-1.850628 0,-6.056603 4.0377,-6.056603 4.0377,0 4.0377,4.205975 4.0377,6.056603 v 10.094344 l 25.2359,-1.68239 V 49.638296 c 0,-12.617925 -7.9073,-20.693397 -29.1054,-20.693397 -24.3946,0 -29.4418,8.748429 -29.4418,21.029876 v 38.863207 c 0,12.281438 5.0472,21.029868 29.4418,21.029868 z"
       style="font-weight:900;font-size:88.1944px;line-height:1.25;font-family:'Smooch Sans';-inkscape-font-specification:'Smooch Sans, Heavy';letter-spacing:3.96875px;baseline-shift:baseline;vector-effect:non-scaling-stroke;fill:none;stroke:#000000;stroke-width:0.00133539;stroke-miterlimit:4;stroke-dasharray:none;-inkscape-stroke:hairline"
       id="path9783" />
    <path
       d="M 187.15262,3.5408116 V 109.02665 h 25.2358 v -54.8459 c 0,-3.869497 1.346,-5.383649 4.206,-5.383649 3.8695,0 3.8695,2.523585 3.8695,6.561322 v 53.668227 h 25.2359 V 46.441756 c 0,-7.402516 -2.5236,-16.992138 -17.3287,-16.992138 -8.2437,0 -12.7861,3.19654 -15.9827,8.748427 V 3.5408116 Z"
       style="font-weight:900;font-size:88.1944px;line-height:1.25;font-family:'Smooch Sans';-inkscape-font-specification:'Smooch Sans, Heavy';letter-spacing:3.96875px;baseline-shift:baseline;vector-effect:non-scaling-stroke;fill:none;stroke:#000000;stroke-width:0.00133539;stroke-miterlimit:4;stroke-dasharray:none;-inkscape-stroke:hairline"
       id="path9785" />
    <path
       d="m 33.443416,222.49652 c 21.0299,0 29.2736,-8.24371 29.2736,-20.86164 v -65.27673 c 0,-12.61792 -8.2437,-20.86163 -29.2736,-20.86163 -21.0299,0 -29.2735998,8.24371 -29.2735998,20.86163 v 65.27673 c 0,12.61793 8.2436998,20.86164 29.2735998,20.86164 z m 0,-21.19812 c -3.3648,0 -4.0377,-1.68239 -4.0377,-6.72956 v -51.64937 c 0,-4.87893 0.6729,-6.56132 4.0377,-6.56132 3.3648,0 4.0378,1.68239 4.0378,6.72956 v 51.48113 c 0,5.04717 -0.673,6.72956 -4.0378,6.72956 z"
       style="font-weight:900;font-size:88.1944px;line-height:1.25;font-family:'Smooch Sans';-inkscape-font-specification:'Smooch Sans, Heavy';letter-spacing:3.96875px;baseline-shift:baseline;vector-effect:non-scaling-stroke;fill:none;stroke:#000000;stroke-width:0.00133539;stroke-miterlimit:4;stroke-dasharray:none;-inkscape-stroke:hairline"
       id="path9787" />
    <path
       d="m 95.059153,221.1506 h 15.141497 v -20.18867 h -7.2342 c -5.0472,0 -7.0661,-2.52359 -7.0661,-9.25315 v -30.78774 h 8.7484 l 5.7202,-18.84276 H 95.90035 V 127.27325 H 77.394049 l -4.2059,14.80503 h -7.9073 v 18.84276 h 5.5519 v 43.06919 c 0,15.9827 11.272,17.16037 24.226404,17.16037 z"
       style="font-weight:900;font-size:88.1944px;line-height:1.25;font-family:'Smooch Sans';-inkscape-font-specification:'Smooch Sans, Heavy';letter-spacing:3.96875px;baseline-shift:baseline;vector-effect:non-scaling-stroke;fill:none;stroke:#000000;stroke-width:0.00133539;stroke-miterlimit:4;stroke-dasharray:none;-inkscape-stroke:hairline"
       id="path9789" />
    <path
       d="M 113.77408,115.66475 V 221.1506 h 25.2359 v -54.84591 c 0,-3.86949 1.3459,-5.38365 4.2059,-5.38365 3.8695,0 3.8695,2.52359 3.8695,6.56133 v 53.66823 h 25.2359 v -62.5849 c 0,-7.40252 -2.5236,-16.99214 -17.3287,-16.99214 -8.2437,0 -12.7861,3.19654 -15.9826,8.74843 v -34.65724 z"
       style="font-weight:900;font-size:88.1944px;line-height:1.25;font-family:'Smooch Sans';-inkscape-font-specification:'Smooch Sans, Heavy';letter-spacing:3.96875px;baseline-shift:baseline;vector-effect:non-scaling-stroke;fill:none;stroke:#000000;stroke-width:0.00133539;stroke-miterlimit:4;stroke-dasharray:none;-inkscape-stroke:hairline"
       id="path9791" />
    <path
       d="m 204.5901,221.9918 c 21.1981,0 29.1053,-8.07547 29.1053,-20.6934 v -10.26258 l -25.2358,1.68239 v 3.19655 c 0,2.01886 0,5.55188 -4.0378,5.55188 -4.0377,0 -4.0377,-3.53302 -4.0377,-5.55188 v -9.25315 h 33.3113 v -24.89937 c 0,-12.61793 -7.9072,-20.6934 -29.1053,-20.6934 -24.3947,0 -29.4419,8.74843 -29.4419,21.02988 v 38.86321 c 0,12.28144 5.0472,21.02987 29.4419,21.02987 z m -4.206,-55.51887 c 0,-1.85063 0,-6.0566 4.0377,-6.0566 4.0378,0 4.0378,4.20597 4.0378,6.0566 v 7.06604 h -8.0755 z"
       style="font-weight:900;font-size:88.1944px;line-height:1.25;font-family:'Smooch Sans';-inkscape-font-specification:'Smooch Sans, Heavy';letter-spacing:3.96875px;baseline-shift:baseline;vector-effect:non-scaling-stroke;fill:none;stroke:#000000;stroke-width:0.00133539;stroke-miterlimit:4;stroke-dasharray:none;-inkscape-stroke:hairline"
       id="path9793" />
    <path
       d="m 83.698168,280.70266 v -25.2358 h -47.27515 c -8.07547,0 -10.93554,-5.2154 -10.93554,-10.4308 0,-5.38369 0.67296,-9.9261 1.17768,-12.28149 l -21.8710737,-1.1776 c -1.0094394,1.6823 -1.5141498,4.7106 -1.5141498,11.1037 0,5.04719 3.1965438,11.7768 9.5896235,14.9733 l -8.2437134,2.3553 v 20.6934 z"
       style="font-weight:900;font-size:88.1944px;line-height:1.25;font-family:'Smooch Sans';-inkscape-font-specification:'Smooch Sans, Heavy';letter-spacing:3.96875px;baseline-shift:baseline;vector-effect:non-scaling-stroke;fill:none;stroke:#000000;stroke-width:0.00133539;stroke-miterlimit:4;stroke-dasharray:none;-inkscape-stroke:hairline"
       id="path9795" />
    <path
       d="m 266.96762,245.51638 v -15.1415 h -20.18867 v 7.2343 c 0,5.0471 -2.5236,7.066 -9.25316,7.066 h -30.78773 v -8.7484 l -18.84276,-5.7201 v 14.4685 h -14.80503 v 18.5063 l 14.80503,4.20599 v 7.9072 h 18.84276 v -5.55189 h 43.06919 c 15.9827,0 17.16037,-11.27201 17.16037,-24.2264 z"
       style="font-weight:900;font-size:88.1944px;line-height:1.25;font-family:'Smooch Sans';-inkscape-font-specification:'Smooch Sans, Heavy';letter-spacing:3.96875px;baseline-shift:baseline;vector-effect:non-scaling-stroke;fill:none;stroke:#000000;stroke-width:0.00133539;stroke-miterlimit:4;stroke-dasharray:none;-inkscape-stroke:hairline"
       id="path9775" />
    <path
       d="m 168.85936,256.22811 c 0,-21.1981 -8.07547,-29.1053 -20.6934,-29.1053 H 108.6298 c -12.617928,0 -20.693398,7.9072 -20.693398,29.1053 0,24.3947 8.74843,29.4418 21.029878,29.4418 h 38.86321 c 12.28143,0 21.02987,-5.0471 21.02987,-29.4418 z m -20.52517,0.1683 c 0,4.0377 -3.53302,4.0377 -5.55187,4.0377 h -29.44183 c -1.85063,0 -6.05661,0 -6.05661,-4.0377 0,-4.0378 4.20598,-4.0378 6.05661,-4.0378 h 29.44183 c 2.01886,0 5.55187,0 5.55187,4.0378 z"
       style="font-weight:900;font-size:88.1944px;line-height:1.25;font-family:'Smooch Sans';-inkscape-font-specification:'Smooch Sans, Heavy';letter-spacing:3.96875px;baseline-shift:baseline;vector-effect:non-scaling-stroke;fill:none;stroke:#000000;stroke-width:0.00133539;stroke-miterlimit:4;stroke-dasharray:none;-inkscape-stroke:hairline"
       id="path9777" />
  </g>
</svg>
