<?xml version="1.0" encoding="UTF-8" standalone="no"?>
<!-- Created with Inkscape (http://www.inkscape.org/) -->

<svg
   width="200cm"
   height="12cm"
   viewBox="0 0 2000 120"
   version="1.1"
   id="svg5"
   inkscape:version="1.1.2 (0a00cf5339, 2022-02-04)"
   sodipodi:docname="be-excellent-to-each-other.svg"
   xmlns:inkscape="http://www.inkscape.org/namespaces/inkscape"
   xmlns:sodipodi="http://sodipodi.sourceforge.net/DTD/sodipodi-0.dtd"
   xmlns="http://www.w3.org/2000/svg"
   xmlns:svg="http://www.w3.org/2000/svg">
  <sodipodi:namedview
     id="namedview7"
     pagecolor="#ffffff"
     bordercolor="#666666"
     borderopacity="1.0"
     inkscape:pageshadow="2"
     inkscape:pageopacity="0.0"
     inkscape:pagecheckerboard="0"
     inkscape:document-units="mm"
     showgrid="false"
     units="cm"
     inkscape:zoom="0.13165499"
     inkscape:cx="3205.3476"
     inkscape:cy="60.764883"
     inkscape:current-layer="layer1"
     height="12cm" />
  <defs
     id="defs2" />
  <g
     inkscape:label="Layer 1"
     inkscape:groupmode="layer"
     id="layer1">
    <path
       d="m 152.57995,113.70706 h 37.01258 c 18.67453,0 22.03931,-8.07547 22.03931,-25.74056 V 73.161468 c 0,-8.243712 -3.36478,-18.001574 -12.44969,-18.001574 v -0.672955 c 7.90723,0 11.94497,-10.430818 11.94497,-20.18868 v -4.037737 c 0,-16.487422 -8.58019,-20.8616348 -21.53459,-20.8616348 H 152.57995 Z M 178.65699,47.757379 V 27.905177 h 2.18711 c 3.8695,0 4.71069,3.028302 4.71069,7.907232 v 3.196542 c 0,6.56132 -1.68239,8.748428 -4.87893,8.748428 z m 0,45.929246 V 67.609581 h 2.01887 c 2.52359,0 4.87893,1.009434 4.87893,6.056604 v 12.786163 c 0,4.710692 -1.68239,7.234277 -4.54245,7.234277 z"
       style="font-weight:900;font-size:88.1944px;line-height:1.25;font-family:'Smooch Sans';-inkscape-font-specification:'Smooch Sans, Heavy';letter-spacing:3.96875px;baseline-shift:baseline;vector-effect:non-scaling-stroke;fill:none;stroke:#000000;stroke-width:0.00133539;stroke-miterlimit:4;stroke-dasharray:none;-inkscape-stroke:hairline"
       id="path9751" />
    <path
       d="m 254.36449,114.54826 c 21.19812,0 29.10535,-8.07547 29.10535,-20.693397 V 83.592285 l -25.23585,1.68239 v 3.196541 c 0,2.018867 0,5.551887 -4.03773,5.551887 -4.03774,0 -4.03774,-3.53302 -4.03774,-5.551887 v -9.253145 h 33.31132 V 54.318699 c 0,-12.617925 -7.90723,-20.693397 -29.10535,-20.693397 -24.39465,0 -29.44182,8.748429 -29.44182,21.029876 v 38.863208 c 0,12.281444 5.04717,21.029874 29.44182,21.029874 z m -4.20597,-55.518869 c 0,-1.850628 0,-6.056603 4.03774,-6.056603 4.03773,0 4.03773,4.205975 4.03773,6.056603 v 7.066038 h -8.07547 z"
       style="font-weight:900;font-size:88.1944px;line-height:1.25;font-family:'Smooch Sans';-inkscape-font-specification:'Smooch Sans, Heavy';letter-spacing:3.96875px;baseline-shift:baseline;vector-effect:non-scaling-stroke;fill:none;stroke:#000000;stroke-width:0.00133539;stroke-miterlimit:4;stroke-dasharray:none;-inkscape-stroke:hairline"
       id="path9753" />
    <path
       d="M 330.40842,9.3988872 V 113.70706 h 55.35062 V 93.518386 H 356.31723 V 67.777819 h 22.37578 l 3.0283,-20.18868 H 356.31723 V 29.587567 h 29.44181 V 9.3988872 Z"
       style="font-weight:900;font-size:88.1944px;line-height:1.25;font-family:'Smooch Sans';-inkscape-font-specification:'Smooch Sans, Heavy';letter-spacing:3.96875px;baseline-shift:baseline;vector-effect:non-scaling-stroke;fill:none;stroke:#000000;stroke-width:0.00133539;stroke-miterlimit:4;stroke-dasharray:none;-inkscape-stroke:hairline"
       id="path9755" />
    <path
       d="m 394.67562,113.70706 h 21.53459 l 8.41195,-20.356914 8.41195,20.356914 h 21.5346 l -16.65567,-40.545592 16.31919,-38.52673 h -21.5346 l -8.07547,18.842766 -8.07547,-18.842766 H 395.0121 l 16.31919,38.52673 z"
       style="font-weight:900;font-size:88.1944px;line-height:1.25;font-family:'Smooch Sans';-inkscape-font-specification:'Smooch Sans, Heavy';letter-spacing:3.96875px;baseline-shift:baseline;vector-effect:non-scaling-stroke;fill:none;stroke:#000000;stroke-width:0.00133539;stroke-miterlimit:4;stroke-dasharray:none;-inkscape-stroke:hairline"
       id="path9757" />
    <path
       d="m 491.41328,114.54826 c 21.1981,0 29.10534,-8.07547 29.10534,-20.693397 V 78.208638 l -25.23585,1.682388 v 8.58019 c 0,2.018867 0,5.551887 -4.03774,5.551887 -4.03773,0 -4.03773,-3.53302 -4.03773,-5.551887 V 59.029391 c 0,-1.850628 0,-6.056603 4.03773,-6.056603 4.03774,0 4.03774,4.205975 4.03774,6.056603 v 10.09434 l 25.23585,-1.68239 V 54.318699 c 0,-12.617925 -7.90724,-20.693397 -29.10534,-20.693397 -24.39466,0 -29.44183,8.748429 -29.44183,21.029876 v 38.863208 c 0,12.281444 5.04717,21.029874 29.44183,21.029874 z"
       style="font-weight:900;font-size:88.1944px;line-height:1.25;font-family:'Smooch Sans';-inkscape-font-specification:'Smooch Sans, Heavy';letter-spacing:3.96875px;baseline-shift:baseline;vector-effect:non-scaling-stroke;fill:none;stroke:#000000;stroke-width:0.00133539;stroke-miterlimit:4;stroke-dasharray:none;-inkscape-stroke:hairline"
       id="path9759" />
    <path
       d="m 563.25133,114.54826 c 21.19811,0 29.10535,-8.07547 29.10535,-20.693397 V 83.592285 l -25.23585,1.68239 v 3.196541 c 0,2.018867 0,5.551887 -4.03775,5.551887 -4.03772,0 -4.03772,-3.53302 -4.03772,-5.551887 v -9.253145 h 33.31132 V 54.318699 c 0,-12.617925 -7.90724,-20.693397 -29.10535,-20.693397 -24.39466,0 -29.44182,8.748429 -29.44182,21.029876 v 38.863208 c 0,12.281444 5.04716,21.029874 29.44182,21.029874 z m -4.20597,-55.518869 c 0,-1.850628 0,-6.056603 4.03772,-6.056603 4.03775,0 4.03775,4.205975 4.03775,6.056603 v 7.066038 h -8.07547 z"
       style="font-weight:900;font-size:88.1944px;line-height:1.25;font-family:'Smooch Sans';-inkscape-font-specification:'Smooch Sans, Heavy';letter-spacing:3.96875px;baseline-shift:baseline;vector-effect:non-scaling-stroke;fill:none;stroke:#000000;stroke-width:0.00133539;stroke-miterlimit:4;stroke-dasharray:none;-inkscape-stroke:hairline"
       id="path9761" />
    <path
       d="M 607.32991,9.3988872 V 113.70706 h 25.23585 V 9.3988872 Z"
       style="font-weight:900;font-size:88.1944px;line-height:1.25;font-family:'Smooch Sans';-inkscape-font-specification:'Smooch Sans, Heavy';letter-spacing:3.96875px;baseline-shift:baseline;vector-effect:non-scaling-stroke;fill:none;stroke:#000000;stroke-width:0.00133539;stroke-miterlimit:4;stroke-dasharray:none;-inkscape-stroke:hairline"
       id="path9763" />
    <path
       d="M 648.54858,9.3988872 V 113.70706 h 25.23585 V 9.3988872 Z"
       style="font-weight:900;font-size:88.1944px;line-height:1.25;font-family:'Smooch Sans';-inkscape-font-specification:'Smooch Sans, Heavy';letter-spacing:3.96875px;baseline-shift:baseline;vector-effect:non-scaling-stroke;fill:none;stroke:#000000;stroke-width:0.00133539;stroke-miterlimit:4;stroke-dasharray:none;-inkscape-stroke:hairline"
       id="path9765" />
    <path
       d="m 718.19966,114.54826 c 21.19812,0 29.10536,-8.07547 29.10536,-20.693397 V 83.592285 l -25.23585,1.68239 v 3.196541 c 0,2.018867 0,5.551887 -4.03774,5.551887 -4.03775,0 -4.03775,-3.53302 -4.03775,-5.551887 v -9.253145 h 33.31134 V 54.318699 c 0,-12.617925 -7.90724,-20.693397 -29.10536,-20.693397 -24.39464,0 -29.44181,8.748429 -29.44181,21.029876 v 38.863208 c 0,12.281444 5.04717,21.029874 29.44181,21.029874 z m -4.20598,-55.518869 c 0,-1.850628 0,-6.056603 4.03775,-6.056603 4.03774,0 4.03774,4.205975 4.03774,6.056603 v 7.066038 h -8.07549 z"
       style="font-weight:900;font-size:88.1944px;line-height:1.25;font-family:'Smooch Sans';-inkscape-font-specification:'Smooch Sans, Heavy';letter-spacing:3.96875px;baseline-shift:baseline;vector-effect:non-scaling-stroke;fill:none;stroke:#000000;stroke-width:0.00133539;stroke-miterlimit:4;stroke-dasharray:none;-inkscape-stroke:hairline"
       id="path9767" />
    <path
       d="m 762.27822,34.634738 v 79.072322 h 25.23585 V 58.861153 c 0,-3.869497 1.34592,-5.383649 4.20597,-5.383649 3.0283,0 3.8695,1.514152 3.8695,5.383649 v 54.845907 h 25.23585 V 50.280964 c 0,-11.94497 -6.56132,-17.160378 -17.32862,-17.160378 -8.24371,0 -14.97326,3.196542 -18.16982,9.757862 l -2.35534,-8.24371 z"
       style="font-weight:900;font-size:88.1944px;line-height:1.25;font-family:'Smooch Sans';-inkscape-font-specification:'Smooch Sans, Heavy';letter-spacing:3.96875px;baseline-shift:baseline;vector-effect:non-scaling-stroke;fill:none;stroke:#000000;stroke-width:0.00133539;stroke-miterlimit:4;stroke-dasharray:none;-inkscape-stroke:hairline"
       id="path9769" />
    <path
       d="m 863.89463,113.70706 h 15.14152 V 93.518386 h -7.23428 c -5.04716,0 -7.06603,-2.523585 -7.06603,-9.253145 V 53.477504 h 8.74842 l 5.72012,-18.842766 H 864.73584 V 19.829706 h -18.5063 l -4.20597,14.805032 h -7.90722 v 18.842766 h 5.55187 v 43.069184 c 0,15.982702 11.27203,17.160372 24.22641,17.160372 z"
       style="font-weight:900;font-size:88.1944px;line-height:1.25;font-family:'Smooch Sans';-inkscape-font-specification:'Smooch Sans, Heavy';letter-spacing:3.96875px;baseline-shift:baseline;vector-effect:non-scaling-stroke;fill:none;stroke:#000000;stroke-width:0.00133539;stroke-miterlimit:4;stroke-dasharray:none;-inkscape-stroke:hairline"
       id="path9771" />
    <path
       d="m 927.99383,72.320273 h 60.90252 v -20.18868 h -60.90252 z"
       style="font-weight:900;font-size:88.1944px;line-height:1.25;font-family:'Smooch Sans';-inkscape-font-specification:'Smooch Sans, Heavy';letter-spacing:3.96875px;baseline-shift:baseline;vector-effect:non-scaling-stroke;fill:none;stroke:#000000;stroke-width:0.00133539;stroke-miterlimit:4;stroke-dasharray:none;-inkscape-stroke:hairline"
       id="path9773" />
    <path
       d="m 1067.8003,113.70706 h 15.1415 V 93.518386 h -7.2343 c -5.0471,0 -7.066,-2.523585 -7.066,-9.253145 V 53.477504 h 8.7484 l 5.7201,-18.842766 h -14.4685 V 19.829706 h -18.5063 l -4.206,14.805032 h -7.9072 v 18.842766 h 5.5519 v 43.069184 c 0,15.982702 11.272,17.160372 24.2264,17.160372 z"
       style="font-weight:900;font-size:88.1944px;line-height:1.25;font-family:'Smooch Sans';-inkscape-font-specification:'Smooch Sans, Heavy';letter-spacing:3.96875px;baseline-shift:baseline;vector-effect:non-scaling-stroke;fill:none;stroke:#000000;stroke-width:0.00133539;stroke-miterlimit:4;stroke-dasharray:none;-inkscape-stroke:hairline"
       id="path9775" />
    <path
       d="m 1125.0017,114.54826 c 21.1981,0 29.1053,-8.07547 29.1053,-20.693397 V 54.318699 c 0,-12.617925 -7.9072,-20.693397 -29.1053,-20.693397 -24.3947,0 -29.4418,8.748429 -29.4418,21.029876 v 38.863208 c 0,12.281444 5.0471,21.029874 29.4418,21.029874 z m -0.1683,-20.525157 c -4.0377,0 -4.0377,-3.53302 -4.0377,-5.551887 V 59.029391 c 0,-1.850628 0,-6.056603 4.0377,-6.056603 4.0378,0 4.0378,4.205975 4.0378,6.056603 v 29.441825 c 0,2.018867 0,5.551887 -4.0378,5.551887 z"
       style="font-weight:900;font-size:88.1944px;line-height:1.25;font-family:'Smooch Sans';-inkscape-font-specification:'Smooch Sans, Heavy';letter-spacing:3.96875px;baseline-shift:baseline;vector-effect:non-scaling-stroke;fill:none;stroke:#000000;stroke-width:0.00133539;stroke-miterlimit:4;stroke-dasharray:none;-inkscape-stroke:hairline"
       id="path9777" />
    <path
       d="M 1201.0457,9.3988872 V 113.70706 h 55.3506 V 93.518386 h -29.4419 V 67.777819 h 22.3758 l 3.0283,-20.18868 h -25.4041 V 29.587567 h 29.4419 V 9.3988872 Z"
       style="font-weight:900;font-size:88.1944px;line-height:1.25;font-family:'Smooch Sans';-inkscape-font-specification:'Smooch Sans, Heavy';letter-spacing:3.96875px;baseline-shift:baseline;vector-effect:non-scaling-stroke;fill:none;stroke:#000000;stroke-width:0.00133539;stroke-miterlimit:4;stroke-dasharray:none;-inkscape-stroke:hairline"
       id="path9779" />
    <path
       d="m 1285.1651,113.70706 h 13.9638 l 2.3554,-20.188674 h -1.8507 c -3.0283,0 -4.3742,-0.16823 -4.3742,-5.888365 V 59.534108 c 0,-3.19654 1.3459,-4.710692 4.0377,-4.710692 h 4.0378 v 58.883644 h 25.2358 V 34.634738 h -38.1902 c -15.1415,0 -20.3569,8.24371 -20.3569,21.366351 v 35.330189 c 0,15.646222 0.8412,22.375782 15.1415,22.375782 z"
       style="font-weight:900;font-size:88.1944px;line-height:1.25;font-family:'Smooch Sans';-inkscape-font-specification:'Smooch Sans, Heavy';letter-spacing:3.96875px;baseline-shift:baseline;vector-effect:non-scaling-stroke;fill:none;stroke:#000000;stroke-width:0.00133539;stroke-miterlimit:4;stroke-dasharray:none;-inkscape-stroke:hairline"
       id="path9781" />
    <path
       d="m 1372.9857,114.54826 c 21.1981,0 29.1054,-8.07547 29.1054,-20.693397 V 78.208638 l -25.2359,1.682388 v 8.58019 c 0,2.018867 0,5.551887 -4.0377,5.551887 -4.0377,0 -4.0377,-3.53302 -4.0377,-5.551887 V 59.029391 c 0,-1.850628 0,-6.056603 4.0377,-6.056603 4.0377,0 4.0377,4.205975 4.0377,6.056603 v 10.09434 l 25.2359,-1.68239 V 54.318699 c 0,-12.617925 -7.9073,-20.693397 -29.1054,-20.693397 -24.3946,0 -29.4418,8.748429 -29.4418,21.029876 v 38.863208 c 0,12.281444 5.0472,21.029874 29.4418,21.029874 z"
       style="font-weight:900;font-size:88.1944px;line-height:1.25;font-family:'Smooch Sans';-inkscape-font-specification:'Smooch Sans, Heavy';letter-spacing:3.96875px;baseline-shift:baseline;vector-effect:non-scaling-stroke;fill:none;stroke:#000000;stroke-width:0.00133539;stroke-miterlimit:4;stroke-dasharray:none;-inkscape-stroke:hairline"
       id="path9783" />
    <path
       d="M 1416.3915,8.2212138 V 113.70706 h 25.2358 V 58.861153 c 0,-3.869497 1.346,-5.383649 4.206,-5.383649 3.8695,0 3.8695,2.523585 3.8695,6.561322 v 53.668234 h 25.2359 V 51.122159 c 0,-7.402516 -2.5236,-16.992138 -17.3287,-16.992138 -8.2437,0 -12.7861,3.19654 -15.9827,8.748427 V 8.2212138 Z"
       style="font-weight:900;font-size:88.1944px;line-height:1.25;font-family:'Smooch Sans';-inkscape-font-specification:'Smooch Sans, Heavy';letter-spacing:3.96875px;baseline-shift:baseline;vector-effect:non-scaling-stroke;fill:none;stroke:#000000;stroke-width:0.00133539;stroke-miterlimit:4;stroke-dasharray:none;-inkscape-stroke:hairline"
       id="path9785" />
    <path
       d="m 1551.3191,115.05298 c 21.0299,0 29.2736,-8.24371 29.2736,-20.861639 v -65.27673 c 0,-12.617925 -8.2437,-20.8616355 -29.2736,-20.8616355 -21.0299,0 -29.2736,8.2437105 -29.2736,20.8616355 v 65.27673 c 0,12.617929 8.2437,20.861639 29.2736,20.861639 z m 0,-21.198117 c -3.3648,0 -4.0377,-1.68239 -4.0377,-6.729558 V 35.475933 c 0,-4.878932 0.6729,-6.561322 4.0377,-6.561322 3.3648,0 4.0378,1.68239 4.0378,6.72956 v 51.481134 c 0,5.047168 -0.673,6.729558 -4.0378,6.729558 z"
       style="font-weight:900;font-size:88.1944px;line-height:1.25;font-family:'Smooch Sans';-inkscape-font-specification:'Smooch Sans, Heavy';letter-spacing:3.96875px;baseline-shift:baseline;vector-effect:non-scaling-stroke;fill:none;stroke:#000000;stroke-width:0.00133539;stroke-miterlimit:4;stroke-dasharray:none;-inkscape-stroke:hairline"
       id="path9787" />
    <path
       d="m 1622.989,113.70706 h 15.1415 V 93.518386 h -7.2342 c -5.0472,0 -7.0661,-2.523585 -7.0661,-9.253145 V 53.477504 h 8.7484 l 5.7202,-18.842766 h -14.4686 V 19.829706 h -18.5063 l -4.2059,14.805032 h -7.9073 v 18.842766 h 5.5519 v 43.069184 c 0,15.982702 11.272,17.160372 24.2264,17.160372 z"
       style="font-weight:900;font-size:88.1944px;line-height:1.25;font-family:'Smooch Sans';-inkscape-font-specification:'Smooch Sans, Heavy';letter-spacing:3.96875px;baseline-shift:baseline;vector-effect:non-scaling-stroke;fill:none;stroke:#000000;stroke-width:0.00133539;stroke-miterlimit:4;stroke-dasharray:none;-inkscape-stroke:hairline"
       id="path9789" />
    <path
       d="M 1651.7581,8.2212138 V 113.70706 h 25.2359 V 58.861153 c 0,-3.869497 1.3459,-5.383649 4.2059,-5.383649 3.8695,0 3.8695,2.523585 3.8695,6.561322 v 53.668234 h 25.2359 V 51.122159 c 0,-7.402516 -2.5236,-16.992138 -17.3287,-16.992138 -8.2437,0 -12.7861,3.19654 -15.9826,8.748427 V 8.2212138 Z"
       style="font-weight:900;font-size:88.1944px;line-height:1.25;font-family:'Smooch Sans';-inkscape-font-specification:'Smooch Sans, Heavy';letter-spacing:3.96875px;baseline-shift:baseline;vector-effect:non-scaling-stroke;fill:none;stroke:#000000;stroke-width:0.00133539;stroke-miterlimit:4;stroke-dasharray:none;-inkscape-stroke:hairline"
       id="path9791" />
    <path
       d="m 1754.2158,114.54826 c 21.1981,0 29.1053,-8.07547 29.1053,-20.693397 V 83.592285 l -25.2358,1.68239 v 3.196541 c 0,2.018867 0,5.551887 -4.0378,5.551887 -4.0377,0 -4.0377,-3.53302 -4.0377,-5.551887 v -9.253145 h 33.3113 V 54.318699 c 0,-12.617925 -7.9072,-20.693397 -29.1053,-20.693397 -24.3947,0 -29.4419,8.748429 -29.4419,21.029876 v 38.863208 c 0,12.281444 5.0472,21.029874 29.4419,21.029874 z m -4.206,-55.518869 c 0,-1.850628 0,-6.056603 4.0377,-6.056603 4.0378,0 4.0378,4.205975 4.0378,6.056603 v 7.066038 h -8.0755 z"
       style="font-weight:900;font-size:88.1944px;line-height:1.25;font-family:'Smooch Sans';-inkscape-font-specification:'Smooch Sans, Heavy';letter-spacing:3.96875px;baseline-shift:baseline;vector-effect:non-scaling-stroke;fill:none;stroke:#000000;stroke-width:0.00133539;stroke-miterlimit:4;stroke-dasharray:none;-inkscape-stroke:hairline"
       id="path9793" />
    <path
       d="m 1798.2943,113.70706 h 25.2358 V 66.431908 c 0,-8.075472 5.2154,-10.935535 10.4308,-10.935535 5.3837,0 9.9261,0.672956 12.2815,1.177673 l 1.1776,-21.87107 c -1.6823,-1.009433 -4.7106,-1.51415 -11.1037,-1.51415 -5.0472,0 -11.7768,3.19654 -14.9733,9.589622 l -2.3553,-8.24371 h -20.6934 z"
       style="font-weight:900;font-size:88.1944px;line-height:1.25;font-family:'Smooch Sans';-inkscape-font-specification:'Smooch Sans, Heavy';letter-spacing:3.96875px;baseline-shift:baseline;vector-effect:non-scaling-stroke;fill:none;stroke:#000000;stroke-width:0.00133539;stroke-miterlimit:4;stroke-dasharray:none;-inkscape-stroke:hairline"
       id="path9795" />
    <rect
       style="vector-effect:non-scaling-stroke;fill:none;stroke:#000000;stroke-width:0.000700042;-inkscape-stroke:hairline"
       id="rect11952"
       width="153.95927"
       height="117.60436"
       x="-1.379319"
       y="-3.8972964" />
  </g>
</svg>
