<?xml version="1.0" encoding="UTF-8" standalone="no"?>
<!-- Created with Inkscape (http://www.inkscape.org/) -->

<svg
   width="354.51312mm"
   height="131.16992mm"
   viewBox="0 0 354.51312 131.16992"
   version="1.1"
   id="svg2744"
   sodipodi:docname="front-or-back-piece.svg"
   inkscape:version="1.1.2 (0a00cf5339, 2022-02-04, custom)"
   xmlns:inkscape="http://www.inkscape.org/namespaces/inkscape"
   xmlns:sodipodi="http://sodipodi.sourceforge.net/DTD/sodipodi-0.dtd"
   xmlns="http://www.w3.org/2000/svg"
   xmlns:svg="http://www.w3.org/2000/svg">
  <sodipodi:namedview
     id="namedview2746"
     pagecolor="#ffffff"
     bordercolor="#666666"
     borderopacity="1.0"
     inkscape:pageshadow="2"
     inkscape:pageopacity="0.0"
     inkscape:pagecheckerboard="0"
     inkscape:document-units="mm"
     showgrid="false"
     inkscape:zoom="0.74208053"
     inkscape:cx="649.5252"
     inkscape:cy="367.21082"
     inkscape:current-layer="layer1"
     fit-margin-top="0"
     fit-margin-left="0"
     fit-margin-right="0"
     fit-margin-bottom="0" />
  <defs
     id="defs2741" />
  <g
     inkscape:label="Layer 1"
     inkscape:groupmode="layer"
     id="layer1"
     transform="translate(180.10891,-6.43665)">
    <path
       id="path2479"
       style="color:#000000;vector-effect:non-scaling-stroke;fill:none;stroke:#000000;stroke-width:0.00999999;stroke-miterlimit:4;stroke-dasharray:none;-inkscape-stroke:hairline"
       d="M 21.566413 487.77727 L 34.015635 487.77729 L 34.015635 476.43938 L 56.714835 476.43938 L 56.714835 487.77729 L 79.416 487.77729 L 79.416 476.43938 L 102.11524 476.43938 L 102.11524 487.77729 L 124.8164 487.77729 L 124.8164 476.43938 L 147.5156 476.43938 L 147.5156 487.77729 L 170.21484 487.77729 L 170.21484 476.43938 L 192.91601 476.43938 L 192.91601 487.77729 L 215.61524 487.77729 L 215.61524 476.43938 L 238.31641 476.43938 L 238.31641 487.77729 L 261.01561 487.77729 L 261.01561 476.43938 L 283.71681 476.43938 L 283.71681 487.77729 L 306.41601 487.77729 L 306.41601 476.43938 L 329.11521 476.43938 L 329.11521 487.77729 L 351.81642 487.77729 L 351.81642 476.43938 L 374.51562 476.43938 L 374.51562 487.77729 L 397.21678 487.77729 L 397.21678 476.43938 L 419.91602 476.43938 L 419.91602 487.77729 L 442.61718 487.77729 L 442.61718 476.43938 L 465.31642 476.43938 L 465.31642 487.77729 L 488.01562 487.77729 L 488.01562 476.43938 L 510.71679 476.43938 L 510.71679 487.77729 L 533.41603 487.77729 L 533.41603 476.43938 L 556.11523 476.43938 L 556.11523 487.77729 L 578.81639 487.77729 L 578.81639 476.43938 L 601.51563 476.43938 L 601.51563 487.77729 L 624.21483 487.77729 L 624.21483 476.43938 L 646.91599 476.43938 L 646.91599 487.77729 L 669.61523 487.77729 L 669.61523 476.43938 L 692.31443 476.43938 L 692.31443 487.77729 L 715.0156 487.77729 L 715.0156 476.43938 L 737.71483 476.43938 L 737.71483 487.77729 L 760.41403 487.77729 L 760.41403 476.43938 L 783.11524 476.43938 L 783.11524 487.77729 L 805.81444 487.77729 L 805.81444 476.43938 L 828.51368 476.43938 L 828.51368 487.77729 L 851.21681 487.77729 L 851.21681 476.43938 L 873.91797 476.43938 L 873.91797 487.77729 L 896.61717 487.77729 L 896.61717 476.43938 L 919.31641 476.43938 L 919.31641 487.77729 L 942.01757 487.77729 L 942.01757 476.43938 L 964.71677 476.43938 L 964.71677 487.77729 L 987.41601 487.77729 L 987.41601 476.43938 L 1010.1172 476.43938 L 1010.1172 487.77729 L 1032.8164 487.77729 L 1032.8164 476.43938 L 1055.5156 476.43938 L 1055.5156 487.77729 L 1078.2168 487.77729 L 1078.2168 476.43938 L 1100.916 476.43938 L 1100.916 487.77729 L 1123.6152 487.77729 L 1123.6152 476.43938 L 1146.3164 476.43938 L 1146.3164 487.77729 L 1169.0156 487.77729 L 1169.0156 476.43938 L 1191.7148 476.43938 L 1191.7148 487.77729 L 1214.416 487.77729 L 1214.416 476.43938 L 1237.1152 476.43938 L 1237.1152 487.77729 L 1259.8145 487.77729 L 1259.8145 476.43938 L 1282.5137 476.43938 L 1282.5137 487.77729 L 1305.2148 487.77729 L 1305.2148 476.43938 L 1327.9141 476.43938 L 1327.9141 487.77729 L 1338.8887 487.77729 "
       transform="matrix(0.26458333,0,0,0.26458333,-180.10891,6.43665)" />
    <path
       id="path3933"
       style="color:#000000;vector-effect:non-scaling-stroke;fill:none;stroke:#000000;stroke-width:0.00999999;stroke-miterlimit:4;stroke-dasharray:none;-inkscape-stroke:hairline"
       d="M 20.562506 487.77729 L 21.566413 487.77727 "
       transform="matrix(0.26458333,0,0,0.26458333,-180.10891,6.43665)" />
    <path
       id="path3929"
       style="color:#000000;vector-effect:non-scaling-stroke;fill:none;stroke:#000000;stroke-width:0.00999999;stroke-miterlimit:4;stroke-dasharray:none;-inkscape-stroke:hairline"
       d="M 11.337902 333.707 L 11.337902 333.707 L 11.337902 333.71871 "
       transform="matrix(0.26458333,0,0,0.26458333,-180.10891,6.43665)" />
    <path
       id="path3927"
       style="color:#000000;vector-effect:non-scaling-stroke;fill:none;stroke:#000000;stroke-width:0.00999999;stroke-miterlimit:4;stroke-dasharray:none;-inkscape-stroke:hairline"
       d="M 0 333.707 L 11.337902 333.707 "
       transform="matrix(0.26458333,0,0,0.26458333,-180.10891,6.43665)" />
    <path
       id="path3923"
       style="color:#000000;vector-effect:non-scaling-stroke;fill:none;stroke:#000000;stroke-width:0.00999999;stroke-miterlimit:4;stroke-dasharray:none;-inkscape-stroke:hairline"
       d="M 0 184.04495 L 0 184.05081 "
       transform="matrix(0.26458333,0,0,0.26458333,-180.10891,6.43665)" />
    <path
       id="path3919"
       style="color:#000000;vector-effect:non-scaling-stroke;fill:none;stroke:#000000;stroke-width:0.00999999;stroke-miterlimit:4;stroke-dasharray:none;-inkscape-stroke:hairline"
       d="M 21.566413 11.556586 L 20.562506 11.556586 "
       transform="matrix(0.26458333,0,0,0.26458333,-180.10891,6.43665)" />
    <path
       id="path3917"
       style="color:#000000;vector-effect:non-scaling-stroke;fill:none;stroke:#000000;stroke-width:0.00999999;stroke-miterlimit:4;stroke-dasharray:none;-inkscape-stroke:hairline"
       d="M 1338.8887 11.556586 L 1327.9141 11.556586 L 1327.9141 22.896416 L 1305.2148 22.896416 L 1305.2148 11.556586 L 1282.5137 11.556586 L 1282.5137 22.896416 L 1259.8145 22.896416 L 1259.8145 11.556586 L 1237.1152 11.556586 L 1237.1152 22.896416 L 1214.416 22.896416 L 1214.416 11.556586 L 1191.7148 11.556586 L 1191.7148 22.896416 L 1169.0156 22.896416 L 1169.0156 11.556586 L 1146.3164 11.556586 L 1146.3164 22.896416 L 1123.6152 22.896416 L 1123.6152 11.556586 L 1100.916 11.556586 L 1100.916 22.896416 L 1078.2168 22.896416 L 1078.2168 11.556586 L 1055.5156 11.556586 L 1055.5156 22.896416 L 1032.8164 22.896416 L 1032.8164 11.556586 L 1010.1172 11.556586 L 1010.1172 22.896416 L 987.41601 22.896416 L 987.41601 11.556586 L 964.71677 11.556586 L 964.71677 22.896416 L 942.01757 22.896416 L 942.01757 11.556586 L 919.31641 11.556586 L 919.31641 22.896416 L 896.61717 22.896416 L 896.61717 11.556586 L 873.91797 11.556586 L 873.91797 22.896416 L 851.21681 22.896416 L 851.21681 11.556586 L 828.51368 11.556586 L 828.51368 22.896416 L 805.81444 22.896416 L 805.81444 11.556586 L 783.11524 11.556586 L 783.11524 22.896416 L 760.41403 22.896416 L 760.41403 11.556586 L 737.71483 11.556586 L 737.71483 22.896416 L 715.0156 22.896416 L 715.0156 11.556586 L 692.31443 11.556586 L 692.31443 22.896416 L 669.61523 22.896416 L 669.61523 11.556586 L 646.91599 11.556586 L 646.91599 22.896416 L 624.21483 22.896416 L 624.21483 11.556586 L 601.51563 11.556586 L 601.51563 22.896416 L 578.81639 22.896416 L 578.81639 11.556586 L 556.11523 11.556586 L 556.11523 22.896416 L 533.41603 22.896416 L 533.41603 11.556586 L 510.71679 11.556586 L 510.71679 22.896416 L 488.01562 22.896416 L 488.01562 11.556586 L 465.31642 11.556586 L 465.31642 22.896416 L 442.61718 22.896416 L 442.61718 11.556586 L 419.91602 11.556586 L 419.91602 22.896416 L 397.21678 22.896416 L 397.21678 11.556586 L 374.51562 11.556586 L 374.51562 22.896416 L 351.81642 22.896416 L 351.81642 11.556586 L 329.11521 11.556586 L 329.11521 22.896416 L 306.41601 22.896416 L 306.41601 11.556586 L 283.71681 11.556586 L 283.71681 22.896416 L 261.01561 22.896416 L 261.01561 11.556586 L 238.31641 11.556586 L 238.31641 22.896416 L 215.61524 22.896416 L 215.61524 11.556586 L 192.91601 11.556586 L 192.91601 22.896416 L 170.21681 22.896416 L 170.21681 11.556586 L 147.5156 11.556586 L 147.5156 22.896416 L 124.8164 22.896416 L 124.8164 11.556586 L 102.11524 11.556586 L 102.11524 22.896416 L 79.416 22.896416 L 79.416 11.556586 L 56.714835 11.556586 L 56.714835 22.896416 L 34.015635 22.896416 L 34.015635 11.556586 L 21.566413 11.556586 "
       transform="matrix(0.26458333,0,0,0.26458333,-180.10891,6.43665)" />
    <path
       id="path3915"
       style="color:#000000;vector-effect:non-scaling-stroke;fill:none;stroke:#000000;stroke-width:0.00999999;stroke-miterlimit:4;stroke-dasharray:none;-inkscape-stroke:hairline"
       d="M 1316.6094 174.8304 L 1316.6094 324.50419 L 1339.3906 324.50419 L 1339.3906 324.49285 L 1316.6172 324.49285 L 1316.6172 174.83686 L 1339.3906 174.83686 L 1339.3906 174.8293 L 1316.6094 174.8304 L 1316.6094 174.8304 "
       transform="matrix(0.26458333,0,0,0.26458333,-180.10891,6.43665)" />
    <path
       id="path3913"
       style="color:#000000;vector-effect:non-scaling-stroke;fill:none;stroke:#000000;stroke-width:0.00999999;stroke-miterlimit:4;stroke-dasharray:none;-inkscape-stroke:hairline"
       d="M 1338.8882 0 L 1338.8882 174.83267 L 1339.8921 174.83267 L 1339.8921 0 L 1338.8882 0 L 1338.8882 0 "
       transform="matrix(0.26458333,0,0,0.26458333,-180.10891,6.43665)" />
    <path
       id="path3911"
       style="color:#000000;vector-effect:non-scaling-stroke;fill:none;stroke:#000000;stroke-width:0.00999999;stroke-miterlimit:4;stroke-dasharray:none;-inkscape-stroke:hairline"
       d="M 1338.8882 324.50049 L 1338.8882 495.76033 L 1339.8921 495.76033 L 1339.8921 324.50049 L 1338.8882 324.50049 L 1338.8882 324.50049 "
       transform="matrix(0.26458333,0,0,0.26458333,-180.10891,6.43665)" />
    <path
       id="path2479-3"
       style="color:#000000;vector-effect:non-scaling-stroke;fill:#000000;stroke:#000000;stroke-width:0.00264583;stroke-miterlimit:4;stroke-dasharray:none;-inkscape-stroke:hairline"
       d="m -174.66862,94.73198 v 45.3125 h 0.26562 v -45.3125 z m 0,-85.85742 v 46.25781 h 0.26562 V 8.87456 Z m -5.89461,46.25721 v 39.60119 h 6.02753 v -0.003 h -6.02547 V 55.13348 h 6.02547 v -0.002 z" />
  </g>
</svg>
