<?xml version="1.0" encoding="UTF-8" standalone="no"?>
<!-- Created with Inkscape (http://www.inkscape.org/) -->

<svg
   width="6000mm"
   height="300mm"
   viewBox="0 0 6000 299.99999"
   version="1.1"
   id="svg1648"
   inkscape:version="1.1.2 (0a00cf5339, 2022-02-04, custom)"
   sodipodi:docname="front-modular-ends.svg"
   xmlns:inkscape="http://www.inkscape.org/namespaces/inkscape"
   xmlns:sodipodi="http://sodipodi.sourceforge.net/DTD/sodipodi-0.dtd"
   xmlns="http://www.w3.org/2000/svg"
   xmlns:svg="http://www.w3.org/2000/svg">
  <sodipodi:namedview
     id="namedview1650"
     pagecolor="#ffffff"
     bordercolor="#666666"
     borderopacity="1.0"
     inkscape:pageshadow="2"
     inkscape:pageopacity="0.0"
     inkscape:pagecheckerboard="0"
     inkscape:document-units="mm"
     showgrid="false"
     fit-margin-top="0"
     fit-margin-left="0"
     fit-margin-right="0"
     fit-margin-bottom="0"
     inkscape:zoom="0.74208053"
     inkscape:cx="665.69595"
     inkscape:cy="559.91228"
     inkscape:current-layer="layer1"
     showguides="true"
     inkscape:guide-bbox="true" />
  <defs
     id="defs1645" />
  <g
     inkscape:label="Layer 1"
     inkscape:groupmode="layer"
     id="layer1"
     transform="translate(-25.109879,-70.214606)">
    <path
       id="path933"
       style="vector-effect:non-scaling-stroke;fill:none;stroke:#000000;stroke-width:0.00070004;stroke-miterlimit:4;stroke-dasharray:none;-inkscape-stroke:hairline"
       d="m 222.1527,217.06981 v 0 3.00035 h 6.00636 v -3.00035 h 6.00584 v 3.00035 h 8.99998 v 0 -8.99998 h -2.99983 v -6.35309 h 2.99983 v -6.3531 h -2.99983 v -6.35259 h 2.99983 v -6.3531 h -2.99983 v -6.35309 h 2.99983 v -6.35259 h -2.99983 v -6.35313 h 2.99983 v -6.35309 h -2.99983 v -6.3531 h 2.99983 v -6.35256 h -2.99983 v -6.35313 h 2.99983 v -6.35309 h -2.99983 v -6.35259 h 2.99983 v -6.3531 h -2.99983 v -6.3531 h 2.99983 v -6.35256 h -2.99983 v -6.35312 h 2.99983 v -8.999963 h -8.99998 v 2.99981 M 119.86885,157.0701 v 60.00025 M 131.88105,97.070437 V 157.0701 m 0,3e-5 h -12.0122 m 0,60.00022 v 0 h 6.00584 v 2.99982 h 6.00636 v -2.99982 h 6.00585 v 2.99982 h 6.00636 v -2.99982 h 6.00584 v 2.99982 h 6.00585 v -2.99982 h 6.00635 v 2.99982 h 6.00585 v -2.99982 h 6.00636 v 2.99982 h 6.00584 v -2.99982 h 6.00637 v 2.99982 h 6.00584 v -2.99982 h 6.00584 v 2.99982 h 6.00636 v -2.99982 h 6.00584 v 2.99982 h 6.00636 v -2.99982 h 6.00585 v 2.99982 h 0.18087 M 234.16489,94.070087 h -0.18088 v 3.00035 h -6.00584 v -3.00035 h -6.00636 v 3.00035 h -6.00585 v -3.00035 h -6.00636 v 3.00035 h -6.00584 v -3.00035 h -6.00636 v 3.00035 h -6.00584 v -3.00035 h -6.00584 v 3.00035 h -6.00637 v -3.00035 h -6.00584 v 3.00035 h -6.00636 v -3.00035 h -6.00585 v 3.00035 h -6.00583 v -3.00035 h -6.00637 v 3.00035 h -6.00584 v -3.00035 h -6.00636 v 3.00035 h -6.00585" />
    <path
       id="path3758"
       style="fill:none;stroke:#000000;stroke-width:0.264583px;stroke-linecap:butt;stroke-linejoin:miter;stroke-opacity:1"
       d="m 116.49579,153.34644 v 60.00023 m 12.0122,-119.999913 v 59.999683 m 0,1e-5 h -12.0122 M 56.254359,93.347257 v 0 -3.00035 H 50.24799 v 3.00035 h -6.005837 v -3.00035 h -8.999982 v 0 8.99998 h 2.999824 v 6.353093 h -2.999824 v 6.3531 h 2.999824 v 6.35259 h -2.999824 v 6.3531 h 2.999824 v 6.35309 h -2.999824 v 6.35259 h 2.999824 v 6.35313 h -2.999824 v 6.35309 h 2.999824 v 6.3531 h -2.999824 v 6.35256 h 2.999824 v 6.35313 h -2.999824 v 6.35309 h 2.999824 v 6.35259 h -2.999824 v 6.3531 h 2.999824 v 6.3531 h -2.999824 v 6.35254 h 2.999824 v 6.35315 h -2.999824 v 9.00002 h 8.999982 V 213.3472 M 128.508,93.346717 v 0 -2.99982 h -6.00586 v 2.99982 h -6.00635 v -2.99982 h -6.00585 v 2.99982 h -6.00637 v -2.99982 h -6.005843 v 2.99982 h -6.006369 v -2.99982 h -6.005853 v 2.99982 h -6.005839 v -2.99982 h -6.006359 v 2.99982 h -6.00584 v -2.99982 h -6.006369 v 2.99982 h -6.005849 v -2.99982 h -0.18087 M 44.242163,216.34705 h 0.180871 v -3.00038 h 6.005846 v 3.00038 h 6.006369 v -3.00038 h 6.005849 v 3.00038 h 6.006369 v -3.00038 h 6.00584 v 3.00038 h 6.006359 v -3.00038 h 6.005839 v 3.00038 h 6.005853 v -3.00038 h 6.006369 v 3.00038 h 6.005843 v -3.00038 h 6.00637 v 3.00038 h 6.00585 v -3.00038" />
  </g>
</svg>
