<?xml version="1.0" encoding="UTF-8" standalone="no"?>
<!-- Created with Inkscape (http://www.inkscape.org/) -->

<svg
   width="6000mm"
   height="300mm"
   viewBox="0 0 6000 299.99999"
   version="1.1"
   id="svg1648"
   inkscape:version="1.1.2 (0a00cf5339, 2022-02-04, custom)"
   sodipodi:docname="front-modular.svg"
   xmlns:inkscape="http://www.inkscape.org/namespaces/inkscape"
   xmlns:sodipodi="http://sodipodi.sourceforge.net/DTD/sodipodi-0.dtd"
   xmlns="http://www.w3.org/2000/svg"
   xmlns:svg="http://www.w3.org/2000/svg">
  <sodipodi:namedview
     id="namedview1650"
     pagecolor="#ffffff"
     bordercolor="#666666"
     borderopacity="1.0"
     inkscape:pageshadow="2"
     inkscape:pageopacity="0.0"
     inkscape:pagecheckerboard="0"
     inkscape:document-units="mm"
     showgrid="false"
     fit-margin-top="0"
     fit-margin-left="0"
     fit-margin-right="0"
     fit-margin-bottom="0"
     inkscape:zoom="0.52473017"
     inkscape:cx="842.33769"
     inkscape:cy="620.31882"
     inkscape:current-layer="layer1" />
  <defs
     id="defs1645" />
  <g
     inkscape:label="Layer 1"
     inkscape:groupmode="layer"
     id="layer1"
     transform="translate(-25.109879,-70.214606)">
    <path
       id="path1596"
       style="fill:none;stroke:#000000;stroke-width:0.264583px;stroke-linecap:butt;stroke-linejoin:miter;stroke-opacity:1"
       d="m 35.24217,153.34691 v 60.00025 M 47.25435,93.347245 v 59.999665 m 0,3e-5 H 35.24217 m 0,60.00022 v 0 H 41.248 v 2.99982 h 6.00635 v -2.99982 h 6.00584 v 2.99982 h 6.006349 v -2.99982 h 6.00583 v 2.99982 h 6.00584 v -2.99982 h 6.006351 v 2.99982 h 6.005838 v -2.99982 h 6.006351 v 2.99982 h 6.00583 v -2.99982 h 6.006361 v 2.99982 h 6.00583 v -2.99982 h 6.00583 v 2.99982 h 6.00636 v -2.99982 h 6.00583 v 2.99982 h 6.00635 v -2.99982 h 6.00584 v 2.99982 h 6.00635 v -2.99982 h 6.00584 v 2.99982 h 6.00583 v -2.99982 h 6.00635 v 2.99982 h 6.00584 v -2.99982 h 6.00583 v 2.99982 h 6.00635 v -2.99982 h 6.00584 v 2.99982 h 6.00583 v -2.99982 h 6.00635 v 2.99982 h 6.00584 v -2.99982 h 6.00583 v 2.99982 h 6.00635 v -2.99982 h 6.00584 v 2.99982 h 6.00583 v -2.99982 h 6.00636 v 2.99982 h 6.00583 v -2.99982 h 6.00584 v 2.99982 h 6.00687 v -2.99982 h 6.00635 v 2.99982 h 6.00583 v -2.99982 h 6.00584 v 2.99982 h 6.00635 v -2.99982 h 6.00583 v 2.99982 h 6.00584 v -2.99982 h 6.00635 v 2.99982 h 6.00583 v -2.99982 h 6.00583 v 2.99982 h 6.00636 v -2.99982 h 6.00583 v 2.99982 h 6.00583 v -2.99982 h 6.00636 v 2.99982 h 6.00583 v -2.99982 h 6.00583 v 2.99982 h 6.00636 v -2.99982 h 6.00583 v 2.99982 h 6.00586 v -2.99982 h 6.00583 v 2.99982 h 6.00633 v -2.99982 h 6.00585 v 2.99982 h 6.00583 v -2.99982 h 6.00636 v 2.99982 h 6.00687 v -2.99982 M 407.61737,93.347245 v 0 -3.000348 h -6.00635 v 3.000348 h -6.00583 v -3.000348 h -6.00583 v 3.000348 h -6.0074 v -3.000348 h -6.00583 v 3.000348 h -6.00585 v -3.000348 h -6.00633 v 3.000348 h -6.00583 v -3.000348 h -6.00586 v 3.000348 h -6.00583 v -3.000348 h -6.00636 v 3.000348 h -6.00583 v -3.000348 h -6.00583 v 3.000348 h -6.00636 v -3.000348 h -6.00583 v 3.000348 h -6.00583 v -3.000348 h -6.00636 v 3.000348 h -6.00583 v -3.000348 h -6.00583 v 3.000348 h -6.00635 v -3.000348 h -6.00584 v 3.000348 h -6.00583 V 90.346897 H 269.478 v 3.000348 h -6.00584 v -3.000348 h -6.00583 v 3.000348 h -6.00635 v -3.000348 h -6.00687 v 3.000348 h -6.00584 v -3.000348 h -6.00583 v 3.000348 h -6.00636 v -3.000348 h -6.00583 v 3.000348 h -6.00584 v -3.000348 h -6.00635 v 3.000348 h -6.00583 v -3.000348 h -6.00584 v 3.000348 h -6.00635 v -3.000348 h -6.00583 v 3.000348 h -6.00584 v -3.000348 h -6.00635 v 3.000348 h -6.00583 v -3.000348 h -6.00584 v 3.000348 H 155.363 v -3.000348 h -6.00583 v 3.000348 h -6.00584 v -3.000348 h -6.00635 v 3.000348 h -6.00584 v -3.000348 h -6.00635 v 3.000348 h -6.00583 v -3.000348 h -6.00636 v 3.000348 h -6.00583 v -3.000348 h -6.00583 v 3.000348 h -6.006361 v -3.000348 h -6.00583 v 3.000348 H 83.290398 V 90.346897 H 77.28456 v 3.000348 h -6.00583 v -3.000348 h -6.006361 v 3.000348 h -6.00583 V 90.346897 H 53.26019 v 3.000348 h -6.00584 m 348.35084,59.999695 v 60.00022 M 407.61737,93.347245 v 59.999695 m 0,0 h -12.01218" />
  </g>
</svg>
