<?xml version="1.0" encoding="UTF-8" standalone="no"?>
<!-- Created with Inkscape (http://www.inkscape.org/) -->

<svg
   width="380mm"
   height="126.00005mm"
   viewBox="0 0 380 126.00005"
   version="1.1"
   id="svg1120"
   inkscape:version="1.1.2 (0a00cf5339, 2022-02-04, custom)"
   sodipodi:docname="lightbox_2m_front.svg"
   xmlns:inkscape="http://www.inkscape.org/namespaces/inkscape"
   xmlns:sodipodi="http://sodipodi.sourceforge.net/DTD/sodipodi-0.dtd"
   xmlns="http://www.w3.org/2000/svg"
   xmlns:svg="http://www.w3.org/2000/svg">
  <sodipodi:namedview
     id="namedview1122"
     pagecolor="#ffffff"
     bordercolor="#666666"
     borderopacity="1.0"
     inkscape:pageshadow="2"
     inkscape:pageopacity="0.0"
     inkscape:pagecheckerboard="0"
     inkscape:document-units="mm"
     showgrid="false"
     fit-margin-top="0"
     fit-margin-left="0"
     fit-margin-right="0"
     fit-margin-bottom="0"
     inkscape:zoom="0.13118254"
     inkscape:cx="1920.9873"
     inkscape:cy="1010.0429"
     inkscape:current-layer="layer1" />
  <defs
     id="defs1117" />
  <g
     inkscape:label="Layer 1"
     inkscape:groupmode="layer"
     id="layer1"
     transform="translate(965.20649,-61.433343)">
    <path
       id="path1093"
       d="m -965.20649,61.433343 v 8.999966 h 2.99982 v 6.353101 h -2.99982 v 6.353101 h 2.99982 v 6.352582 h -2.99982 v 6.353101 h 2.99982 v 6.353096 h -2.99982 v 6.35259 h 2.99982 v 6.3531 h -2.99982 v 6.3531 h 2.99982 v 6.3531 h -2.99982 v 6.35258 h 2.99982 v 6.35311 h -2.99982 v 6.3531 h 2.99982 v 6.35258 h -2.99982 v 6.3531 h 2.99982 v 6.3531 h -2.99982 v 6.35258 h 2.99982 v 6.3531 h -2.99982 v 8.99997 h 8.99997 v -2.99981 h 6.00583 v 2.99981 h 6.00635 v -2.99981 h 6.00584 v 2.99981 h 6.00635 v -2.99981 h 6.00583 v 2.99981 h 6.00584 v -2.99981 h 6.00635 v 2.99981 h 6.00584 v -2.99981 h 6.00635 v 2.99981 h 6.00583 v -2.99981 h 6.00636 v 2.99981 h 6.00583 v -2.99981 h 6.00583 v 2.99981 h 6.00636 v -2.99981 h 6.00583 v 2.99981 h 6.00635 v -2.99981 h 6.00584 v 2.99981 h 6.00635 v -2.99981 h 6.00584 v 2.99981 h 6.00583 v -2.99981 h 6.00635 v 2.99981 h 6.00584 v -2.99981 h 6.00583 v 2.99981 h 6.00635 v -2.99981 h 6.00584 v 2.99981 h 6.00583 v -2.99981 h 6.00635 v 2.99981 h 6.00584 v -2.99981 h 6.00583 v 2.99981 h 6.00635 v -2.99981 h 6.00584 v 2.99981 h 6.00583 v -2.99981 h 6.00636 v 2.99981 h 6.00583 v -2.99981 h 6.00584 v 2.99981 h 6.00687 v -2.99981 h 6.00635 v 2.99981 h 6.00583 v -2.99981 h 6.00584 v 2.99981 h 6.00635 v -2.99981 h 6.00583 v 2.99981 h 6.00584 v -2.99981 h 6.00635 v 2.99981 h 6.00583 v -2.99981 h 6.00583 v 2.99981 h 6.00636 v -2.99981 h 6.00583 v 2.99981 h 6.00583 v -2.99981 h 6.00636 v 2.99981 h 6.00583 v -2.99981 h 6.00583 v 2.99981 h 6.00636 v -2.99981 h 6.00583 v 2.99981 h 6.00586 v -2.99981 h 6.00583 v 2.99981 h 6.00633 v -2.99981 h 6.00585 v 2.99981 h 6.00583 v -2.99981 h 6.00636 v 2.99981 h 6.00687 v -2.99981 h 6.00583 v 2.99981 h 6.00635 v -2.99981 h 6.00583 v 2.99981 h 6.00583 v -2.99981 h 6.00636 v 2.99981 h 6.00583 v -2.99981 h 6.00583 v 2.99981 h 6.00636 v -2.99981 h 6.00583 v 2.99981 h 6.00583 v -2.99981 h 6.00636 v 2.99981 h 6.00583 v -2.99981 h 6.00583 v 2.99981 h 6.00636 v -2.99981 h 6.00583 v 2.99981 h 6.00583 v -2.99981 h 6.00586 v 2.99981 h 6.00633 v -2.99981 h 6.00586 v 2.99981 h 6.00583 v -2.99981 h 6.00633 v 2.99981 h 6.00585 v -2.99981 h 6.00583 v 2.99981 h 6.0074 v -2.99981 h 6.00583 v 2.99981 h 6.00583 v -2.99981 h 6.00635 v 2.99981 h 6.00583 v -2.99981 h 6.00583 v 2.99981 h 6.00636 v -2.99981 h 6.00583 v 2.99981 h 6.00583 v -2.99981 h 6.00636 v 2.99981 h 6.00583 v -2.99981 h 6.00583 v 2.99981 h 6.00583 v -2.99981 h 6.00636 v 2.99981 h 6.00583 v -2.99981 h 6.00586 v 2.99981 h 6.00633 v -2.99981 h 6.00583 v 2.99981 h 6.00586 v -2.99981 h 6.00633 v 2.99981 h 6.00586 v -2.99981 h 6.00583 v 2.99981 h 6.00633 v -2.99981 h 6.00689 v 2.99981 h 6.00583 v -2.99981 h 6.00635 v 2.99981 h 6.00583 v -2.99981 h 6.00583 v 2.99981 h 6.00636 v -2.99981 h 6.00583 v 2.99981 h 6.00583 v -2.99981 h 6.00583 v 2.99981 h 6.00636 v -2.99981 h 6.00583 v 2.99981 h 6.00583 v -2.99981 h 6.00636 v 2.99981 h 6.00583 v -2.99981 h 6.00583 v 2.99981 h 6.00636 v -2.99981 h 6.00583 v 2.99981 h 6.00586 v -2.99981 h 6.00633 v 2.99981 h 6.00583 v -2.99981 h 6.00586 v 2.99981 h 6.00633 v -2.99981 h 6.00585 v 2.99981 h 6.00583 v -2.99981 h 6.0074 v 2.99981 h 6.00583 v -2.99981 h 6.00583 v 2.99981 h 6.00583 v -2.99981 h 6.00635 v 2.99981 h 6.00583 v -2.99981 h 6.00583 v 2.99981 h 6.00636 v -2.99981 h 6.00583 v 2.99981 h 6.00583 v -2.99981 h 6.00636 v 2.99981 h 6.00583 v -2.99981 h 6.005832 v 2.99981 h 6.006359 v -2.99981 h 6.00583 v 2.99981 h 6.00583 v -2.99981 h 6.006359 v 2.99981 h 6.00583 v -2.99981 h 6.005857 v 2.99981 h 6.006332 v -2.99981 h 6.00583 v 2.99981 h 6.005857 v -2.99981 h 6.006332 v 2.99981 h 6.006889 v -2.99981 h 6.005829 v 2.99981 h 6.00583 v -2.99981 h 6.00636 v 2.99981 h 6.0058294 v -2.99981 h 6.00583 v 2.99981 h 6.006359 v -2.99981 h 6.0058296 v 2.99981 h 6.00583 v -2.99981 h 6.006359 v 2.99981 h 6.00583 v -2.99981 h 6.00583 v 2.99981 h 6.003264 v -2.99981 h 6.009957 v 2.99981 h 6.009984 v -2.99981 h 6.000141 v 2.99981 h 6.009958 v -2.99981 h 5.999638 v 2.99981 h 6.009984 v -2.99981 h 6.010487 v 2.99981 h 5.999612 v -2.99981 h 6.009984 v 2.99981 h 6.000138 v -2.99981 h 6.00999 v 2.99981 h 6.00995 v -2.99981 h 6.00015 v 2.99981 h 6.00998 v -2.99981 h 6.00014 v 2.99981 h 6.00999 v -2.99981 h 6.00995 v 2.99981 h 5.99964 v -2.99981 h 6.00996 v 2.99981 h 6.00017 v -2.99981 h 6.00995 v 2.99981 h 6.00999 v -2.99981 h 6.00014 v 2.99981 h 6.00996 v -2.99981 h 6.00016 v 2.99981 h 6.00996 v -2.99981 h 6.00999 v 2.99981 h 6.00014 v -2.99981 h 6.00995 v 2.99981 h 5.99964 v -2.99981 h 6.00999 v 2.99981 h 6.01048 v -2.99981 h 5.99962 v 2.99981 h 6.00998 v -2.99981 h 6.00014 v 2.99981 h 6.00999 v -2.99981 h 6.00995 v 2.99981 h 6.00014 v -2.99981 h 6.00999 v 2.99981 h 6.00014 v -2.99981 h 6.00998 v 2.99981 h 6.00996 v -2.99981 h 5.99964 v 2.99981 h 6.00996 v -2.99981 h 6.00016 v 2.99981 h 6.00996 v -2.99981 h 6.00999 v 2.99981 h 6.00014 v -2.99981 h 6.00995 v 2.99981 h 6.00999 v -2.99981 h 6.00014 v 2.99981 h 6.00998 v -2.99981 h 6.00015 v 2.99981 h 6.00995 v -2.99981 h 6.00999 v 2.99981 h 5.99964 v -2.99981 h 6.01048 v 2.99981 h 5.99961 v -2.99981 h 6.00999 v 2.99981 h 6.00996 v -2.99981 h 6.00016 v 2.99981 h 6.00996 v -2.99981 h 6.00014 v 2.99981 h 6.00999 v -2.99981 h 6.00995 v 2.99981 h 6.00017 v -2.99981 h 6.00996 v 2.99981 h 5.99964 v -2.99981 h 6.00995 v 2.99981 h 6.01049 v -2.99981 h 5.99964 v 2.99981 h 6.00996 v -2.99981 h 6.00017 v 2.99981 h 6.00995 v -2.99981 h 6.00999 v 2.99981 h 6.00014 v -2.99981 h 6.00996 v 2.99981 h 6.00016 v -2.99981 h 6.00996 v 2.99981 h 6.00998 v -2.99981 h 5.99962 v 2.99981 h 6.00998 v -2.99981 h 6.00014 v 2.99981 h 6.00999 v -2.99981 h 6.00995 v 2.99981 h 6.00014 v -2.99981 h 6.00999 v 2.99981 h 6.00014 v -2.99981 h 6.00998 v 2.99981 h 6.00996 v -2.99981 h 6.00014 v 2.99981 h 6.00999 v -2.99981 h 5.99964 v 2.99981 h 6.00995 v -2.99981 h 6.01049 v 2.99981 h 5.99964 v -2.99981 h 6.00996 v 2.99981 h 6.00998 v -2.99981 h 6.00014 v 2.99981 h 6.00998 v -2.99981 h 6.00015 v 2.99981 h 6.00995 v -2.99981 h 6.00999 v 2.99981 h 6.00014 v -2.99981 h 6.00998 v 2.99981 h 5.99961 v -2.99981 h 6.00999 v 2.99981 h 6.01048 v -2.99981 h 5.99964 v 2.99981 h 6.00996 v -2.99981 h 6.00014 v 2.99981 h 6.00999 v -2.99981 h 6.00995 v 2.99981 h 6.00017 v -2.99981 h 6.00996 v 2.99981 h 6.00014 v -2.99981 h 6.00998 v 2.99981 h 6.00996 v -2.99981 h 5.99964 v 2.99981 h 6.00998 v -2.99981 h 6.00015 v 2.99981 h 6.00995 v -2.99981 h 6.00999 v 2.99981 h 6.00014 v -2.99981 h 6.00998 v 2.99981 h 6.00014 v -2.99981 h 6.00996 v 2.99981 h 6.00998 v -2.99981 h 6.00015 v 2.99981 h 6.00998 v -2.99981 h 5.99961 v 2.99981 h 6.00999 v -2.99981 h 6.01048 v 2.99981 h 5.99964 v -2.99981 h 6.00996 v 2.99981 h 6.00014 v -2.99981 h 6.00998 v 2.99981 h 6.00996 v -2.99981 h 6.00017 v 2.99981 h 6.00996 v -2.99981 h 6.00014 v 2.99981 h 6.00998 v -2.99981 h 6.00996 v 2.99981 h 5.99964 v -2.99981 h 6.00998 v 2.99981 h 6.01046 v -2.99981 h 5.99964 v 2.99981 h 6.00998 v -2.99981 h 6.00015 v 2.99981 h 6.00998 v -2.99981 h 6.00996 v 2.99981 h 6.00014 v -2.99981 h 6.00998 v 2.99981 h 6.00014 v -2.99981 h 6.00999 v 2.99981 h 6.00996 v -2.99981 h 5.99963 v 2.99981 h 6.01049 v -2.99981 h 5.99964 v 2.99981 h 6.00991 v -2.99981 h 6.01 v 2.99981 h 6.0002 v -2.99981 h 6.0099 v 2.99981 h 6.0002 v -2.99981 h 6.01 v 2.99981 h 8.9999 v -8.99997 h -2.9998 v -6.3531 h 2.9998 v -6.35258 h -2.9998 v -6.3531 h 2.9998 v -6.3531 h -2.9998 v -6.35258 h 2.9998 v -6.3531 h -2.9998 v -6.35311 h 2.9998 v -6.35258 h -2.9998 v -6.3531 h 2.9998 v -6.3531 h -2.9998 v -6.35258 h 2.9998 v -6.35311 h -2.9998 v -6.353096 h 2.9998 v -6.353101 h -2.9998 v -6.352582 h 2.9998 V 76.78641 h -2.9998 v -6.353101 h 2.9998 v -8.999966 h -8.9999 v 3.000333 h -6.01 v -3.000333 h -6.0002 v 3.000333 h -6.0099 v -3.000333 h -6.0002 v 3.000333 h -6.01 v -3.000333 h -6.00991 v 3.000333 h -5.99964 v -3.000333 h -6.01049 v 3.000333 h -5.99963 v -3.000333 h -6.00996 v 3.000333 h -6.00999 v -3.000333 h -6.00014 v 3.000333 h -6.00998 v -3.000333 h -6.00014 v 3.000333 h -6.00996 v -3.000333 h -6.00998 v 3.000333 h -6.00015 v -3.000333 h -6.00998 v 3.000333 h -5.99964 v -3.000333 h -6.01046 v 3.000333 h -6.00998 v -3.000333 h -5.99964 v 3.000333 h -6.00996 v -3.000333 h -6.00998 v 3.000333 h -6.00014 v -3.000333 h -6.00996 v 3.000333 h -6.00017 v -3.000333 h -6.00996 v 3.000333 h -6.00998 v -3.000333 h -6.00014 v 3.000333 h -6.00996 v -3.000333 h -5.99964 v 3.000333 h -6.01048 v -3.000333 h -6.00999 v 3.000333 h -5.99961 v -3.000333 h -6.00998 v 3.000333 h -6.00015 v -3.000333 h -6.00998 v 3.000333 h -6.00996 v -3.000333 h -6.00014 v 3.000333 h -6.00998 v -3.000333 h -6.00014 v 3.000333 h -6.00999 v -3.000333 h -6.00995 v 3.000333 h -6.00015 v -3.000333 h -6.00998 v 3.000333 h -5.99964 v -3.000333 h -6.00996 v 3.000333 h -6.00998 v -3.000333 h -6.00014 v 3.000333 h -6.00996 v -3.000333 h -6.00017 v 3.000333 h -6.00995 v -3.000333 h -6.00999 v 3.000333 h -6.00014 v -3.000333 h -6.00996 v 3.000333 h -5.99964 v -3.000333 h -6.01048 v 3.000333 h -6.00999 v -3.000333 h -5.99961 v 3.000333 h -6.00998 v -3.000333 h -6.00014 v 3.000333 h -6.00999 v -3.000333 h -6.00995 v 3.000333 h -6.00015 v -3.000333 h -6.00998 v 3.000333 h -6.00014 v -3.000333 h -6.00998 v 3.000333 h -6.00996 v -3.000333 h -5.99964 v 3.000333 h -6.01049 v -3.000333 h -6.00995 v 3.000333 h -5.99964 v -3.000333 h -6.00999 v 3.000333 h -6.00014 v -3.000333 h -6.00996 v 3.000333 h -6.00998 v -3.000333 h -6.00014 v 3.000333 h -6.00999 v -3.000333 h -6.00014 v 3.000333 h -6.00995 v -3.000333 h -6.00999 v 3.000333 h -6.00014 v -3.000333 h -6.00998 v 3.000333 h -5.99962 v -3.000333 h -6.00998 v 3.000333 h -6.00996 v -3.000333 h -6.00016 v 3.000333 h -6.00996 v -3.000333 h -6.00014 v 3.000333 h -6.00999 v -3.000333 h -6.00995 v 3.000333 h -6.00017 v -3.000333 h -6.00996 v 3.000333 h -5.99964 v -3.000333 h -6.01049 v 3.000333 h -6.00995 v -3.000333 h -5.99964 v 3.000333 h -6.00996 v -3.000333 h -6.00017 v 3.000333 h -6.00995 v -3.000333 h -6.00999 v 3.000333 h -6.00014 v -3.000333 h -6.00996 v 3.000333 h -6.00016 v -3.000333 h -6.00996 v 3.000333 h -6.00999 v -3.000333 h -5.99961 v 3.000333 h -6.01048 v -3.000333 h -5.99964 v 3.000333 h -6.00999 v -3.000333 h -6.00995 v 3.000333 h -6.00015 v -3.000333 h -6.00998 v 3.000333 h -6.00014 v -3.000333 h -6.00999 v 3.000333 h -6.00995 v -3.000333 h -6.00014 v 3.000333 h -6.00999 v -3.000333 h -6.00996 v 3.000333 h -6.00016 v -3.000333 h -6.00996 v 3.000333 h -5.99964 v -3.000333 h -6.00996 v 3.000333 h -6.00998 v -3.000333 h -6.00014 v 3.000333 h -6.00999 v -3.000333 h -6.00014 v 3.000333 h -6.00995 v -3.000333 h -6.00999 v 3.000333 h -6.00014 v -3.000333 h -6.00998 v 3.000333 h -5.99962 v -3.000333 h -6.01048 v 3.000333 h -6.00999 v -3.000333 h -5.99964 v 3.000333 h -6.00995 v -3.000333 h -6.00014 v 3.000333 h -6.00999 v -3.000333 h -6.00996 v 3.000333 h -6.00016 v -3.000333 h -6.00996 v 3.000333 h -6.00014 v -3.000333 h -6.00999 v 3.000333 h -6.00995 v -3.000333 h -6.00017 v 3.000333 h -6.00996 v -3.000333 h -5.99964 v 3.000333 h -6.00995 v -3.000333 h -6.00999 v 3.000333 h -6.00014 v -3.000333 h -6.00998 v 3.000333 h -6.00015 v -3.000333 h -6.00995 v 3.000333 h -6.00999 v -3.000333 h -6.000138 v 3.000333 h -6.009984 v -3.000333 h -5.999612 v 3.000333 h -6.010487 v -3.000333 h -6.009984 v 3.000333 h -5.999638 v -3.000333 h -6.009958 v 3.000333 h -6.000141 v -3.000333 h -6.009984 v 3.000333 h -6.009957 v -3.000333 h -6.003264 v 3.000333 h -6.00583 v -3.000333 h -6.00583 v 3.000333 h -6.006359 v -3.000333 h -6.00583 v 3.000333 H 4.7606544 v -3.000333 h -6.006359 v 3.000333 h -6.00583 v -3.000333 h -6.0058294 v 3.000333 h -6.00636 v -3.000333 h -6.00583 v 3.000333 h -6.005829 v -3.000333 h -6.006889 v 3.000333 h -6.006332 v -3.000333 h -6.005857 v 3.000333 h -6.00583 v -3.000333 h -6.006332 v 3.000333 h -6.005857 v -3.000333 h -6.00583 v 3.000333 h -6.006359 v -3.000333 h -6.00583 v 3.000333 h -6.00583 v -3.000333 h -6.006359 v 3.000333 h -6.005832 v -3.000333 h -6.00583 v 3.000333 h -6.00636 v -3.000333 h -6.00583 v 3.000333 h -6.00583 v -3.000333 h -6.00636 v 3.000333 h -6.00583 v -3.000333 h -6.00583 v 3.000333 h -6.00635 v -3.000333 h -6.00583 v 3.000333 h -6.00583 v -3.000333 h -6.00583 v 3.000333 h -6.00636 v -3.000333 h -6.00687 v 3.000333 h -6.00585 v -3.000333 h -6.00633 v 3.000333 h -6.00586 v -3.000333 h -6.00583 v 3.000333 h -6.00633 v -3.000333 h -6.00586 v 3.000333 h -6.00583 v -3.000333 h -6.00636 v 3.000333 h -6.00583 v -3.000333 h -6.00583 v 3.000333 h -6.00636 v -3.000333 h -6.00583 v 3.000333 h -6.00583 v -3.000333 h -6.00636 v 3.000333 h -6.00583 v -3.000333 h -6.00583 v 3.000333 h -6.00583 v -3.000333 h -6.00636 v 3.000333 h -6.00583 v -3.000333 h -6.00583 v 3.000333 h -6.00635 v -3.000333 h -6.00583 v 3.000333 h -6.00689 v -3.000333 h -6.00633 v 3.000333 h -6.00583 v -3.000333 h -6.00586 v 3.000333 h -6.00633 v -3.000333 h -6.00586 v 3.000333 h -6.00583 v -3.000333 h -6.00633 v 3.000333 h -6.00586 v -3.000333 h -6.00583 v 3.000333 h -6.00636 v -3.000333 h -6.00583 v 3.000333 h -6.00583 v -3.000333 h -6.00583 v 3.000333 h -6.00636 v -3.000333 h -6.00583 v 3.000333 h -6.00583 v -3.000333 h -6.00636 v 3.000333 h -6.00583 v -3.000333 h -6.00583 v 3.000333 h -6.00635 v -3.000333 h -6.00583 v 3.000333 h -6.00583 v -3.000333 h -6.00636 v 3.000333 h -6.00687 v -3.000333 h -6.00585 v 3.000333 h -6.00633 v -3.000333 h -6.00583 v 3.000333 h -6.00586 v -3.000333 h -6.00633 v 3.000333 h -6.00586 v -3.000333 h -6.00583 v 3.000333 h -6.00583 v -3.000333 h -6.00636 v 3.000333 h -6.00583 v -3.000333 h -6.00583 v 3.000333 h -6.00636 v -3.000333 h -6.00583 v 3.000333 h -6.00583 v -3.000333 h -6.00636 v 3.000333 h -6.00583 v -3.000333 h -6.00583 v 3.000333 h -6.00636 v -3.000333 h -6.00583 v 3.000333 h -6.00583 v -3.000333 h -6.00635 v 3.000333 h -6.00583 v -3.000333 h -6.00583 v 3.000333 h -6.0074 v -3.000333 h -6.00583 v 3.000333 h -6.00585 v -3.000333 h -6.00633 v 3.000333 h -6.00583 v -3.000333 h -6.00586 v 3.000333 h -6.00583 v -3.000333 h -6.00636 v 3.000333 h -6.00583 v -3.000333 h -6.00583 v 3.000333 h -6.00636 v -3.000333 h -6.00583 v 3.000333 h -6.00583 v -3.000333 h -6.00636 v 3.000333 h -6.00583 v -3.000333 h -6.00583 v 3.000333 h -6.00635 v -3.000333 h -6.00584 v 3.000333 h -6.00583 v -3.000333 h -6.00635 v 3.000333 h -6.00584 v -3.000333 h -6.00583 v 3.000333 h -6.00635 v -3.000333 h -6.00687 v 3.000333 h -6.00584 v -3.000333 h -6.00583 v 3.000333 h -6.00636 v -3.000333 h -6.00583 v 3.000333 h -6.00584 v -3.000333 h -6.00635 v 3.000333 h -6.00583 v -3.000333 h -6.00584 v 3.000333 h -6.00635 v -3.000333 h -6.00583 v 3.000333 h -6.00584 v -3.000333 h -6.00635 v 3.000333 h -6.00583 v -3.000333 h -6.00584 v 3.000333 h -6.00635 v -3.000333 h -6.00583 v 3.000333 h -6.00584 v -3.000333 h -6.00635 v 3.000333 h -6.00584 v -3.000333 h -6.00635 v 3.000333 h -6.00583 v -3.000333 h -6.00636 v 3.000333 h -6.00583 v -3.000333 h -6.00583 v 3.000333 h -6.00636 v -3.000333 h -6.00583 v 3.000333 h -6.00635 v -3.000333 h -6.00584 v 3.000333 h -6.00583 v -3.000333 h -6.00636 v 3.000333 h -6.00583 v -3.000333 h -6.00635 v 3.000333 h -6.00584 v -3.000333 h -6.00635 v 3.000333 h -6.00583 v -3.000333 z"
       style="vector-effect:non-scaling-stroke;fill:none;stroke:#000000;stroke-width:0.00070004;stroke-miterlimit:4;stroke-dasharray:none;-inkscape-stroke:hairline" />
    <path
       id="path928"
       style="vector-effect:non-scaling-stroke;fill:none;stroke:#000000;stroke-width:0.00264582;stroke-miterlimit:4;stroke-dasharray:none;-inkscape-stroke:hairline"
       d="M 1338.8887 780.32968 L 1327.9141 780.32968 L 1327.9141 791.66951 L 1305.2148 791.66951 L 1305.2148 780.32968 L 1282.5137 780.32968 L 1282.5137 791.66951 L 1259.8145 791.66951 L 1259.8145 780.32968 L 1237.1152 780.32968 L 1237.1152 791.66951 L 1214.416 791.66951 L 1214.416 780.32968 L 1191.7148 780.32968 L 1191.7148 791.66951 L 1169.0156 791.66951 L 1169.0156 780.32968 L 1146.3164 780.32968 L 1146.3164 791.66951 L 1123.6152 791.66951 L 1123.6152 780.32968 L 1100.916 780.32968 L 1100.916 791.66951 L 1078.2168 791.66951 L 1078.2168 780.32968 L 1055.5156 780.32968 L 1055.5156 791.66951 L 1032.8164 791.66951 L 1032.8164 780.32968 L 1010.1172 780.32968 L 1010.1172 791.66951 L 987.41601 791.66951 L 987.41601 780.32968 L 964.71677 780.32968 L 964.71677 791.66951 L 942.01757 791.66951 L 942.01757 780.32968 L 919.31641 780.32968 L 919.31641 791.66951 L 896.61717 791.66951 L 896.61717 780.32968 L 873.91797 780.32968 L 873.91797 791.66951 L 851.21681 791.66951 L 851.21681 780.32968 L 828.51368 780.32968 L 828.51368 791.66951 L 805.81444 791.66951 L 805.81444 780.32968 L 783.11524 780.32968 L 783.11524 791.66951 L 760.41403 791.66951 L 760.41403 780.32968 L 737.71483 780.32968 L 737.71483 791.66951 L 715.0156 791.66951 L 715.0156 780.32968 L 692.31443 780.32968 L 692.31443 791.66951 L 669.61523 791.66951 L 669.61523 780.32968 L 646.91599 780.32968 L 646.91599 791.66951 L 624.21483 791.66951 L 624.21483 780.32968 L 601.51563 780.32968 L 601.51563 791.66951 L 578.81639 791.66951 L 578.81639 780.32968 L 556.11523 780.32968 L 556.11523 791.66951 L 533.41603 791.66951 L 533.41603 780.32968 L 510.71679 780.32968 L 510.71679 791.66951 L 488.01562 791.66951 L 488.01562 780.32968 L 465.31642 780.32968 L 465.31642 791.66951 L 442.61718 791.66951 L 442.61718 780.32968 L 419.91602 780.32968 L 419.91602 791.66951 L 397.21678 791.66951 L 397.21678 780.32968 L 374.51562 780.32968 L 374.51562 791.66951 L 351.81642 791.66951 L 351.81642 780.32968 L 329.11521 780.32968 L 329.11521 791.66951 L 306.41601 791.66951 L 306.41601 780.32968 L 283.71681 780.32968 L 283.71681 791.66951 L 261.01561 791.66951 L 261.01561 780.32968 L 238.31641 780.32968 L 238.31641 791.66951 L 215.61524 791.66951 L 215.61524 780.32968 L 192.91601 780.32968 L 192.91601 791.66951 L 170.21681 791.66951 L 170.21681 780.32968 L 147.5156 780.32968 L 147.5156 791.66951 L 124.8164 791.66951 L 124.8164 780.32968 L 102.11524 780.32968 L 102.11524 791.66951 L 79.416 791.66951 L 79.416 780.32968 L 56.714835 780.32968 L 56.714835 791.66951 L 34.015635 791.66951 L 34.015635 780.32968 L 0 780.32968 L 0 780.32968 L 0 814.34531 L 11.337902 814.34531 L 11.337902 838.35703 L 0 838.35703 L 0 862.36878 L 11.337902 862.36878 L 11.337902 886.37857 L 0 886.37857 L 0 910.39029 L 11.337902 910.39029 L 11.337902 934.402 L 0 934.402 L 0 958.41179 L 11.337902 958.41179 L 11.337902 982.42351 L 0 982.42351 L 0 1006.4352 L 11.337902 1006.4352 L 11.337902 1030.4469 L 0 1030.4469 L 0 1054.4567 L 11.337902 1054.4567 L 11.337902 1078.4684 L 0 1078.4684 L 0 1102.4801 L 11.337902 1102.4801 L 11.337902 1126.4899 L 0 1126.4899 L 0 1150.5016 L 11.337902 1150.5016 L 11.337902 1174.5133 L 0 1174.5133 L 0 1198.5231 L 11.337902 1198.5231 L 11.337902 1222.5348 L 0 1222.5348 L 0 1256.5504 L 34.015635 1256.5504 L 34.015635 1245.2125 L 56.714835 1245.2125 L 56.714835 1256.5504 L 79.416 1256.5504 L 79.416 1245.2125 L 102.11524 1245.2125 L 102.11524 1256.5504 L 124.8164 1256.5504 L 124.8164 1245.2125 L 147.5156 1245.2125 L 147.5156 1256.5504 L 170.21484 1256.5504 L 170.21484 1245.2125 L 192.91601 1245.2125 L 192.91601 1256.5504 L 215.61524 1256.5504 L 215.61524 1245.2125 L 238.31641 1245.2125 L 238.31641 1256.5504 L 261.01561 1256.5504 L 261.01561 1245.2125 L 283.71681 1245.2125 L 283.71681 1256.5504 L 306.41601 1256.5504 L 306.41601 1245.2125 L 329.11521 1245.2125 L 329.11521 1256.5504 L 351.81642 1256.5504 L 351.81642 1245.2125 L 374.51562 1245.2125 L 374.51562 1256.5504 L 397.21678 1256.5504 L 397.21678 1245.2125 L 419.91602 1245.2125 L 419.91602 1256.5504 L 442.61718 1256.5504 L 442.61718 1245.2125 L 465.31642 1245.2125 L 465.31642 1256.5504 L 488.01562 1256.5504 L 488.01562 1245.2125 L 510.71679 1245.2125 L 510.71679 1256.5504 L 533.41603 1256.5504 L 533.41603 1245.2125 L 556.11523 1245.2125 L 556.11523 1256.5504 L 578.81639 1256.5504 L 578.81639 1245.2125 L 601.51563 1245.2125 L 601.51563 1256.5504 L 624.21483 1256.5504 L 624.21483 1245.2125 L 646.91599 1245.2125 L 646.91599 1256.5504 L 669.61523 1256.5504 L 669.61523 1245.2125 L 692.31443 1245.2125 L 692.31443 1256.5504 L 715.0156 1256.5504 L 715.0156 1245.2125 L 737.71483 1245.2125 L 737.71483 1256.5504 L 760.41403 1256.5504 L 760.41403 1245.2125 L 783.11524 1245.2125 L 783.11524 1256.5504 L 805.81444 1256.5504 L 805.81444 1245.2125 L 828.51368 1245.2125 L 828.51368 1256.5504 L 851.21681 1256.5504 L 851.21681 1245.2125 L 873.91797 1245.2125 L 873.91797 1256.5504 L 896.61717 1256.5504 L 896.61717 1245.2125 L 919.31641 1245.2125 L 919.31641 1256.5504 L 942.01757 1256.5504 L 942.01757 1245.2125 L 964.71677 1245.2125 L 964.71677 1256.5504 L 987.41601 1256.5504 L 987.41601 1245.2125 L 1010.1172 1245.2125 L 1010.1172 1256.5504 L 1032.8164 1256.5504 L 1032.8164 1245.2125 L 1055.5156 1245.2125 L 1055.5156 1256.5504 L 1078.2168 1256.5504 L 1078.2168 1245.2125 L 1100.916 1245.2125 L 1100.916 1256.5504 L 1123.6152 1256.5504 L 1123.6152 1245.2125 L 1146.3164 1245.2125 L 1146.3164 1256.5504 L 1169.0156 1256.5504 L 1169.0156 1245.2125 L 1191.7148 1245.2125 L 1191.7148 1256.5504 L 1214.416 1256.5504 L 1214.416 1245.2125 L 1237.1152 1245.2125 L 1237.1152 1256.5504 L 1259.8145 1256.5504 L 1259.8145 1245.2125 L 1282.5137 1245.2125 L 1282.5137 1256.5504 L 1305.2148 1256.5504 L 1305.2148 1245.2125 L 1327.9141 1245.2125 L 1327.9141 1256.5504 L 1338.8887 1256.5504 "
       transform="matrix(0.26458333,0,0,0.26458333,-965.20649,61.433343)" />
    <path
       id="path2682"
       style="vector-effect:non-scaling-stroke;fill:none;stroke:#000000;stroke-width:0.00264582;stroke-miterlimit:4;stroke-dasharray:none;-inkscape-stroke:hairline"
       d="M 1339.8926 780.32968 L 1338.8887 780.32968 "
       transform="matrix(0.26458333,0,0,0.26458333,-965.20649,61.433343)" />
    <path
       id="path2680"
       style="vector-effect:non-scaling-stroke;fill:none;stroke:#000000;stroke-width:0.00264582;stroke-miterlimit:4;stroke-dasharray:none;-inkscape-stroke:hairline"
       d="M 1339.8926 1256.5504 L 1350.6133 1256.5504 L 1350.6133 1245.2125 L 1373.3145 1245.2125 L 1373.3145 1256.5504 L 1396.0176 1256.5504 L 1396.0176 1245.2125 L 1418.7168 1245.2125 L 1418.7168 1256.5504 L 1441.418 1256.5504 L 1441.418 1245.2125 L 1464.1172 1245.2125 L 1464.1172 1256.5504 L 1486.8164 1256.5504 L 1486.8164 1245.2125 L 1509.5176 1245.2125 L 1509.5176 1256.5504 L 1532.2168 1256.5504 L 1532.2168 1245.2125 L 1554.916 1245.2125 L 1554.916 1256.5504 L 1577.6172 1256.5504 L 1577.6172 1245.2125 L 1600.3164 1245.2125 L 1600.3164 1256.5504 L 1623.0156 1256.5504 L 1623.0156 1245.2125 L 1645.7168 1245.2125 L 1645.7168 1256.5504 L 1668.416 1256.5504 L 1668.416 1245.2125 L 1691.1152 1245.2125 L 1691.1152 1256.5504 L 1713.8164 1256.5504 L 1713.8164 1245.2125 L 1736.5156 1245.2125 L 1736.5156 1256.5504 L 1759.2148 1256.5504 L 1759.2148 1245.2125 L 1781.9141 1245.2125 L 1781.9141 1256.5504 L 1804.6152 1256.5504 L 1804.6152 1245.2125 L 1827.3145 1245.2125 L 1827.3145 1256.5504 L 1850.0137 1256.5504 L 1850.0137 1245.2125 L 1872.7148 1245.2125 L 1872.7148 1256.5504 L 1895.4141 1256.5504 L 1895.4141 1245.2125 L 1918.1133 1245.2125 L 1918.1133 1256.5504 L 1940.8184 1256.5504 L 1940.8184 1245.2125 L 1963.5176 1245.2125 L 1963.5176 1256.5504 L 1986.2168 1256.5504 L 1986.2168 1245.2125 L 2008.918 1245.2125 L 2008.918 1256.5504 L 2031.6172 1256.5504 L 2031.6172 1245.2125 L 2054.3164 1245.2125 L 2054.3164 1256.5504 L 2077.0176 1256.5504 L 2077.0176 1245.2125 L 2099.7168 1245.2125 L 2099.7168 1256.5504 L 2122.416 1256.5504 L 2122.416 1245.2125 L 2145.1172 1245.2125 L 2145.1172 1256.5504 L 2167.8164 1256.5504 L 2167.8164 1245.2125 L 2190.5156 1245.2125 L 2190.5156 1256.5504 L 2213.2148 1256.5504 L 2213.2148 1245.2125 L 2235.916 1245.2125 L 2235.916 1256.5504 L 2258.6152 1256.5504 L 2258.6152 1245.2125 L 2281.3145 1245.2125 L 2281.3145 1256.5504 L 2304.0156 1256.5504 L 2304.0156 1245.2125 L 2326.7148 1245.2125 L 2326.7148 1256.5504 L 2349.4141 1256.5504 L 2349.4141 1245.2125 L 2372.1152 1245.2125 L 2372.1152 1256.5504 L 2394.8145 1256.5504 L 2394.8145 1245.2125 L 2417.5137 1245.2125 L 2417.5137 1256.5504 L 2440.2148 1256.5504 L 2440.2148 1245.2125 L 2462.918 1245.2125 L 2462.918 1256.5504 L 2485.6172 1256.5504 L 2485.6172 1245.2125 L 2508.3183 1245.2125 L 2508.3183 1256.5504 L 2531.0175 1256.5504 L 2531.0175 1245.2125 L 2553.7167 1245.2125 L 2553.7167 1256.5504 L 2576.418 1256.5504 L 2576.418 1245.2125 L 2599.1172 1245.2125 L 2599.1172 1256.5504 L 2621.8164 1256.5504 L 2621.8164 1245.2125 L 2644.5156 1245.2125 L 2644.5156 1256.5504 L 2667.2168 1256.5504 L 2667.2168 1245.2125 L 2689.916 1245.2125 L 2689.916 1256.5504 L 2712.6152 1256.5504 L 2712.6152 1245.2125 L 2735.3164 1245.2125 L 2735.3164 1256.5504 L 2758.0156 1256.5504 L 2758.0156 1245.2125 L 2780.7148 1245.2125 L 2780.7148 1256.5504 L 2803.416 1256.5504 L 2803.416 1245.2125 L 2826.1152 1245.2125 L 2826.1152 1256.5504 L 2848.8145 1256.5504 L 2848.8145 1245.2125 L 2871.5156 1245.2125 L 2871.5156 1256.5504 L 2894.2148 1256.5504 L 2894.2148 1245.2125 L 2916.9141 1245.2125 L 2916.9141 1256.5504 L 2939.6152 1256.5504 L 2939.6152 1245.2125 L 2962.3144 1245.2125 L 2962.3144 1256.5504 L 2985.0136 1256.5504 L 2985.0136 1245.2125 L 3007.7188 1245.2125 L 3007.7188 1256.5504 L 3030.418 1256.5504 L 3030.418 1245.2125 L 3053.1172 1245.2125 L 3053.1172 1256.5504 L 3075.8164 1256.5504 L 3075.8164 1245.2125 L 3098.5175 1245.2125 L 3098.5175 1256.5504 L 3121.2167 1256.5504 L 3121.2167 1245.2125 L 3143.9159 1245.2125 L 3143.9159 1256.5504 L 3166.6171 1256.5504 L 3166.6171 1245.2125 L 3189.3163 1245.2125 L 3189.3163 1256.5504 L 3212.0155 1256.5504 L 3212.0155 1245.2125 L 3234.7167 1245.2125 L 3234.7167 1256.5504 L 3257.4159 1256.5504 L 3257.4159 1245.2125 L 3280.1152 1245.2125 L 3280.1152 1256.5504 L 3302.8164 1256.5504 L 3302.8164 1245.2125 L 3325.5156 1245.2125 L 3325.5156 1256.5504 L 3348.2148 1256.5504 L 3348.2148 1245.2125 L 3370.916 1245.2125 L 3370.916 1256.5504 L 3393.6152 1256.5504 L 3393.6152 1245.2125 L 3416.3145 1245.2125 L 3416.3145 1256.5504 L 3439.0156 1256.5504 L 3439.0156 1245.2125 L 3461.7148 1245.2125 L 3461.7148 1256.5504 L 3484.4141 1256.5504 L 3484.4141 1245.2125 L 3507.1152 1245.2125 L 3507.1152 1256.5504 L 3529.8184 1256.5504 L 3529.8184 1245.2125 L 3552.5176 1245.2125 L 3552.5176 1256.5504 L 3575.2168 1256.5504 L 3575.2168 1245.2125 L 3597.918 1245.2125 L 3597.918 1256.5504 L 3620.6172 1256.5504 L 3620.6172 1245.2125 L 3643.3164 1245.2125 L 3643.3164 1256.5504 L 3666.0176 1256.5504 L 3666.0176 1245.2125 L 3688.7168 1245.2125 L 3688.7168 1256.5504 L 3711.416 1256.5504 L 3711.416 1245.2125 L 3734.1172 1245.2125 L 3734.1172 1256.5504 L 3756.8164 1256.5504 L 3756.8164 1245.2125 L 3779.5156 1245.2125 L 3779.5156 1256.5504 L 3802.2051 1256.5504 L 3802.2051 1245.2125 L 3824.9199 1245.2125 L 3824.9199 1256.5504 L 3847.6348 1256.5504 L 3847.6348 1245.2125 L 3870.3124 1245.2125 L 3870.3124 1256.5504 L 3893.0273 1256.5504 L 3893.0273 1245.2125 L 3915.703 1245.2125 L 3915.703 1256.5504 L 3938.4179 1256.5504 L 3938.4179 1245.2125 L 3961.1348 1245.2125 L 3961.1348 1256.5504 L 3983.8104 1256.5504 L 3983.8104 1245.2125 L 4006.5253 1245.2125 L 4006.5253 1256.5504 L 4029.203 1256.5504 L 4029.203 1245.2125 L 4051.918 1245.2125 L 4051.918 1256.5504 L 4074.6327 1256.5504 L 4074.6327 1245.2125 L 4097.3105 1245.2125 L 4097.3105 1256.5504 L 4120.0253 1256.5504 L 4120.0253 1245.2125 L 4142.703 1245.2125 L 4142.703 1256.5504 L 4165.418 1256.5504 L 4165.418 1245.2125 L 4188.1327 1245.2125 L 4188.1327 1256.5504 L 4210.8085 1256.5504 L 4210.8085 1245.2125 L 4233.5234 1245.2125 L 4233.5234 1256.5504 L 4256.2012 1256.5504 L 4256.2012 1245.2125 L 4278.9159 1245.2125 L 4278.9159 1256.5504 L 4301.6309 1256.5504 L 4301.6309 1245.2125 L 4324.3085 1245.2125 L 4324.3085 1256.5504 L 4347.0234 1256.5504 L 4347.0234 1245.2125 L 4369.7011 1245.2125 L 4369.7011 1256.5504 L 4392.4159 1256.5504 L 4392.4159 1245.2125 L 4415.1309 1245.2125 L 4415.1309 1256.5504 L 4437.8086 1256.5504 L 4437.8086 1245.2125 L 4460.5233 1245.2125 L 4460.5233 1256.5504 L 4483.1991 1256.5504 L 4483.1991 1245.2125 L 4505.9141 1245.2125 L 4505.9141 1256.5504 L 4528.6308 1256.5504 L 4528.6308 1245.2125 L 4551.3066 1245.2125 L 4551.3066 1256.5504 L 4574.0214 1256.5504 L 4574.0214 1245.2125 L 4596.6991 1245.2125 L 4596.6991 1256.5504 L 4619.4141 1256.5504 L 4619.4141 1245.2125 L 4642.1288 1245.2125 L 4642.1288 1256.5504 L 4664.8065 1256.5504 L 4664.8065 1245.2125 L 4687.5214 1245.2125 L 4687.5214 1256.5504 L 4710.1991 1256.5504 L 4710.1991 1245.2125 L 4732.914 1245.2125 L 4732.914 1256.5504 L 4755.6288 1256.5504 L 4755.6288 1245.2125 L 4778.3046 1245.2125 L 4778.3046 1256.5504 L 4801.0195 1256.5504 L 4801.0195 1245.2125 L 4823.6972 1245.2125 L 4823.6972 1256.5504 L 4846.412 1256.5504 L 4846.412 1245.2125 L 4869.127 1245.2125 L 4869.127 1256.5504 L 4891.8046 1256.5504 L 4891.8046 1245.2125 L 4914.5194 1245.2125 L 4914.5194 1256.5504 L 4937.2343 1256.5504 L 4937.2343 1245.2125 L 4959.912 1245.2125 L 4959.912 1256.5504 L 4982.6269 1256.5504 L 4982.6269 1245.2125 L 5005.3047 1245.2125 L 5005.3047 1256.5504 L 5028.0194 1256.5504 L 5028.0194 1245.2125 L 5050.7343 1245.2125 L 5050.7343 1256.5504 L 5073.4102 1256.5504 L 5073.4102 1245.2125 L 5096.1269 1245.2125 L 5096.1269 1256.5504 L 5118.8026 1256.5504 L 5118.8026 1245.2125 L 5141.5175 1245.2125 L 5141.5175 1256.5504 L 5164.2324 1256.5504 L 5164.2324 1245.2125 L 5186.9101 1245.2125 L 5186.9101 1256.5504 L 5209.6249 1256.5504 L 5209.6249 1245.2125 L 5232.3026 1245.2125 L 5232.3026 1256.5504 L 5255.0175 1256.5504 L 5255.0175 1245.2125 L 5277.7323 1245.2125 L 5277.7323 1256.5504 L 5300.4101 1256.5504 L 5300.4101 1245.2125 L 5323.1249 1245.2125 L 5323.1249 1256.5504 L 5345.8007 1256.5504 L 5345.8007 1245.2125 L 5368.5155 1245.2125 L 5368.5155 1256.5504 L 5391.2323 1256.5504 L 5391.2323 1245.2125 L 5413.9081 1245.2125 L 5413.9081 1256.5504 L 5436.6229 1256.5504 L 5436.6229 1245.2125 L 5459.3007 1245.2125 L 5459.3007 1256.5504 L 5482.0155 1256.5504 L 5482.0155 1245.2125 L 5504.7304 1245.2125 L 5504.7304 1256.5504 L 5527.4081 1256.5504 L 5527.4081 1245.2125 L 5550.1229 1245.2125 L 5550.1229 1256.5504 L 5572.8007 1256.5504 L 5572.8007 1245.2125 L 5595.5155 1245.2125 L 5595.5155 1256.5504 L 5618.2304 1256.5504 L 5618.2304 1245.2125 L 5640.9061 1245.2125 L 5640.9061 1256.5504 L 5663.621 1256.5504 L 5663.621 1245.2125 L 5686.2987 1245.2125 L 5686.2987 1256.5504 L 5709.0136 1256.5504 L 5709.0136 1245.2125 L 5731.7284 1245.2125 L 5731.7284 1256.5504 L 5754.4061 1256.5504 L 5754.4061 1245.2125 L 5777.121 1245.2125 L 5777.121 1256.5504 L 5799.7987 1256.5504 L 5799.7987 1245.2125 L 5822.5136 1245.2125 L 5822.5136 1256.5504 L 5845.2284 1256.5504 L 5845.2284 1245.2125 L 5867.9061 1245.2125 L 5867.9061 1256.5504 L 5890.621 1256.5504 L 5890.621 1245.2125 L 5913.2968 1245.2125 L 5913.2968 1256.5504 L 5936.0116 1256.5504 L 5936.0116 1245.2125 L 5958.7284 1245.2125 L 5958.7284 1256.5504 L 5981.4042 1256.5504 L 5981.4042 1245.2125 L 6004.119 1245.2125 L 6004.119 1256.5504 L 6026.8339 1256.5504 L 6026.8339 1245.2125 L 6049.5116 1245.2125 L 6049.5116 1256.5504 L 6072.2265 1256.5504 L 6072.2265 1245.2125 L 6094.9042 1245.2125 L 6094.9042 1256.5504 L 6117.619 1256.5504 L 6117.619 1245.2125 L 6140.3339 1245.2125 L 6140.3339 1256.5504 L 6163.0116 1256.5504 L 6163.0116 1245.2125 L 6185.7265 1245.2125 L 6185.7265 1256.5504 L 6208.4022 1256.5504 L 6208.4022 1245.2125 L 6231.1171 1245.2125 L 6231.1171 1256.5504 L 6253.8339 1256.5504 L 6253.8339 1245.2125 L 6276.5097 1245.2125 L 6276.5097 1256.5504 L 6299.2245 1256.5504 L 6299.2245 1245.2125 L 6321.9022 1245.2125 L 6321.9022 1256.5504 L 6344.6171 1256.5504 L 6344.6171 1245.2125 L 6367.3319 1245.2125 L 6367.3319 1256.5504 L 6390.0097 1256.5504 L 6390.0097 1245.2125 L 6412.7245 1245.2125 L 6412.7245 1256.5504 L 6435.4022 1256.5504 L 6435.4022 1245.2125 L 6458.1171 1245.2125 L 6458.1171 1256.5504 L 6480.8319 1256.5504 L 6480.8319 1245.2125 L 6503.5077 1245.2125 L 6503.5077 1256.5504 L 6526.2226 1256.5504 L 6526.2226 1245.2125 L 6548.9003 1245.2125 L 6548.9003 1256.5504 L 6571.6151 1256.5504 L 6571.6151 1245.2125 L 6594.33 1245.2125 L 6594.33 1256.5504 L 6617.0077 1256.5504 L 6617.0077 1245.2125 L 6639.7226 1245.2125 L 6639.7226 1256.5504 L 6662.4003 1256.5504 L 6662.4003 1245.2125 L 6685.1151 1245.2125 L 6685.1151 1256.5504 L 6707.83 1256.5504 L 6707.83 1245.2125 L 6730.5077 1245.2125 L 6730.5077 1256.5504 L 6753.2226 1256.5504 L 6753.2226 1245.2125 L 6775.8983 1245.2125 L 6775.8983 1256.5504 L 6798.6132 1256.5504 L 6798.6132 1245.2125 L 6821.33 1245.2125 L 6821.33 1256.5504 L 6844.0058 1256.5504 L 6844.0058 1245.2125 L 6866.7206 1245.2125 L 6866.7206 1256.5504 L 6889.3983 1256.5504 L 6889.3983 1245.2125 L 6912.1132 1245.2125 L 6912.1132 1256.5504 L 6934.828 1256.5504 L 6934.828 1245.2125 L 6957.5058 1245.2125 L 6957.5058 1256.5504 L 6980.2206 1256.5504 L 6980.2206 1245.2125 L 7002.8983 1245.2125 L 7002.8983 1256.5504 L 7025.6132 1256.5504 L 7025.6132 1245.2125 L 7048.328 1245.2125 L 7048.328 1256.5504 L 7071.0038 1256.5504 L 7071.0038 1245.2125 L 7093.7187 1245.2125 L 7093.7187 1256.5504 L 7116.4354 1256.5504 L 7116.4354 1245.2125 L 7139.1112 1245.2125 L 7139.1112 1256.5504 L 7161.8261 1256.5504 L 7161.8261 1245.2125 L 7184.5038 1245.2125 L 7184.5038 1256.5504 L 7207.2187 1256.5504 L 7207.2187 1245.2125 L 7229.9335 1245.2125 L 7229.9335 1256.5504 L 7252.6112 1256.5504 L 7252.6112 1245.2125 L 7275.3261 1245.2125 L 7275.3261 1256.5504 L 7298.0038 1256.5504 L 7298.0038 1245.2125 L 7320.7187 1245.2125 L 7320.7187 1256.5504 L 7343.4335 1256.5504 L 7343.4335 1245.2125 L 7366.1093 1245.2125 L 7366.1093 1256.5504 L 7388.8261 1256.5504 L 7388.8261 1245.2125 L 7411.5019 1245.2125 L 7411.5019 1256.5504 L 7434.2165 1256.5504 L 7434.2165 1245.2125 L 7456.9315 1245.2125 L 7456.9315 1256.5504 L 7479.6094 1256.5504 L 7479.6094 1245.2125 L 7502.324 1245.2125 L 7502.324 1256.5504 L 7525.0019 1256.5504 L 7525.0019 1245.2125 L 7547.7169 1245.2125 L 7547.7169 1256.5504 L 7581.7322 1256.5504 L 7581.7322 1222.5348 L 7570.3944 1222.5348 L 7570.3944 1198.5231 L 7581.7322 1198.5231 L 7581.7322 1174.5133 L 7570.3944 1174.5133 L 7570.3944 1150.5016 L 7581.7322 1150.5016 L 7581.7322 1126.4899 L 7570.3944 1126.4899 L 7570.3944 1102.4801 L 7581.7322 1102.4801 L 7581.7322 1078.4684 L 7570.3944 1078.4684 L 7570.3944 1054.4567 L 7581.7322 1054.4567 L 7581.7322 1030.4469 L 7570.3944 1030.4469 L 7570.3944 1006.4352 L 7581.7322 1006.4352 L 7581.7322 982.42351 L 7570.3944 982.42351 L 7570.3944 958.41376 L 7581.7322 958.41376 L 7581.7322 934.402 L 7570.3944 934.402 L 7570.3944 910.39029 L 7581.7322 910.39029 L 7581.7322 886.37857 L 7570.3944 886.37857 L 7570.3944 862.36878 L 7581.7322 862.36878 L 7581.7322 838.35703 L 7570.3944 838.35703 L 7570.3944 814.34531 L 7581.7322 814.34531 L 7581.7322 780.32968 L 7547.7169 780.32968 L 7547.7169 791.66951 L 7525.0019 791.66951 L 7525.0019 780.32968 L 7502.324 780.32968 L 7502.324 791.66951 L 7479.6094 791.66951 L 7479.6094 780.32968 L 7456.9315 780.32968 L 7456.9315 791.66951 L 7434.2165 791.66951 L 7434.2165 780.32968 L 7411.5019 780.32968 L 7411.5019 791.66951 L 7388.8261 791.66951 L 7388.8261 780.32968 L 7366.1093 780.32968 L 7366.1093 791.66951 L 7343.4335 791.66951 L 7343.4335 780.32968 L 7320.7187 780.32968 L 7320.7187 791.66951 L 7298.0038 791.66951 L 7298.0038 780.32968 L 7275.3261 780.32968 L 7275.3261 791.66951 L 7252.6112 791.66951 L 7252.6112 780.32968 L 7229.9335 780.32968 L 7229.9335 791.66951 L 7207.2187 791.66951 L 7207.2187 780.32968 L 7184.5038 780.32968 L 7184.5038 791.66951 L 7161.8261 791.66951 L 7161.8261 780.32968 L 7139.1112 780.32968 L 7139.1112 791.66951 L 7116.4354 791.66951 L 7116.4354 780.32968 L 7093.7187 780.32968 L 7093.7187 791.66951 L 7071.0038 791.66951 L 7071.0038 780.32968 L 7048.328 780.32968 L 7048.328 791.66951 L 7025.6132 791.66951 L 7025.6132 780.32968 L 7002.8983 780.32968 L 7002.8983 791.66951 L 6980.2206 791.66951 L 6980.2206 780.32968 L 6957.5058 780.32968 L 6957.5058 791.66951 L 6934.828 791.66951 L 6934.828 780.32968 L 6912.1132 780.32968 L 6912.1132 791.66951 L 6889.3983 791.66951 L 6889.3983 780.32968 L 6866.7206 780.32968 L 6866.7206 791.66951 L 6844.0058 791.66951 L 6844.0058 780.32968 L 6821.33 780.32968 L 6821.33 791.66951 L 6798.6132 791.66951 L 6798.6132 780.32968 L 6775.8983 780.32968 L 6775.8983 791.66951 L 6753.2226 791.66951 L 6753.2226 780.32968 L 6730.5077 780.32968 L 6730.5077 791.66951 L 6707.83 791.66951 L 6707.83 780.32968 L 6685.1151 780.32968 L 6685.1151 791.66951 L 6662.4003 791.66951 L 6662.4003 780.32968 L 6639.7226 780.32968 L 6639.7226 791.66951 L 6617.0077 791.66951 L 6617.0077 780.32968 L 6594.33 780.32968 L 6594.33 791.66951 L 6571.6151 791.66951 L 6571.6151 780.32968 L 6548.9003 780.32968 L 6548.9003 791.66951 L 6526.2226 791.66951 L 6526.2226 780.32968 L 6503.5077 780.32968 L 6503.5077 791.66951 L 6480.8319 791.66951 L 6480.8319 780.32968 L 6458.1171 780.32968 L 6458.1171 791.66951 L 6435.4022 791.66951 L 6435.4022 780.32968 L 6412.7245 780.32968 L 6412.7245 791.66951 L 6390.0097 791.66951 L 6390.0097 780.32968 L 6367.3319 780.32968 L 6367.3319 791.66951 L 6344.6171 791.66951 L 6344.6171 780.32968 L 6321.9022 780.32968 L 6321.9022 791.66951 L 6299.2245 791.66951 L 6299.2245 780.32968 L 6276.5097 780.32968 L 6276.5097 791.66951 L 6253.8339 791.66951 L 6253.8339 780.32968 L 6231.1171 780.32968 L 6231.1171 791.66951 L 6208.4022 791.66951 L 6208.4022 780.32968 L 6185.7265 780.32968 L 6185.7265 791.66951 L 6163.0116 791.66951 L 6163.0116 780.32968 L 6140.3339 780.32968 L 6140.3339 791.66951 L 6117.619 791.66951 L 6117.619 780.32968 L 6094.9042 780.32968 L 6094.9042 791.66951 L 6072.2265 791.66951 L 6072.2265 780.32968 L 6049.5116 780.32968 L 6049.5116 791.66951 L 6026.8339 791.66951 L 6026.8339 780.32968 L 6004.119 780.32968 L 6004.119 791.66951 L 5981.4042 791.66951 L 5981.4042 780.32968 L 5958.7284 780.32968 L 5958.7284 791.66951 L 5936.0116 791.66951 L 5936.0116 780.32968 L 5913.2968 780.32968 L 5913.2968 791.66951 L 5890.621 791.66951 L 5890.621 780.32968 L 5867.9061 780.32968 L 5867.9061 791.66951 L 5845.2284 791.66951 L 5845.2284 780.32968 L 5822.5136 780.32968 L 5822.5136 791.66951 L 5799.7987 791.66951 L 5799.7987 780.32968 L 5777.121 780.32968 L 5777.121 791.66951 L 5754.4061 791.66951 L 5754.4061 780.32968 L 5731.7284 780.32968 L 5731.7284 791.66951 L 5709.0136 791.66951 L 5709.0136 780.32968 L 5686.2987 780.32968 L 5686.2987 791.66951 L 5663.621 791.66951 L 5663.621 780.32968 L 5640.9061 780.32968 L 5640.9061 791.66951 L 5618.2304 791.66951 L 5618.2304 780.32968 L 5595.5155 780.32968 L 5595.5155 791.66951 L 5572.8007 791.66951 L 5572.8007 780.32968 L 5550.1229 780.32968 L 5550.1229 791.66951 L 5527.4081 791.66951 L 5527.4081 780.32968 L 5504.7304 780.32968 L 5504.7304 791.66951 L 5482.0155 791.66951 L 5482.0155 780.32968 L 5459.3007 780.32968 L 5459.3007 791.66951 L 5436.6229 791.66951 L 5436.6229 780.32968 L 5413.9081 780.32968 L 5413.9081 791.66951 L 5391.2323 791.66951 L 5391.2323 780.32968 L 5368.5155 780.32968 L 5368.5155 791.66951 L 5345.8007 791.66951 L 5345.8007 780.32968 L 5323.1249 780.32968 L 5323.1249 791.66951 L 5300.4101 791.66951 L 5300.4101 780.32968 L 5277.7323 780.32968 L 5277.7323 791.66951 L 5255.0175 791.66951 L 5255.0175 780.32968 L 5232.3026 780.32968 L 5232.3026 791.66951 L 5209.6249 791.66951 L 5209.6249 780.32968 L 5186.9101 780.32968 L 5186.9101 791.66951 L 5164.2324 791.66951 L 5164.2324 780.32968 L 5141.5175 780.32968 L 5141.5175 791.66951 L 5118.8026 791.66951 L 5118.8026 780.32968 L 5096.1269 780.32968 L 5096.1269 791.66951 L 5073.4102 791.66951 L 5073.4102 780.32968 L 5050.7343 780.32968 L 5050.7343 791.66951 L 5028.0194 791.66951 L 5028.0194 780.32968 L 5005.3047 780.32968 L 5005.3047 791.66951 L 4982.6269 791.66951 L 4982.6269 780.32968 L 4959.912 780.32968 L 4959.912 791.66951 L 4937.2343 791.66951 L 4937.2343 780.32968 L 4914.5194 780.32968 L 4914.5194 791.66951 L 4891.8046 791.66951 L 4891.8046 780.32968 L 4869.127 780.32968 L 4869.127 791.66951 L 4846.412 791.66951 L 4846.412 780.32968 L 4823.6972 780.32968 L 4823.6972 791.66951 L 4801.0195 791.66951 L 4801.0195 780.32968 L 4778.3046 780.32968 L 4778.3046 791.66951 L 4755.6288 791.66951 L 4755.6288 780.32968 L 4732.914 780.32968 L 4732.914 791.66951 L 4710.1991 791.66951 L 4710.1991 780.32968 L 4687.5214 780.32968 L 4687.5214 791.66951 L 4664.8065 791.66951 L 4664.8065 780.32968 L 4642.1288 780.32968 L 4642.1288 791.66951 L 4619.4141 791.66951 L 4619.4141 780.32968 L 4596.6991 780.32968 L 4596.6991 791.66951 L 4574.0214 791.66951 L 4574.0214 780.32968 L 4551.3066 780.32968 L 4551.3066 791.66951 L 4528.6308 791.66951 L 4528.6308 780.32968 L 4505.9141 780.32968 L 4505.9141 791.66951 L 4483.1991 791.66951 L 4483.1991 780.32968 L 4460.5233 780.32968 L 4460.5233 791.66951 L 4437.8086 791.66951 L 4437.8086 780.32968 L 4415.1309 780.32968 L 4415.1309 791.66951 L 4392.4159 791.66951 L 4392.4159 780.32968 L 4369.7011 780.32968 L 4369.7011 791.66951 L 4347.0234 791.66951 L 4347.0234 780.32968 L 4324.3085 780.32968 L 4324.3085 791.66951 L 4301.6309 791.66951 L 4301.6309 780.32968 L 4278.9159 780.32968 L 4278.9159 791.66951 L 4256.2012 791.66951 L 4256.2012 780.32968 L 4233.5234 780.32968 L 4233.5234 791.66951 L 4210.8085 791.66951 L 4210.8085 780.32968 L 4188.1327 780.32968 L 4188.1327 791.66951 L 4165.418 791.66951 L 4165.418 780.32968 L 4142.703 780.32968 L 4142.703 791.66951 L 4120.0253 791.66951 L 4120.0253 780.32968 L 4097.3105 780.32968 L 4097.3105 791.66951 L 4074.6327 791.66951 L 4074.6327 780.32968 L 4051.918 780.32968 L 4051.918 791.66951 L 4029.203 791.66951 L 4029.203 780.32968 L 4006.5253 780.32968 L 4006.5253 791.66951 L 3983.8104 791.66951 L 3983.8104 780.32968 L 3961.1348 780.32968 L 3961.1348 791.66951 L 3938.4179 791.66951 L 3938.4179 780.32968 L 3915.703 780.32968 L 3915.703 791.66951 L 3893.0273 791.66951 L 3893.0273 780.32968 L 3870.3124 780.32968 L 3870.3124 791.66951 L 3847.6348 791.66951 L 3847.6348 780.32968 L 3824.9199 780.32968 L 3824.9199 791.66951 L 3802.2051 791.66951 L 3802.2051 780.32968 L 3779.5156 780.32968 L 3779.5156 791.66951 L 3756.8164 791.66951 L 3756.8164 780.32968 L 3734.1172 780.32968 L 3734.1172 791.66951 L 3711.416 791.66951 L 3711.416 780.32968 L 3688.7168 780.32968 L 3688.7168 791.66951 L 3666.0176 791.66951 L 3666.0176 780.32968 L 3643.3164 780.32968 L 3643.3164 791.66951 L 3620.6172 791.66951 L 3620.6172 780.32968 L 3597.918 780.32968 L 3597.918 791.66951 L 3575.2168 791.66951 L 3575.2168 780.32968 L 3552.5176 780.32968 L 3552.5176 791.66951 L 3529.8184 791.66951 L 3529.8184 780.32968 L 3507.1152 780.32968 L 3507.1152 791.66951 L 3484.4141 791.66951 L 3484.4141 780.32968 L 3461.7148 780.32968 L 3461.7148 791.66951 L 3439.0156 791.66951 L 3439.0156 780.32968 L 3416.3145 780.32968 L 3416.3145 791.66951 L 3393.6152 791.66951 L 3393.6152 780.32968 L 3370.916 780.32968 L 3370.916 791.66951 L 3348.2148 791.66951 L 3348.2148 780.32968 L 3325.5156 780.32968 L 3325.5156 791.66951 L 3302.8164 791.66951 L 3302.8164 780.32968 L 3280.1152 780.32968 L 3280.1152 791.66951 L 3257.4159 791.66951 L 3257.4159 780.32968 L 3234.7167 780.32968 L 3234.7167 791.66951 L 3212.0155 791.66951 L 3212.0155 780.32968 L 3189.3163 780.32968 L 3189.3163 791.66951 L 3166.6171 791.66951 L 3166.6171 780.32968 L 3143.9159 780.32968 L 3143.9159 791.66951 L 3121.2167 791.66951 L 3121.2167 780.32968 L 3098.5175 780.32968 L 3098.5175 791.66951 L 3075.8164 791.66951 L 3075.8164 780.32968 L 3053.1172 780.32968 L 3053.1172 791.66951 L 3030.418 791.66951 L 3030.418 780.32968 L 3007.7188 780.32968 L 3007.7188 791.66951 L 2985.0176 791.66951 L 2985.0176 780.32968 L 2962.3144 780.32968 L 2962.3144 791.66951 L 2939.6152 791.66951 L 2939.6152 780.32968 L 2916.9141 780.32968 L 2916.9141 791.66951 L 2894.2148 791.66951 L 2894.2148 780.32968 L 2871.5156 780.32968 L 2871.5156 791.66951 L 2848.8145 791.66951 L 2848.8145 780.32968 L 2826.1152 780.32968 L 2826.1152 791.66951 L 2803.416 791.66951 L 2803.416 780.32968 L 2780.7148 780.32968 L 2780.7148 791.66951 L 2758.0156 791.66951 L 2758.0156 780.32968 L 2735.3164 780.32968 L 2735.3164 791.66951 L 2712.6152 791.66951 L 2712.6152 780.32968 L 2689.916 780.32968 L 2689.916 791.66951 L 2667.2168 791.66951 L 2667.2168 780.32968 L 2644.5156 780.32968 L 2644.5156 791.66951 L 2621.8164 791.66951 L 2621.8164 780.32968 L 2599.1172 780.32968 L 2599.1172 791.66951 L 2576.418 791.66951 L 2576.418 780.32968 L 2553.7167 780.32968 L 2553.7167 791.66951 L 2531.0175 791.66951 L 2531.0175 780.32968 L 2508.3183 780.32968 L 2508.3183 791.66951 L 2485.6172 791.66951 L 2485.6172 780.32968 L 2462.918 780.32968 L 2462.918 791.66951 L 2440.2148 791.66951 L 2440.2148 780.32968 L 2417.5137 780.32968 L 2417.5137 791.66951 L 2394.8145 791.66951 L 2394.8145 780.32968 L 2372.1152 780.32968 L 2372.1152 791.66951 L 2349.4141 791.66951 L 2349.4141 780.32968 L 2326.7148 780.32968 L 2326.7148 791.66951 L 2304.0156 791.66951 L 2304.0156 780.32968 L 2281.3145 780.32968 L 2281.3145 791.66951 L 2258.6152 791.66951 L 2258.6152 780.32968 L 2235.916 780.32968 L 2235.916 791.66951 L 2213.2148 791.66951 L 2213.2148 780.32968 L 2190.5156 780.32968 L 2190.5156 791.66951 L 2167.8164 791.66951 L 2167.8164 780.32968 L 2145.1172 780.32968 L 2145.1172 791.66951 L 2122.416 791.66951 L 2122.416 780.32968 L 2099.7168 780.32968 L 2099.7168 791.66951 L 2077.0176 791.66951 L 2077.0176 780.32968 L 2054.3164 780.32968 L 2054.3164 791.66951 L 2031.6172 791.66951 L 2031.6172 780.32968 L 2008.918 780.32968 L 2008.918 791.66951 L 1986.2168 791.66951 L 1986.2168 780.32968 L 1963.5176 780.32968 L 1963.5176 791.66951 L 1940.8184 791.66951 L 1940.8184 780.32968 L 1918.1172 780.32968 L 1918.1172 791.66951 L 1895.4141 791.66951 L 1895.4141 780.32968 L 1872.7148 780.32968 L 1872.7148 791.66951 L 1850.0137 791.66951 L 1850.0137 780.32968 L 1827.3145 780.32968 L 1827.3145 791.66951 L 1804.6152 791.66951 L 1804.6152 780.32968 L 1781.9141 780.32968 L 1781.9141 791.66951 L 1759.2148 791.66951 L 1759.2148 780.32968 L 1736.5156 780.32968 L 1736.5156 791.66951 L 1713.8164 791.66951 L 1713.8164 780.32968 L 1691.1152 780.32968 L 1691.1152 791.66951 L 1668.416 791.66951 L 1668.416 780.32968 L 1645.7168 780.32968 L 1645.7168 791.66951 L 1623.0156 791.66951 L 1623.0156 780.32968 L 1600.3164 780.32968 L 1600.3164 791.66951 L 1577.6172 791.66951 L 1577.6172 780.32968 L 1554.916 780.32968 L 1554.916 791.66951 L 1532.2168 791.66951 L 1532.2168 780.32968 L 1509.5176 780.32968 L 1509.5176 791.66951 L 1486.8164 791.66951 L 1486.8164 780.32968 L 1464.1172 780.32968 L 1464.1172 791.66951 L 1441.418 791.66951 L 1441.418 780.32968 L 1418.7168 780.32968 L 1418.7168 791.66951 L 1396.0176 791.66951 L 1396.0176 780.32968 L 1373.3184 780.32968 L 1373.3184 791.66951 L 1350.6133 791.66951 L 1350.6133 780.32968 L 1339.8926 780.32968 "
       transform="matrix(0.26458333,0,0,0.26458333,-965.20649,61.433343)" />
    <path
       id="path2678"
       style="vector-effect:non-scaling-stroke;fill:none;stroke:#000000;stroke-width:0.00264582;stroke-miterlimit:4;stroke-dasharray:none;-inkscape-stroke:hairline"
       d="M 1338.8887 1256.5504 L 1339.8926 1256.5504 "
       transform="matrix(0.26458333,0,0,0.26458333,-965.20649,61.433343)" />
    <path
       id="path2479"
       style="color:#000000;vector-effect:non-scaling-stroke;fill:#000000;stroke:#000000;stroke-width:0.00264583;stroke-miterlimit:4;stroke-dasharray:none;-inkscape-stroke:hairline"
       d="m -610.95898,350.69531 v 45.3125 h 0.26562 v -45.3125 z m 0,-85.85742 v 46.25781 h 0.26562 v -46.25781 z m -5.89461,46.25721 v 39.60119 h 6.02753 v -0.003 h -6.02547 v -39.59648 h 6.02547 v -0.002 z" />
  </g>
</svg>
