<?xml version="1.0" encoding="UTF-8" standalone="no"?>
<!-- Created with Inkscape (http://www.inkscape.org/) -->

<svg
   width="210mm"
   height="297mm"
   viewBox="0 0 210 297"
   version="1.1"
   id="svg5"
   inkscape:version="1.1.2 (0a00cf5339, 2022-02-04, custom)"
   sodipodi:docname="lightbox_2m_sides.svg"
   xmlns:inkscape="http://www.inkscape.org/namespaces/inkscape"
   xmlns:sodipodi="http://sodipodi.sourceforge.net/DTD/sodipodi-0.dtd"
   xmlns="http://www.w3.org/2000/svg"
   xmlns:svg="http://www.w3.org/2000/svg">
  <sodipodi:namedview
     id="namedview7"
     pagecolor="#ffffff"
     bordercolor="#666666"
     borderopacity="1.0"
     inkscape:pageshadow="2"
     inkscape:pageopacity="0.0"
     inkscape:pagecheckerboard="0"
     inkscape:document-units="mm"
     showgrid="false"
     inkscape:zoom="0.74208053"
     inkscape:cx="396.18342"
     inkscape:cy="561.25984"
     inkscape:current-layer="layer1" />
  <defs
     id="defs2" />
  <g
     inkscape:label="Layer 1"
     inkscape:groupmode="layer"
     id="layer1">
    <path
       id="path1013"
       style="vector-effect:non-scaling-stroke;fill:none;stroke:#000000;stroke-width:0.00070004;stroke-miterlimit:4;stroke-dasharray:none;-inkscape-stroke:hairline"
       d="m 44.301378,105.23563 h -2.999317 v 6.3531 h 2.998788 v 8.99996 h 7.000078 v -2.9998 h 5.999959 v 2.9998 h 7.000081 v -8.99996 h 2.999846 v -6.3531 h -2.999846 m 0,0 v 0 -6.353103 h 2.999846 v -6.353106 h -2.999846 v -6.352585 h 2.999846 v -6.353101 h -2.999846 v -6.353101 h 2.999846 v -6.352582 h -2.999846 v -6.353101 h 2.999846 V 54.41185 h -2.999846 v -6.353101 h 2.999846 v -6.352582 h -2.999846 v -6.353101 h 2.999846 v -6.353101 h -2.999846 v -8.999966 h -7.000081 v 3.000333 h -5.999959 v -3.000333 h -7.000078 v 8.999966 h -2.999846 v 6.353101 h 2.999846 v 6.353101 h -2.999846 v 6.352582 h 2.999846 v 6.353101 h -2.999846 v 6.353101 h 2.999846 v 6.352585 h -2.999846 v 6.353098 h 2.999846 v 6.353101 h -2.999846 v 6.353101 h 2.999846 v 6.352585 h -2.999846 v 6.353106 h 2.999846 v 6.353103 0" />
    <path
       id="path4910"
       d="m 12.999846,20 v 8.999966 H 10 v 6.353101 h 2.999846 v 6.353101 H 10 v 6.352582 h 2.999846 v 6.353101 H 10 v 6.353101 h 2.999846 v 6.352585 H 10 v 6.353098 h 2.999846 v 6.353101 H 10 v 6.353101 h 2.999846 v 6.352585 H 10 v 6.353105 h 2.999846 v 6.353103 H 10 v 6.35258 h 2.999846 v 6.3531 H 10 v 6.3531 h 2.999846 v 6.35258 H 10 v 6.3531 h 2.999846 v 8.99997 h 7.000081 v -2.99981 h 5.999692 v 2.99981 H 32.9997 v -8.99997 h 3.000375 v -6.3531 H 32.9997 v -6.35258 h 3.000375 v -6.3531 H 32.9997 v -6.3531 h 3.000375 v -6.35258 H 32.9997 v -6.353103 h 3.000375 V 92.529422 H 32.9997 v -6.352585 h 3.000375 V 79.823736 H 32.9997 v -6.353101 h 3.000375 V 67.118053 H 32.9997 v -6.353101 h 3.000375 V 54.411851 H 32.9997 V 48.05875 h 3.000375 V 41.706168 H 32.9997 v -6.353101 h 3.000375 V 28.999966 H 32.9997 V 20 h -7.000081 v 3.000333 H 19.999927 V 20 Z"
       style="vector-effect:non-scaling-stroke;fill:none;stroke:#000000;stroke-width:0.00070004;stroke-miterlimit:4;stroke-dasharray:none;-inkscape-stroke:hairline" />
  </g>
</svg>
