<?xml version="1.0" encoding="UTF-8" standalone="no"?>
<!-- Created with Inkscape (http://www.inkscape.org/) -->

<svg
   width="210mm"
   height="297mm"
   viewBox="0 0 210 297"
   version="1.1"
   id="svg5"
   inkscape:version="1.1.2 (0a00cf5339, 2022-02-04, custom)"
   sodipodi:docname="lightbox_2m_sides.svg"
   xmlns:inkscape="http://www.inkscape.org/namespaces/inkscape"
   xmlns:sodipodi="http://sodipodi.sourceforge.net/DTD/sodipodi-0.dtd"
   xmlns="http://www.w3.org/2000/svg"
   xmlns:svg="http://www.w3.org/2000/svg">
  <sodipodi:namedview
     id="namedview7"
     pagecolor="#ffffff"
     bordercolor="#666666"
     borderopacity="1.0"
     inkscape:pageshadow="2"
     inkscape:pageopacity="0.0"
     inkscape:pagecheckerboard="0"
     inkscape:document-units="mm"
     showgrid="false"
     inkscape:zoom="0.74208053"
     inkscape:cx="396.18342"
     inkscape:cy="561.25984"
     inkscape:current-layer="layer1" />
  <defs
     id="defs2" />
  <g
     inkscape:label="Layer 1"
     inkscape:groupmode="layer"
     id="layer1">
    <path
       id="path4912"
       style="vector-effect:non-scaling-stroke;fill:none;stroke:#000000;stroke-width:0.00264582;stroke-miterlimit:4;stroke-dasharray:none;-inkscape-stroke:hairline"
       d="M 243.02728 517.79562 L 243.02728 517.79562 L 254.36528 517.79562 L 254.36528 493.7839 L 243.02728 493.7839 L 243.02728 469.77415 L 254.36528 469.77415 L 254.36528 445.76243 L 243.02728 445.76243 L 243.02728 421.75071 L 254.36528 421.75071 L 254.36528 397.74096 L 243.02728 397.74096 L 243.02728 373.72924 L 254.36528 373.72924 L 254.36528 349.7175 L 243.02728 349.7175 L 243.02728 325.70773 L 254.36528 325.70773 L 254.36528 301.69601 L 243.02728 301.69601 L 243.02728 277.68429 L 254.36528 277.68429 L 254.36528 253.67453 L 243.02728 253.67453 L 243.02728 229.66281 L 254.36528 229.66281 L 254.36528 205.65109 L 243.02728 205.65109 L 243.02728 181.63937 L 254.36528 181.63937 L 254.36528 157.62961 L 243.02728 157.62961 L 243.02728 133.61789 L 254.36528 133.61789 L 254.36528 109.60617 L 243.02728 109.60617 L 243.02728 75.590551 L 216.57028 75.590551 L 216.57028 86.930392 L 193.89327 86.930392 L 193.89327 75.590551 L 167.43628 75.590551 L 167.43628 109.60617 L 156.09828 109.60617 L 156.09828 133.61789 L 167.43628 133.61789 L 167.43628 157.62961 L 156.09828 157.62961 L 156.09828 181.63937 L 167.43628 181.63937 L 167.43628 205.65109 L 156.09828 205.65109 L 156.09828 229.66281 L 167.43628 229.66281 L 167.43628 253.67258 L 156.09828 253.67258 L 156.09828 277.68429 L 167.43628 277.68429 L 167.43628 301.69601 L 156.09828 301.69601 L 156.09828 325.70773 L 167.43628 325.70773 L 167.43628 349.7175 L 156.09828 349.7175 L 156.09828 373.72924 L 167.43628 373.72924 L 167.43628 397.74096 L 156.09828 397.74096 L 156.09828 421.75071 L 167.43628 421.75071 L 167.43628 445.76243 L 156.09828 445.76243 L 156.10028 469.77415 L 156.10028 469.77415 L 167.43828 469.77415 L 167.43828 493.7839 L 156.10228 493.7839 L 156.10228 517.79562 L 167.43628 517.79562 "
       transform="scale(0.26458333)" />
    <path
       id="path1008"
       style="vector-effect:non-scaling-stroke;fill:none;stroke:#000000;stroke-width:0.00264582;stroke-miterlimit:4;stroke-dasharray:none;-inkscape-stroke:hairline"
       d="M 167.43628 517.79562 L 167.43628 517.79562 L 167.43628 551.81125 L 193.89327 551.81125 L 193.89327 540.47339 L 216.57028 540.47339 L 216.57028 551.81125 L 243.02728 551.81125 L 243.02728 517.79562 "
       transform="scale(0.26458333)" />
    <path
       id="path4910"
       d="m 12.999846,20 v 8.999966 H 10 v 6.353101 h 2.999846 v 6.353101 H 10 v 6.352582 h 2.999846 v 6.353101 H 10 v 6.353101 h 2.999846 v 6.352585 H 10 v 6.353098 h 2.999846 v 6.353101 H 10 v 6.353101 h 2.999846 v 6.352585 H 10 v 6.353105 h 2.999846 v 6.353103 H 10 v 6.35258 h 2.999846 v 6.3531 H 10 v 6.3531 h 2.999846 v 6.35258 H 10 v 6.3531 h 2.999846 v 8.99997 h 7.000081 v -2.99981 h 5.999692 v 2.99981 H 32.9997 v -8.99997 h 3.000375 v -6.3531 H 32.9997 v -6.35258 h 3.000375 v -6.3531 H 32.9997 v -6.3531 h 3.000375 v -6.35258 H 32.9997 v -6.353103 h 3.000375 V 92.529422 H 32.9997 v -6.352585 h 3.000375 V 79.823736 H 32.9997 v -6.353101 h 3.000375 V 67.118053 H 32.9997 v -6.353101 h 3.000375 V 54.411851 H 32.9997 V 48.05875 h 3.000375 V 41.706168 H 32.9997 v -6.353101 h 3.000375 V 28.999966 H 32.9997 V 20 h -7.000081 v 3.000333 H 19.999927 V 20 Z"
       style="vector-effect:non-scaling-stroke;fill:none;stroke:#000000;stroke-width:0.00070004;stroke-miterlimit:4;stroke-dasharray:none;-inkscape-stroke:hairline" />
    <path
       style="fill:none;stroke:#000000;stroke-width:0.00070004;stroke-linecap:butt;stroke-linejoin:miter;stroke-opacity:1;vector-effect:non-scaling-stroke;-inkscape-stroke:hairline;stroke-miterlimit:4;stroke-dasharray:none"
       d="M 44.301378,130.64699 H 64.300967"
       id="path1057" />
  </g>
</svg>
