<?xml version="1.0" standalone="no"?>
<!DOCTYPE svg PUBLIC "-//W3C//DTD SVG 1.1//EN" "http://www.w3.org/Graphics/SVG/1.1/DTD/svg11.dtd">
<svg width="4065mm" height="153mm" viewBox="0 -153 4065 153" xmlns="http://www.w3.org/2000/svg" version="1.1">
<title>OpenSCAD Model</title>
<path d="
M 15.006,-129.01 L 21.0121,-129.01 L 21.0121,-126.01 L 27.0181,-126.01 L 27.0181,-129.01 L 33.0242,-129.01
 L 33.0242,-126.01 L 39.0302,-126.01 L 39.0302,-129.01 L 45.0362,-129.01 L 45.0362,-126.01 L 51.0423,-126.01
 L 51.0423,-129.01 L 57.0483,-129.01 L 57.0483,-126.01 L 63.0544,-126.01 L 63.0544,-129.01 L 69.0604,-129.01
 L 69.0604,-126.01 L 75.0665,-126.01 L 75.0665,-129.01 L 81.0725,-129.01 L 81.0725,-126.01 L 87.0785,-126.01
 L 87.0785,-129.01 L 93.0846,-129.01 L 93.0846,-126.01 L 99.0906,-126.01 L 99.0906,-129.01 L 105.097,-129.01
 L 105.097,-126.01 L 111.103,-126.01 L 111.103,-129.01 L 117.109,-129.01 L 117.109,-126.01 L 123.115,-126.01
 L 123.115,-129.01 L 129.121,-129.01 L 129.121,-126.01 L 135.127,-126.01 L 135.127,-129.01 L 141.133,-129.01
 L 141.133,-126.01 L 147.139,-126.01 L 147.139,-129.01 L 153.145,-129.01 L 153.145,-126.01 L 159.151,-126.01
 L 159.151,-129.01 L 165.157,-129.01 L 165.157,-126.01 L 171.163,-126.01 L 171.163,-129.01 L 177.169,-129.01
 L 177.169,-126.01 L 183.175,-126.01 L 183.175,-129.01 L 189.181,-129.01 L 189.181,-126.01 L 195.187,-126.01
 L 195.187,-129.01 L 201.193,-129.01 L 201.193,-126.01 L 207.199,-126.01 L 207.199,-129.01 L 213.205,-129.01
 L 213.205,-126.01 L 219.211,-126.01 L 219.211,-129.01 L 225.218,-129.01 L 225.218,-126.01 L 231.224,-126.01
 L 231.224,-129.01 L 237.23,-129.01 L 237.23,-126.01 L 243.236,-126.01 L 243.236,-129.01 L 249.242,-129.01
 L 249.242,-126.01 L 255.248,-126.01 L 255.248,-129.01 L 261.254,-129.01 L 261.254,-126.01 L 267.26,-126.01
 L 267.26,-129.01 L 273.266,-129.01 L 273.266,-126.01 L 279.272,-126.01 L 279.272,-129.01 L 285.278,-129.01
 L 285.278,-126.01 L 291.284,-126.01 L 291.284,-129.01 L 297.29,-129.01 L 297.29,-126.01 L 303.296,-126.01
 L 303.296,-129.01 L 309.302,-129.01 L 309.302,-126.01 L 315.308,-126.01 L 315.308,-129.01 L 321.314,-129.01
 L 321.314,-126.01 L 327.32,-126.01 L 327.32,-129.01 L 333.326,-129.01 L 333.326,-126.01 L 339.332,-126.01
 L 339.332,-129.01 L 345.338,-129.01 L 345.338,-126.01 L 351.344,-126.01 L 351.344,-129.01 L 357.35,-129.01
 L 357.35,-126.01 L 363.356,-126.01 L 363.356,-129.01 L 369.363,-129.01 L 369.363,-126.01 L 375.369,-126.01
 L 375.369,-129.01 L 381.375,-129.01 L 381.375,-126.01 L 387.381,-126.01 L 387.381,-129.01 L 393.387,-129.01
 L 393.387,-126.01 L 399.393,-126.01 L 399.393,-129.01 L 405.399,-129.01 L 405.399,-126.01 L 411.405,-126.01
 L 411.405,-129.01 L 417.411,-129.01 L 417.411,-126.01 L 423.417,-126.01 L 423.417,-129.01 L 429.423,-129.01
 L 429.423,-126.01 L 435.429,-126.01 L 435.429,-129.01 L 441.435,-129.01 L 441.435,-126.01 L 447.441,-126.01
 L 447.441,-129.01 L 453.447,-129.01 L 453.447,-126.01 L 459.453,-126.01 L 459.453,-129.01 L 465.459,-129.01
 L 465.459,-126.01 L 471.465,-126.01 L 471.465,-129.01 L 477.471,-129.01 L 477.471,-126.01 L 483.477,-126.01
 L 483.477,-129.01 L 489.483,-129.01 L 489.483,-126.01 L 495.489,-126.01 L 495.489,-129.01 L 501.495,-129.01
 L 501.495,-126.01 L 507.501,-126.01 L 507.501,-129.01 L 513.508,-129.01 L 513.508,-126.01 L 519.514,-126.01
 L 519.514,-129.01 L 525.52,-129.01 L 525.52,-126.01 L 531.526,-126.01 L 531.526,-129.01 L 537.532,-129.01
 L 537.532,-126.01 L 543.538,-126.01 L 543.538,-129.01 L 549.544,-129.01 L 549.544,-126.01 L 555.55,-126.01
 L 555.55,-129.01 L 561.556,-129.01 L 561.556,-126.01 L 567.562,-126.01 L 567.562,-129.01 L 573.568,-129.01
 L 573.568,-126.01 L 579.574,-126.01 L 579.574,-129.01 L 585.58,-129.01 L 585.58,-126.01 L 591.586,-126.01
 L 591.586,-129.01 L 597.592,-129.01 L 597.592,-126.01 L 603.598,-126.01 L 603.598,-129.01 L 609.604,-129.01
 L 609.604,-126.01 L 615.61,-126.01 L 615.61,-129.01 L 621.616,-129.01 L 621.616,-126.01 L 627.622,-126.01
 L 627.622,-129.01 L 633.628,-129.01 L 633.628,-126.01 L 639.634,-126.01 L 639.634,-129.01 L 645.64,-129.01
 L 645.64,-126.01 L 651.647,-126.01 L 651.647,-129.01 L 657.653,-129.01 L 657.653,-126.01 L 663.659,-126.01
 L 663.659,-129.01 L 669.665,-129.01 L 669.665,-126.01 L 675.671,-126.01 L 675.671,-129.01 L 681.677,-129.01
 L 681.677,-126.01 L 687.683,-126.01 L 687.683,-129.01 L 693.689,-129.01 L 693.689,-126.01 L 699.695,-126.01
 L 699.695,-129.01 L 705.701,-129.01 L 705.701,-126.01 L 711.707,-126.01 L 711.707,-129.01 L 717.713,-129.01
 L 717.713,-126.01 L 723.719,-126.01 L 723.719,-129.01 L 729.725,-129.01 L 729.725,-126.01 L 735.731,-126.01
 L 735.731,-129.01 L 741.737,-129.01 L 741.737,-126.01 L 747.743,-126.01 L 747.743,-129.01 L 753.749,-129.01
 L 753.749,-126.01 L 759.755,-126.01 L 759.755,-129.01 L 765.761,-129.01 L 765.761,-126.01 L 771.767,-126.01
 L 771.767,-129.01 L 777.773,-129.01 L 777.773,-126.01 L 783.779,-126.01 L 783.779,-129.01 L 789.785,-129.01
 L 789.785,-126.01 L 795.792,-126.01 L 795.792,-129.01 L 801.798,-129.01 L 801.798,-126.01 L 807.804,-126.01
 L 807.804,-129.01 L 813.81,-129.01 L 813.81,-126.01 L 819.816,-126.01 L 819.816,-129.01 L 825.822,-129.01
 L 825.822,-126.01 L 831.828,-126.01 L 831.828,-129.01 L 837.834,-129.01 L 837.834,-126.01 L 843.84,-126.01
 L 843.84,-129.01 L 849.846,-129.01 L 849.846,-126.01 L 855.852,-126.01 L 855.852,-129.01 L 861.858,-129.01
 L 861.858,-126.01 L 867.864,-126.01 L 867.864,-129.01 L 873.87,-129.01 L 873.87,-126.01 L 879.876,-126.01
 L 879.876,-129.01 L 885.882,-129.01 L 885.882,-126.01 L 891.888,-126.01 L 891.888,-129.01 L 897.894,-129.01
 L 897.894,-126.01 L 903.9,-126.01 L 903.9,-129.01 L 909.906,-129.01 L 909.906,-126.01 L 915.912,-126.01
 L 915.912,-129.01 L 921.918,-129.01 L 921.918,-126.01 L 927.924,-126.01 L 927.924,-129.01 L 933.931,-129.01
 L 933.931,-126.01 L 939.937,-126.01 L 939.937,-129.01 L 945.943,-129.01 L 945.943,-126.01 L 951.949,-126.01
 L 951.949,-129.01 L 957.955,-129.01 L 957.955,-126.01 L 963.961,-126.01 L 963.961,-129.01 L 969.967,-129.01
 L 969.967,-126.01 L 975.973,-126.01 L 975.973,-129.01 L 981.979,-129.01 L 981.979,-126.01 L 987.985,-126.01
 L 987.985,-129.01 L 993.991,-129.01 L 993.991,-126.01 L 999.997,-126.01 L 999.997,-129.01 L 1006,-129.01
 L 1006,-126.01 L 1012.01,-126.01 L 1012.01,-129.01 L 1018.02,-129.01 L 1018.02,-126.01 L 1024.02,-126.01
 L 1024.02,-129.01 L 1030.03,-129.01 L 1030.03,-126.01 L 1036.03,-126.01 L 1036.03,-129.01 L 1042.04,-129.01
 L 1042.04,-126.01 L 1048.05,-126.01 L 1048.05,-129.01 L 1054.05,-129.01 L 1054.05,-126.01 L 1060.06,-126.01
 L 1060.06,-129.01 L 1066.06,-129.01 L 1066.06,-126.01 L 1072.07,-126.01 L 1072.07,-129.01 L 1078.08,-129.01
 L 1078.08,-126.01 L 1084.08,-126.01 L 1084.08,-129.01 L 1090.09,-129.01 L 1090.09,-126.01 L 1096.09,-126.01
 L 1096.09,-129.01 L 1102.1,-129.01 L 1102.1,-126.01 L 1108.11,-126.01 L 1108.11,-129.01 L 1114.11,-129.01
 L 1114.11,-126.01 L 1120.12,-126.01 L 1120.12,-129.01 L 1126.12,-129.01 L 1126.12,-126.01 L 1132.13,-126.01
 L 1132.13,-129.01 L 1138.14,-129.01 L 1138.14,-126.01 L 1144.14,-126.01 L 1144.14,-129.01 L 1150.15,-129.01
 L 1150.15,-126.01 L 1156.15,-126.01 L 1156.15,-129.01 L 1162.16,-129.01 L 1162.16,-126.01 L 1168.17,-126.01
 L 1168.17,-129.01 L 1174.17,-129.01 L 1174.17,-126.01 L 1180.18,-126.01 L 1180.18,-129.01 L 1186.18,-129.01
 L 1186.18,-126.01 L 1192.19,-126.01 L 1192.19,-129.01 L 1198.2,-129.01 L 1198.2,-126.01 L 1204.2,-126.01
 L 1204.2,-129.01 L 1210.21,-129.01 L 1210.21,-126.01 L 1216.21,-126.01 L 1216.21,-129.01 L 1222.22,-129.01
 L 1222.22,-126.01 L 1228.23,-126.01 L 1228.23,-129.01 L 1234.23,-129.01 L 1234.23,-126.01 L 1240.24,-126.01
 L 1240.24,-129.01 L 1246.24,-129.01 L 1246.24,-126.01 L 1252.25,-126.01 L 1252.25,-129.01 L 1258.26,-129.01
 L 1258.26,-126.01 L 1264.26,-126.01 L 1264.26,-129.01 L 1270.27,-129.01 L 1270.27,-126.01 L 1276.27,-126.01
 L 1276.27,-129.01 L 1282.28,-129.01 L 1282.28,-126.01 L 1288.29,-126.01 L 1288.29,-129.01 L 1294.29,-129.01
 L 1294.29,-126.01 L 1300.3,-126.01 L 1300.3,-129.01 L 1306.31,-129.01 L 1306.31,-126.01 L 1312.31,-126.01
 L 1312.31,-129.01 L 1318.32,-129.01 L 1318.32,-126.01 L 1324.32,-126.01 L 1324.32,-129.01 L 1330.33,-129.01
 L 1330.33,-126.01 L 1336.34,-126.01 L 1336.34,-129.01 L 1342.34,-129.01 L 1342.34,-126.01 L 1348.35,-126.01
 L 1348.35,-129.01 L 1354.35,-129.01 L 1354.35,-126.01 L 1360.36,-126.01 L 1360.36,-129.01 L 1366.37,-129.01
 L 1366.37,-126.01 L 1372.37,-126.01 L 1372.37,-129.01 L 1378.38,-129.01 L 1378.38,-126.01 L 1384.38,-126.01
 L 1384.38,-129.01 L 1390.39,-129.01 L 1390.39,-126.01 L 1396.4,-126.01 L 1396.4,-129.01 L 1402.4,-129.01
 L 1402.4,-126.01 L 1408.41,-126.01 L 1408.41,-129.01 L 1414.41,-129.01 L 1414.41,-126.01 L 1420.42,-126.01
 L 1420.42,-129.01 L 1426.43,-129.01 L 1426.43,-126.01 L 1432.43,-126.01 L 1432.43,-129.01 L 1438.44,-129.01
 L 1438.44,-126.01 L 1444.44,-126.01 L 1444.44,-129.01 L 1450.45,-129.01 L 1450.45,-126.01 L 1456.46,-126.01
 L 1456.46,-129.01 L 1462.46,-129.01 L 1462.46,-126.01 L 1468.47,-126.01 L 1468.47,-129.01 L 1474.47,-129.01
 L 1474.47,-126.01 L 1480.48,-126.01 L 1480.48,-129.01 L 1486.49,-129.01 L 1486.49,-126.01 L 1492.49,-126.01
 L 1492.49,-129.01 L 1498.5,-129.01 L 1498.5,-126.01 L 1504.5,-126.01 L 1504.5,-129.01 L 1510.51,-129.01
 L 1510.51,-126.01 L 1516.52,-126.01 L 1516.52,-129.01 L 1522.52,-129.01 L 1522.52,-126.01 L 1528.53,-126.01
 L 1528.53,-129.01 L 1534.53,-129.01 L 1534.53,-126.01 L 1540.54,-126.01 L 1540.54,-129.01 L 1546.55,-129.01
 L 1546.55,-126.01 L 1552.55,-126.01 L 1552.55,-129.01 L 1558.56,-129.01 L 1558.56,-126.01 L 1564.56,-126.01
 L 1564.56,-129.01 L 1570.57,-129.01 L 1570.57,-126.01 L 1576.58,-126.01 L 1576.58,-129.01 L 1582.58,-129.01
 L 1582.58,-126.01 L 1588.59,-126.01 L 1588.59,-129.01 L 1594.6,-129.01 L 1594.6,-126.01 L 1600.6,-126.01
 L 1600.6,-129.01 L 1606.61,-129.01 L 1606.61,-126.01 L 1612.61,-126.01 L 1612.61,-129.01 L 1618.62,-129.01
 L 1618.62,-126.01 L 1624.63,-126.01 L 1624.63,-129.01 L 1630.63,-129.01 L 1630.63,-126.01 L 1636.64,-126.01
 L 1636.64,-129.01 L 1642.64,-129.01 L 1642.64,-126.01 L 1648.65,-126.01 L 1648.65,-129.01 L 1654.66,-129.01
 L 1654.66,-126.01 L 1660.66,-126.01 L 1660.66,-129.01 L 1666.67,-129.01 L 1666.67,-126.01 L 1672.67,-126.01
 L 1672.67,-129.01 L 1678.68,-129.01 L 1678.68,-126.01 L 1684.69,-126.01 L 1684.69,-129.01 L 1690.69,-129.01
 L 1690.69,-126.01 L 1696.7,-126.01 L 1696.7,-129.01 L 1702.7,-129.01 L 1702.7,-126.01 L 1708.71,-126.01
 L 1708.71,-129.01 L 1714.72,-129.01 L 1714.72,-126.01 L 1720.72,-126.01 L 1720.72,-129.01 L 1726.73,-129.01
 L 1726.73,-126.01 L 1732.73,-126.01 L 1732.73,-129.01 L 1738.74,-129.01 L 1738.74,-126.01 L 1744.75,-126.01
 L 1744.75,-129.01 L 1750.75,-129.01 L 1750.75,-126.01 L 1756.76,-126.01 L 1756.76,-129.01 L 1762.76,-129.01
 L 1762.76,-126.01 L 1768.77,-126.01 L 1768.77,-129.01 L 1774.78,-129.01 L 1774.78,-126.01 L 1780.78,-126.01
 L 1780.78,-129.01 L 1786.79,-129.01 L 1786.79,-126.01 L 1792.79,-126.01 L 1792.79,-129.01 L 1798.8,-129.01
 L 1798.8,-126.01 L 1804.81,-126.01 L 1804.81,-129.01 L 1810.81,-129.01 L 1810.81,-126.01 L 1816.82,-126.01
 L 1816.82,-129.01 L 1822.82,-129.01 L 1822.82,-126.01 L 1828.83,-126.01 L 1828.83,-129.01 L 1834.84,-129.01
 L 1834.84,-126.01 L 1840.84,-126.01 L 1840.84,-129.01 L 1846.85,-129.01 L 1846.85,-126.01 L 1852.85,-126.01
 L 1852.85,-129.01 L 1858.86,-129.01 L 1858.86,-126.01 L 1864.87,-126.01 L 1864.87,-129.01 L 1870.87,-129.01
 L 1870.87,-126.01 L 1876.88,-126.01 L 1876.88,-129.01 L 1882.89,-129.01 L 1882.89,-126.01 L 1888.89,-126.01
 L 1888.89,-129.01 L 1894.9,-129.01 L 1894.9,-126.01 L 1900.9,-126.01 L 1900.9,-129.01 L 1906.91,-129.01
 L 1906.91,-126.01 L 1912.92,-126.01 L 1912.92,-129.01 L 1918.92,-129.01 L 1918.92,-126.01 L 1924.93,-126.01
 L 1924.93,-129.01 L 1930.93,-129.01 L 1930.93,-126.01 L 1936.94,-126.01 L 1936.94,-129.01 L 1942.95,-129.01
 L 1942.95,-126.01 L 1948.95,-126.01 L 1948.95,-129.01 L 1954.96,-129.01 L 1954.96,-126.01 L 1960.96,-126.01
 L 1960.96,-129.01 L 1966.97,-129.01 L 1966.97,-126.01 L 1972.98,-126.01 L 1972.98,-129.01 L 1978.98,-129.01
 L 1978.98,-126.01 L 1984.99,-126.01 L 1984.99,-129.01 L 1990.99,-129.01 L 1990.99,-126.01 L 1997,-126.01
 L 1997,-129.01 L 2003,-129.01 L 2003,-136.01 L 2006,-136.01 L 2006,-142.01 L 2003,-142.01
 L 2003,-149.01 L 1997,-149.01 L 1997,-152.01 L 1990.99,-152.01 L 1990.99,-149.01 L 1984.99,-149.01
 L 1984.99,-152.01 L 1978.98,-152.01 L 1978.98,-149.01 L 1972.98,-149.01 L 1972.98,-152.01 L 1966.97,-152.01
 L 1966.97,-149.01 L 1960.96,-149.01 L 1960.96,-152.01 L 1954.96,-152.01 L 1954.96,-149.01 L 1948.95,-149.01
 L 1948.95,-152.01 L 1942.95,-152.01 L 1942.95,-149.01 L 1936.94,-149.01 L 1936.94,-152.01 L 1930.93,-152.01
 L 1930.93,-149.01 L 1924.93,-149.01 L 1924.93,-152.01 L 1918.92,-152.01 L 1918.92,-149.01 L 1912.92,-149.01
 L 1912.92,-152.01 L 1906.91,-152.01 L 1906.91,-149.01 L 1900.9,-149.01 L 1900.9,-152.01 L 1894.9,-152.01
 L 1894.9,-149.01 L 1888.89,-149.01 L 1888.89,-152.01 L 1882.89,-152.01 L 1882.89,-149.01 L 1876.88,-149.01
 L 1876.88,-152.01 L 1870.87,-152.01 L 1870.87,-149.01 L 1864.87,-149.01 L 1864.87,-152.01 L 1858.86,-152.01
 L 1858.86,-149.01 L 1852.85,-149.01 L 1852.85,-152.01 L 1846.85,-152.01 L 1846.85,-149.01 L 1840.84,-149.01
 L 1840.84,-152.01 L 1834.84,-152.01 L 1834.84,-149.01 L 1828.83,-149.01 L 1828.83,-152.01 L 1822.82,-152.01
 L 1822.82,-149.01 L 1816.82,-149.01 L 1816.82,-152.01 L 1810.81,-152.01 L 1810.81,-149.01 L 1804.81,-149.01
 L 1804.81,-152.01 L 1798.8,-152.01 L 1798.8,-149.01 L 1792.79,-149.01 L 1792.79,-152.01 L 1786.79,-152.01
 L 1786.79,-149.01 L 1780.78,-149.01 L 1780.78,-152.01 L 1774.78,-152.01 L 1774.78,-149.01 L 1768.77,-149.01
 L 1768.77,-152.01 L 1762.76,-152.01 L 1762.76,-149.01 L 1756.76,-149.01 L 1756.76,-152.01 L 1750.75,-152.01
 L 1750.75,-149.01 L 1744.75,-149.01 L 1744.75,-152.01 L 1738.74,-152.01 L 1738.74,-149.01 L 1732.73,-149.01
 L 1732.73,-152.01 L 1726.73,-152.01 L 1726.73,-149.01 L 1720.72,-149.01 L 1720.72,-152.01 L 1714.72,-152.01
 L 1714.72,-149.01 L 1708.71,-149.01 L 1708.71,-152.01 L 1702.7,-152.01 L 1702.7,-149.01 L 1696.7,-149.01
 L 1696.7,-152.01 L 1690.69,-152.01 L 1690.69,-149.01 L 1684.69,-149.01 L 1684.69,-152.01 L 1678.68,-152.01
 L 1678.68,-149.01 L 1672.67,-149.01 L 1672.67,-152.01 L 1666.67,-152.01 L 1666.67,-149.01 L 1660.66,-149.01
 L 1660.66,-152.01 L 1654.66,-152.01 L 1654.66,-149.01 L 1648.65,-149.01 L 1648.65,-152.01 L 1642.64,-152.01
 L 1642.64,-149.01 L 1636.64,-149.01 L 1636.64,-152.01 L 1630.63,-152.01 L 1630.63,-149.01 L 1624.63,-149.01
 L 1624.63,-152.01 L 1618.62,-152.01 L 1618.62,-149.01 L 1612.61,-149.01 L 1612.61,-152.01 L 1606.61,-152.01
 L 1606.61,-149.01 L 1600.6,-149.01 L 1600.6,-152.01 L 1594.6,-152.01 L 1594.6,-149.01 L 1588.59,-149.01
 L 1588.59,-152.01 L 1582.58,-152.01 L 1582.58,-149.01 L 1576.58,-149.01 L 1576.58,-152.01 L 1570.57,-152.01
 L 1570.57,-149.01 L 1564.56,-149.01 L 1564.56,-152.01 L 1558.56,-152.01 L 1558.56,-149.01 L 1552.55,-149.01
 L 1552.55,-152.01 L 1546.55,-152.01 L 1546.55,-149.01 L 1540.54,-149.01 L 1540.54,-152.01 L 1534.53,-152.01
 L 1534.53,-149.01 L 1528.53,-149.01 L 1528.53,-152.01 L 1522.52,-152.01 L 1522.52,-149.01 L 1516.52,-149.01
 L 1516.52,-152.01 L 1510.51,-152.01 L 1510.51,-149.01 L 1504.5,-149.01 L 1504.5,-152.01 L 1498.5,-152.01
 L 1498.5,-149.01 L 1492.49,-149.01 L 1492.49,-152.01 L 1486.49,-152.01 L 1486.49,-149.01 L 1480.48,-149.01
 L 1480.48,-152.01 L 1474.47,-152.01 L 1474.47,-149.01 L 1468.47,-149.01 L 1468.47,-152.01 L 1462.46,-152.01
 L 1462.46,-149.01 L 1456.46,-149.01 L 1456.46,-152.01 L 1450.45,-152.01 L 1450.45,-149.01 L 1444.44,-149.01
 L 1444.44,-152.01 L 1438.44,-152.01 L 1438.44,-149.01 L 1432.43,-149.01 L 1432.43,-152.01 L 1426.43,-152.01
 L 1426.43,-149.01 L 1420.42,-149.01 L 1420.42,-152.01 L 1414.41,-152.01 L 1414.41,-149.01 L 1408.41,-149.01
 L 1408.41,-152.01 L 1402.4,-152.01 L 1402.4,-149.01 L 1396.4,-149.01 L 1396.4,-152.01 L 1390.39,-152.01
 L 1390.39,-149.01 L 1384.38,-149.01 L 1384.38,-152.01 L 1378.38,-152.01 L 1378.38,-149.01 L 1372.37,-149.01
 L 1372.37,-152.01 L 1366.37,-152.01 L 1366.37,-149.01 L 1360.36,-149.01 L 1360.36,-152.01 L 1354.35,-152.01
 L 1354.35,-149.01 L 1348.35,-149.01 L 1348.35,-152.01 L 1342.34,-152.01 L 1342.34,-149.01 L 1336.34,-149.01
 L 1336.34,-152.01 L 1330.33,-152.01 L 1330.33,-149.01 L 1324.32,-149.01 L 1324.32,-152.01 L 1318.32,-152.01
 L 1318.32,-149.01 L 1312.31,-149.01 L 1312.31,-152.01 L 1306.31,-152.01 L 1306.31,-149.01 L 1300.3,-149.01
 L 1300.3,-152.01 L 1294.29,-152.01 L 1294.29,-149.01 L 1288.29,-149.01 L 1288.29,-152.01 L 1282.28,-152.01
 L 1282.28,-149.01 L 1276.27,-149.01 L 1276.27,-152.01 L 1270.27,-152.01 L 1270.27,-149.01 L 1264.26,-149.01
 L 1264.26,-152.01 L 1258.26,-152.01 L 1258.26,-149.01 L 1252.25,-149.01 L 1252.25,-152.01 L 1246.24,-152.01
 L 1246.24,-149.01 L 1240.24,-149.01 L 1240.24,-152.01 L 1234.23,-152.01 L 1234.23,-149.01 L 1228.23,-149.01
 L 1228.23,-152.01 L 1222.22,-152.01 L 1222.22,-149.01 L 1216.21,-149.01 L 1216.21,-152.01 L 1210.21,-152.01
 L 1210.21,-149.01 L 1204.2,-149.01 L 1204.2,-152.01 L 1198.2,-152.01 L 1198.2,-149.01 L 1192.19,-149.01
 L 1192.19,-152.01 L 1186.18,-152.01 L 1186.18,-149.01 L 1180.18,-149.01 L 1180.18,-152.01 L 1174.17,-152.01
 L 1174.17,-149.01 L 1168.17,-149.01 L 1168.17,-152.01 L 1162.16,-152.01 L 1162.16,-149.01 L 1156.15,-149.01
 L 1156.15,-152.01 L 1150.15,-152.01 L 1150.15,-149.01 L 1144.14,-149.01 L 1144.14,-152.01 L 1138.14,-152.01
 L 1138.14,-149.01 L 1132.13,-149.01 L 1132.13,-152.01 L 1126.12,-152.01 L 1126.12,-149.01 L 1120.12,-149.01
 L 1120.12,-152.01 L 1114.11,-152.01 L 1114.11,-149.01 L 1108.11,-149.01 L 1108.11,-152.01 L 1102.1,-152.01
 L 1102.1,-149.01 L 1096.09,-149.01 L 1096.09,-152.01 L 1090.09,-152.01 L 1090.09,-149.01 L 1084.08,-149.01
 L 1084.08,-152.01 L 1078.08,-152.01 L 1078.08,-149.01 L 1072.07,-149.01 L 1072.07,-152.01 L 1066.06,-152.01
 L 1066.06,-149.01 L 1060.06,-149.01 L 1060.06,-152.01 L 1054.05,-152.01 L 1054.05,-149.01 L 1048.05,-149.01
 L 1048.05,-152.01 L 1042.04,-152.01 L 1042.04,-149.01 L 1036.03,-149.01 L 1036.03,-152.01 L 1030.03,-152.01
 L 1030.03,-149.01 L 1024.02,-149.01 L 1024.02,-152.01 L 1018.02,-152.01 L 1018.02,-149.01 L 1012.01,-149.01
 L 1012.01,-152.01 L 1006,-152.01 L 1006,-149.01 L 999.997,-149.01 L 999.997,-152.01 L 993.991,-152.01
 L 993.991,-149.01 L 987.985,-149.01 L 987.985,-152.01 L 981.979,-152.01 L 981.979,-149.01 L 975.973,-149.01
 L 975.973,-152.01 L 969.967,-152.01 L 969.967,-149.01 L 963.961,-149.01 L 963.961,-152.01 L 957.955,-152.01
 L 957.955,-149.01 L 951.949,-149.01 L 951.949,-152.01 L 945.943,-152.01 L 945.943,-149.01 L 939.937,-149.01
 L 939.937,-152.01 L 933.931,-152.01 L 933.931,-149.01 L 927.924,-149.01 L 927.924,-152.01 L 921.918,-152.01
 L 921.918,-149.01 L 915.912,-149.01 L 915.912,-152.01 L 909.906,-152.01 L 909.906,-149.01 L 903.9,-149.01
 L 903.9,-152.01 L 897.894,-152.01 L 897.894,-149.01 L 891.888,-149.01 L 891.888,-152.01 L 885.882,-152.01
 L 885.882,-149.01 L 879.876,-149.01 L 879.876,-152.01 L 873.87,-152.01 L 873.87,-149.01 L 867.864,-149.01
 L 867.864,-152.01 L 861.858,-152.01 L 861.858,-149.01 L 855.852,-149.01 L 855.852,-152.01 L 849.846,-152.01
 L 849.846,-149.01 L 843.84,-149.01 L 843.84,-152.01 L 837.834,-152.01 L 837.834,-149.01 L 831.828,-149.01
 L 831.828,-152.01 L 825.822,-152.01 L 825.822,-149.01 L 819.816,-149.01 L 819.816,-152.01 L 813.81,-152.01
 L 813.81,-149.01 L 807.804,-149.01 L 807.804,-152.01 L 801.798,-152.01 L 801.798,-149.01 L 795.792,-149.01
 L 795.792,-152.01 L 789.786,-152.01 L 789.786,-149.01 L 783.779,-149.01 L 783.779,-152.01 L 777.773,-152.01
 L 777.773,-149.01 L 771.767,-149.01 L 771.767,-152.01 L 765.761,-152.01 L 765.761,-149.01 L 759.755,-149.01
 L 759.755,-152.01 L 753.749,-152.01 L 753.749,-149.01 L 747.743,-149.01 L 747.743,-152.01 L 741.737,-152.01
 L 741.737,-149.01 L 735.731,-149.01 L 735.731,-152.01 L 729.725,-152.01 L 729.725,-149.01 L 723.719,-149.01
 L 723.719,-152.01 L 717.713,-152.01 L 717.713,-149.01 L 711.707,-149.01 L 711.707,-152.01 L 705.701,-152.01
 L 705.701,-149.01 L 699.695,-149.01 L 699.695,-152.01 L 693.689,-152.01 L 693.689,-149.01 L 687.683,-149.01
 L 687.683,-152.01 L 681.677,-152.01 L 681.677,-149.01 L 675.671,-149.01 L 675.671,-152.01 L 669.665,-152.01
 L 669.665,-149.01 L 663.659,-149.01 L 663.659,-152.01 L 657.653,-152.01 L 657.653,-149.01 L 651.647,-149.01
 L 651.647,-152.01 L 645.64,-152.01 L 645.64,-149.01 L 639.634,-149.01 L 639.634,-152.01 L 633.628,-152.01
 L 633.628,-149.01 L 627.622,-149.01 L 627.622,-152.01 L 621.616,-152.01 L 621.616,-149.01 L 615.61,-149.01
 L 615.61,-152.01 L 609.604,-152.01 L 609.604,-149.01 L 603.598,-149.01 L 603.598,-152.01 L 597.592,-152.01
 L 597.592,-149.01 L 591.586,-149.01 L 591.586,-152.01 L 585.58,-152.01 L 585.58,-149.01 L 579.574,-149.01
 L 579.574,-152.01 L 573.568,-152.01 L 573.568,-149.01 L 567.562,-149.01 L 567.562,-152.01 L 561.556,-152.01
 L 561.556,-149.01 L 555.55,-149.01 L 555.55,-152.01 L 549.544,-152.01 L 549.544,-149.01 L 543.538,-149.01
 L 543.538,-152.01 L 537.532,-152.01 L 537.532,-149.01 L 531.526,-149.01 L 531.526,-152.01 L 525.52,-152.01
 L 525.52,-149.01 L 519.514,-149.01 L 519.514,-152.01 L 513.508,-152.01 L 513.508,-149.01 L 507.502,-149.01
 L 507.502,-152.01 L 501.495,-152.01 L 501.495,-149.01 L 495.489,-149.01 L 495.489,-152.01 L 489.483,-152.01
 L 489.483,-149.01 L 483.477,-149.01 L 483.477,-152.01 L 477.471,-152.01 L 477.471,-149.01 L 471.465,-149.01
 L 471.465,-152.01 L 465.459,-152.01 L 465.459,-149.01 L 459.453,-149.01 L 459.453,-152.01 L 453.447,-152.01
 L 453.447,-149.01 L 447.441,-149.01 L 447.441,-152.01 L 441.435,-152.01 L 441.435,-149.01 L 435.429,-149.01
 L 435.429,-152.01 L 429.423,-152.01 L 429.423,-149.01 L 423.417,-149.01 L 423.417,-152.01 L 417.411,-152.01
 L 417.411,-149.01 L 411.405,-149.01 L 411.405,-152.01 L 405.399,-152.01 L 405.399,-149.01 L 399.393,-149.01
 L 399.393,-152.01 L 393.387,-152.01 L 393.387,-149.01 L 387.381,-149.01 L 387.381,-152.01 L 381.375,-152.01
 L 381.375,-149.01 L 375.369,-149.01 L 375.369,-152.01 L 369.363,-152.01 L 369.363,-149.01 L 363.357,-149.01
 L 363.357,-152.01 L 357.35,-152.01 L 357.35,-149.01 L 351.344,-149.01 L 351.344,-152.01 L 345.338,-152.01
 L 345.338,-149.01 L 339.332,-149.01 L 339.332,-152.01 L 333.326,-152.01 L 333.326,-149.01 L 327.32,-149.01
 L 327.32,-152.01 L 321.314,-152.01 L 321.314,-149.01 L 315.308,-149.01 L 315.308,-152.01 L 309.302,-152.01
 L 309.302,-149.01 L 303.296,-149.01 L 303.296,-152.01 L 297.29,-152.01 L 297.29,-149.01 L 291.284,-149.01
 L 291.284,-152.01 L 285.278,-152.01 L 285.278,-149.01 L 279.272,-149.01 L 279.272,-152.01 L 273.266,-152.01
 L 273.266,-149.01 L 267.26,-149.01 L 267.26,-152.01 L 261.254,-152.01 L 261.254,-149.01 L 255.248,-149.01
 L 255.248,-152.01 L 249.242,-152.01 L 249.242,-149.01 L 243.236,-149.01 L 243.236,-152.01 L 237.23,-152.01
 L 237.23,-149.01 L 231.224,-149.01 L 231.224,-152.01 L 225.218,-152.01 L 225.218,-149.01 L 219.211,-149.01
 L 219.211,-152.01 L 213.205,-152.01 L 213.205,-149.01 L 207.199,-149.01 L 207.199,-152.01 L 201.193,-152.01
 L 201.193,-149.01 L 195.187,-149.01 L 195.187,-152.01 L 189.181,-152.01 L 189.181,-149.01 L 183.175,-149.01
 L 183.175,-152.01 L 177.169,-152.01 L 177.169,-149.01 L 171.163,-149.01 L 171.163,-152.01 L 165.157,-152.01
 L 165.157,-149.01 L 159.151,-149.01 L 159.151,-152.01 L 153.145,-152.01 L 153.145,-149.01 L 147.139,-149.01
 L 147.139,-152.01 L 141.133,-152.01 L 141.133,-149.01 L 135.127,-149.01 L 135.127,-152.01 L 129.121,-152.01
 L 129.121,-149.01 L 123.115,-149.01 L 123.115,-152.01 L 117.109,-152.01 L 117.109,-149.01 L 111.103,-149.01
 L 111.103,-152.01 L 105.097,-152.01 L 105.097,-149.01 L 99.0906,-149.01 L 99.0906,-152.01 L 93.0846,-152.01
 L 93.0846,-149.01 L 87.0786,-149.01 L 87.0786,-152.01 L 81.0725,-152.01 L 81.0725,-149.01 L 75.0665,-149.01
 L 75.0665,-152.01 L 69.0604,-152.01 L 69.0604,-149.01 L 63.0544,-149.01 L 63.0544,-152.01 L 57.0483,-152.01
 L 57.0483,-149.01 L 51.0423,-149.01 L 51.0423,-152.01 L 45.0363,-152.01 L 45.0363,-149.01 L 39.0302,-149.01
 L 39.0302,-152.01 L 33.0242,-152.01 L 33.0242,-149.01 L 27.0181,-149.01 L 27.0181,-152.01 L 21.0121,-152.01
 L 21.0121,-149.01 L 15.006,-149.01 L 15.006,-152.01 L 9,-152.01 L 9,-149.01 L 3,-149.01
 L 3,-142.01 L 0,-142.01 L 0,-136.01 L 3,-136.01 L 3,-129.01 L 9,-129.01
 L 9,-126.01 L 15.006,-126.01 z
M 2021.02,-129.01 L 2027.02,-129.01 L 2027.02,-126.01 L 2033.03,-126.01 L 2033.03,-129.01 L 2039.03,-129.01
 L 2039.03,-126.01 L 2045.04,-126.01 L 2045.04,-129.01 L 2051.05,-129.01 L 2051.05,-126.01 L 2057.05,-126.01
 L 2057.05,-129.01 L 2063.06,-129.01 L 2063.06,-126.01 L 2069.06,-126.01 L 2069.06,-129.01 L 2075.07,-129.01
 L 2075.07,-126.01 L 2081.08,-126.01 L 2081.08,-129.01 L 2087.08,-129.01 L 2087.08,-126.01 L 2093.09,-126.01
 L 2093.09,-129.01 L 2099.09,-129.01 L 2099.09,-126.01 L 2105.1,-126.01 L 2105.1,-129.01 L 2111.11,-129.01
 L 2111.11,-126.01 L 2117.11,-126.01 L 2117.11,-129.01 L 2123.12,-129.01 L 2123.12,-126.01 L 2129.12,-126.01
 L 2129.12,-129.01 L 2135.13,-129.01 L 2135.13,-126.01 L 2141.14,-126.01 L 2141.14,-129.01 L 2147.14,-129.01
 L 2147.14,-126.01 L 2153.15,-126.01 L 2153.15,-129.01 L 2159.15,-129.01 L 2159.15,-126.01 L 2165.16,-126.01
 L 2165.16,-129.01 L 2171.17,-129.01 L 2171.17,-126.01 L 2177.17,-126.01 L 2177.17,-129.01 L 2183.18,-129.01
 L 2183.18,-126.01 L 2189.19,-126.01 L 2189.19,-129.01 L 2195.19,-129.01 L 2195.19,-126.01 L 2201.2,-126.01
 L 2201.2,-129.01 L 2207.2,-129.01 L 2207.2,-126.01 L 2213.21,-126.01 L 2213.21,-129.01 L 2219.22,-129.01
 L 2219.22,-126.01 L 2225.22,-126.01 L 2225.22,-129.01 L 2231.23,-129.01 L 2231.23,-126.01 L 2237.23,-126.01
 L 2237.23,-129.01 L 2243.24,-129.01 L 2243.24,-126.01 L 2249.25,-126.01 L 2249.25,-129.01 L 2255.25,-129.01
 L 2255.25,-126.01 L 2261.26,-126.01 L 2261.26,-129.01 L 2267.26,-129.01 L 2267.26,-126.01 L 2273.27,-126.01
 L 2273.27,-129.01 L 2279.28,-129.01 L 2279.28,-126.01 L 2285.28,-126.01 L 2285.28,-129.01 L 2291.29,-129.01
 L 2291.29,-126.01 L 2297.29,-126.01 L 2297.29,-129.01 L 2303.3,-129.01 L 2303.3,-126.01 L 2309.31,-126.01
 L 2309.31,-129.01 L 2315.31,-129.01 L 2315.31,-126.01 L 2321.32,-126.01 L 2321.32,-129.01 L 2327.32,-129.01
 L 2327.32,-126.01 L 2333.33,-126.01 L 2333.33,-129.01 L 2339.34,-129.01 L 2339.34,-126.01 L 2345.34,-126.01
 L 2345.34,-129.01 L 2351.35,-129.01 L 2351.35,-126.01 L 2357.35,-126.01 L 2357.35,-129.01 L 2363.36,-129.01
 L 2363.36,-126.01 L 2369.37,-126.01 L 2369.37,-129.01 L 2375.37,-129.01 L 2375.37,-126.01 L 2381.38,-126.01
 L 2381.38,-129.01 L 2387.38,-129.01 L 2387.38,-126.01 L 2393.39,-126.01 L 2393.39,-129.01 L 2399.4,-129.01
 L 2399.4,-126.01 L 2405.4,-126.01 L 2405.4,-129.01 L 2411.41,-129.01 L 2411.41,-126.01 L 2417.41,-126.01
 L 2417.41,-129.01 L 2423.42,-129.01 L 2423.42,-126.01 L 2429.43,-126.01 L 2429.43,-129.01 L 2435.43,-129.01
 L 2435.43,-126.01 L 2441.44,-126.01 L 2441.44,-129.01 L 2447.45,-129.01 L 2447.45,-126.01 L 2453.45,-126.01
 L 2453.45,-129.01 L 2459.46,-129.01 L 2459.46,-126.01 L 2465.46,-126.01 L 2465.46,-129.01 L 2471.47,-129.01
 L 2471.47,-126.01 L 2477.48,-126.01 L 2477.48,-129.01 L 2483.48,-129.01 L 2483.48,-126.01 L 2489.49,-126.01
 L 2489.49,-129.01 L 2495.49,-129.01 L 2495.49,-126.01 L 2501.5,-126.01 L 2501.5,-129.01 L 2507.51,-129.01
 L 2507.51,-126.01 L 2513.51,-126.01 L 2513.51,-129.01 L 2519.52,-129.01 L 2519.52,-126.01 L 2525.52,-126.01
 L 2525.52,-129.01 L 2531.53,-129.01 L 2531.53,-126.01 L 2537.54,-126.01 L 2537.54,-129.01 L 2543.54,-129.01
 L 2543.54,-126.01 L 2549.55,-126.01 L 2549.55,-129.01 L 2555.55,-129.01 L 2555.55,-126.01 L 2561.56,-126.01
 L 2561.56,-129.01 L 2567.57,-129.01 L 2567.57,-126.01 L 2573.57,-126.01 L 2573.57,-129.01 L 2579.58,-129.01
 L 2579.58,-126.01 L 2585.58,-126.01 L 2585.58,-129.01 L 2591.59,-129.01 L 2591.59,-126.01 L 2597.6,-126.01
 L 2597.6,-129.01 L 2603.6,-129.01 L 2603.6,-126.01 L 2609.61,-126.01 L 2609.61,-129.01 L 2615.61,-129.01
 L 2615.61,-126.01 L 2621.62,-126.01 L 2621.62,-129.01 L 2627.63,-129.01 L 2627.63,-126.01 L 2633.63,-126.01
 L 2633.63,-129.01 L 2639.64,-129.01 L 2639.64,-126.01 L 2645.64,-126.01 L 2645.64,-129.01 L 2651.65,-129.01
 L 2651.65,-126.01 L 2657.66,-126.01 L 2657.66,-129.01 L 2663.66,-129.01 L 2663.66,-126.01 L 2669.67,-126.01
 L 2669.67,-129.01 L 2675.67,-129.01 L 2675.67,-126.01 L 2681.68,-126.01 L 2681.68,-129.01 L 2687.69,-129.01
 L 2687.69,-126.01 L 2693.69,-126.01 L 2693.69,-129.01 L 2699.7,-129.01 L 2699.7,-126.01 L 2705.7,-126.01
 L 2705.7,-129.01 L 2711.71,-129.01 L 2711.71,-126.01 L 2717.72,-126.01 L 2717.72,-129.01 L 2723.72,-129.01
 L 2723.72,-126.01 L 2729.73,-126.01 L 2729.73,-129.01 L 2735.74,-129.01 L 2735.74,-126.01 L 2741.74,-126.01
 L 2741.74,-129.01 L 2747.75,-129.01 L 2747.75,-126.01 L 2753.75,-126.01 L 2753.75,-129.01 L 2759.76,-129.01
 L 2759.76,-126.01 L 2765.77,-126.01 L 2765.77,-129.01 L 2771.77,-129.01 L 2771.77,-126.01 L 2777.78,-126.01
 L 2777.78,-129.01 L 2783.78,-129.01 L 2783.78,-126.01 L 2789.79,-126.01 L 2789.79,-129.01 L 2795.8,-129.01
 L 2795.8,-126.01 L 2801.8,-126.01 L 2801.8,-129.01 L 2807.81,-129.01 L 2807.81,-126.01 L 2813.81,-126.01
 L 2813.81,-129.01 L 2819.82,-129.01 L 2819.82,-126.01 L 2825.83,-126.01 L 2825.83,-129.01 L 2831.83,-129.01
 L 2831.83,-126.01 L 2837.84,-126.01 L 2837.84,-129.01 L 2843.84,-129.01 L 2843.84,-126.01 L 2849.85,-126.01
 L 2849.85,-129.01 L 2855.86,-129.01 L 2855.86,-126.01 L 2861.86,-126.01 L 2861.86,-129.01 L 2867.87,-129.01
 L 2867.87,-126.01 L 2873.87,-126.01 L 2873.87,-129.01 L 2879.88,-129.01 L 2879.88,-126.01 L 2885.89,-126.01
 L 2885.89,-129.01 L 2891.89,-129.01 L 2891.89,-126.01 L 2897.9,-126.01 L 2897.9,-129.01 L 2903.9,-129.01
 L 2903.9,-126.01 L 2909.91,-126.01 L 2909.91,-129.01 L 2915.92,-129.01 L 2915.92,-126.01 L 2921.92,-126.01
 L 2921.92,-129.01 L 2927.93,-129.01 L 2927.93,-126.01 L 2933.93,-126.01 L 2933.93,-129.01 L 2939.94,-129.01
 L 2939.94,-126.01 L 2945.95,-126.01 L 2945.95,-129.01 L 2951.95,-129.01 L 2951.95,-126.01 L 2957.96,-126.01
 L 2957.96,-129.01 L 2963.96,-129.01 L 2963.96,-126.01 L 2969.97,-126.01 L 2969.97,-129.01 L 2975.98,-129.01
 L 2975.98,-126.01 L 2981.98,-126.01 L 2981.98,-129.01 L 2987.99,-129.01 L 2987.99,-126.01 L 2993.99,-126.01
 L 2993.99,-129.01 L 3000,-129.01 L 3000,-126.01 L 3006.01,-126.01 L 3006.01,-129.01 L 3012.01,-129.01
 L 3012.01,-126.01 L 3018.02,-126.01 L 3018.02,-129.01 L 3024.03,-129.01 L 3024.03,-126.01 L 3030.03,-126.01
 L 3030.03,-129.01 L 3036.04,-129.01 L 3036.04,-126.01 L 3042.04,-126.01 L 3042.04,-129.01 L 3048.05,-129.01
 L 3048.05,-126.01 L 3054.06,-126.01 L 3054.06,-129.01 L 3060.06,-129.01 L 3060.06,-126.01 L 3066.07,-126.01
 L 3066.07,-129.01 L 3072.07,-129.01 L 3072.07,-126.01 L 3078.08,-126.01 L 3078.08,-129.01 L 3084.09,-129.01
 L 3084.09,-126.01 L 3090.09,-126.01 L 3090.09,-129.01 L 3096.1,-129.01 L 3096.1,-126.01 L 3102.1,-126.01
 L 3102.1,-129.01 L 3108.11,-129.01 L 3108.11,-126.01 L 3114.12,-126.01 L 3114.12,-129.01 L 3120.12,-129.01
 L 3120.12,-126.01 L 3126.13,-126.01 L 3126.13,-129.01 L 3132.13,-129.01 L 3132.13,-126.01 L 3138.14,-126.01
 L 3138.14,-129.01 L 3144.15,-129.01 L 3144.15,-126.01 L 3150.15,-126.01 L 3150.15,-129.01 L 3156.16,-129.01
 L 3156.16,-126.01 L 3162.16,-126.01 L 3162.16,-129.01 L 3168.17,-129.01 L 3168.17,-126.01 L 3174.18,-126.01
 L 3174.18,-129.01 L 3180.18,-129.01 L 3180.18,-126.01 L 3186.19,-126.01 L 3186.19,-129.01 L 3192.19,-129.01
 L 3192.19,-126.01 L 3198.2,-126.01 L 3198.2,-129.01 L 3204.21,-129.01 L 3204.21,-126.01 L 3210.21,-126.01
 L 3210.21,-129.01 L 3216.22,-129.01 L 3216.22,-126.01 L 3222.22,-126.01 L 3222.22,-129.01 L 3228.23,-129.01
 L 3228.23,-126.01 L 3234.24,-126.01 L 3234.24,-129.01 L 3240.24,-129.01 L 3240.24,-126.01 L 3246.25,-126.01
 L 3246.25,-129.01 L 3252.25,-129.01 L 3252.25,-126.01 L 3258.26,-126.01 L 3258.26,-129.01 L 3264.27,-129.01
 L 3264.27,-126.01 L 3270.27,-126.01 L 3270.27,-129.01 L 3276.28,-129.01 L 3276.28,-126.01 L 3282.28,-126.01
 L 3282.28,-129.01 L 3288.29,-129.01 L 3288.29,-126.01 L 3294.3,-126.01 L 3294.3,-129.01 L 3300.3,-129.01
 L 3300.3,-126.01 L 3306.31,-126.01 L 3306.31,-129.01 L 3312.32,-129.01 L 3312.32,-126.01 L 3318.32,-126.01
 L 3318.32,-129.01 L 3324.33,-129.01 L 3324.33,-126.01 L 3330.33,-126.01 L 3330.33,-129.01 L 3336.34,-129.01
 L 3336.34,-126.01 L 3342.35,-126.01 L 3342.35,-129.01 L 3348.35,-129.01 L 3348.35,-126.01 L 3354.36,-126.01
 L 3354.36,-129.01 L 3360.36,-129.01 L 3360.36,-126.01 L 3366.37,-126.01 L 3366.37,-129.01 L 3372.38,-129.01
 L 3372.38,-126.01 L 3378.38,-126.01 L 3378.38,-129.01 L 3384.39,-129.01 L 3384.39,-126.01 L 3390.39,-126.01
 L 3390.39,-129.01 L 3396.4,-129.01 L 3396.4,-126.01 L 3402.41,-126.01 L 3402.41,-129.01 L 3408.41,-129.01
 L 3408.41,-126.01 L 3414.42,-126.01 L 3414.42,-129.01 L 3420.42,-129.01 L 3420.42,-126.01 L 3426.43,-126.01
 L 3426.43,-129.01 L 3432.44,-129.01 L 3432.44,-126.01 L 3438.44,-126.01 L 3438.44,-129.01 L 3444.45,-129.01
 L 3444.45,-126.01 L 3450.45,-126.01 L 3450.45,-129.01 L 3456.46,-129.01 L 3456.46,-126.01 L 3462.47,-126.01
 L 3462.47,-129.01 L 3468.47,-129.01 L 3468.47,-126.01 L 3474.48,-126.01 L 3474.48,-129.01 L 3480.48,-129.01
 L 3480.48,-126.01 L 3486.49,-126.01 L 3486.49,-129.01 L 3492.5,-129.01 L 3492.5,-126.01 L 3498.5,-126.01
 L 3498.5,-129.01 L 3504.51,-129.01 L 3504.51,-126.01 L 3510.51,-126.01 L 3510.51,-129.01 L 3516.52,-129.01
 L 3516.52,-126.01 L 3522.53,-126.01 L 3522.53,-129.01 L 3528.53,-129.01 L 3528.53,-126.01 L 3534.54,-126.01
 L 3534.54,-129.01 L 3540.54,-129.01 L 3540.54,-126.01 L 3546.55,-126.01 L 3546.55,-129.01 L 3552.56,-129.01
 L 3552.56,-126.01 L 3558.56,-126.01 L 3558.56,-129.01 L 3564.57,-129.01 L 3564.57,-126.01 L 3570.57,-126.01
 L 3570.57,-129.01 L 3576.58,-129.01 L 3576.58,-126.01 L 3582.59,-126.01 L 3582.59,-129.01 L 3588.59,-129.01
 L 3588.59,-126.01 L 3594.6,-126.01 L 3594.6,-129.01 L 3600.61,-129.01 L 3600.61,-126.01 L 3606.61,-126.01
 L 3606.61,-129.01 L 3612.62,-129.01 L 3612.62,-126.01 L 3618.62,-126.01 L 3618.62,-129.01 L 3624.63,-129.01
 L 3624.63,-126.01 L 3630.64,-126.01 L 3630.64,-129.01 L 3636.64,-129.01 L 3636.64,-126.01 L 3642.65,-126.01
 L 3642.65,-129.01 L 3648.65,-129.01 L 3648.65,-126.01 L 3654.66,-126.01 L 3654.66,-129.01 L 3660.67,-129.01
 L 3660.67,-126.01 L 3666.67,-126.01 L 3666.67,-129.01 L 3672.68,-129.01 L 3672.68,-126.01 L 3678.68,-126.01
 L 3678.68,-129.01 L 3684.69,-129.01 L 3684.69,-126.01 L 3690.7,-126.01 L 3690.7,-129.01 L 3696.7,-129.01
 L 3696.7,-126.01 L 3702.71,-126.01 L 3702.71,-129.01 L 3708.71,-129.01 L 3708.71,-126.01 L 3714.72,-126.01
 L 3714.72,-129.01 L 3720.73,-129.01 L 3720.73,-126.01 L 3726.73,-126.01 L 3726.73,-129.01 L 3732.74,-129.01
 L 3732.74,-126.01 L 3738.74,-126.01 L 3738.74,-129.01 L 3744.75,-129.01 L 3744.75,-126.01 L 3750.76,-126.01
 L 3750.76,-129.01 L 3756.76,-129.01 L 3756.76,-126.01 L 3762.77,-126.01 L 3762.77,-129.01 L 3768.77,-129.01
 L 3768.77,-126.01 L 3774.78,-126.01 L 3774.78,-129.01 L 3780.79,-129.01 L 3780.79,-126.01 L 3786.79,-126.01
 L 3786.79,-129.01 L 3792.8,-129.01 L 3792.8,-126.01 L 3798.8,-126.01 L 3798.8,-129.01 L 3804.81,-129.01
 L 3804.81,-126.01 L 3810.82,-126.01 L 3810.82,-129.01 L 3816.82,-129.01 L 3816.82,-126.01 L 3822.83,-126.01
 L 3822.83,-129.01 L 3828.83,-129.01 L 3828.83,-126.01 L 3834.84,-126.01 L 3834.84,-129.01 L 3840.85,-129.01
 L 3840.85,-126.01 L 3846.85,-126.01 L 3846.85,-129.01 L 3852.86,-129.01 L 3852.86,-126.01 L 3858.86,-126.01
 L 3858.86,-129.01 L 3864.87,-129.01 L 3864.87,-126.01 L 3870.88,-126.01 L 3870.88,-129.01 L 3876.88,-129.01
 L 3876.88,-126.01 L 3882.89,-126.01 L 3882.89,-129.01 L 3888.9,-129.01 L 3888.9,-126.01 L 3894.9,-126.01
 L 3894.9,-129.01 L 3900.91,-129.01 L 3900.91,-126.01 L 3906.91,-126.01 L 3906.91,-129.01 L 3912.92,-129.01
 L 3912.92,-126.01 L 3918.93,-126.01 L 3918.93,-129.01 L 3924.93,-129.01 L 3924.93,-126.01 L 3930.94,-126.01
 L 3930.94,-129.01 L 3936.94,-129.01 L 3936.94,-126.01 L 3942.95,-126.01 L 3942.95,-129.01 L 3948.96,-129.01
 L 3948.96,-126.01 L 3954.96,-126.01 L 3954.96,-129.01 L 3960.97,-129.01 L 3960.97,-126.01 L 3966.97,-126.01
 L 3966.97,-129.01 L 3972.98,-129.01 L 3972.98,-126.01 L 3978.99,-126.01 L 3978.99,-129.01 L 3984.99,-129.01
 L 3984.99,-126.01 L 3991,-126.01 L 3991,-129.01 L 3997,-129.01 L 3997,-126.01 L 4003.01,-126.01
 L 4003.01,-129.01 L 4009.01,-129.01 L 4009.01,-136.01 L 4012.01,-136.01 L 4012.01,-142.01 L 4009.01,-142.01
 L 4009.01,-149.01 L 4003.01,-149.01 L 4003.01,-152.01 L 3997,-152.01 L 3997,-149.01 L 3991,-149.01
 L 3991,-152.01 L 3984.99,-152.01 L 3984.99,-149.01 L 3978.99,-149.01 L 3978.99,-152.01 L 3972.98,-152.01
 L 3972.98,-149.01 L 3966.97,-149.01 L 3966.97,-152.01 L 3960.97,-152.01 L 3960.97,-149.01 L 3954.96,-149.01
 L 3954.96,-152.01 L 3948.96,-152.01 L 3948.96,-149.01 L 3942.95,-149.01 L 3942.95,-152.01 L 3936.94,-152.01
 L 3936.94,-149.01 L 3930.94,-149.01 L 3930.94,-152.01 L 3924.93,-152.01 L 3924.93,-149.01 L 3918.93,-149.01
 L 3918.93,-152.01 L 3912.92,-152.01 L 3912.92,-149.01 L 3906.91,-149.01 L 3906.91,-152.01 L 3900.91,-152.01
 L 3900.91,-149.01 L 3894.9,-149.01 L 3894.9,-152.01 L 3888.9,-152.01 L 3888.9,-149.01 L 3882.89,-149.01
 L 3882.89,-152.01 L 3876.88,-152.01 L 3876.88,-149.01 L 3870.88,-149.01 L 3870.88,-152.01 L 3864.87,-152.01
 L 3864.87,-149.01 L 3858.86,-149.01 L 3858.86,-152.01 L 3852.86,-152.01 L 3852.86,-149.01 L 3846.85,-149.01
 L 3846.85,-152.01 L 3840.85,-152.01 L 3840.85,-149.01 L 3834.84,-149.01 L 3834.84,-152.01 L 3828.83,-152.01
 L 3828.83,-149.01 L 3822.83,-149.01 L 3822.83,-152.01 L 3816.82,-152.01 L 3816.82,-149.01 L 3810.82,-149.01
 L 3810.82,-152.01 L 3804.81,-152.01 L 3804.81,-149.01 L 3798.8,-149.01 L 3798.8,-152.01 L 3792.8,-152.01
 L 3792.8,-149.01 L 3786.79,-149.01 L 3786.79,-152.01 L 3780.79,-152.01 L 3780.79,-149.01 L 3774.78,-149.01
 L 3774.78,-152.01 L 3768.77,-152.01 L 3768.77,-149.01 L 3762.77,-149.01 L 3762.77,-152.01 L 3756.76,-152.01
 L 3756.76,-149.01 L 3750.76,-149.01 L 3750.76,-152.01 L 3744.75,-152.01 L 3744.75,-149.01 L 3738.74,-149.01
 L 3738.74,-152.01 L 3732.74,-152.01 L 3732.74,-149.01 L 3726.73,-149.01 L 3726.73,-152.01 L 3720.73,-152.01
 L 3720.73,-149.01 L 3714.72,-149.01 L 3714.72,-152.01 L 3708.71,-152.01 L 3708.71,-149.01 L 3702.71,-149.01
 L 3702.71,-152.01 L 3696.7,-152.01 L 3696.7,-149.01 L 3690.7,-149.01 L 3690.7,-152.01 L 3684.69,-152.01
 L 3684.69,-149.01 L 3678.68,-149.01 L 3678.68,-152.01 L 3672.68,-152.01 L 3672.68,-149.01 L 3666.67,-149.01
 L 3666.67,-152.01 L 3660.67,-152.01 L 3660.67,-149.01 L 3654.66,-149.01 L 3654.66,-152.01 L 3648.65,-152.01
 L 3648.65,-149.01 L 3642.65,-149.01 L 3642.65,-152.01 L 3636.64,-152.01 L 3636.64,-149.01 L 3630.64,-149.01
 L 3630.64,-152.01 L 3624.63,-152.01 L 3624.63,-149.01 L 3618.62,-149.01 L 3618.62,-152.01 L 3612.62,-152.01
 L 3612.62,-149.01 L 3606.61,-149.01 L 3606.61,-152.01 L 3600.61,-152.01 L 3600.61,-149.01 L 3594.6,-149.01
 L 3594.6,-152.01 L 3588.59,-152.01 L 3588.59,-149.01 L 3582.59,-149.01 L 3582.59,-152.01 L 3576.58,-152.01
 L 3576.58,-149.01 L 3570.57,-149.01 L 3570.57,-152.01 L 3564.57,-152.01 L 3564.57,-149.01 L 3558.56,-149.01
 L 3558.56,-152.01 L 3552.56,-152.01 L 3552.56,-149.01 L 3546.55,-149.01 L 3546.55,-152.01 L 3540.54,-152.01
 L 3540.54,-149.01 L 3534.54,-149.01 L 3534.54,-152.01 L 3528.53,-152.01 L 3528.53,-149.01 L 3522.53,-149.01
 L 3522.53,-152.01 L 3516.52,-152.01 L 3516.52,-149.01 L 3510.51,-149.01 L 3510.51,-152.01 L 3504.51,-152.01
 L 3504.51,-149.01 L 3498.5,-149.01 L 3498.5,-152.01 L 3492.5,-152.01 L 3492.5,-149.01 L 3486.49,-149.01
 L 3486.49,-152.01 L 3480.48,-152.01 L 3480.48,-149.01 L 3474.48,-149.01 L 3474.48,-152.01 L 3468.47,-152.01
 L 3468.47,-149.01 L 3462.47,-149.01 L 3462.47,-152.01 L 3456.46,-152.01 L 3456.46,-149.01 L 3450.45,-149.01
 L 3450.45,-152.01 L 3444.45,-152.01 L 3444.45,-149.01 L 3438.44,-149.01 L 3438.44,-152.01 L 3432.44,-152.01
 L 3432.44,-149.01 L 3426.43,-149.01 L 3426.43,-152.01 L 3420.42,-152.01 L 3420.42,-149.01 L 3414.42,-149.01
 L 3414.42,-152.01 L 3408.41,-152.01 L 3408.41,-149.01 L 3402.41,-149.01 L 3402.41,-152.01 L 3396.4,-152.01
 L 3396.4,-149.01 L 3390.39,-149.01 L 3390.39,-152.01 L 3384.39,-152.01 L 3384.39,-149.01 L 3378.38,-149.01
 L 3378.38,-152.01 L 3372.38,-152.01 L 3372.38,-149.01 L 3366.37,-149.01 L 3366.37,-152.01 L 3360.36,-152.01
 L 3360.36,-149.01 L 3354.36,-149.01 L 3354.36,-152.01 L 3348.35,-152.01 L 3348.35,-149.01 L 3342.35,-149.01
 L 3342.35,-152.01 L 3336.34,-152.01 L 3336.34,-149.01 L 3330.33,-149.01 L 3330.33,-152.01 L 3324.33,-152.01
 L 3324.33,-149.01 L 3318.32,-149.01 L 3318.32,-152.01 L 3312.32,-152.01 L 3312.32,-149.01 L 3306.31,-149.01
 L 3306.31,-152.01 L 3300.3,-152.01 L 3300.3,-149.01 L 3294.3,-149.01 L 3294.3,-152.01 L 3288.29,-152.01
 L 3288.29,-149.01 L 3282.28,-149.01 L 3282.28,-152.01 L 3276.28,-152.01 L 3276.28,-149.01 L 3270.27,-149.01
 L 3270.27,-152.01 L 3264.27,-152.01 L 3264.27,-149.01 L 3258.26,-149.01 L 3258.26,-152.01 L 3252.25,-152.01
 L 3252.25,-149.01 L 3246.25,-149.01 L 3246.25,-152.01 L 3240.24,-152.01 L 3240.24,-149.01 L 3234.24,-149.01
 L 3234.24,-152.01 L 3228.23,-152.01 L 3228.23,-149.01 L 3222.22,-149.01 L 3222.22,-152.01 L 3216.22,-152.01
 L 3216.22,-149.01 L 3210.21,-149.01 L 3210.21,-152.01 L 3204.21,-152.01 L 3204.21,-149.01 L 3198.2,-149.01
 L 3198.2,-152.01 L 3192.19,-152.01 L 3192.19,-149.01 L 3186.19,-149.01 L 3186.19,-152.01 L 3180.18,-152.01
 L 3180.18,-149.01 L 3174.18,-149.01 L 3174.18,-152.01 L 3168.17,-152.01 L 3168.17,-149.01 L 3162.16,-149.01
 L 3162.16,-152.01 L 3156.16,-152.01 L 3156.16,-149.01 L 3150.15,-149.01 L 3150.15,-152.01 L 3144.15,-152.01
 L 3144.15,-149.01 L 3138.14,-149.01 L 3138.14,-152.01 L 3132.13,-152.01 L 3132.13,-149.01 L 3126.13,-149.01
 L 3126.13,-152.01 L 3120.12,-152.01 L 3120.12,-149.01 L 3114.12,-149.01 L 3114.12,-152.01 L 3108.11,-152.01
 L 3108.11,-149.01 L 3102.1,-149.01 L 3102.1,-152.01 L 3096.1,-152.01 L 3096.1,-149.01 L 3090.09,-149.01
 L 3090.09,-152.01 L 3084.09,-152.01 L 3084.09,-149.01 L 3078.08,-149.01 L 3078.08,-152.01 L 3072.07,-152.01
 L 3072.07,-149.01 L 3066.07,-149.01 L 3066.07,-152.01 L 3060.06,-152.01 L 3060.06,-149.01 L 3054.06,-149.01
 L 3054.06,-152.01 L 3048.05,-152.01 L 3048.05,-149.01 L 3042.04,-149.01 L 3042.04,-152.01 L 3036.04,-152.01
 L 3036.04,-149.01 L 3030.03,-149.01 L 3030.03,-152.01 L 3024.03,-152.01 L 3024.03,-149.01 L 3018.02,-149.01
 L 3018.02,-152.01 L 3012.01,-152.01 L 3012.01,-149.01 L 3006.01,-149.01 L 3006.01,-152.01 L 3000,-152.01
 L 3000,-149.01 L 2993.99,-149.01 L 2993.99,-152.01 L 2987.99,-152.01 L 2987.99,-149.01 L 2981.98,-149.01
 L 2981.98,-152.01 L 2975.98,-152.01 L 2975.98,-149.01 L 2969.97,-149.01 L 2969.97,-152.01 L 2963.96,-152.01
 L 2963.96,-149.01 L 2957.96,-149.01 L 2957.96,-152.01 L 2951.95,-152.01 L 2951.95,-149.01 L 2945.95,-149.01
 L 2945.95,-152.01 L 2939.94,-152.01 L 2939.94,-149.01 L 2933.93,-149.01 L 2933.93,-152.01 L 2927.93,-152.01
 L 2927.93,-149.01 L 2921.92,-149.01 L 2921.92,-152.01 L 2915.92,-152.01 L 2915.92,-149.01 L 2909.91,-149.01
 L 2909.91,-152.01 L 2903.9,-152.01 L 2903.9,-149.01 L 2897.9,-149.01 L 2897.9,-152.01 L 2891.89,-152.01
 L 2891.89,-149.01 L 2885.89,-149.01 L 2885.89,-152.01 L 2879.88,-152.01 L 2879.88,-149.01 L 2873.87,-149.01
 L 2873.87,-152.01 L 2867.87,-152.01 L 2867.87,-149.01 L 2861.86,-149.01 L 2861.86,-152.01 L 2855.86,-152.01
 L 2855.86,-149.01 L 2849.85,-149.01 L 2849.85,-152.01 L 2843.84,-152.01 L 2843.84,-149.01 L 2837.84,-149.01
 L 2837.84,-152.01 L 2831.83,-152.01 L 2831.83,-149.01 L 2825.83,-149.01 L 2825.83,-152.01 L 2819.82,-152.01
 L 2819.82,-149.01 L 2813.81,-149.01 L 2813.81,-152.01 L 2807.81,-152.01 L 2807.81,-149.01 L 2801.8,-149.01
 L 2801.8,-152.01 L 2795.8,-152.01 L 2795.8,-149.01 L 2789.79,-149.01 L 2789.79,-152.01 L 2783.78,-152.01
 L 2783.78,-149.01 L 2777.78,-149.01 L 2777.78,-152.01 L 2771.77,-152.01 L 2771.77,-149.01 L 2765.77,-149.01
 L 2765.77,-152.01 L 2759.76,-152.01 L 2759.76,-149.01 L 2753.75,-149.01 L 2753.75,-152.01 L 2747.75,-152.01
 L 2747.75,-149.01 L 2741.74,-149.01 L 2741.74,-152.01 L 2735.74,-152.01 L 2735.74,-149.01 L 2729.73,-149.01
 L 2729.73,-152.01 L 2723.72,-152.01 L 2723.72,-149.01 L 2717.72,-149.01 L 2717.72,-152.01 L 2711.71,-152.01
 L 2711.71,-149.01 L 2705.7,-149.01 L 2705.7,-152.01 L 2699.7,-152.01 L 2699.7,-149.01 L 2693.69,-149.01
 L 2693.69,-152.01 L 2687.69,-152.01 L 2687.69,-149.01 L 2681.68,-149.01 L 2681.68,-152.01 L 2675.67,-152.01
 L 2675.67,-149.01 L 2669.67,-149.01 L 2669.67,-152.01 L 2663.66,-152.01 L 2663.66,-149.01 L 2657.66,-149.01
 L 2657.66,-152.01 L 2651.65,-152.01 L 2651.65,-149.01 L 2645.64,-149.01 L 2645.64,-152.01 L 2639.64,-152.01
 L 2639.64,-149.01 L 2633.63,-149.01 L 2633.63,-152.01 L 2627.63,-152.01 L 2627.63,-149.01 L 2621.62,-149.01
 L 2621.62,-152.01 L 2615.61,-152.01 L 2615.61,-149.01 L 2609.61,-149.01 L 2609.61,-152.01 L 2603.6,-152.01
 L 2603.6,-149.01 L 2597.6,-149.01 L 2597.6,-152.01 L 2591.59,-152.01 L 2591.59,-149.01 L 2585.58,-149.01
 L 2585.58,-152.01 L 2579.58,-152.01 L 2579.58,-149.01 L 2573.57,-149.01 L 2573.57,-152.01 L 2567.57,-152.01
 L 2567.57,-149.01 L 2561.56,-149.01 L 2561.56,-152.01 L 2555.55,-152.01 L 2555.55,-149.01 L 2549.55,-149.01
 L 2549.55,-152.01 L 2543.54,-152.01 L 2543.54,-149.01 L 2537.54,-149.01 L 2537.54,-152.01 L 2531.53,-152.01
 L 2531.53,-149.01 L 2525.52,-149.01 L 2525.52,-152.01 L 2519.52,-152.01 L 2519.52,-149.01 L 2513.51,-149.01
 L 2513.51,-152.01 L 2507.51,-152.01 L 2507.51,-149.01 L 2501.5,-149.01 L 2501.5,-152.01 L 2495.49,-152.01
 L 2495.49,-149.01 L 2489.49,-149.01 L 2489.49,-152.01 L 2483.48,-152.01 L 2483.48,-149.01 L 2477.48,-149.01
 L 2477.48,-152.01 L 2471.47,-152.01 L 2471.47,-149.01 L 2465.46,-149.01 L 2465.46,-152.01 L 2459.46,-152.01
 L 2459.46,-149.01 L 2453.45,-149.01 L 2453.45,-152.01 L 2447.45,-152.01 L 2447.45,-149.01 L 2441.44,-149.01
 L 2441.44,-152.01 L 2435.43,-152.01 L 2435.43,-149.01 L 2429.43,-149.01 L 2429.43,-152.01 L 2423.42,-152.01
 L 2423.42,-149.01 L 2417.41,-149.01 L 2417.41,-152.01 L 2411.41,-152.01 L 2411.41,-149.01 L 2405.4,-149.01
 L 2405.4,-152.01 L 2399.4,-152.01 L 2399.4,-149.01 L 2393.39,-149.01 L 2393.39,-152.01 L 2387.38,-152.01
 L 2387.38,-149.01 L 2381.38,-149.01 L 2381.38,-152.01 L 2375.37,-152.01 L 2375.37,-149.01 L 2369.37,-149.01
 L 2369.37,-152.01 L 2363.36,-152.01 L 2363.36,-149.01 L 2357.35,-149.01 L 2357.35,-152.01 L 2351.35,-152.01
 L 2351.35,-149.01 L 2345.34,-149.01 L 2345.34,-152.01 L 2339.34,-152.01 L 2339.34,-149.01 L 2333.33,-149.01
 L 2333.33,-152.01 L 2327.32,-152.01 L 2327.32,-149.01 L 2321.32,-149.01 L 2321.32,-152.01 L 2315.31,-152.01
 L 2315.31,-149.01 L 2309.31,-149.01 L 2309.31,-152.01 L 2303.3,-152.01 L 2303.3,-149.01 L 2297.29,-149.01
 L 2297.29,-152.01 L 2291.29,-152.01 L 2291.29,-149.01 L 2285.28,-149.01 L 2285.28,-152.01 L 2279.28,-152.01
 L 2279.28,-149.01 L 2273.27,-149.01 L 2273.27,-152.01 L 2267.26,-152.01 L 2267.26,-149.01 L 2261.26,-149.01
 L 2261.26,-152.01 L 2255.25,-152.01 L 2255.25,-149.01 L 2249.25,-149.01 L 2249.25,-152.01 L 2243.24,-152.01
 L 2243.24,-149.01 L 2237.23,-149.01 L 2237.23,-152.01 L 2231.23,-152.01 L 2231.23,-149.01 L 2225.22,-149.01
 L 2225.22,-152.01 L 2219.22,-152.01 L 2219.22,-149.01 L 2213.21,-149.01 L 2213.21,-152.01 L 2207.2,-152.01
 L 2207.2,-149.01 L 2201.2,-149.01 L 2201.2,-152.01 L 2195.19,-152.01 L 2195.19,-149.01 L 2189.19,-149.01
 L 2189.19,-152.01 L 2183.18,-152.01 L 2183.18,-149.01 L 2177.17,-149.01 L 2177.17,-152.01 L 2171.17,-152.01
 L 2171.17,-149.01 L 2165.16,-149.01 L 2165.16,-152.01 L 2159.16,-152.01 L 2159.16,-149.01 L 2153.15,-149.01
 L 2153.15,-152.01 L 2147.14,-152.01 L 2147.14,-149.01 L 2141.14,-149.01 L 2141.14,-152.01 L 2135.13,-152.01
 L 2135.13,-149.01 L 2129.12,-149.01 L 2129.12,-152.01 L 2123.12,-152.01 L 2123.12,-149.01 L 2117.11,-149.01
 L 2117.11,-152.01 L 2111.11,-152.01 L 2111.11,-149.01 L 2105.1,-149.01 L 2105.1,-152.01 L 2099.09,-152.01
 L 2099.09,-149.01 L 2093.09,-149.01 L 2093.09,-152.01 L 2087.08,-152.01 L 2087.08,-149.01 L 2081.08,-149.01
 L 2081.08,-152.01 L 2075.07,-152.01 L 2075.07,-149.01 L 2069.06,-149.01 L 2069.06,-152.01 L 2063.06,-152.01
 L 2063.06,-149.01 L 2057.05,-149.01 L 2057.05,-152.01 L 2051.05,-152.01 L 2051.05,-149.01 L 2045.04,-149.01
 L 2045.04,-152.01 L 2039.03,-152.01 L 2039.03,-149.01 L 2033.03,-149.01 L 2033.03,-152.01 L 2027.02,-152.01
 L 2027.02,-149.01 L 2021.02,-149.01 L 2021.02,-152.01 L 2015.01,-152.01 L 2015.01,-149.01 L 2009.01,-149.01
 L 2009.01,-142.01 L 2006.01,-142.01 L 2006.01,-136.01 L 2009.01,-136.01 L 2009.01,-129.01 L 2015.01,-129.01
 L 2015.01,-126.01 L 2021.02,-126.01 z
M 4022.02,-3 L 4028.02,-3 L 4028.02,-0 L 4035.02,-0 L 4035.02,-9 L 4038.02,-9
 L 4038.02,-15.3529 L 4035.02,-15.3529 L 4035.02,-21.7059 L 4038.02,-21.7059 L 4038.02,-28.0588 L 4035.02,-28.0588
 L 4035.02,-34.4118 L 4038.02,-34.4118 L 4038.02,-40.7647 L 4035.02,-40.7647 L 4035.02,-47.1176 L 4038.02,-47.1176
 L 4038.02,-53.4706 L 4035.02,-53.4706 L 4035.02,-59.8235 L 4038.02,-59.8235 L 4038.02,-66.1765 L 4035.02,-66.1765
 L 4035.02,-72.5294 L 4038.02,-72.5294 L 4038.02,-78.8823 L 4035.02,-78.8823 L 4035.02,-85.2353 L 4038.02,-85.2353
 L 4038.02,-91.5882 L 4035.02,-91.5882 L 4035.02,-97.9412 L 4038.02,-97.9412 L 4038.02,-104.294 L 4035.02,-104.294
 L 4035.02,-110.647 L 4038.02,-110.647 L 4038.02,-117 L 4035.02,-117 L 4035.02,-126 L 4028.02,-126
 L 4028.02,-123 L 4022.02,-123 L 4022.02,-126 L 4015.02,-126 L 4015.02,-117 L 4012.02,-117
 L 4012.02,-110.647 L 4015.02,-110.647 L 4015.02,-104.294 L 4012.02,-104.294 L 4012.02,-97.9412 L 4015.02,-97.9412
 L 4015.02,-91.5882 L 4012.02,-91.5882 L 4012.02,-85.2353 L 4015.02,-85.2353 L 4015.02,-78.8824 L 4012.02,-78.8824
 L 4012.02,-72.5294 L 4015.02,-72.5294 L 4015.02,-66.1765 L 4012.02,-66.1765 L 4012.02,-59.8235 L 4015.02,-59.8235
 L 4015.02,-53.4706 L 4012.02,-53.4706 L 4012.02,-47.1177 L 4015.02,-47.1177 L 4015.02,-40.7647 L 4012.02,-40.7647
 L 4012.02,-34.4118 L 4015.02,-34.4118 L 4015.02,-28.0588 L 4012.02,-28.0588 L 4012.02,-21.7059 L 4015.02,-21.7059
 L 4015.02,-15.353 L 4012.02,-15.353 L 4012.02,-9 L 4015.02,-9 L 4015.02,-0 L 4022.02,-0
 z
M 4048.03,-3 L 4054.03,-3 L 4054.03,-0 L 4061.03,-0 L 4061.03,-9 L 4064.03,-9
 L 4064.03,-15.3529 L 4061.03,-15.3529 L 4061.03,-21.7059 L 4064.03,-21.7059 L 4064.03,-28.0588 L 4061.03,-28.0588
 L 4061.03,-34.4118 L 4064.03,-34.4118 L 4064.03,-40.7647 L 4061.03,-40.7647 L 4061.03,-47.1176 L 4064.03,-47.1176
 L 4064.03,-53.4706 L 4061.03,-53.4706 L 4061.03,-59.8235 L 4064.03,-59.8235 L 4064.03,-66.1765 L 4061.03,-66.1765
 L 4061.03,-72.5294 L 4064.03,-72.5294 L 4064.03,-78.8823 L 4061.03,-78.8823 L 4061.03,-85.2353 L 4064.03,-85.2353
 L 4064.03,-91.5882 L 4061.03,-91.5882 L 4061.03,-97.9412 L 4064.03,-97.9412 L 4064.03,-104.294 L 4061.03,-104.294
 L 4061.03,-110.647 L 4064.03,-110.647 L 4064.03,-117 L 4061.03,-117 L 4061.03,-126 L 4054.03,-126
 L 4054.03,-123 L 4048.03,-123 L 4048.03,-126 L 4041.03,-126 L 4041.03,-117 L 4038.03,-117
 L 4038.03,-110.647 L 4041.03,-110.647 L 4041.03,-104.294 L 4038.03,-104.294 L 4038.03,-97.9412 L 4041.03,-97.9412
 L 4041.03,-91.5882 L 4038.03,-91.5882 L 4038.03,-85.2353 L 4041.03,-85.2353 L 4041.03,-78.8824 L 4038.03,-78.8824
 L 4038.03,-72.5294 L 4041.03,-72.5294 L 4041.03,-66.1765 L 4038.03,-66.1765 L 4038.03,-59.8235 L 4041.03,-59.8235
 L 4041.03,-53.4706 L 4038.03,-53.4706 L 4038.03,-47.1177 L 4041.03,-47.1177 L 4041.03,-40.7647 L 4038.03,-40.7647
 L 4038.03,-34.4118 L 4041.03,-34.4118 L 4041.03,-28.0588 L 4038.03,-28.0588 L 4038.03,-21.7059 L 4041.03,-21.7059
 L 4041.03,-15.353 L 4038.03,-15.353 L 4038.03,-9 L 4041.03,-9 L 4041.03,-0 L 4048.03,-0
 z
M 9,-3 L 15.006,-3 L 15.006,-0 L 21.0121,-0 L 21.0121,-3 L 27.0181,-3
 L 27.0181,-0 L 33.0242,-0 L 33.0242,-3 L 39.0302,-3 L 39.0302,-0 L 45.0362,-0
 L 45.0362,-3 L 51.0423,-3 L 51.0423,-0 L 57.0483,-0 L 57.0483,-3 L 63.0544,-3
 L 63.0544,-0 L 69.0604,-0 L 69.0604,-3 L 75.0665,-3 L 75.0665,-0 L 81.0725,-0
 L 81.0725,-3 L 87.0785,-3 L 87.0785,-0 L 93.0846,-0 L 93.0846,-3 L 99.0906,-3
 L 99.0906,-0 L 105.097,-0 L 105.097,-3 L 111.103,-3 L 111.103,-0 L 117.109,-0
 L 117.109,-3 L 123.115,-3 L 123.115,-0 L 129.121,-0 L 129.121,-3 L 135.127,-3
 L 135.127,-0 L 141.133,-0 L 141.133,-3 L 147.139,-3 L 147.139,-0 L 153.145,-0
 L 153.145,-3 L 159.151,-3 L 159.151,-0 L 165.157,-0 L 165.157,-3 L 171.163,-3
 L 171.163,-0 L 177.169,-0 L 177.169,-3 L 183.175,-3 L 183.175,-0 L 189.181,-0
 L 189.181,-3 L 195.187,-3 L 195.187,-0 L 201.193,-0 L 201.193,-3 L 207.199,-3
 L 207.199,-0 L 213.205,-0 L 213.205,-3 L 219.211,-3 L 219.211,-0 L 225.218,-0
 L 225.218,-3 L 231.224,-3 L 231.224,-0 L 237.23,-0 L 237.23,-3 L 243.236,-3
 L 243.236,-0 L 249.242,-0 L 249.242,-3 L 255.248,-3 L 255.248,-0 L 261.254,-0
 L 261.254,-3 L 267.26,-3 L 267.26,-0 L 273.266,-0 L 273.266,-3 L 279.272,-3
 L 279.272,-0 L 285.278,-0 L 285.278,-3 L 291.284,-3 L 291.284,-0 L 297.29,-0
 L 297.29,-3 L 303.296,-3 L 303.296,-0 L 309.302,-0 L 309.302,-3 L 315.308,-3
 L 315.308,-0 L 321.314,-0 L 321.314,-3 L 327.32,-3 L 327.32,-0 L 333.326,-0
 L 333.326,-3 L 339.332,-3 L 339.332,-0 L 345.338,-0 L 345.338,-3 L 351.344,-3
 L 351.344,-0 L 357.35,-0 L 357.35,-3 L 363.356,-3 L 363.356,-0 L 369.363,-0
 L 369.363,-3 L 375.369,-3 L 375.369,-0 L 381.375,-0 L 381.375,-3 L 387.381,-3
 L 387.381,-0 L 393.387,-0 L 393.387,-3 L 399.393,-3 L 399.393,-0 L 405.399,-0
 L 405.399,-3 L 411.405,-3 L 411.405,-0 L 417.411,-0 L 417.411,-3 L 423.417,-3
 L 423.417,-0 L 429.423,-0 L 429.423,-3 L 435.429,-3 L 435.429,-0 L 441.435,-0
 L 441.435,-3 L 447.441,-3 L 447.441,-0 L 453.447,-0 L 453.447,-3 L 459.453,-3
 L 459.453,-0 L 465.459,-0 L 465.459,-3 L 471.465,-3 L 471.465,-0 L 477.471,-0
 L 477.471,-3 L 483.477,-3 L 483.477,-0 L 489.483,-0 L 489.483,-3 L 495.489,-3
 L 495.489,-0 L 501.495,-0 L 501.495,-3 L 507.501,-3 L 507.501,-0 L 513.508,-0
 L 513.508,-3 L 519.514,-3 L 519.514,-0 L 525.52,-0 L 525.52,-3 L 531.526,-3
 L 531.526,-0 L 537.532,-0 L 537.532,-3 L 543.538,-3 L 543.538,-0 L 549.544,-0
 L 549.544,-3 L 555.55,-3 L 555.55,-0 L 561.556,-0 L 561.556,-3 L 567.562,-3
 L 567.562,-0 L 573.568,-0 L 573.568,-3 L 579.574,-3 L 579.574,-0 L 585.58,-0
 L 585.58,-3 L 591.586,-3 L 591.586,-0 L 597.592,-0 L 597.592,-3 L 603.598,-3
 L 603.598,-0 L 609.604,-0 L 609.604,-3 L 615.61,-3 L 615.61,-0 L 621.616,-0
 L 621.616,-3 L 627.622,-3 L 627.622,-0 L 633.628,-0 L 633.628,-3 L 639.634,-3
 L 639.634,-0 L 645.64,-0 L 645.64,-3 L 651.647,-3 L 651.647,-0 L 657.653,-0
 L 657.653,-3 L 663.659,-3 L 663.659,-0 L 669.665,-0 L 669.665,-3 L 675.671,-3
 L 675.671,-0 L 681.677,-0 L 681.677,-3 L 687.683,-3 L 687.683,-0 L 693.689,-0
 L 693.689,-3 L 699.695,-3 L 699.695,-0 L 705.701,-0 L 705.701,-3 L 711.707,-3
 L 711.707,-0 L 717.713,-0 L 717.713,-3 L 723.719,-3 L 723.719,-0 L 729.725,-0
 L 729.725,-3 L 735.731,-3 L 735.731,-0 L 741.737,-0 L 741.737,-3 L 747.743,-3
 L 747.743,-0 L 753.749,-0 L 753.749,-3 L 759.755,-3 L 759.755,-0 L 765.761,-0
 L 765.761,-3 L 771.767,-3 L 771.767,-0 L 777.773,-0 L 777.773,-3 L 783.779,-3
 L 783.779,-0 L 789.785,-0 L 789.785,-3 L 795.792,-3 L 795.792,-0 L 801.798,-0
 L 801.798,-3 L 807.804,-3 L 807.804,-0 L 813.81,-0 L 813.81,-3 L 819.816,-3
 L 819.816,-0 L 825.822,-0 L 825.822,-3 L 831.828,-3 L 831.828,-0 L 837.834,-0
 L 837.834,-3 L 843.84,-3 L 843.84,-0 L 849.846,-0 L 849.846,-3 L 855.852,-3
 L 855.852,-0 L 861.858,-0 L 861.858,-3 L 867.864,-3 L 867.864,-0 L 873.87,-0
 L 873.87,-3 L 879.876,-3 L 879.876,-0 L 885.882,-0 L 885.882,-3 L 891.888,-3
 L 891.888,-0 L 897.894,-0 L 897.894,-3 L 903.9,-3 L 903.9,-0 L 909.906,-0
 L 909.906,-3 L 915.912,-3 L 915.912,-0 L 921.918,-0 L 921.918,-3 L 927.924,-3
 L 927.924,-0 L 933.931,-0 L 933.931,-3 L 939.937,-3 L 939.937,-0 L 945.943,-0
 L 945.943,-3 L 951.949,-3 L 951.949,-0 L 957.955,-0 L 957.955,-3 L 963.961,-3
 L 963.961,-0 L 969.967,-0 L 969.967,-3 L 975.973,-3 L 975.973,-0 L 981.979,-0
 L 981.979,-3 L 987.985,-3 L 987.985,-0 L 993.991,-0 L 993.991,-3 L 999.997,-3
 L 999.997,-0 L 1006,-0 L 1006,-3 L 1012.01,-3 L 1012.01,-0 L 1018.02,-0
 L 1018.02,-3 L 1024.02,-3 L 1024.02,-0 L 1030.03,-0 L 1030.03,-3 L 1036.03,-3
 L 1036.03,-0 L 1042.04,-0 L 1042.04,-3 L 1048.05,-3 L 1048.05,-0 L 1054.05,-0
 L 1054.05,-3 L 1060.06,-3 L 1060.06,-0 L 1066.06,-0 L 1066.06,-3 L 1072.07,-3
 L 1072.07,-0 L 1078.08,-0 L 1078.08,-3 L 1084.08,-3 L 1084.08,-0 L 1090.09,-0
 L 1090.09,-3 L 1096.09,-3 L 1096.09,-0 L 1102.1,-0 L 1102.1,-3 L 1108.11,-3
 L 1108.11,-0 L 1114.11,-0 L 1114.11,-3 L 1120.12,-3 L 1120.12,-0 L 1126.12,-0
 L 1126.12,-3 L 1132.13,-3 L 1132.13,-0 L 1138.14,-0 L 1138.14,-3 L 1144.14,-3
 L 1144.14,-0 L 1150.15,-0 L 1150.15,-3 L 1156.15,-3 L 1156.15,-0 L 1162.16,-0
 L 1162.16,-3 L 1168.17,-3 L 1168.17,-0 L 1174.17,-0 L 1174.17,-3 L 1180.18,-3
 L 1180.18,-0 L 1186.18,-0 L 1186.18,-3 L 1192.19,-3 L 1192.19,-0 L 1198.2,-0
 L 1198.2,-3 L 1204.2,-3 L 1204.2,-0 L 1210.21,-0 L 1210.21,-3 L 1216.21,-3
 L 1216.21,-0 L 1222.22,-0 L 1222.22,-3 L 1228.23,-3 L 1228.23,-0 L 1234.23,-0
 L 1234.23,-3 L 1240.24,-3 L 1240.24,-0 L 1246.24,-0 L 1246.24,-3 L 1252.25,-3
 L 1252.25,-0 L 1258.26,-0 L 1258.26,-3 L 1264.26,-3 L 1264.26,-0 L 1270.27,-0
 L 1270.27,-3 L 1276.27,-3 L 1276.27,-0 L 1282.28,-0 L 1282.28,-3 L 1288.29,-3
 L 1288.29,-0 L 1294.29,-0 L 1294.29,-3 L 1300.3,-3 L 1300.3,-0 L 1306.31,-0
 L 1306.31,-3 L 1312.31,-3 L 1312.31,-0 L 1318.32,-0 L 1318.32,-3 L 1324.32,-3
 L 1324.32,-0 L 1330.33,-0 L 1330.33,-3 L 1336.34,-3 L 1336.34,-0 L 1342.34,-0
 L 1342.34,-3 L 1348.35,-3 L 1348.35,-0 L 1354.35,-0 L 1354.35,-3 L 1360.36,-3
 L 1360.36,-0 L 1366.37,-0 L 1366.37,-3 L 1372.37,-3 L 1372.37,-0 L 1378.38,-0
 L 1378.38,-3 L 1384.38,-3 L 1384.38,-0 L 1390.39,-0 L 1390.39,-3 L 1396.4,-3
 L 1396.4,-0 L 1402.4,-0 L 1402.4,-3 L 1408.41,-3 L 1408.41,-0 L 1414.41,-0
 L 1414.41,-3 L 1420.42,-3 L 1420.42,-0 L 1426.43,-0 L 1426.43,-3 L 1432.43,-3
 L 1432.43,-0 L 1438.44,-0 L 1438.44,-3 L 1444.44,-3 L 1444.44,-0 L 1450.45,-0
 L 1450.45,-3 L 1456.46,-3 L 1456.46,-0 L 1462.46,-0 L 1462.46,-3 L 1468.47,-3
 L 1468.47,-0 L 1474.47,-0 L 1474.47,-3 L 1480.48,-3 L 1480.48,-0 L 1486.49,-0
 L 1486.49,-3 L 1492.49,-3 L 1492.49,-0 L 1498.5,-0 L 1498.5,-3 L 1504.5,-3
 L 1504.5,-0 L 1510.51,-0 L 1510.51,-3 L 1516.52,-3 L 1516.52,-0 L 1522.52,-0
 L 1522.52,-3 L 1528.53,-3 L 1528.53,-0 L 1534.53,-0 L 1534.53,-3 L 1540.54,-3
 L 1540.54,-0 L 1546.55,-0 L 1546.55,-3 L 1552.55,-3 L 1552.55,-0 L 1558.56,-0
 L 1558.56,-3 L 1564.56,-3 L 1564.56,-0 L 1570.57,-0 L 1570.57,-3 L 1576.58,-3
 L 1576.58,-0 L 1582.58,-0 L 1582.58,-3 L 1588.59,-3 L 1588.59,-0 L 1594.6,-0
 L 1594.6,-3 L 1600.6,-3 L 1600.6,-0 L 1606.61,-0 L 1606.61,-3 L 1612.61,-3
 L 1612.61,-0 L 1618.62,-0 L 1618.62,-3 L 1624.63,-3 L 1624.63,-0 L 1630.63,-0
 L 1630.63,-3 L 1636.64,-3 L 1636.64,-0 L 1642.64,-0 L 1642.64,-3 L 1648.65,-3
 L 1648.65,-0 L 1654.66,-0 L 1654.66,-3 L 1660.66,-3 L 1660.66,-0 L 1666.67,-0
 L 1666.67,-3 L 1672.67,-3 L 1672.67,-0 L 1678.68,-0 L 1678.68,-3 L 1684.69,-3
 L 1684.69,-0 L 1690.69,-0 L 1690.69,-3 L 1696.7,-3 L 1696.7,-0 L 1702.7,-0
 L 1702.7,-3 L 1708.71,-3 L 1708.71,-0 L 1714.72,-0 L 1714.72,-3 L 1720.72,-3
 L 1720.72,-0 L 1726.73,-0 L 1726.73,-3 L 1732.73,-3 L 1732.73,-0 L 1738.74,-0
 L 1738.74,-3 L 1744.75,-3 L 1744.75,-0 L 1750.75,-0 L 1750.75,-3 L 1756.76,-3
 L 1756.76,-0 L 1762.76,-0 L 1762.76,-3 L 1768.77,-3 L 1768.77,-0 L 1774.78,-0
 L 1774.78,-3 L 1780.78,-3 L 1780.78,-0 L 1786.79,-0 L 1786.79,-3 L 1792.79,-3
 L 1792.79,-0 L 1798.8,-0 L 1798.8,-3 L 1804.81,-3 L 1804.81,-0 L 1810.81,-0
 L 1810.81,-3 L 1816.82,-3 L 1816.82,-0 L 1822.82,-0 L 1822.82,-3 L 1828.83,-3
 L 1828.83,-0 L 1834.84,-0 L 1834.84,-3 L 1840.84,-3 L 1840.84,-0 L 1846.85,-0
 L 1846.85,-3 L 1852.85,-3 L 1852.85,-0 L 1858.86,-0 L 1858.86,-3 L 1864.87,-3
 L 1864.87,-0 L 1870.87,-0 L 1870.87,-3 L 1876.88,-3 L 1876.88,-0 L 1882.89,-0
 L 1882.89,-3 L 1888.89,-3 L 1888.89,-0 L 1894.9,-0 L 1894.9,-3 L 1900.9,-3
 L 1900.9,-0 L 1906.91,-0 L 1906.91,-3 L 1912.92,-3 L 1912.92,-0 L 1918.92,-0
 L 1918.92,-3 L 1924.93,-3 L 1924.93,-0 L 1930.93,-0 L 1930.93,-3 L 1936.94,-3
 L 1936.94,-0 L 1942.95,-0 L 1942.95,-3 L 1948.95,-3 L 1948.95,-0 L 1954.96,-0
 L 1954.96,-3 L 1960.96,-3 L 1960.96,-0 L 1966.97,-0 L 1966.97,-3 L 1972.98,-3
 L 1972.98,-0 L 1978.98,-0 L 1978.98,-3 L 1984.99,-3 L 1984.99,-0 L 1990.99,-0
 L 1990.99,-3 L 1997,-3 L 1997,-0 L 2006,-0 L 2006,-9 L 2003,-9
 L 2003,-15.3529 L 2006,-15.3529 L 2006,-21.7059 L 2003,-21.7059 L 2003,-28.0588 L 2006,-28.0588
 L 2006,-34.4118 L 2003,-34.4118 L 2003,-40.7647 L 2006,-40.7647 L 2006,-47.1176 L 2003,-47.1176
 L 2003,-53.4706 L 2006,-53.4706 L 2006,-59.8235 L 2003,-59.8235 L 2003,-66.1765 L 2006,-66.1765
 L 2006,-72.5294 L 2003,-72.5294 L 2003,-78.8823 L 2006,-78.8823 L 2006,-85.2353 L 2003,-85.2353
 L 2003,-91.5882 L 2006,-91.5882 L 2006,-97.9412 L 2003,-97.9412 L 2003,-104.294 L 2006,-104.294
 L 2006,-110.647 L 2003,-110.647 L 2003,-117 L 2006,-117 L 2006,-126 L 1997,-126
 L 1997,-123 L 1990.99,-123 L 1990.99,-126 L 1984.99,-126 L 1984.99,-123 L 1978.98,-123
 L 1978.98,-126 L 1972.98,-126 L 1972.98,-123 L 1966.97,-123 L 1966.97,-126 L 1960.96,-126
 L 1960.96,-123 L 1954.96,-123 L 1954.96,-126 L 1948.95,-126 L 1948.95,-123 L 1942.95,-123
 L 1942.95,-126 L 1936.94,-126 L 1936.94,-123 L 1930.93,-123 L 1930.93,-126 L 1924.93,-126
 L 1924.93,-123 L 1918.92,-123 L 1918.92,-126 L 1912.92,-126 L 1912.92,-123 L 1906.91,-123
 L 1906.91,-126 L 1900.9,-126 L 1900.9,-123 L 1894.9,-123 L 1894.9,-126 L 1888.89,-126
 L 1888.89,-123 L 1882.89,-123 L 1882.89,-126 L 1876.88,-126 L 1876.88,-123 L 1870.87,-123
 L 1870.87,-126 L 1864.87,-126 L 1864.87,-123 L 1858.86,-123 L 1858.86,-126 L 1852.85,-126
 L 1852.85,-123 L 1846.85,-123 L 1846.85,-126 L 1840.84,-126 L 1840.84,-123 L 1834.84,-123
 L 1834.84,-126 L 1828.83,-126 L 1828.83,-123 L 1822.82,-123 L 1822.82,-126 L 1816.82,-126
 L 1816.82,-123 L 1810.81,-123 L 1810.81,-126 L 1804.81,-126 L 1804.81,-123 L 1798.8,-123
 L 1798.8,-126 L 1792.79,-126 L 1792.79,-123 L 1786.79,-123 L 1786.79,-126 L 1780.78,-126
 L 1780.78,-123 L 1774.78,-123 L 1774.78,-126 L 1768.77,-126 L 1768.77,-123 L 1762.76,-123
 L 1762.76,-126 L 1756.76,-126 L 1756.76,-123 L 1750.75,-123 L 1750.75,-126 L 1744.75,-126
 L 1744.75,-123 L 1738.74,-123 L 1738.74,-126 L 1732.73,-126 L 1732.73,-123 L 1726.73,-123
 L 1726.73,-126 L 1720.72,-126 L 1720.72,-123 L 1714.72,-123 L 1714.72,-126 L 1708.71,-126
 L 1708.71,-123 L 1702.7,-123 L 1702.7,-126 L 1696.7,-126 L 1696.7,-123 L 1690.69,-123
 L 1690.69,-126 L 1684.69,-126 L 1684.69,-123 L 1678.68,-123 L 1678.68,-126 L 1672.67,-126
 L 1672.67,-123 L 1666.67,-123 L 1666.67,-126 L 1660.66,-126 L 1660.66,-123 L 1654.66,-123
 L 1654.66,-126 L 1648.65,-126 L 1648.65,-123 L 1642.64,-123 L 1642.64,-126 L 1636.64,-126
 L 1636.64,-123 L 1630.63,-123 L 1630.63,-126 L 1624.63,-126 L 1624.63,-123 L 1618.62,-123
 L 1618.62,-126 L 1612.61,-126 L 1612.61,-123 L 1606.61,-123 L 1606.61,-126 L 1600.6,-126
 L 1600.6,-123 L 1594.6,-123 L 1594.6,-126 L 1588.59,-126 L 1588.59,-123 L 1582.58,-123
 L 1582.58,-126 L 1576.58,-126 L 1576.58,-123 L 1570.57,-123 L 1570.57,-126 L 1564.56,-126
 L 1564.56,-123 L 1558.56,-123 L 1558.56,-126 L 1552.55,-126 L 1552.55,-123 L 1546.55,-123
 L 1546.55,-126 L 1540.54,-126 L 1540.54,-123 L 1534.53,-123 L 1534.53,-126 L 1528.53,-126
 L 1528.53,-123 L 1522.52,-123 L 1522.52,-126 L 1516.52,-126 L 1516.52,-123 L 1510.51,-123
 L 1510.51,-126 L 1504.5,-126 L 1504.5,-123 L 1498.5,-123 L 1498.5,-126 L 1492.49,-126
 L 1492.49,-123 L 1486.49,-123 L 1486.49,-126 L 1480.48,-126 L 1480.48,-123 L 1474.47,-123
 L 1474.47,-126 L 1468.47,-126 L 1468.47,-123 L 1462.46,-123 L 1462.46,-126 L 1456.46,-126
 L 1456.46,-123 L 1450.45,-123 L 1450.45,-126 L 1444.44,-126 L 1444.44,-123 L 1438.44,-123
 L 1438.44,-126 L 1432.43,-126 L 1432.43,-123 L 1426.43,-123 L 1426.43,-126 L 1420.42,-126
 L 1420.42,-123 L 1414.41,-123 L 1414.41,-126 L 1408.41,-126 L 1408.41,-123 L 1402.4,-123
 L 1402.4,-126 L 1396.4,-126 L 1396.4,-123 L 1390.39,-123 L 1390.39,-126 L 1384.38,-126
 L 1384.38,-123 L 1378.38,-123 L 1378.38,-126 L 1372.37,-126 L 1372.37,-123 L 1366.37,-123
 L 1366.37,-126 L 1360.36,-126 L 1360.36,-123 L 1354.35,-123 L 1354.35,-126 L 1348.35,-126
 L 1348.35,-123 L 1342.34,-123 L 1342.34,-126 L 1336.34,-126 L 1336.34,-123 L 1330.33,-123
 L 1330.33,-126 L 1324.32,-126 L 1324.32,-123 L 1318.32,-123 L 1318.32,-126 L 1312.31,-126
 L 1312.31,-123 L 1306.31,-123 L 1306.31,-126 L 1300.3,-126 L 1300.3,-123 L 1294.29,-123
 L 1294.29,-126 L 1288.29,-126 L 1288.29,-123 L 1282.28,-123 L 1282.28,-126 L 1276.27,-126
 L 1276.27,-123 L 1270.27,-123 L 1270.27,-126 L 1264.26,-126 L 1264.26,-123 L 1258.26,-123
 L 1258.26,-126 L 1252.25,-126 L 1252.25,-123 L 1246.24,-123 L 1246.24,-126 L 1240.24,-126
 L 1240.24,-123 L 1234.23,-123 L 1234.23,-126 L 1228.23,-126 L 1228.23,-123 L 1222.22,-123
 L 1222.22,-126 L 1216.21,-126 L 1216.21,-123 L 1210.21,-123 L 1210.21,-126 L 1204.2,-126
 L 1204.2,-123 L 1198.2,-123 L 1198.2,-126 L 1192.19,-126 L 1192.19,-123 L 1186.18,-123
 L 1186.18,-126 L 1180.18,-126 L 1180.18,-123 L 1174.17,-123 L 1174.17,-126 L 1168.17,-126
 L 1168.17,-123 L 1162.16,-123 L 1162.16,-126 L 1156.15,-126 L 1156.15,-123 L 1150.15,-123
 L 1150.15,-126 L 1144.14,-126 L 1144.14,-123 L 1138.14,-123 L 1138.14,-126 L 1132.13,-126
 L 1132.13,-123 L 1126.12,-123 L 1126.12,-126 L 1120.12,-126 L 1120.12,-123 L 1114.11,-123
 L 1114.11,-126 L 1108.11,-126 L 1108.11,-123 L 1102.1,-123 L 1102.1,-126 L 1096.09,-126
 L 1096.09,-123 L 1090.09,-123 L 1090.09,-126 L 1084.08,-126 L 1084.08,-123 L 1078.08,-123
 L 1078.08,-126 L 1072.07,-126 L 1072.07,-123 L 1066.06,-123 L 1066.06,-126 L 1060.06,-126
 L 1060.06,-123 L 1054.05,-123 L 1054.05,-126 L 1048.05,-126 L 1048.05,-123 L 1042.04,-123
 L 1042.04,-126 L 1036.03,-126 L 1036.03,-123 L 1030.03,-123 L 1030.03,-126 L 1024.02,-126
 L 1024.02,-123 L 1018.02,-123 L 1018.02,-126 L 1012.01,-126 L 1012.01,-123 L 1006,-123
 L 1006,-126 L 999.997,-126 L 999.997,-123 L 993.991,-123 L 993.991,-126 L 987.985,-126
 L 987.985,-123 L 981.979,-123 L 981.979,-126 L 975.973,-126 L 975.973,-123 L 969.967,-123
 L 969.967,-126 L 963.961,-126 L 963.961,-123 L 957.955,-123 L 957.955,-126 L 951.949,-126
 L 951.949,-123 L 945.943,-123 L 945.943,-126 L 939.937,-126 L 939.937,-123 L 933.931,-123
 L 933.931,-126 L 927.924,-126 L 927.924,-123 L 921.918,-123 L 921.918,-126 L 915.912,-126
 L 915.912,-123 L 909.906,-123 L 909.906,-126 L 903.9,-126 L 903.9,-123 L 897.894,-123
 L 897.894,-126 L 891.888,-126 L 891.888,-123 L 885.882,-123 L 885.882,-126 L 879.876,-126
 L 879.876,-123 L 873.87,-123 L 873.87,-126 L 867.864,-126 L 867.864,-123 L 861.858,-123
 L 861.858,-126 L 855.852,-126 L 855.852,-123 L 849.846,-123 L 849.846,-126 L 843.84,-126
 L 843.84,-123 L 837.834,-123 L 837.834,-126 L 831.828,-126 L 831.828,-123 L 825.822,-123
 L 825.822,-126 L 819.816,-126 L 819.816,-123 L 813.81,-123 L 813.81,-126 L 807.804,-126
 L 807.804,-123 L 801.798,-123 L 801.798,-126 L 795.792,-126 L 795.792,-123 L 789.786,-123
 L 789.786,-126 L 783.779,-126 L 783.779,-123 L 777.773,-123 L 777.773,-126 L 771.767,-126
 L 771.767,-123 L 765.761,-123 L 765.761,-126 L 759.755,-126 L 759.755,-123 L 753.749,-123
 L 753.749,-126 L 747.743,-126 L 747.743,-123 L 741.737,-123 L 741.737,-126 L 735.731,-126
 L 735.731,-123 L 729.725,-123 L 729.725,-126 L 723.719,-126 L 723.719,-123 L 717.713,-123
 L 717.713,-126 L 711.707,-126 L 711.707,-123 L 705.701,-123 L 705.701,-126 L 699.695,-126
 L 699.695,-123 L 693.689,-123 L 693.689,-126 L 687.683,-126 L 687.683,-123 L 681.677,-123
 L 681.677,-126 L 675.671,-126 L 675.671,-123 L 669.665,-123 L 669.665,-126 L 663.659,-126
 L 663.659,-123 L 657.653,-123 L 657.653,-126 L 651.647,-126 L 651.647,-123 L 645.64,-123
 L 645.64,-126 L 639.634,-126 L 639.634,-123 L 633.628,-123 L 633.628,-126 L 627.622,-126
 L 627.622,-123 L 621.616,-123 L 621.616,-126 L 615.61,-126 L 615.61,-123 L 609.604,-123
 L 609.604,-126 L 603.598,-126 L 603.598,-123 L 597.592,-123 L 597.592,-126 L 591.586,-126
 L 591.586,-123 L 585.58,-123 L 585.58,-126 L 579.574,-126 L 579.574,-123 L 573.568,-123
 L 573.568,-126 L 567.562,-126 L 567.562,-123 L 561.556,-123 L 561.556,-126 L 555.55,-126
 L 555.55,-123 L 549.544,-123 L 549.544,-126 L 543.538,-126 L 543.538,-123 L 537.532,-123
 L 537.532,-126 L 531.526,-126 L 531.526,-123 L 525.52,-123 L 525.52,-126 L 519.514,-126
 L 519.514,-123 L 513.508,-123 L 513.508,-126 L 507.502,-126 L 507.502,-123 L 501.495,-123
 L 501.495,-126 L 495.489,-126 L 495.489,-123 L 489.483,-123 L 489.483,-126 L 483.477,-126
 L 483.477,-123 L 477.471,-123 L 477.471,-126 L 471.465,-126 L 471.465,-123 L 465.459,-123
 L 465.459,-126 L 459.453,-126 L 459.453,-123 L 453.447,-123 L 453.447,-126 L 447.441,-126
 L 447.441,-123 L 441.435,-123 L 441.435,-126 L 435.429,-126 L 435.429,-123 L 429.423,-123
 L 429.423,-126 L 423.417,-126 L 423.417,-123 L 417.411,-123 L 417.411,-126 L 411.405,-126
 L 411.405,-123 L 405.399,-123 L 405.399,-126 L 399.393,-126 L 399.393,-123 L 393.387,-123
 L 393.387,-126 L 387.381,-126 L 387.381,-123 L 381.375,-123 L 381.375,-126 L 375.369,-126
 L 375.369,-123 L 369.363,-123 L 369.363,-126 L 363.357,-126 L 363.357,-123 L 357.35,-123
 L 357.35,-126 L 351.344,-126 L 351.344,-123 L 345.338,-123 L 345.338,-126 L 339.332,-126
 L 339.332,-123 L 333.326,-123 L 333.326,-126 L 327.32,-126 L 327.32,-123 L 321.314,-123
 L 321.314,-126 L 315.308,-126 L 315.308,-123 L 309.302,-123 L 309.302,-126 L 303.296,-126
 L 303.296,-123 L 297.29,-123 L 297.29,-126 L 291.284,-126 L 291.284,-123 L 285.278,-123
 L 285.278,-126 L 279.272,-126 L 279.272,-123 L 273.266,-123 L 273.266,-126 L 267.26,-126
 L 267.26,-123 L 261.254,-123 L 261.254,-126 L 255.248,-126 L 255.248,-123 L 249.242,-123
 L 249.242,-126 L 243.236,-126 L 243.236,-123 L 237.23,-123 L 237.23,-126 L 231.224,-126
 L 231.224,-123 L 225.218,-123 L 225.218,-126 L 219.211,-126 L 219.211,-123 L 213.205,-123
 L 213.205,-126 L 207.199,-126 L 207.199,-123 L 201.193,-123 L 201.193,-126 L 195.187,-126
 L 195.187,-123 L 189.181,-123 L 189.181,-126 L 183.175,-126 L 183.175,-123 L 177.169,-123
 L 177.169,-126 L 171.163,-126 L 171.163,-123 L 165.157,-123 L 165.157,-126 L 159.151,-126
 L 159.151,-123 L 153.145,-123 L 153.145,-126 L 147.139,-126 L 147.139,-123 L 141.133,-123
 L 141.133,-126 L 135.127,-126 L 135.127,-123 L 129.121,-123 L 129.121,-126 L 123.115,-126
 L 123.115,-123 L 117.109,-123 L 117.109,-126 L 111.103,-126 L 111.103,-123 L 105.097,-123
 L 105.097,-126 L 99.0906,-126 L 99.0906,-123 L 93.0846,-123 L 93.0846,-126 L 87.0786,-126
 L 87.0786,-123 L 81.0725,-123 L 81.0725,-126 L 75.0665,-126 L 75.0665,-123 L 69.0604,-123
 L 69.0604,-126 L 63.0544,-126 L 63.0544,-123 L 57.0483,-123 L 57.0483,-126 L 51.0423,-126
 L 51.0423,-123 L 45.0363,-123 L 45.0363,-126 L 39.0302,-126 L 39.0302,-123 L 33.0242,-123
 L 33.0242,-126 L 27.0181,-126 L 27.0181,-123 L 21.0121,-123 L 21.0121,-126 L 15.006,-126
 L 15.006,-123 L 9,-123 L 9,-126 L 0,-126 L 0,-117 L 3,-117
 L 3,-110.647 L 0,-110.647 L 0,-104.294 L 3,-104.294 L 3,-97.9412 L 0,-97.9412
 L 0,-91.5882 L 3,-91.5882 L 3,-85.2353 L 0,-85.2353 L 0,-78.8824 L 3,-78.8824
 L 3,-72.5294 L 0,-72.5294 L 0,-66.1765 L 3,-66.1765 L 3,-59.8235 L 0,-59.8235
 L 0,-53.4706 L 3,-53.4706 L 3,-47.1177 L 0,-47.1177 L 0,-40.7647 L 3,-40.7647
 L 3,-34.4118 L 0,-34.4118 L 0,-28.0588 L 3,-28.0588 L 3,-21.7059 L 0,-21.7059
 L 0,-15.353 L 3,-15.353 L 3,-9 L 0,-9 L 0,-0 L 9,-0
 z
M 2015.01,-3 L 2021.02,-3 L 2021.02,-0 L 2027.02,-0 L 2027.02,-3 L 2033.03,-3
 L 2033.03,-0 L 2039.03,-0 L 2039.03,-3 L 2045.04,-3 L 2045.04,-0 L 2051.05,-0
 L 2051.05,-3 L 2057.05,-3 L 2057.05,-0 L 2063.06,-0 L 2063.06,-3 L 2069.06,-3
 L 2069.06,-0 L 2075.07,-0 L 2075.07,-3 L 2081.08,-3 L 2081.08,-0 L 2087.08,-0
 L 2087.08,-3 L 2093.09,-3 L 2093.09,-0 L 2099.09,-0 L 2099.09,-3 L 2105.1,-3
 L 2105.1,-0 L 2111.11,-0 L 2111.11,-3 L 2117.11,-3 L 2117.11,-0 L 2123.12,-0
 L 2123.12,-3 L 2129.12,-3 L 2129.12,-0 L 2135.13,-0 L 2135.13,-3 L 2141.14,-3
 L 2141.14,-0 L 2147.14,-0 L 2147.14,-3 L 2153.15,-3 L 2153.15,-0 L 2159.15,-0
 L 2159.15,-3 L 2165.16,-3 L 2165.16,-0 L 2171.17,-0 L 2171.17,-3 L 2177.17,-3
 L 2177.17,-0 L 2183.18,-0 L 2183.18,-3 L 2189.19,-3 L 2189.19,-0 L 2195.19,-0
 L 2195.19,-3 L 2201.2,-3 L 2201.2,-0 L 2207.2,-0 L 2207.2,-3 L 2213.21,-3
 L 2213.21,-0 L 2219.22,-0 L 2219.22,-3 L 2225.22,-3 L 2225.22,-0 L 2231.23,-0
 L 2231.23,-3 L 2237.23,-3 L 2237.23,-0 L 2243.24,-0 L 2243.24,-3 L 2249.25,-3
 L 2249.25,-0 L 2255.25,-0 L 2255.25,-3 L 2261.26,-3 L 2261.26,-0 L 2267.26,-0
 L 2267.26,-3 L 2273.27,-3 L 2273.27,-0 L 2279.28,-0 L 2279.28,-3 L 2285.28,-3
 L 2285.28,-0 L 2291.29,-0 L 2291.29,-3 L 2297.29,-3 L 2297.29,-0 L 2303.3,-0
 L 2303.3,-3 L 2309.31,-3 L 2309.31,-0 L 2315.31,-0 L 2315.31,-3 L 2321.32,-3
 L 2321.32,-0 L 2327.32,-0 L 2327.32,-3 L 2333.33,-3 L 2333.33,-0 L 2339.34,-0
 L 2339.34,-3 L 2345.34,-3 L 2345.34,-0 L 2351.35,-0 L 2351.35,-3 L 2357.35,-3
 L 2357.35,-0 L 2363.36,-0 L 2363.36,-3 L 2369.37,-3 L 2369.37,-0 L 2375.37,-0
 L 2375.37,-3 L 2381.38,-3 L 2381.38,-0 L 2387.38,-0 L 2387.38,-3 L 2393.39,-3
 L 2393.39,-0 L 2399.4,-0 L 2399.4,-3 L 2405.4,-3 L 2405.4,-0 L 2411.41,-0
 L 2411.41,-3 L 2417.41,-3 L 2417.41,-0 L 2423.42,-0 L 2423.42,-3 L 2429.43,-3
 L 2429.43,-0 L 2435.43,-0 L 2435.43,-3 L 2441.44,-3 L 2441.44,-0 L 2447.45,-0
 L 2447.45,-3 L 2453.45,-3 L 2453.45,-0 L 2459.46,-0 L 2459.46,-3 L 2465.46,-3
 L 2465.46,-0 L 2471.47,-0 L 2471.47,-3 L 2477.48,-3 L 2477.48,-0 L 2483.48,-0
 L 2483.48,-3 L 2489.49,-3 L 2489.49,-0 L 2495.49,-0 L 2495.49,-3 L 2501.5,-3
 L 2501.5,-0 L 2507.51,-0 L 2507.51,-3 L 2513.51,-3 L 2513.51,-0 L 2519.52,-0
 L 2519.52,-3 L 2525.52,-3 L 2525.52,-0 L 2531.53,-0 L 2531.53,-3 L 2537.54,-3
 L 2537.54,-0 L 2543.54,-0 L 2543.54,-3 L 2549.55,-3 L 2549.55,-0 L 2555.55,-0
 L 2555.55,-3 L 2561.56,-3 L 2561.56,-0 L 2567.57,-0 L 2567.57,-3 L 2573.57,-3
 L 2573.57,-0 L 2579.58,-0 L 2579.58,-3 L 2585.58,-3 L 2585.58,-0 L 2591.59,-0
 L 2591.59,-3 L 2597.6,-3 L 2597.6,-0 L 2603.6,-0 L 2603.6,-3 L 2609.61,-3
 L 2609.61,-0 L 2615.61,-0 L 2615.61,-3 L 2621.62,-3 L 2621.62,-0 L 2627.63,-0
 L 2627.63,-3 L 2633.63,-3 L 2633.63,-0 L 2639.64,-0 L 2639.64,-3 L 2645.64,-3
 L 2645.64,-0 L 2651.65,-0 L 2651.65,-3 L 2657.66,-3 L 2657.66,-0 L 2663.66,-0
 L 2663.66,-3 L 2669.67,-3 L 2669.67,-0 L 2675.67,-0 L 2675.67,-3 L 2681.68,-3
 L 2681.68,-0 L 2687.69,-0 L 2687.69,-3 L 2693.69,-3 L 2693.69,-0 L 2699.7,-0
 L 2699.7,-3 L 2705.7,-3 L 2705.7,-0 L 2711.71,-0 L 2711.71,-3 L 2717.72,-3
 L 2717.72,-0 L 2723.72,-0 L 2723.72,-3 L 2729.73,-3 L 2729.73,-0 L 2735.74,-0
 L 2735.74,-3 L 2741.74,-3 L 2741.74,-0 L 2747.75,-0 L 2747.75,-3 L 2753.75,-3
 L 2753.75,-0 L 2759.76,-0 L 2759.76,-3 L 2765.77,-3 L 2765.77,-0 L 2771.77,-0
 L 2771.77,-3 L 2777.78,-3 L 2777.78,-0 L 2783.78,-0 L 2783.78,-3 L 2789.79,-3
 L 2789.79,-0 L 2795.8,-0 L 2795.8,-3 L 2801.8,-3 L 2801.8,-0 L 2807.81,-0
 L 2807.81,-3 L 2813.81,-3 L 2813.81,-0 L 2819.82,-0 L 2819.82,-3 L 2825.83,-3
 L 2825.83,-0 L 2831.83,-0 L 2831.83,-3 L 2837.84,-3 L 2837.84,-0 L 2843.84,-0
 L 2843.84,-3 L 2849.85,-3 L 2849.85,-0 L 2855.86,-0 L 2855.86,-3 L 2861.86,-3
 L 2861.86,-0 L 2867.87,-0 L 2867.87,-3 L 2873.87,-3 L 2873.87,-0 L 2879.88,-0
 L 2879.88,-3 L 2885.89,-3 L 2885.89,-0 L 2891.89,-0 L 2891.89,-3 L 2897.9,-3
 L 2897.9,-0 L 2903.9,-0 L 2903.9,-3 L 2909.91,-3 L 2909.91,-0 L 2915.92,-0
 L 2915.92,-3 L 2921.92,-3 L 2921.92,-0 L 2927.93,-0 L 2927.93,-3 L 2933.93,-3
 L 2933.93,-0 L 2939.94,-0 L 2939.94,-3 L 2945.95,-3 L 2945.95,-0 L 2951.95,-0
 L 2951.95,-3 L 2957.96,-3 L 2957.96,-0 L 2963.96,-0 L 2963.96,-3 L 2969.97,-3
 L 2969.97,-0 L 2975.98,-0 L 2975.98,-3 L 2981.98,-3 L 2981.98,-0 L 2987.99,-0
 L 2987.99,-3 L 2993.99,-3 L 2993.99,-0 L 3000,-0 L 3000,-3 L 3006.01,-3
 L 3006.01,-0 L 3012.01,-0 L 3012.01,-3 L 3018.02,-3 L 3018.02,-0 L 3024.03,-0
 L 3024.03,-3 L 3030.03,-3 L 3030.03,-0 L 3036.04,-0 L 3036.04,-3 L 3042.04,-3
 L 3042.04,-0 L 3048.05,-0 L 3048.05,-3 L 3054.06,-3 L 3054.06,-0 L 3060.06,-0
 L 3060.06,-3 L 3066.07,-3 L 3066.07,-0 L 3072.07,-0 L 3072.07,-3 L 3078.08,-3
 L 3078.08,-0 L 3084.09,-0 L 3084.09,-3 L 3090.09,-3 L 3090.09,-0 L 3096.1,-0
 L 3096.1,-3 L 3102.1,-3 L 3102.1,-0 L 3108.11,-0 L 3108.11,-3 L 3114.12,-3
 L 3114.12,-0 L 3120.12,-0 L 3120.12,-3 L 3126.13,-3 L 3126.13,-0 L 3132.13,-0
 L 3132.13,-3 L 3138.14,-3 L 3138.14,-0 L 3144.15,-0 L 3144.15,-3 L 3150.15,-3
 L 3150.15,-0 L 3156.16,-0 L 3156.16,-3 L 3162.16,-3 L 3162.16,-0 L 3168.17,-0
 L 3168.17,-3 L 3174.18,-3 L 3174.18,-0 L 3180.18,-0 L 3180.18,-3 L 3186.19,-3
 L 3186.19,-0 L 3192.19,-0 L 3192.19,-3 L 3198.2,-3 L 3198.2,-0 L 3204.21,-0
 L 3204.21,-3 L 3210.21,-3 L 3210.21,-0 L 3216.22,-0 L 3216.22,-3 L 3222.22,-3
 L 3222.22,-0 L 3228.23,-0 L 3228.23,-3 L 3234.24,-3 L 3234.24,-0 L 3240.24,-0
 L 3240.24,-3 L 3246.25,-3 L 3246.25,-0 L 3252.25,-0 L 3252.25,-3 L 3258.26,-3
 L 3258.26,-0 L 3264.27,-0 L 3264.27,-3 L 3270.27,-3 L 3270.27,-0 L 3276.28,-0
 L 3276.28,-3 L 3282.28,-3 L 3282.28,-0 L 3288.29,-0 L 3288.29,-3 L 3294.3,-3
 L 3294.3,-0 L 3300.3,-0 L 3300.3,-3 L 3306.31,-3 L 3306.31,-0 L 3312.32,-0
 L 3312.32,-3 L 3318.32,-3 L 3318.32,-0 L 3324.33,-0 L 3324.33,-3 L 3330.33,-3
 L 3330.33,-0 L 3336.34,-0 L 3336.34,-3 L 3342.35,-3 L 3342.35,-0 L 3348.35,-0
 L 3348.35,-3 L 3354.36,-3 L 3354.36,-0 L 3360.36,-0 L 3360.36,-3 L 3366.37,-3
 L 3366.37,-0 L 3372.38,-0 L 3372.38,-3 L 3378.38,-3 L 3378.38,-0 L 3384.39,-0
 L 3384.39,-3 L 3390.39,-3 L 3390.39,-0 L 3396.4,-0 L 3396.4,-3 L 3402.41,-3
 L 3402.41,-0 L 3408.41,-0 L 3408.41,-3 L 3414.42,-3 L 3414.42,-0 L 3420.42,-0
 L 3420.42,-3 L 3426.43,-3 L 3426.43,-0 L 3432.44,-0 L 3432.44,-3 L 3438.44,-3
 L 3438.44,-0 L 3444.45,-0 L 3444.45,-3 L 3450.45,-3 L 3450.45,-0 L 3456.46,-0
 L 3456.46,-3 L 3462.47,-3 L 3462.47,-0 L 3468.47,-0 L 3468.47,-3 L 3474.48,-3
 L 3474.48,-0 L 3480.48,-0 L 3480.48,-3 L 3486.49,-3 L 3486.49,-0 L 3492.5,-0
 L 3492.5,-3 L 3498.5,-3 L 3498.5,-0 L 3504.51,-0 L 3504.51,-3 L 3510.51,-3
 L 3510.51,-0 L 3516.52,-0 L 3516.52,-3 L 3522.53,-3 L 3522.53,-0 L 3528.53,-0
 L 3528.53,-3 L 3534.54,-3 L 3534.54,-0 L 3540.54,-0 L 3540.54,-3 L 3546.55,-3
 L 3546.55,-0 L 3552.56,-0 L 3552.56,-3 L 3558.56,-3 L 3558.56,-0 L 3564.57,-0
 L 3564.57,-3 L 3570.57,-3 L 3570.57,-0 L 3576.58,-0 L 3576.58,-3 L 3582.59,-3
 L 3582.59,-0 L 3588.59,-0 L 3588.59,-3 L 3594.6,-3 L 3594.6,-0 L 3600.61,-0
 L 3600.61,-3 L 3606.61,-3 L 3606.61,-0 L 3612.62,-0 L 3612.62,-3 L 3618.62,-3
 L 3618.62,-0 L 3624.63,-0 L 3624.63,-3 L 3630.64,-3 L 3630.64,-0 L 3636.64,-0
 L 3636.64,-3 L 3642.65,-3 L 3642.65,-0 L 3648.65,-0 L 3648.65,-3 L 3654.66,-3
 L 3654.66,-0 L 3660.67,-0 L 3660.67,-3 L 3666.67,-3 L 3666.67,-0 L 3672.68,-0
 L 3672.68,-3 L 3678.68,-3 L 3678.68,-0 L 3684.69,-0 L 3684.69,-3 L 3690.7,-3
 L 3690.7,-0 L 3696.7,-0 L 3696.7,-3 L 3702.71,-3 L 3702.71,-0 L 3708.71,-0
 L 3708.71,-3 L 3714.72,-3 L 3714.72,-0 L 3720.73,-0 L 3720.73,-3 L 3726.73,-3
 L 3726.73,-0 L 3732.74,-0 L 3732.74,-3 L 3738.74,-3 L 3738.74,-0 L 3744.75,-0
 L 3744.75,-3 L 3750.76,-3 L 3750.76,-0 L 3756.76,-0 L 3756.76,-3 L 3762.77,-3
 L 3762.77,-0 L 3768.77,-0 L 3768.77,-3 L 3774.78,-3 L 3774.78,-0 L 3780.79,-0
 L 3780.79,-3 L 3786.79,-3 L 3786.79,-0 L 3792.8,-0 L 3792.8,-3 L 3798.8,-3
 L 3798.8,-0 L 3804.81,-0 L 3804.81,-3 L 3810.82,-3 L 3810.82,-0 L 3816.82,-0
 L 3816.82,-3 L 3822.83,-3 L 3822.83,-0 L 3828.83,-0 L 3828.83,-3 L 3834.84,-3
 L 3834.84,-0 L 3840.85,-0 L 3840.85,-3 L 3846.85,-3 L 3846.85,-0 L 3852.86,-0
 L 3852.86,-3 L 3858.86,-3 L 3858.86,-0 L 3864.87,-0 L 3864.87,-3 L 3870.88,-3
 L 3870.88,-0 L 3876.88,-0 L 3876.88,-3 L 3882.89,-3 L 3882.89,-0 L 3888.9,-0
 L 3888.9,-3 L 3894.9,-3 L 3894.9,-0 L 3900.91,-0 L 3900.91,-3 L 3906.91,-3
 L 3906.91,-0 L 3912.92,-0 L 3912.92,-3 L 3918.93,-3 L 3918.93,-0 L 3924.93,-0
 L 3924.93,-3 L 3930.94,-3 L 3930.94,-0 L 3936.94,-0 L 3936.94,-3 L 3942.95,-3
 L 3942.95,-0 L 3948.96,-0 L 3948.96,-3 L 3954.96,-3 L 3954.96,-0 L 3960.97,-0
 L 3960.97,-3 L 3966.97,-3 L 3966.97,-0 L 3972.98,-0 L 3972.98,-3 L 3978.99,-3
 L 3978.99,-0 L 3984.99,-0 L 3984.99,-3 L 3991,-3 L 3991,-0 L 3997,-0
 L 3997,-3 L 4003.01,-3 L 4003.01,-0 L 4012.01,-0 L 4012.01,-9 L 4009.01,-9
 L 4009.01,-15.3529 L 4012.01,-15.3529 L 4012.01,-21.7059 L 4009.01,-21.7059 L 4009.01,-28.0588 L 4012.01,-28.0588
 L 4012.01,-34.4118 L 4009.01,-34.4118 L 4009.01,-40.7647 L 4012.01,-40.7647 L 4012.01,-47.1176 L 4009.01,-47.1176
 L 4009.01,-53.4706 L 4012.01,-53.4706 L 4012.01,-59.8235 L 4009.01,-59.8235 L 4009.01,-66.1765 L 4012.01,-66.1765
 L 4012.01,-72.5294 L 4009.01,-72.5294 L 4009.01,-78.8823 L 4012.01,-78.8823 L 4012.01,-85.2353 L 4009.01,-85.2353
 L 4009.01,-91.5882 L 4012.01,-91.5882 L 4012.01,-97.9412 L 4009.01,-97.9412 L 4009.01,-104.294 L 4012.01,-104.294
 L 4012.01,-110.647 L 4009.01,-110.647 L 4009.01,-117 L 4012.01,-117 L 4012.01,-126 L 4003.01,-126
 L 4003.01,-123 L 3997,-123 L 3997,-126 L 3991,-126 L 3991,-123 L 3984.99,-123
 L 3984.99,-126 L 3978.99,-126 L 3978.99,-123 L 3972.98,-123 L 3972.98,-126 L 3966.97,-126
 L 3966.97,-123 L 3960.97,-123 L 3960.97,-126 L 3954.96,-126 L 3954.96,-123 L 3948.96,-123
 L 3948.96,-126 L 3942.95,-126 L 3942.95,-123 L 3936.94,-123 L 3936.94,-126 L 3930.94,-126
 L 3930.94,-123 L 3924.93,-123 L 3924.93,-126 L 3918.93,-126 L 3918.93,-123 L 3912.92,-123
 L 3912.92,-126 L 3906.91,-126 L 3906.91,-123 L 3900.91,-123 L 3900.91,-126 L 3894.9,-126
 L 3894.9,-123 L 3888.9,-123 L 3888.9,-126 L 3882.89,-126 L 3882.89,-123 L 3876.88,-123
 L 3876.88,-126 L 3870.88,-126 L 3870.88,-123 L 3864.87,-123 L 3864.87,-126 L 3858.86,-126
 L 3858.86,-123 L 3852.86,-123 L 3852.86,-126 L 3846.85,-126 L 3846.85,-123 L 3840.85,-123
 L 3840.85,-126 L 3834.84,-126 L 3834.84,-123 L 3828.83,-123 L 3828.83,-126 L 3822.83,-126
 L 3822.83,-123 L 3816.82,-123 L 3816.82,-126 L 3810.82,-126 L 3810.82,-123 L 3804.81,-123
 L 3804.81,-126 L 3798.8,-126 L 3798.8,-123 L 3792.8,-123 L 3792.8,-126 L 3786.79,-126
 L 3786.79,-123 L 3780.79,-123 L 3780.79,-126 L 3774.78,-126 L 3774.78,-123 L 3768.77,-123
 L 3768.77,-126 L 3762.77,-126 L 3762.77,-123 L 3756.76,-123 L 3756.76,-126 L 3750.76,-126
 L 3750.76,-123 L 3744.75,-123 L 3744.75,-126 L 3738.74,-126 L 3738.74,-123 L 3732.74,-123
 L 3732.74,-126 L 3726.73,-126 L 3726.73,-123 L 3720.73,-123 L 3720.73,-126 L 3714.72,-126
 L 3714.72,-123 L 3708.71,-123 L 3708.71,-126 L 3702.71,-126 L 3702.71,-123 L 3696.7,-123
 L 3696.7,-126 L 3690.7,-126 L 3690.7,-123 L 3684.69,-123 L 3684.69,-126 L 3678.68,-126
 L 3678.68,-123 L 3672.68,-123 L 3672.68,-126 L 3666.67,-126 L 3666.67,-123 L 3660.67,-123
 L 3660.67,-126 L 3654.66,-126 L 3654.66,-123 L 3648.65,-123 L 3648.65,-126 L 3642.65,-126
 L 3642.65,-123 L 3636.64,-123 L 3636.64,-126 L 3630.64,-126 L 3630.64,-123 L 3624.63,-123
 L 3624.63,-126 L 3618.62,-126 L 3618.62,-123 L 3612.62,-123 L 3612.62,-126 L 3606.61,-126
 L 3606.61,-123 L 3600.61,-123 L 3600.61,-126 L 3594.6,-126 L 3594.6,-123 L 3588.59,-123
 L 3588.59,-126 L 3582.59,-126 L 3582.59,-123 L 3576.58,-123 L 3576.58,-126 L 3570.57,-126
 L 3570.57,-123 L 3564.57,-123 L 3564.57,-126 L 3558.56,-126 L 3558.56,-123 L 3552.56,-123
 L 3552.56,-126 L 3546.55,-126 L 3546.55,-123 L 3540.54,-123 L 3540.54,-126 L 3534.54,-126
 L 3534.54,-123 L 3528.53,-123 L 3528.53,-126 L 3522.53,-126 L 3522.53,-123 L 3516.52,-123
 L 3516.52,-126 L 3510.51,-126 L 3510.51,-123 L 3504.51,-123 L 3504.51,-126 L 3498.5,-126
 L 3498.5,-123 L 3492.5,-123 L 3492.5,-126 L 3486.49,-126 L 3486.49,-123 L 3480.48,-123
 L 3480.48,-126 L 3474.48,-126 L 3474.48,-123 L 3468.47,-123 L 3468.47,-126 L 3462.47,-126
 L 3462.47,-123 L 3456.46,-123 L 3456.46,-126 L 3450.45,-126 L 3450.45,-123 L 3444.45,-123
 L 3444.45,-126 L 3438.44,-126 L 3438.44,-123 L 3432.44,-123 L 3432.44,-126 L 3426.43,-126
 L 3426.43,-123 L 3420.42,-123 L 3420.42,-126 L 3414.42,-126 L 3414.42,-123 L 3408.41,-123
 L 3408.41,-126 L 3402.41,-126 L 3402.41,-123 L 3396.4,-123 L 3396.4,-126 L 3390.39,-126
 L 3390.39,-123 L 3384.39,-123 L 3384.39,-126 L 3378.38,-126 L 3378.38,-123 L 3372.38,-123
 L 3372.38,-126 L 3366.37,-126 L 3366.37,-123 L 3360.36,-123 L 3360.36,-126 L 3354.36,-126
 L 3354.36,-123 L 3348.35,-123 L 3348.35,-126 L 3342.35,-126 L 3342.35,-123 L 3336.34,-123
 L 3336.34,-126 L 3330.33,-126 L 3330.33,-123 L 3324.33,-123 L 3324.33,-126 L 3318.32,-126
 L 3318.32,-123 L 3312.32,-123 L 3312.32,-126 L 3306.31,-126 L 3306.31,-123 L 3300.3,-123
 L 3300.3,-126 L 3294.3,-126 L 3294.3,-123 L 3288.29,-123 L 3288.29,-126 L 3282.28,-126
 L 3282.28,-123 L 3276.28,-123 L 3276.28,-126 L 3270.27,-126 L 3270.27,-123 L 3264.27,-123
 L 3264.27,-126 L 3258.26,-126 L 3258.26,-123 L 3252.25,-123 L 3252.25,-126 L 3246.25,-126
 L 3246.25,-123 L 3240.24,-123 L 3240.24,-126 L 3234.24,-126 L 3234.24,-123 L 3228.23,-123
 L 3228.23,-126 L 3222.22,-126 L 3222.22,-123 L 3216.22,-123 L 3216.22,-126 L 3210.21,-126
 L 3210.21,-123 L 3204.21,-123 L 3204.21,-126 L 3198.2,-126 L 3198.2,-123 L 3192.19,-123
 L 3192.19,-126 L 3186.19,-126 L 3186.19,-123 L 3180.18,-123 L 3180.18,-126 L 3174.18,-126
 L 3174.18,-123 L 3168.17,-123 L 3168.17,-126 L 3162.16,-126 L 3162.16,-123 L 3156.16,-123
 L 3156.16,-126 L 3150.15,-126 L 3150.15,-123 L 3144.15,-123 L 3144.15,-126 L 3138.14,-126
 L 3138.14,-123 L 3132.13,-123 L 3132.13,-126 L 3126.13,-126 L 3126.13,-123 L 3120.12,-123
 L 3120.12,-126 L 3114.12,-126 L 3114.12,-123 L 3108.11,-123 L 3108.11,-126 L 3102.1,-126
 L 3102.1,-123 L 3096.1,-123 L 3096.1,-126 L 3090.09,-126 L 3090.09,-123 L 3084.09,-123
 L 3084.09,-126 L 3078.08,-126 L 3078.08,-123 L 3072.07,-123 L 3072.07,-126 L 3066.07,-126
 L 3066.07,-123 L 3060.06,-123 L 3060.06,-126 L 3054.06,-126 L 3054.06,-123 L 3048.05,-123
 L 3048.05,-126 L 3042.04,-126 L 3042.04,-123 L 3036.04,-123 L 3036.04,-126 L 3030.03,-126
 L 3030.03,-123 L 3024.03,-123 L 3024.03,-126 L 3018.02,-126 L 3018.02,-123 L 3012.01,-123
 L 3012.01,-126 L 3006.01,-126 L 3006.01,-123 L 3000,-123 L 3000,-126 L 2993.99,-126
 L 2993.99,-123 L 2987.99,-123 L 2987.99,-126 L 2981.98,-126 L 2981.98,-123 L 2975.98,-123
 L 2975.98,-126 L 2969.97,-126 L 2969.97,-123 L 2963.96,-123 L 2963.96,-126 L 2957.96,-126
 L 2957.96,-123 L 2951.95,-123 L 2951.95,-126 L 2945.95,-126 L 2945.95,-123 L 2939.94,-123
 L 2939.94,-126 L 2933.93,-126 L 2933.93,-123 L 2927.93,-123 L 2927.93,-126 L 2921.92,-126
 L 2921.92,-123 L 2915.92,-123 L 2915.92,-126 L 2909.91,-126 L 2909.91,-123 L 2903.9,-123
 L 2903.9,-126 L 2897.9,-126 L 2897.9,-123 L 2891.89,-123 L 2891.89,-126 L 2885.89,-126
 L 2885.89,-123 L 2879.88,-123 L 2879.88,-126 L 2873.87,-126 L 2873.87,-123 L 2867.87,-123
 L 2867.87,-126 L 2861.86,-126 L 2861.86,-123 L 2855.86,-123 L 2855.86,-126 L 2849.85,-126
 L 2849.85,-123 L 2843.84,-123 L 2843.84,-126 L 2837.84,-126 L 2837.84,-123 L 2831.83,-123
 L 2831.83,-126 L 2825.83,-126 L 2825.83,-123 L 2819.82,-123 L 2819.82,-126 L 2813.81,-126
 L 2813.81,-123 L 2807.81,-123 L 2807.81,-126 L 2801.8,-126 L 2801.8,-123 L 2795.8,-123
 L 2795.8,-126 L 2789.79,-126 L 2789.79,-123 L 2783.78,-123 L 2783.78,-126 L 2777.78,-126
 L 2777.78,-123 L 2771.77,-123 L 2771.77,-126 L 2765.77,-126 L 2765.77,-123 L 2759.76,-123
 L 2759.76,-126 L 2753.75,-126 L 2753.75,-123 L 2747.75,-123 L 2747.75,-126 L 2741.74,-126
 L 2741.74,-123 L 2735.74,-123 L 2735.74,-126 L 2729.73,-126 L 2729.73,-123 L 2723.72,-123
 L 2723.72,-126 L 2717.72,-126 L 2717.72,-123 L 2711.71,-123 L 2711.71,-126 L 2705.7,-126
 L 2705.7,-123 L 2699.7,-123 L 2699.7,-126 L 2693.69,-126 L 2693.69,-123 L 2687.69,-123
 L 2687.69,-126 L 2681.68,-126 L 2681.68,-123 L 2675.67,-123 L 2675.67,-126 L 2669.67,-126
 L 2669.67,-123 L 2663.66,-123 L 2663.66,-126 L 2657.66,-126 L 2657.66,-123 L 2651.65,-123
 L 2651.65,-126 L 2645.64,-126 L 2645.64,-123 L 2639.64,-123 L 2639.64,-126 L 2633.63,-126
 L 2633.63,-123 L 2627.63,-123 L 2627.63,-126 L 2621.62,-126 L 2621.62,-123 L 2615.61,-123
 L 2615.61,-126 L 2609.61,-126 L 2609.61,-123 L 2603.6,-123 L 2603.6,-126 L 2597.6,-126
 L 2597.6,-123 L 2591.59,-123 L 2591.59,-126 L 2585.58,-126 L 2585.58,-123 L 2579.58,-123
 L 2579.58,-126 L 2573.57,-126 L 2573.57,-123 L 2567.57,-123 L 2567.57,-126 L 2561.56,-126
 L 2561.56,-123 L 2555.55,-123 L 2555.55,-126 L 2549.55,-126 L 2549.55,-123 L 2543.54,-123
 L 2543.54,-126 L 2537.54,-126 L 2537.54,-123 L 2531.53,-123 L 2531.53,-126 L 2525.52,-126
 L 2525.52,-123 L 2519.52,-123 L 2519.52,-126 L 2513.51,-126 L 2513.51,-123 L 2507.51,-123
 L 2507.51,-126 L 2501.5,-126 L 2501.5,-123 L 2495.49,-123 L 2495.49,-126 L 2489.49,-126
 L 2489.49,-123 L 2483.48,-123 L 2483.48,-126 L 2477.48,-126 L 2477.48,-123 L 2471.47,-123
 L 2471.47,-126 L 2465.46,-126 L 2465.46,-123 L 2459.46,-123 L 2459.46,-126 L 2453.45,-126
 L 2453.45,-123 L 2447.45,-123 L 2447.45,-126 L 2441.44,-126 L 2441.44,-123 L 2435.43,-123
 L 2435.43,-126 L 2429.43,-126 L 2429.43,-123 L 2423.42,-123 L 2423.42,-126 L 2417.41,-126
 L 2417.41,-123 L 2411.41,-123 L 2411.41,-126 L 2405.4,-126 L 2405.4,-123 L 2399.4,-123
 L 2399.4,-126 L 2393.39,-126 L 2393.39,-123 L 2387.38,-123 L 2387.38,-126 L 2381.38,-126
 L 2381.38,-123 L 2375.37,-123 L 2375.37,-126 L 2369.37,-126 L 2369.37,-123 L 2363.36,-123
 L 2363.36,-126 L 2357.35,-126 L 2357.35,-123 L 2351.35,-123 L 2351.35,-126 L 2345.34,-126
 L 2345.34,-123 L 2339.34,-123 L 2339.34,-126 L 2333.33,-126 L 2333.33,-123 L 2327.32,-123
 L 2327.32,-126 L 2321.32,-126 L 2321.32,-123 L 2315.31,-123 L 2315.31,-126 L 2309.31,-126
 L 2309.31,-123 L 2303.3,-123 L 2303.3,-126 L 2297.29,-126 L 2297.29,-123 L 2291.29,-123
 L 2291.29,-126 L 2285.28,-126 L 2285.28,-123 L 2279.28,-123 L 2279.28,-126 L 2273.27,-126
 L 2273.27,-123 L 2267.26,-123 L 2267.26,-126 L 2261.26,-126 L 2261.26,-123 L 2255.25,-123
 L 2255.25,-126 L 2249.25,-126 L 2249.25,-123 L 2243.24,-123 L 2243.24,-126 L 2237.23,-126
 L 2237.23,-123 L 2231.23,-123 L 2231.23,-126 L 2225.22,-126 L 2225.22,-123 L 2219.22,-123
 L 2219.22,-126 L 2213.21,-126 L 2213.21,-123 L 2207.2,-123 L 2207.2,-126 L 2201.2,-126
 L 2201.2,-123 L 2195.19,-123 L 2195.19,-126 L 2189.19,-126 L 2189.19,-123 L 2183.18,-123
 L 2183.18,-126 L 2177.17,-126 L 2177.17,-123 L 2171.17,-123 L 2171.17,-126 L 2165.16,-126
 L 2165.16,-123 L 2159.16,-123 L 2159.16,-126 L 2153.15,-126 L 2153.15,-123 L 2147.14,-123
 L 2147.14,-126 L 2141.14,-126 L 2141.14,-123 L 2135.13,-123 L 2135.13,-126 L 2129.12,-126
 L 2129.12,-123 L 2123.12,-123 L 2123.12,-126 L 2117.11,-126 L 2117.11,-123 L 2111.11,-123
 L 2111.11,-126 L 2105.1,-126 L 2105.1,-123 L 2099.09,-123 L 2099.09,-126 L 2093.09,-126
 L 2093.09,-123 L 2087.08,-123 L 2087.08,-126 L 2081.08,-126 L 2081.08,-123 L 2075.07,-123
 L 2075.07,-126 L 2069.06,-126 L 2069.06,-123 L 2063.06,-123 L 2063.06,-126 L 2057.05,-126
 L 2057.05,-123 L 2051.05,-123 L 2051.05,-126 L 2045.04,-126 L 2045.04,-123 L 2039.03,-123
 L 2039.03,-126 L 2033.03,-126 L 2033.03,-123 L 2027.02,-123 L 2027.02,-126 L 2021.02,-126
 L 2021.02,-123 L 2015.01,-123 L 2015.01,-126 L 2006.01,-126 L 2006.01,-117 L 2009.01,-117
 L 2009.01,-110.647 L 2006.01,-110.647 L 2006.01,-104.294 L 2009.01,-104.294 L 2009.01,-97.9412 L 2006.01,-97.9412
 L 2006.01,-91.5882 L 2009.01,-91.5882 L 2009.01,-85.2353 L 2006.01,-85.2353 L 2006.01,-78.8824 L 2009.01,-78.8824
 L 2009.01,-72.5294 L 2006.01,-72.5294 L 2006.01,-66.1765 L 2009.01,-66.1765 L 2009.01,-59.8235 L 2006.01,-59.8235
 L 2006.01,-53.4706 L 2009.01,-53.4706 L 2009.01,-47.1177 L 2006.01,-47.1177 L 2006.01,-40.7647 L 2009.01,-40.7647
 L 2009.01,-34.4118 L 2006.01,-34.4118 L 2006.01,-28.0588 L 2009.01,-28.0588 L 2009.01,-21.7059 L 2006.01,-21.7059
 L 2006.01,-15.353 L 2009.01,-15.353 L 2009.01,-9 L 2006.01,-9 L 2006.01,-0 L 2015.01,-0
 z
" stroke="black" fill="lightgray" stroke-width="0.5"/>
</svg>
