<?xml version="1.0" encoding="UTF-8" standalone="no"?>
<!-- Created with Inkscape (http://www.inkscape.org/) -->

<svg
   width="2006.2645mm"
   height="26.264584mm"
   viewBox="0 0 2006.2645 26.264584"
   version="1.1"
   id="svg1327"
   inkscape:version="1.1.2 (0a00cf5339, 2022-02-04, custom)"
   sodipodi:docname="lightbox_2m_top.svg"
   xmlns:inkscape="http://www.inkscape.org/namespaces/inkscape"
   xmlns:sodipodi="http://sodipodi.sourceforge.net/DTD/sodipodi-0.dtd"
   xmlns="http://www.w3.org/2000/svg"
   xmlns:svg="http://www.w3.org/2000/svg">
  <sodipodi:namedview
     id="namedview1329"
     pagecolor="#ffffff"
     bordercolor="#666666"
     borderopacity="1.0"
     inkscape:pageshadow="2"
     inkscape:pageopacity="0.0"
     inkscape:pagecheckerboard="0"
     inkscape:document-units="mm"
     showgrid="false"
     lock-margins="true"
     fit-margin-top="0"
     fit-margin-left="0"
     fit-margin-right="0"
     fit-margin-bottom="0"
     inkscape:zoom="0.74208052"
     inkscape:cx="436.6103"
     inkscape:cy="-51.881162"
     inkscape:current-layer="layer1"
     showguides="true"
     inkscape:guide-bbox="true">
    <sodipodi:guide
       position="93.398112,-84.066681"
       orientation="1,0"
       id="guide2080" />
  </sodipodi:namedview>
  <defs
     id="defs1324" />
  <g
     inkscape:label="Layer 1"
     inkscape:groupmode="layer"
     id="layer1"
     transform="translate(836.64361,-34.627609)">
    <path
       id="path1248"
       style="fill:none;stroke:#000000;stroke-width:0.264583"
       d="m -595.41631,-0.44843596 v 0 3.00000186 h 5.99998 v -3.00000186 h 6.01001 V 2.5515659 h 6.01001 v -3.00000186 h 5.99998 V 2.5515659 h 6.01001 v -3.00000186 h 6.00001 V 2.5515659 h 6.00999 v -3.00000186 h 6.01001 V 2.5515659 h 5.99998 v -3.00000186 h 6.01001 V 2.5515659 h 6.00001 v -3.00000186 h 6.00999 V 2.5515659 h 6.01001 v -3.00000186 h 6 V 2.5515659 h 6.00999 v -3.00000186 h 6.00001 V 2.5515659 h 6.00998 v -3.00000186 h 6.01001 V 2.5515659 h 6.00001 v -3.00000186 h 6.00998 V 2.5515659 h 6.00001 v -3.00000186 h 6.01001 V 2.5515659 h 6.00999 v -3.00000186 h 6.00001 V 2.5515659 h 6.00998 v -3.00000186 h 6.00001 V 2.5515659 h 6.01001 v -3.00000186 h 6.00998 V 2.5515659 h 6.00001 v -3.00000186 h 6.01001 V 2.5515659 h 5.99999 v -3.00000186 h 6.01001 V 2.5515659 h 6.00998 v -3.00000186 h 6.00001 V 2.5515659 h 6.01001 v -3.00000186 h 6.00998" />
    <path
       id="path12121"
       style="fill:none;stroke:#000000;stroke-width:0.264583"
       d="m -373.19632,-20.448433 v 0 -2.999999 h -6.00001 v 2.999999 h -6.00998 v -2.999999 h -6.01001 v 2.999999 h -6.00001 v -2.999999 h -6.00998 v 2.999999 h -6.01001 v -2.999999 h -5.99999 v 2.999999 h -6.01001 v -2.999999 h -6.00001 v 2.999999 h -6.00998 v -2.999999 h -6.01001 v 2.999999 h -6.00001 v -2.999999 h -6.00998 v 2.999999 h -6.00001 v -2.999999 h -6.00999 v 2.999999 h -6.01001 v -2.999999 h -6.00001 v 2.999999 h -6.00998 v -2.999999 h -6.00001 v 2.999999 h -6.01001 v -2.999999 h -6.00998 v 2.999999 h -6.00001 v -2.999999 h -6.00999 v 2.999999 h -6 v -2.999999 h -6.01001 v 2.999999 h -6.00999 v -2.999999 h -6.00001 v 2.999999 h -6.01001 v -2.999999 h -5.99998 v 2.999999 h -6.01001 v -2.999999 h -6.00999 v 2.999999 h -6.00001 v -2.999999 h -6.01001 v 2.999999 h -5.99998 v -2.999999 h -6.01001 v 2.999999 h -6.01001" />
    <path
       id="path2101"
       style="fill:none;stroke:#000000;stroke-width:0.264583"
       d="m -34.711407,10.134898 v 0 3 h 5.999956 v -3 h 6.010011 v 3 h 6.01001 v -3 h 6.000221 v 3 h 6.0097454 v -3 h 6.0002208 v 3 h 6.0100103 v -3 h 6.0100105 v 3 h 5.999956 v -3 h 6.01001 v 3 h 5.999957 v -3 h 6.01001 v 3 h 6.01001 v -3 h 5.999956 v 3 h 6.010011 v -3 h 5.999956 v 3 h 6.01001 v -3 h 6.010011 v 3 h 5.999956 v -3 h 6.01001 v 3 h 5.999956 v -3 h 6.010011 v 3 h 6.010012 v -3 h 5.99993 v 3 h 6.01001 v -3 h 6.00022 v 3 h 6.00977 v -3 h 6.01001 v 3 h 6.00022 v -3 h 6.00999 v 3 h 5.99998 v -3 h 6.01001 v 3 h 6.01001 v -3 h 5.99993 v 3 h 6.01001 v -3 h 6.01001 v 3 h 5.99996 v -3 h 6.01001 v 3 h 5.99998 v -3 h 6.01001 v 3 h 6.01001 v -3 h 5.99993 v 3 h 6.01001 v -3 h 5.99996 v 3 h 6.01001 v -3 h 6.01001 v 3 h 5.99998 v -3 h 6.01001 v 3 h 5.99993 v -3 h 6.01001 v 3 h 6.01001 v -3 h 6.00025 v 3 h 6.00972 v -3 h 6.00022 v 3 h 6.01001 v -3 h 6.01001 v 3 h 5.99995 v -3 h 6.01001 v 3 h 5.99999 v -3 h 6.01001 v 3 h 6.01001 v -3 h 5.9999 v 3 h 6.01001 v -3 h 5.99996 v 3 h 6.01001 v -3 h 6.01001 v 3 h 5.99998 v -3 h 6.01001 v 3 h 5.99993 v -3 h 6.01001 v 3 h 6.01001 v -3 h 5.99996 v 3 h 6.01001 v -3 h 6.00022 v 3 h 6.00977 v -3 h 6.01001 v 3 h 6.00022 v -3 h 6.00999 v 3 h 5.99995 v -3 h 6.01001 v 3 h 6.01001 v -3 h 5.99996 v 3 h 6.01001 v -3 h 6.01001 v 3 h 5.99996 v -3 h 6.01001 v 3 h 5.99995 v -3 h 6.01001 v 3 h 6.01001 v -3 h 5.99996 v 3 h 6.01001 v -3 h 5.99996 v 3 h 6.01001 v -3 h 6.01001 v 3 h 5.99995 v -3 h 6.01001 v 3 h 5.99996 v -3 h 6.01001 v 3 h 6.01001 v -3 h 6.00022 v 3 h 6.00975 v -3 h 6.00022 v 3 h 6.01001 v -3 h 6.01001 v 3 h 5.99995 v -3 h 6.01001 v 3 h 5.99996 v -3 h 6.01001 v 3 h 6.01001 v -3 h 5.99996 v 3 h 6.01001 v -3 h 5.99995 v 3 h 6.01001 v -3 h 6.01001 v 3 h 5.99996 v -3 h 6.01001 v 3 h 5.99996 v -3 h 6.01001 v 3 h 6.01001 v -3 h 5.99995 v 3 h 6.01001 v -3 h 6.00023 v 3 h 6.00974 v -3 h 6.01001 v 3 h 6.00022 v -3 h 6.01001 v 3 h 5.99996 v -3 h 6.01001 v 3 h 6.01001 v -3 h 5.99996 v 3 h 6.01001 v -3 h 6.01001 v 3 h 5.99995 v -3 h 6.01001 v 3 h 5.99996 v -3 h 6.01001 v 3 h 6.01001 v -3 h 5.99996 v 3 h 6.01001 v -3 h 5.99995 v 3 h 6.01001 v -3 h 6.01001 v 3 h 5.99996 v -3 h 6.01001 v 3 h 5.99996 v -3 h 6.01001 v 3 h 6.01001 v -3 h 6.00022 v 3 h 6.00974 v -3 h 6.00022 v 3 h 6.01001 v -3 h 6.01001 v 3 h 5.99996 v -3 h 6.01001 v 3 h 5.99996 v -3 h 6.01001 v 3 h 6.01001 v -3 h 5.99995 v 3 h 6.01001 v -3 h 5.99996 v 3 h 6.01001 v -3 h 6.01001 v 3 h 5.99996 v -3 h 6.01001 v 3 h 5.99995 v -3 h 6.01001 v 3 h 6.01001 v -3 h 5.99996 v 3 h 6.01001 v -3 h 6.00022 v 3 h 6.00972 v -3 h 6.01001 v 3 h 6.00034 v -3 h 6.0099 v 3 h 5.9999 v -3 h 6.0101 v 3 h 6.0099 v -3 h 6.0001 v 3 h 6.01 v -3 h 6.0099 v 3 h 6.0001 v -3 h 6.0099 v 3 h 5.9999 v -3 h 6.0102 v 3 h 6.0099 v -3 h 5.9999 v 3 h 6.0101 v -3 h 5.9999 v 3 h 6.01 v -3 h 6.0101 v 3 h 5.9999 v -3 h 6.0101 v 3 h 5.9999 v -3 h 6.0099 v 3 h 6.0102 v -3 h 6.0001 v 3 h 6.0097 v -3 h 6.0002 v 3 h 6.0102 v -3 h 5.9999 V 3.1348986 h 2.9999 v -5.9999997 h -2.9999 v -6.9999996 h -5.9999 V -12.8651 h -6.0102 v 2.9999993 h -6.0002 V -12.8651 h -6.0097 v 2.9999993 h -6.0001 V -12.8651 h -6.0102 v 2.9999993 h -6.0099 V -12.8651 h -5.9999 v 2.9999993 h -6.0101 V -12.8651 h -5.9999 v 2.9999993 h -6.0101 V -12.8651 h -6.01 v 2.9999993 h -5.9999 V -12.8651 h -6.0101 v 2.9999993 h -5.9999 V -12.8651 h -6.0099 v 2.9999993 h -6.0102 V -12.8651 h -5.9999 v 2.9999993 h -6.0099 V -12.8651 h -6.0001 v 2.9999993 h -6.0099 V -12.8651 h -6.01 v 2.9999993 h -6.0001 V -12.8651 h -6.0099 v 2.9999993 h -6.0101 V -12.8651 h -5.9999 v 2.9999993 h -6.0099 V -12.8651 h -6.00034 v 2.9999993 h -6.01001 V -12.8651 h -6.00972 v 2.9999993 h -6.00022 V -12.8651 h -6.01001 v 2.9999993 h -5.99996 V -12.8651 h -6.01001 v 2.9999993 h -6.01001 V -12.8651 h -5.99995 v 2.9999993 h -6.01001 V -12.8651 h -5.99996 v 2.9999993 h -6.01001 V -12.8651 h -6.01001 v 2.9999993 h -5.99996 V -12.8651 h -6.01001 v 2.9999993 h -5.99995 V -12.8651 h -6.01001 v 2.9999993 h -6.01001 V -12.8651 h -5.99996 v 2.9999993 h -6.01001 V -12.8651 h -5.99996 v 2.9999993 H 872.1987 V -12.8651 h -6.01001 v 2.9999993 h -6.00022 V -12.8651 h -6.00974 v 2.9999993 h -6.00022 V -12.8651 h -6.01001 v 2.9999993 h -6.01001 V -12.8651 h -5.99996 v 2.9999993 h -6.01001 V -12.8651 h -5.99996 v 2.9999993 h -6.01001 V -12.8651 h -6.01001 v 2.9999993 h -5.99995 V -12.8651 h -6.01001 v 2.9999993 h -5.99996 V -12.8651 h -6.01001 v 2.9999993 H 776.0986 V -12.8651 h -5.99996 v 2.9999993 h -6.01001 V -12.8651 h -5.99995 v 2.9999993 h -6.01001 V -12.8651 h -6.01001 v 2.9999993 H 740.0687 V -12.8651 h -6.01001 v 2.9999993 h -6.01001 V -12.8651 h -5.99996 v 2.9999993 h -6.01001 V -12.8651 h -6.00022 v 2.9999993 h -6.01001 V -12.8651 h -6.00974 v 2.9999993 h -6.00023 V -12.8651 h -6.01001 v 2.9999993 h -5.99995 V -12.8651 h -6.01001 v 2.9999993 h -6.01001 V -12.8651 h -5.99996 v 2.9999993 h -6.01001 V -12.8651 h -5.99996 v 2.9999993 h -6.01001 V -12.8651 h -6.01001 v 2.9999993 h -5.99995 V -12.8651 h -6.01001 v 2.9999993 h -5.99996 V -12.8651 h -6.01001 v 2.9999993 h -6.01001 V -12.8651 h -5.99996 v 2.9999993 h -6.01001 V -12.8651 h -5.99995 v 2.9999993 h -6.01001 V -12.8651 h -6.01001 v 2.9999993 h -6.00022 V -12.8651 h -6.00975 v 2.9999993 h -6.00022 V -12.8651 h -6.01001 v 2.9999993 h -6.01001 V -12.8651 h -5.99996 v 2.9999993 h -6.01001 V -12.8651 h -5.99995 v 2.9999993 h -6.01001 V -12.8651 h -6.01001 v 2.9999993 h -5.99996 V -12.8651 h -6.01001 v 2.9999993 h -5.99996 V -12.8651 h -6.01001 v 2.9999993 H 487.8086 V -12.8651 h -5.99995 v 2.9999993 h -6.01001 V -12.8651 h -5.99996 v 2.9999993 h -6.01001 V -12.8651 h -6.01001 v 2.9999993 H 451.7787 V -12.8651 h -6.01001 v 2.9999993 h -6.01001 V -12.8651 h -5.99995 v 2.9999993 h -6.00999 V -12.8651 h -6.00022 v 2.9999993 h -6.01001 V -12.8651 h -6.00977 v 2.9999993 h -6.00022 V -12.8651 h -6.01001 v 2.9999993 h -5.99996 V -12.8651 h -6.01001 v 2.9999993 h -6.01001 V -12.8651 h -5.99993 v 2.9999993 h -6.01001 V -12.8651 h -5.99998 v 2.9999993 H 355.6786 V -12.8651 h -6.01001 v 2.9999993 h -5.99996 V -12.8651 h -6.01001 v 2.9999993 h -5.9999 V -12.8651 h -6.01001 v 2.9999993 H 319.6387 V -12.8651 h -5.99999 v 2.9999993 H 307.6287 V -12.8651 h -5.99995 v 2.9999993 h -6.01001 V -12.8651 h -6.01001 v 2.9999993 h -6.00022 V -12.8651 h -6.00972 v 2.9999993 h -6.00025 V -12.8651 h -6.01001 v 2.9999993 h -6.01001 V -12.8651 h -5.99993 v 2.9999993 h -6.01001 V -12.8651 h -5.99998 v 2.9999993 h -6.01001 V -12.8651 h -6.01001 v 2.9999993 h -5.99996 V -12.8651 h -6.01001 v 2.9999993 h -5.99993 V -12.8651 h -6.01001 v 2.9999993 h -6.01001 V -12.8651 h -5.99998 v 2.9999993 h -6.01001 V -12.8651 h -5.99996 v 2.9999993 H 175.4987 V -12.8651 h -6.01001 v 2.9999993 h -5.99993 V -12.8651 h -6.01001 v 2.9999993 h -6.01001 V -12.8651 h -5.99998 v 2.9999993 h -6.00999 V -12.8651 h -6.00022 v 2.9999993 h -6.01001 V -12.8651 h -6.00977 v 2.9999993 h -6.00022 V -12.8651 h -6.01001 v 2.9999993 h -5.99993 V -12.8651 h -6.010012 v 2.9999993 H 91.408587 V -12.8651 h -5.999956 v 2.9999993 h -6.01001 V -12.8651 h -5.999956 v 2.9999993 H 67.388654 V -12.8651 h -6.01001 v 2.9999993 H 55.378688 V -12.8651 h -6.010011 v 2.9999993 H 43.368721 V -12.8651 h -6.01001 v 2.9999993 h -6.01001 V -12.8651 h -5.999957 v 2.9999993 h -6.01001 V -12.8651 h -5.999956 v 2.9999993 H 7.3287675 V -12.8651 H 1.3187572 v 2.9999993 H -4.6814636 V -12.8651 h -6.0097454 v 2.9999993 H -16.69143 V -12.8651 h -6.01001 v 2.9999993 h -6.010011" />
    <path
       id="path1596"
       style="fill:none;stroke:#000000;stroke-width:0.264583px;stroke-linecap:butt;stroke-linejoin:miter;stroke-opacity:1"
       d="m -401.08352,165.74103 v 60.00025 m 12.01218,-119.99991 v 59.99966 m 0,3e-5 h -12.01218 m 0,60.00022 v 0 h 6.00583 v 2.99982 h 6.00635 v -2.99982 h 6.00584 v 2.99982 h 6.00635 v -2.99982 h 6.00583 v 2.99982 h 6.00584 v -2.99982 h 6.00635 v 2.99982 h 6.00584 v -2.99982 h 6.00635 v 2.99982 h 6.00583 v -2.99982 h 6.00636 v 2.99982 h 6.00583 v -2.99982 h 6.00583 v 2.99982 h 6.00636 v -2.99982 h 6.00583 v 2.99982 h 6.00635 v -2.99982 h 6.00584 v 2.99982 h 6.00635 v -2.99982 h 6.00584 v 2.99982 h 6.00583 v -2.99982 h 6.00635 v 2.99982 h 6.00584 v -2.99982 h 6.00583 v 2.99982 h 6.00635 v -2.99982 h 6.00584 v 2.99982 h 6.00583 v -2.99982 h 6.00635 v 2.99982 h 6.00584 v -2.99982 h 6.00583 v 2.99982 h 6.00635 v -2.99982 h 6.00584 v 2.99982 h 6.00583 v -2.99982 h 6.00636 v 2.99982 h 6.00583 v -2.99982 h 6.00584 v 2.99982 h 6.00687 v -2.99982 h 6.00635 v 2.99982 h 6.00583 v -2.99982 h 6.00584 v 2.99982 h 6.00635 v -2.99982 h 6.00583 v 2.99982 h 6.00584 v -2.99982 h 6.00635 v 2.99982 h 6.00583 v -2.99982 h 6.00583 v 2.99982 h 6.00636 v -2.99982 h 6.00583 v 2.99982 h 6.00585 v -2.99982 h 6.00636 v 2.99982 h 6.00583 v -2.99982 h 6.005831 v 2.99982 h 6.00636 v -2.99982 h 6.00583 v 2.99982 h 6.00586 v -2.99982 h 6.00583 v 2.99982 h 6.00633 v -2.99982 h 6.00585 v 2.99982 h 6.00583 v -2.99982 h 6.00636 v 2.99982 h 6.00687 v -2.99982 m 12.01218,-119.99991 v 0 -3.00035 h -6.00635 v 3.00035 h -6.00583 v -3.00035 h -6.00583 v 3.00035 h -6.0074 v -3.00035 h -6.00583 v 3.00035 h -6.00585 v -3.00035 h -6.00633 v 3.00035 h -6.00583 v -3.00035 h -6.00586 v 3.00035 h -6.00583 v -3.00035 h -6.00636 v 3.00035 h -6.005831 v -3.00035 h -6.00583 v 3.00035 h -6.00636 v -3.00035 h -6.00585 v 3.00035 h -6.00583 v -3.00035 h -6.00636 v 3.00035 h -6.00583 v -3.00035 h -6.00583 v 3.00035 h -6.00635 v -3.00035 h -6.00584 v 3.00035 h -6.00583 v -3.00035 h -6.00635 v 3.00035 h -6.00584 v -3.00035 h -6.00583 v 3.00035 h -6.00635 v -3.00035 h -6.00687 v 3.00035 h -6.00584 v -3.00035 h -6.00583 v 3.00035 h -6.00636 v -3.00035 h -6.00583 v 3.00035 h -6.00584 v -3.00035 h -6.00635 v 3.00035 h -6.00583 v -3.00035 h -6.00584 v 3.00035 h -6.00635 v -3.00035 h -6.00583 v 3.00035 h -6.00584 v -3.00035 h -6.00635 v 3.00035 h -6.00583 v -3.00035 h -6.00584 v 3.00035 h -6.00635 v -3.00035 h -6.00583 v 3.00035 h -6.00584 v -3.00035 h -6.00635 v 3.00035 h -6.00584 v -3.00035 h -6.00635 v 3.00035 h -6.00583 v -3.00035 h -6.00636 v 3.00035 h -6.00583 v -3.00035 h -6.00583 v 3.00035 h -6.00636 v -3.00035 h -6.00583 v 3.00035 h -6.00635 v -3.00035 h -6.00584 v 3.00035 h -6.00583 v -3.00035 h -6.00636 v 3.00035 h -6.00583 v -3.00035 h -6.00635 v 3.00035 h -6.00584 m 348.350861,59.99969 v 60.00022 m 12.01218,-119.99991 v 59.99969 m 0,0 h -12.01218" />
    <path
       id="path3758"
       style="fill:none;stroke:#000000;stroke-width:0.264583px;stroke-linecap:butt;stroke-linejoin:miter;stroke-opacity:1"
       d="m -755.2577,144.95887 v 60.00023 m 12.0122,-119.999911 v 59.999681 m 0,1e-5 h -12.0122 m -60.24143,-59.999191 v 0 -3.00035 h -6.00637 v 3.00035 h -6.00584 v -3.00035 h -8.99998 v 0 8.99998 h 2.99982 v 6.35309 h -2.99982 v 6.353101 h 2.99982 v 6.35259 h -2.99982 v 6.3531 h 2.99982 v 6.35309 h -2.99982 v 6.35259 h 2.99982 v 6.35313 h -2.99982 v 6.35309 h 2.99982 v 6.3531 h -2.99982 v 6.35256 h 2.99982 v 6.35313 h -2.99982 v 6.35309 h 2.99982 v 6.35259 h -2.99982 v 6.3531 h 2.99982 v 6.3531 h -2.99982 v 6.35254 h 2.99982 v 6.35315 h -2.99982 v 9.00002 h 8.99998 v -2.99985 m 84.26585,-120.000481 v 0 -2.99982 h -6.00586 v 2.99982 h -6.00635 v -2.99982 h -6.00585 v 2.99982 h -6.00637 v -2.99982 h -6.00584 v 2.99982 h -6.00637 v -2.99982 h -6.00585 v 2.99982 h -6.00584 v -2.99982 h -6.00636 v 2.99982 h -6.00584 v -2.99982 h -6.00637 v 2.99982 h -6.00585 v -2.99982 h -0.18087 m -12.01222,126.000151 h 0.18087 v -3.00038 h 6.00585 v 3.00038 h 6.00637 v -3.00038 h 6.00585 v 3.00038 h 6.00637 v -3.00038 h 6.00584 v 3.00038 h 6.00636 v -3.00038 h 6.00584 v 3.00038 h 6.00585 v -3.00038 h 6.00637 v 3.00038 h 6.00584 v -3.00038 h 6.00637 v 3.00038 h 6.00585 v -3.00038" />
    <path
       id="path2088"
       style="fill:none;stroke:#000000;stroke-width:0.264583px;stroke-linecap:butt;stroke-linejoin:miter;stroke-opacity:1"
       d="m -34.711407,47.7599 v 10 m 6.00001,-10 v -10 m -6.00001,10 h 6.00001 m -366.359943,0 v 10 m 6.00001,-10 v -10 m -6.00001,10 h 6.00001 m -6.00001,10 v 0 3 h 6.00001 v -3 h 6.01001 v 3 h 5.99999 v -3 h 6.01001 v 3 h 6.00998 v -3 h 6.00001 v 3 h 6.01001 v -3 h 5.99998 v 3 h 6.01001 v -3 h 6.00999 v 3 h 6.00001 v -3 h 6.01001 v 3 h 5.99998 v -3 h 6.01001 v 3 h 6.01001 v -3 h 5.99998 v 3 h 6.01001 v -3 h 6.00001 v 3 h 6.00999 v -3 h 6.01001 v 3 h 5.99998 v -3 h 6.01001 v 3 h 6.00001 v -3 h 6.00998 v 3 h 6.01001 v -3 h 6.00001 v 3 h 6.00998 v -3 h 6.00001 v 3 h 6.00999 v -3 h 6.01001 v 3 h 6.00001 v -3 h 6.00998 v 3 h 6.00001 v -3 h 6.00993 v 3 h 6.01001 v -3 h 5.99996 v 3 h 6.01001 v -3 h 6.00022 v 3 h 6.00974 v -3 h 6.01001 v 3 h 6.00023 v -3 h 6.00998 v 3 h 5.99998 v -3 h 6.01001 v 3 h 6.01001 v -3 h 5.99996 v 3 h 6.01001 v -3 h 6.01001 v 3 h 5.99996 v -3 h 6.010006 v 3 h 5.999956 v -3 h 6.010011 v 3 h 6.01001 v -3 h 5.999956 v 3 h 6.010011 v -3 h 5.999956 v 3 h 6.01001 v -3 h 6.010011 v 3 h 5.999956 v -3 h 6.01001 m 5.999956,-19.999999 v 0 -3 h -5.999956 v 3 h -6.01001 v -3 h -5.999956 v 3 h -6.010011 v -3 h -6.01001 v 3 h -5.999956 v -3 h -6.010011 v 3 h -5.999956 v -3 h -6.01001 v 3 h -6.010011 v -3 h -5.999956 v 3 h -6.010006 v -3 h -5.99996 v 3 h -6.01001 v -3 h -6.01001 v 3 h -5.99996 v -3 h -6.01001 v 3 h -6.01001 v -3 h -5.99998 v 3 h -6.00998 v -3 h -6.00023 v 3 h -6.01001 v -3 h -6.00974 v 3 h -6.00022 v -3 h -6.01001 v 3 h -5.99996 v -3 h -6.01001 v 3 h -6.00993 v -3 h -6.00001 v 3 h -6.00998 v -3 h -6.00001 v 3 h -6.01001 v -3 h -6.00999 v 3 h -6.00001 v -3 h -6.00998 v 3 h -6.00001 v -3 h -6.01001 v 3 h -6.00998 v -3 h -6.00001 v 3 h -6.01001 v -3 h -5.99998 v 3 h -6.01001 v -3 h -6.00999 v 3 h -6.00001 v -3 h -6.01001 v 3 h -5.99998 v -3 h -6.01001 v 3 h -6.01001 v -3 h -5.99998 v 3 h -6.01001 v -3 h -6.00001 v 3 h -6.00999 v -3 h -6.01001 v 3 h -5.99998 v -3 h -6.01001 v 3 h -6.00001 v -3 h -6.00998 v 3 h -6.01001 v -3 h -5.99999 v 3 h -6.01001" />
    <path
       id="path12018"
       style="fill:none;stroke:#000000;stroke-width:0.264583px;stroke-linecap:butt;stroke-linejoin:miter;stroke-opacity:1"
       d="m -611.29132,-5.1567677 v 9.9999984 m 5.99998,-19.9999967 v 9.9999983 m -5.99998,-2e-7 h 5.99998 m 0,-9.9999981 v 0 -2.999999 h -5.99998 v 2.999999 h -6.01001 v -2.999999 h -6.00001 v 2.999999 h -6.00998 v -2.999999 h -6.01002 v 2.999999 h -5.99998 v -2.999999 h -6.01001 v 2.999999 h -6.00001 v -2.999999 h -6.00998 v 2.999999 h -6.01001 v -2.999999 h -5.99998 v 2.999999 h -6.01001 v -2.999999 h -6.00001 v 2.999999 h -6.00999 v -2.999999 h -6.01001 v 2.999999 h -6.00001 v -2.999999 h -6.00998 v 2.999999 h -6.01001 v -2.999999 h -5.99998 v 2.999999 h -6.01001 v -2.999999 h -6.00001 v 2.999999 h -6.00999 v -2.999999 h -6.01001 v 2.999999 h -6.00001 v -2.999999 h -6.00998 v 2.999999 h -6.00001 v -2.999999 h -6.00998 v 2.999999 h -6.01001 v -2.999999 h -6.00001 v 2.999999 h -6.00999 v -2.999999 h -6.00001 v 2.999999 h -6.01001 v -2.999999 h -6.00998 v 2.999999 h -6.00001 v -2.999999 h -6.00998 v 2.999999 h -6.00001 v -2.999999 h -6.01001 v 2.999999 h -5.99999 v 6.9999991 h -3 v 5.9999985 h 3 v 6.9999991 h 5.99999 v 3.0000019 h 6.01001 v -3.0000019 0 h 6.00001 v 3.0000019 h 6.00998 V 4.8432307 h 6.00001 v 3.0000019 h 6.00998 V 4.8432307 h 6.01001 v 3.0000019 h 6.00001 V 4.8432307 h 6.00999 v 3.0000019 h 6.00001 V 4.8432307 h 6.01001 v 3.0000019 h 6.00998 V 4.8432307 h 6.00001 v 3.0000019 h 6.00998 V 4.8432307 h 6.00001 v 3.0000019 h 6.01001 V 4.8432307 h 6.00999 v 3.0000019 h 6.00001 V 4.8432307 h 6.01001 v 3.0000019 h 5.99998 V 4.8432307 h 6.01001 v 3.0000019 h 6.00998 V 4.8432307 h 6.00001 v 3.0000019 h 6.01001 V 4.8432307 h 5.99999 v 3.0000019 h 6.01001 V 4.8432307 h 6.01001 v 3.0000019 h 5.99998 V 4.8432307 h 6.01001 v 3.0000019 h 6.00998 V 4.8432307 h 6.00001 v 3.0000019 h 6.01001 V 4.8432307 h 5.99998 v 3.0000019 h 6.01002 V 4.8432307 h 6.00998 v 3.0000019 h 6.00001 V 4.8432307 h 6.01001" />
  </g>
</svg>
