<?xml version="1.0" encoding="UTF-8" standalone="no"?>
<!-- Created with Inkscape (http://www.inkscape.org/) -->

<svg
   width="380mm"
   height="165mm"
   viewBox="0 0 380 165"
   version="1.1"
   id="svg106882"
   inkscape:version="1.1.2 (0a00cf5339, 2022-02-04)"
   sodipodi:docname="2.svg"
   xmlns:inkscape="http://www.inkscape.org/namespaces/inkscape"
   xmlns:sodipodi="http://sodipodi.sourceforge.net/DTD/sodipodi-0.dtd"
   xmlns="http://www.w3.org/2000/svg"
   xmlns:svg="http://www.w3.org/2000/svg">
  <sodipodi:namedview
     id="namedview106884"
     pagecolor="#ffffff"
     bordercolor="#666666"
     borderopacity="1.0"
     inkscape:pageshadow="2"
     inkscape:pageopacity="0.0"
     inkscape:pagecheckerboard="0"
     inkscape:document-units="mm"
     showgrid="false"
     inkscape:zoom="0.74475309"
     inkscape:cx="985.56154"
     inkscape:cy="204.09449"
     inkscape:current-layer="layer1" />
  <defs
     id="defs106879" />
  <g
     inkscape:label="Layer 1"
     inkscape:groupmode="layer"
     id="layer1">
    <path
       d="m 31.591828,14.40747 -18.656091,5.865926 5.453315,6.892463 c 1.722105,2.199722 3.44421,4.546092 5.309809,6.745814 3.587715,4.546092 7.318936,8.945537 11.767693,14.078222 L 6.9083803,81.425672 29.008681,81.279023 c 3.300684,-3.9595 6.314368,-7.919 9.184536,-11.73185 2.726651,-3.812852 5.453314,-7.18576 8.179977,-9.972074 0.861052,0.879889 1.578589,1.906426 2.439641,2.786314 5.309809,6.305871 11.337166,13.344981 17.795038,21.557277 L 85.981501,78.492709 61.72859,47.989895 C 69.621546,37.431228 77.801523,27.019211 85.407469,17.63373 l -22.674321,1.906425 c -3.300694,4.839389 -7.17542,10.265371 -11.480671,16.424592 z"
       id="path106395"
       style="font-size:132.743px;line-height:1.25;letter-spacing:11.9468px;fill:none;stroke:#ff0000;stroke-width:0.435209" />
    <path
       d="m 130.18202,6.1951739 c -7.89296,0 -16.35996,2.639667 -23.10485,8.3589441 -6.74489,5.865926 -11.480673,14.958111 -11.480673,27.423203 0,12.465093 3.874725,23.023759 11.337163,30.502814 7.46243,7.479055 18.51258,11.731851 33.29394,11.731851 9.75857,0 17.93856,-2.639666 25.11398,-6.745814 7.17542,-4.106149 12.91575,-9.972073 18.51257,-16.424592 l -23.39187,2.199722 c -2.72665,4.252797 -7.17542,7.185759 -18.22556,7.185759 -9.18454,0 -15.21188,-4.399444 -19.08662,-10.99861 -4.01823,-6.452519 -5.45331,-15.10476 -5.45331,-23.463704 0,-8.798888 4.73578,-15.984647 11.05014,-15.984647 3.4442,0 6.60139,1.906426 9.04103,4.839389 2.43964,2.932963 4.44876,6.892462 6.02736,10.558665 1.86561,4.546093 3.30069,9.678778 4.59226,15.398056 l 18.51259,-7.332408 C 164.48052,29.805526 159.31422,20.420044 152.99985,14.554118 146.54197,8.6881919 138.36199,6.1951739 130.18202,6.1951739 Z"
       id="path106397"
       style="font-size:132.743px;line-height:1.25;letter-spacing:11.9468px;fill:none;stroke:#ff0000;stroke-width:0.435209" />
    <path
       d="M 290.80324,10.858219 243.44547,9.0984409 230.67323,19.217164 c 2.15262,5.865925 4.44876,16.864535 6.31437,29.036332 1.7221,12.171796 3.01367,25.22348 3.01367,35.048904 l 59.9865,-10.412017 7.17542,-17.30448 -48.93636,7.039111 c -0.1435,-3.372907 -0.43052,-7.185759 -0.86104,-11.585203 l 35.87709,-3.22626 1.7221,-14.078222 -38.46024,2.199722 -2.15263,-10.558665 12.62874,-0.439945 c 9.32804,0 18.22557,0.439945 28.12764,1.026537 z"
       id="path106399"
       style="font-size:132.743px;line-height:1.25;letter-spacing:11.9468px;fill:none;stroke:#ff0000;stroke-width:0.435209" />
    <path
       d="m 304.16986,11.246973 c 2.15263,5.865926 4.59228,18.18437 6.60139,31.529351 2.00912,13.49163 3.30069,27.863148 3.30069,37.688578 0.28701,0 6.02735,-0.14665 17.22101,-0.5866 l 38.17322,-7.47905 6.02736,-18.184372 -41.61743,6.159222 C 331.29295,37.643639 327.99226,19.312622 323.83051,5.0877508 Z"
       id="path106401"
       style="font-size:132.743px;line-height:1.25;letter-spacing:11.9468px;fill:none;stroke:#ff0000;stroke-width:0.435209" />
    <path
       d="m 9.348031,92.200748 c 2.15262,5.865926 4.59228,18.184402 6.60139,31.529382 2.00912,13.49163 3.3007,27.86314 3.3007,37.68857 0.28701,0 6.02734,-0.14665 17.221,-0.5866 l 38.17323,-7.47905 6.02735,-18.18437 -41.61743,6.15922 c -2.58315,-22.73046 -5.88384,-41.0615 -10.04559,-55.286374 z"
       id="path106403"
       style="font-size:132.743px;line-height:1.25;letter-spacing:11.9468px;fill:none;stroke:#ff0000;stroke-width:0.435209" />
    <path
       d="M 142.16983,89.119469 94.812061,87.359691 82.039822,97.478413 c 2.15262,5.865927 4.448756,16.864537 6.314367,29.036337 1.722094,12.17179 3.013673,25.22348 3.013673,35.0489 l 59.986498,-10.41202 7.17542,-17.30448 -48.93635,7.03911 c -0.14351,-3.3729 -0.43053,-7.18575 -0.86106,-11.5852 l 35.8771,-3.22626 1.72211,-14.07822 -38.46025,2.19972 -2.15263,-10.55866 12.62875,-0.43995 c 9.32804,0 18.22556,0.43995 28.12763,1.02654 z"
       id="path106405"
       style="font-size:132.743px;line-height:1.25;letter-spacing:11.9468px;fill:none;stroke:#ff0000;stroke-width:0.435209" />
    <path
       d="m 212.60788,75.339396 c 0,0 0,0.879889 0.14351,2.786315 l 0.43053,7.332408 c 0.28701,6.159222 0.71754,14.371516 1.86561,22.877111 1.00456,8.5056 2.58315,17.30449 5.02279,24.3436 -6.7449,-9.53213 -14.78137,-19.65086 -22.81784,-28.59639 -8.03646,-8.798895 -16.07293,-17.011192 -22.3873,-23.023766 l -16.50347,6.012574 c 4.16175,10.412019 6.45788,21.850582 7.74945,32.702542 1.14807,10.85196 1.29158,21.26398 1.29158,28.88968 v 3.81285 c -0.14351,1.31983 -0.14351,2.34637 -0.14351,3.22626 -0.1435,1.02654 -0.1435,2.05307 -0.1435,2.93296 l 23.9659,-4.69274 c 0,-3.22625 -0.14352,-6.74581 -0.28702,-10.41201 -0.43053,-7.33241 -1.00456,-13.78493 -1.57859,-18.03772 -0.28702,-2.05308 -0.43053,-3.22626 -0.57404,-3.37291 3.87473,4.10615 7.74946,8.50559 11.62418,13.05169 6.45788,7.77235 14.49435,18.33101 20.09118,28.88967 l 19.94766,-4.69274 -1.7221,-16.42458 c -1.14807,-11.58521 -2.15263,-23.61035 -2.87016,-35.19556 -0.71755,-11.585207 -1.14808,-21.850577 -1.14808,-29.916225 0,-3.9595 0.14352,-7.185759 0.43053,-9.53213 z"
       id="path106407"
       style="font-size:132.743px;line-height:1.25;letter-spacing:11.9468px;fill:none;stroke:#ff0000;stroke-width:0.435209" />
    <path
       d="m 288.11767,95.425339 c -6.31437,0 -11.76768,0.293296 -16.21644,0.733241 -9.04103,1.026537 -14.92488,2.053074 -19.08662,3.666204 l -4.16174,14.518166 c 2.15263,-0.58659 4.59227,-1.02654 7.31892,-1.46648 4.73578,-0.73324 11.48067,-1.46648 20.23469,-1.46648 0,11.73185 0,29.03633 3.87473,48.54053 2.15262,-0.43995 4.30525,-0.73324 7.0319,-1.17319 1.29158,-0.14665 2.72666,-0.43994 4.16175,-0.73324 l 11.19365,-2.05307 c -2.72666,-13.78492 -3.58771,-24.78353 -3.58771,-33.28913 0,-4.83938 0.28702,-8.94553 0.71754,-12.31844 h 1.14807 c 0.71754,0.14665 1.7221,0.14665 3.01368,0.14665 2.43964,0.14665 5.88384,0.29329 9.18453,0.29329 l 13.20278,0.2933 3.01367,-14.224869 c -3.30069,-0.146649 -6.8884,-0.439945 -11.05015,-0.733241 -7.31892,-0.439945 -17.36451,-0.733241 -29.99325,-0.733241 z"
       id="path106409"
       style="font-size:132.743px;line-height:1.25;letter-spacing:11.9468px;fill:none;stroke:#ff0000;stroke-width:0.435209" />
  </g>
</svg>
