<?xml version="1.0" encoding="UTF-8" standalone="no"?>
<!-- Created with Inkscape (http://www.inkscape.org/) -->

<svg
   width="380mm"
   height="165mm"
   viewBox="0 0 380 165"
   version="1.1"
   id="svg106882"
   inkscape:version="1.1.2 (0a00cf5339, 2022-02-04)"
   sodipodi:docname="3.svg"
   xmlns:inkscape="http://www.inkscape.org/namespaces/inkscape"
   xmlns:sodipodi="http://sodipodi.sourceforge.net/DTD/sodipodi-0.dtd"
   xmlns="http://www.w3.org/2000/svg"
   xmlns:svg="http://www.w3.org/2000/svg">
  <sodipodi:namedview
     id="namedview106884"
     pagecolor="#ffffff"
     bordercolor="#666666"
     borderopacity="1.0"
     inkscape:pageshadow="2"
     inkscape:pageopacity="0.0"
     inkscape:pagecheckerboard="0"
     inkscape:document-units="mm"
     showgrid="false"
     inkscape:zoom="0.74475309"
     inkscape:cx="985.56154"
     inkscape:cy="204.09449"
     inkscape:current-layer="layer1" />
  <defs
     id="defs106879" />
  <g
     inkscape:label="Layer 1"
     inkscape:groupmode="layer"
     id="layer1">
    <path
       d="m 44.655873,7.3602043 c -6.314377,0 -11.767659,0.293296 -16.216384,0.73324 C 19.39847,9.1199813 13.514597,10.146518 9.3528508,11.759648 l -4.161747,14.518166 c 2.152631,-0.586593 4.592273,-1.026537 7.3189362,-1.466482 4.735778,-0.733241 11.480617,-1.466481 20.234712,-1.466481 0,11.731851 0,29.036333 3.87466,48.540535 2.152686,-0.439944 4.305263,-0.73324 7.031904,-1.173185 1.291589,-0.146648 2.726749,-0.439944 4.161801,-0.73324 L 59.006713,67.925887 C 56.280072,54.140962 55.419084,43.142351 55.419084,34.636758 c 0,-4.839389 0.286924,-8.945537 0.717526,-12.318444 h 1.148019 c 0.717526,0.146648 1.722084,0.146648 3.013673,0.146648 2.439718,0.146648 5.883884,0.293296 9.184589,0.293296 L 82.685603,23.051554 85.699276,8.8266853 C 82.398571,8.6800373 78.810942,8.3867413 74.649141,8.0934443 67.330206,7.6535003 57.284629,7.3602043 44.655873,7.3602043 Z"
       id="path106411"
       style="font-size:132.743px;line-height:1.25;letter-spacing:11.9468px;fill:none;stroke:#ff0000;stroke-width:0.435209" />
    <path
       d="m 121.43275,5.1604813 c -10.47607,0 -19.80412,2.639667 -26.548994,7.7723517 -6.888441,5.279334 -11.050134,13.198332 -11.050134,23.756999 0,5.279333 1.435052,12.318445 6.314378,18.037722 4.879218,5.865925 13.05925,10.26537 26.97959,10.26537 11.91113,0 21.09571,-3.519556 27.41009,-9.238833 6.17081,-5.719277 9.47151,-13.638277 9.47151,-22.290518 0,-8.652241 -3.73119,-15.691351 -9.61508,-20.677388 C 138.51034,7.8001483 130.18684,5.1604813 121.43275,5.1604813 Z M 119.5672,19.092054 c 6.17081,0 11.91123,5.132686 11.91123,14.958111 0,9.825426 -3.15724,17.157834 -11.91123,17.157834 -9.75854,0 -12.62875,-6.012574 -12.62875,-15.398056 0,-10.558666 5.16625,-16.717889 12.62875,-16.717889 z"
       id="path106413"
       style="font-size:132.743px;line-height:1.25;letter-spacing:11.9468px;fill:none;stroke:#ff0000;stroke-width:0.435209" />
    <path
       d="M 214.51055,5.0839378 167.15277,3.3241607 154.38056,13.442883 c 2.15257,5.865925 4.44872,16.864535 6.31437,29.036331 1.72209,12.171796 3.01368,25.22348 3.01368,35.048906 l 59.98642,-10.412018 7.17548,-17.304481 -48.9364,7.039111 c -0.14347,-3.372907 -0.4305,-7.185759 -0.86099,-11.585203 l 35.87704,-3.22626 1.72209,-14.078222 -38.46023,2.199722 -2.15257,-10.558665 12.62864,-0.439945 c 9.32805,0 18.22561,0.439945 28.12773,1.026538 z"
       id="path106415"
       style="font-size:132.743px;line-height:1.25;letter-spacing:11.9468px;fill:none;stroke:#ff0000;stroke-width:0.435209" />
    <path
       d="m 323.17163,7.4174185 c -2.72664,8.6522405 -5.45328,16.8645375 -9.32794,26.3966655 -4.01823,9.532129 -8.3235,18.917611 -13.34628,27.7165 -5.16636,8.798888 -9.61509,15.984647 -14.35084,23.170406 l 19.23005,11.291911 12.62876,-21.557282 22.67433,-1.026537 11.48063,21.117334 25.11405,3.079611 C 371.10347,85.874175 365.79365,72.969138 361.63196,61.677232 357.47016,50.385324 354.45649,40.706547 352.87787,34.987269 349.4337,23.108771 346.27656,12.403456 346.27656,2.2847331 Z m -1.00456,54.4064615 9.90212,-20.970685 6.74487,20.090796 z"
       id="path106417"
       style="font-size:132.743px;line-height:1.25;letter-spacing:11.9468px;fill:none;stroke:#ff0000;stroke-width:0.435209" />
    <path
       d="m 45.508633,77.280009 c -7.893,0 -16.35996,2.639666 -23.10494,8.358945 -6.74487,5.865926 -11.48063,14.958106 -11.48063,27.423196 0,12.4651 3.87477,23.02376 11.33717,30.50282 7.4624,7.47905 18.51253,11.73185 33.29397,11.73185 9.75855,0 17.93847,-2.63967 25.11394,-6.74581 7.17537,-4.10615 12.91579,-9.97208 18.51254,-16.4246 l -23.39186,2.19973 c -2.72664,4.25279 -7.17537,7.18575 -18.2255,7.18575 -9.18459,0 -15.21194,-4.39944 -19.0866,-10.99861 -4.01834,-6.45251 -5.45339,-15.10475 -5.45339,-23.4637 0,-8.798887 4.73576,-15.984645 11.05014,-15.984645 3.44427,0 6.60141,1.906426 9.04102,4.839388 2.43971,2.932963 4.44883,6.892457 6.02734,10.558667 1.86565,4.54609 3.30071,9.67878 4.5923,15.39805 l 18.51264,-7.3324 c -2.43972,-13.63828 -7.60597,-23.02376 -13.92035,-28.889686 -6.45784,-5.865927 -14.63787,-8.358945 -22.81779,-8.358945 z"
       id="path106419"
       style="font-size:132.743px;line-height:1.25;letter-spacing:11.9468px;fill:none;stroke:#ff0000;stroke-width:0.435209" />
    <path
       d="m 98.886258,74.654828 c 0,2.199722 0,4.399445 0,6.745814 0,6.012574 0.14357,12.025147 0.28703,18.037721 0.14347,7.039107 0.57407,14.664817 1.148022,22.290517 0.57407,7.6257 1.43516,15.10476 2.58318,21.41063 l 10.04558,-1.75978 c 2.43972,-0.43994 4.73576,-0.87989 6.74487,-1.31983 l 2.87021,-0.43994 c -1.00456,-6.89247 -1.72208,-14.22487 -2.15258,-21.26399 l 19.23006,-1.46648 c 0.4306,10.55867 1.43516,21.26398 3.01367,29.62293 l 10.04558,-1.75978 c 2.43972,-0.43994 4.73587,-0.87989 6.74498,-1.31983 l 2.8701,-0.43995 c -1.14802,-7.919 -1.86554,-16.13129 -2.29614,-24.78353 -0.4305,-10.11873 -0.71753,-19.650856 -0.71753,-29.036337 0,-6.452518 0.14357,-12.758387 0.43049,-19.357554 l -20.6651,5.57263 c -0.14357,2.786315 -0.14357,5.865925 -0.14357,9.092184 v 9.678777 c 0,3.666204 0.14357,7.6257 0.28703,11.73185 l -19.5172,1.31984 -0.43049,-14.811468 c 0,-3.372907 -0.14347,-6.452517 -0.14347,-9.38548 0,-4.986036 0.14347,-9.532129 0.4305,-13.931573 z"
       id="path106421"
       style="font-size:132.743px;line-height:1.25;letter-spacing:11.9468px;fill:none;stroke:#ff0000;stroke-width:0.435209" />
    <path
       d="m 214.67951,91.00686 c -13.05925,0 -24.39641,3.22626 -32.86348,9.67878 -8.46695,6.45252 -13.48974,16.27794 -13.48974,29.18298 0,6.45252 1.72208,15.25141 7.60597,22.29052 5.88377,7.18576 16.21638,12.75838 33.43743,12.75838 14.78133,0 26.1185,-4.39944 33.86793,-11.43855 7.74954,-7.03911 11.6242,-16.86454 11.6242,-27.4232 0,-10.55867 -4.44873,-19.50421 -11.76766,-25.51678 -7.4624,-6.012574 -17.50808,-9.53213 -28.41465,-9.53213 z m -2.29615,12.46509 c 4.5923,0 9.18449,2.05308 12.62876,5.86593 3.44417,3.81285 5.74031,9.82542 5.74031,17.01118 0,7.47906 -1.14802,13.93158 -4.01823,18.62432 -2.87021,4.69274 -7.46239,7.47905 -14.35084,7.47905 -7.46239,0 -12.19826,-2.34637 -15.06836,-6.45252 -2.87021,-4.10614 -4.01823,-10.11872 -4.01823,-17.30448 0,-15.69135 8.03646,-25.22348 19.08659,-25.22348 z"
       id="path106423"
       style="font-size:132.743px;line-height:1.25;letter-spacing:11.9468px;fill:none;stroke:#ff0000;stroke-width:0.435209" />
    <path
       d="m 293.17858,100.24569 c -6.31438,0 -11.76766,0.2933 -16.21639,0.73324 -9.04101,1.02654 -14.9249,2.05308 -19.0867,3.66621 l -4.16169,14.51816 c 2.15258,-0.58659 4.59229,-1.02653 7.31893,-1.46648 4.73576,-0.73324 11.48063,-1.46648 20.23473,-1.46648 0,11.73185 0,29.03633 3.87466,48.54054 2.15268,-0.43995 4.30526,-0.73324 7.0319,-1.17319 1.29159,-0.14665 2.72664,-0.43994 4.1618,-0.73324 l 11.1936,-2.05307 c -2.72664,-13.78493 -3.58763,-24.78354 -3.58763,-33.28913 0,-4.83939 0.28692,-8.94554 0.71752,-12.31845 h 1.14802 c 0.71753,0.14665 1.72209,0.14665 3.01368,0.14665 2.43961,0.14665 5.88388,0.2933 9.18459,0.2933 l 13.20271,0.29329 3.01367,-14.22487 c -3.3007,-0.14664 -6.88833,-0.43994 -11.05013,-0.73324 -7.31894,-0.43994 -17.36452,-0.73324 -29.99327,-0.73324 z"
       id="path106425"
       style="font-size:132.743px;line-height:1.25;letter-spacing:11.9468px;fill:none;stroke:#ff0000;stroke-width:0.435209" />
  </g>
</svg>
