<?xml version="1.0" encoding="UTF-8" standalone="no"?>
<!-- Created with Inkscape (http://www.inkscape.org/) -->

<svg
   width="380mm"
   height="165mm"
   viewBox="0 0 380 165"
   version="1.1"
   id="svg106882"
   inkscape:version="1.1.2 (0a00cf5339, 2022-02-04)"
   sodipodi:docname="4.svg"
   xmlns:inkscape="http://www.inkscape.org/namespaces/inkscape"
   xmlns:sodipodi="http://sodipodi.sourceforge.net/DTD/sodipodi-0.dtd"
   xmlns="http://www.w3.org/2000/svg"
   xmlns:svg="http://www.w3.org/2000/svg">
  <sodipodi:namedview
     id="namedview106884"
     pagecolor="#ffffff"
     bordercolor="#666666"
     borderopacity="1.0"
     inkscape:pageshadow="2"
     inkscape:pageopacity="0.0"
     inkscape:pagecheckerboard="0"
     inkscape:document-units="mm"
     showgrid="false"
     inkscape:zoom="0.74475309"
     inkscape:cx="985.56154"
     inkscape:cy="204.09449"
     inkscape:current-layer="layer1" />
  <defs
     id="defs106879" />
  <g
     inkscape:label="Layer 1"
     inkscape:groupmode="layer"
     id="layer1">
    <path
       d="m 278.45944,6.6502061 c -7.893,0 -16.35996,2.639667 -23.10494,8.3589439 -6.74487,5.865926 -11.48063,14.958111 -11.48063,27.423203 0,12.465093 3.87477,23.023759 11.33717,30.502814 7.4624,7.479055 18.51253,11.731852 33.29397,11.731852 9.75855,0 17.93847,-2.639667 25.11394,-6.745815 7.17537,-4.106149 12.91579,-9.972073 18.51254,-16.424592 l -23.39186,2.199722 c -2.72664,4.252797 -7.17537,7.185759 -18.2255,7.185759 -9.18459,0 -15.21194,-4.399444 -19.0866,-10.99861 -4.01834,-6.452519 -5.45339,-15.10476 -5.45339,-23.463704 0,-8.798888 4.73576,-15.984647 11.05014,-15.984647 3.44427,0 6.60141,1.906426 9.04102,4.839389 2.43971,2.932963 4.44883,6.892462 6.02734,10.558665 1.86565,4.546093 3.30071,9.678778 4.5923,15.398056 l 18.51264,-7.332408 C 312.75786,30.260558 307.59161,20.875076 301.27723,15.00915 294.81939,9.1432241 286.63936,6.6502061 278.45944,6.6502061 Z"
       id="path106419"
       style="font-size:132.743px;line-height:1.25;letter-spacing:11.9468px;fill:none;stroke:#ff0000;stroke-width:0.435209" />
    <path
       d="m 7.9763838,13.994108 c 0,2.199722 0,4.399445 0,6.745815 0,6.012574 0.14357,12.025147 0.28703,18.037721 0.14357,7.039111 0.57406,14.664815 1.14813,22.290514 0.57395,7.62571 1.4350502,15.10476 2.5830702,21.41063 l 10.04557,-1.75977 c 2.43972,-0.43995 4.73587,-0.87989 6.74498,-1.31984 l 2.87011,-0.43994 c -1.00456,-6.89247 -1.72209,-14.22487 -2.15258,-21.26398 l 19.23006,-1.46648 c 0.4306,10.55866 1.43516,21.26398 3.01367,29.62292 l 10.04558,-1.75978 c 2.43971,-0.43994 4.73586,-0.87989 6.74497,-1.31983 l 2.87011,-0.43995 c -1.14802,-7.919 -1.86555,-16.13129 -2.29615,-24.78353 -0.43049,-10.118723 -0.71753,-19.650853 -0.71753,-29.036334 0,-6.452518 0.14357,-12.758388 0.43061,-19.3575555 l -20.66522,5.5726305 c -0.14357,2.786315 -0.14357,5.865926 -0.14357,9.092185 v 9.678777 c 0,3.666204 0.14357,7.625704 0.28703,11.731852 l -19.51709,1.319833 -0.4306,-14.811463 c 0,-3.372907 -0.14346,-6.452517 -0.14346,-9.38548 0,-4.986037 0.14346,-9.53213 0.43049,-13.9315745 z"
       id="path106427"
       style="font-size:132.743px;line-height:1.25;letter-spacing:11.9468px;fill:none;stroke:#ff0000;stroke-width:0.435209" />
    <path
       d="M 138.99958,11.061145 91.641804,9.3013675 78.869584,19.42009 c 2.15269,5.865926 4.44873,16.864536 6.31438,29.036332 1.72208,12.171796 3.01367,25.223476 3.01367,35.048906 l 59.986536,-10.41202 7.17537,-17.30448 -48.9363,7.03911 c -0.14357,-3.37291 -0.4306,-7.18576 -0.86109,-11.585201 l 35.87715,-3.22626 1.72208,-14.078222 -38.46033,2.199722 -2.15258,-10.558665 12.62876,-0.439945 c 9.32805,0 18.2255,0.439945 28.12761,1.026538 z"
       id="path106429"
       style="font-size:132.743px;line-height:1.25;letter-spacing:11.9468px;fill:none;stroke:#ff0000;stroke-width:0.435209" />
    <path
       d="m 155.93338,18.393553 c 1.86566,5.132685 3.44428,10.412017 4.87933,15.837999 2.43961,9.385481 4.87922,21.557276 4.87922,32.849186 v 4.10615 c -0.14346,3.22625 -0.28693,6.45251 -0.28693,9.97207 l 19.0866,0.87989 v -5.13269 c -0.14357,-2.19972 -0.14357,-4.69274 -0.14357,-7.18576 -0.14346,-3.3729 -0.28692,-6.59916 -0.57396,-9.23883 0,-1.31983 -0.14357,-2.49302 -0.14357,-3.37291 3.01368,0 6.02735,0.43995 8.89756,1.46649 5.74031,2.05307 11.1936,5.27933 15.49886,8.79888 4.30526,3.51956 7.4625,6.59917 9.32805,8.65224 l 1.29159,1.61313 c 0.14357,0 1.29159,-0.43994 3.44417,-1.31983 2.15268,-0.73324 4.44883,-1.61313 7.03201,-2.63967 l 6.88833,-2.78631 c 1.86565,-0.87989 2.87021,-1.31983 2.87021,-1.31983 -2.43971,-2.63967 -5.59685,-5.13269 -9.18459,-7.62571 -7.31893,-4.69274 -14.20727,-8.652237 -22.81779,-12.318441 4.73576,-1.319833 8.89756,-2.639667 11.91123,-4.399444 3.01367,-1.759778 4.87922,-4.106148 4.87922,-7.625704 0,-4.106148 -4.01823,-7.919 -9.90201,-11.145258 -5.88388,-3.226259 -13.92034,-5.719278 -21.95681,-7.919 -8.03646,-2.199722 -16.21649,-3.812852 -22.53087,-4.986037 z m 22.24384,11.291906 c 3.15714,0 6.17081,0.293296 8.89756,1.026537 5.45328,1.319833 9.75854,3.226259 12.19815,5.425981 1.14813,1.026538 1.72209,2.053075 1.72209,2.786315 0,3.22626 -6.31438,4.839389 -19.0866,4.839389 -0.43049,-1.906426 -0.71753,-3.812852 -1.14802,-5.572629 -0.71763,-3.079612 -1.57862,-6.599167 -2.58318,-8.505593 z"
       style="font-size:132.743px;line-height:1.25;font-family:'Philly Sans';-inkscape-font-specification:'Philly Sans';letter-spacing:11.9468px;fill:none;stroke:#ff0000;stroke-width:0.435209"
       id="path106431" />
    <path
       d="m 164.38684,89.277891 -47.35777,-1.759777 -12.77225,10.118722 c 2.15263,5.865924 4.44877,16.864534 6.31437,29.036334 1.72211,12.17179 3.01368,25.22348 3.01368,35.0489 l 59.98651,-10.41201 7.17542,-17.30448 -48.93636,7.03911 c -0.14352,-3.37291 -0.43053,-7.18576 -0.86105,-11.58521 l 35.87709,-3.22626 1.7221,-14.07822 -38.46025,2.19972 -2.15262,-10.55866 12.62874,-0.43995 c 9.32805,0 18.22556,0.43995 28.12764,1.02654 z"
       id="path106393"
       style="font-size:132.743px;line-height:1.25;letter-spacing:11.9468px;fill:none;stroke:#ff0000;stroke-width:0.435209" />
  </g>
</svg>
