<?xml version="1.0" encoding="UTF-8" standalone="no"?>
<!-- Created with Inkscape (http://www.inkscape.org/) -->

<svg
   width="280mm"
   height="160mm"
   viewBox="0 0 280 160"
   version="1.1"
   id="svg106882"
   inkscape:version="1.1.2 (0a00cf5339, 2022-02-04)"
   sodipodi:docname="bee.svg"
   xmlns:inkscape="http://www.inkscape.org/namespaces/inkscape"
   xmlns:sodipodi="http://sodipodi.sourceforge.net/DTD/sodipodi-0.dtd"
   xmlns="http://www.w3.org/2000/svg"
   xmlns:svg="http://www.w3.org/2000/svg">
  <sodipodi:namedview
     id="namedview106884"
     pagecolor="#ffffff"
     bordercolor="#666666"
     borderopacity="1.0"
     inkscape:pageshadow="2"
     inkscape:pageopacity="0.0"
     inkscape:pagecheckerboard="0"
     inkscape:document-units="mm"
     showgrid="false"
     inkscape:zoom="0.74475309"
     inkscape:cx="985.56154"
     inkscape:cy="204.09449"
     inkscape:current-layer="layer1" />
  <defs
     id="defs106879" />
  <g
     inkscape:label="Layer 1"
     inkscape:groupmode="layer"
     id="layer1">
    <path
       d="m 9.5606668,18.201212 c 2.1526212,6.892463 4.0182312,13.931574 5.7403362,21.117332 0.28701,1.61313 0.717536,3.226259 1.004557,4.839389 1.004558,4.986037 2.152621,10.118722 3.013673,15.544704 1.004558,7.185759 1.722105,14.518165 1.722105,21.557272 v 3.81286 c -0.143516,1.31983 -0.143516,2.34637 -0.143516,3.22626 -0.143505,1.02653 -0.143505,2.05307 -0.143505,2.93296 2.870168,-0.58659 6.744894,-1.02654 11.624177,-1.46648 4.879294,-0.2933 10.045587,-0.73324 15.642418,-1.17319 11.050145,-1.02654 23.104847,-2.19972 32.289382,-4.98604 9.184546,-2.78631 15.642418,-7.039106 15.642418,-13.931568 0,-8.065648 -8.323483,-13.198333 -24.826953,-16.571241 h -0.143505 c 4.448757,-2.34637 7.605946,-4.252796 9.615061,-6.159222 2.009115,-1.906426 2.870168,-4.252796 2.870168,-7.332407 0,-4.252797 -3.874726,-8.505592 -9.758566,-12.025148 C 67.825065,24.067138 59.645088,20.840879 51.1781,18.201212 42.567597,15.561545 33.526567,13.508471 25.6336,12.188638 Z M 36.253219,30.812953 c 7.605946,0 13.920324,1.466481 18.369081,3.519554 4.448757,2.053074 6.744893,4.692741 6.744893,6.599167 0,2.34637 -1.148063,4.692741 -4.448757,6.452518 -3.300694,1.759778 -8.323493,2.932963 -16.216449,2.932963 l -1.291579,-7.772352 c -1.004558,-4.252796 -1.86561,-8.945537 -3.157189,-11.73185 z m 5.883852,29.769573 c 2.726652,0 5.883841,0 9.184535,0.146648 6.601388,0.293296 12.485229,1.319833 16.359954,2.932963 1.86561,0.879889 2.870168,1.906426 2.870168,3.226259 0,1.61313 -1.722105,2.786315 -4.305252,3.812852 -2.583147,1.173185 -6.027346,2.053073 -9.471556,2.639665 -4.01823,0.733241 -8.610503,1.319834 -13.633292,1.759778 z"
       id="path106389"
       style="font-size:132.743px;line-height:1.25;letter-spacing:11.9468px;fill:none;stroke:#ff0000;stroke-width:0.435209" />
    <path
       d="M 153.64304,16.294786 106.28528,14.535008 93.513027,24.653731 c 2.152631,5.865925 4.448768,16.864535 6.314378,29.036332 1.722095,12.171796 3.013675,25.223476 3.013675,35.048906 l 59.9865,-10.41202 7.17542,-17.304479 -48.93636,7.039111 c -0.14351,-3.372907 -0.43053,-7.185759 -0.86105,-11.585203 l 35.87709,-3.22626 1.72211,-14.078222 -38.46026,2.199722 -2.15262,-10.558665 12.62874,-0.439945 c 9.32805,0 18.22556,0.439945 28.12764,1.026537 z"
       id="path106391"
       style="font-size:132.743px;line-height:1.25;letter-spacing:11.9468px;fill:none;stroke:#ff0000;stroke-width:0.435209" />
    <path
       d="m 234.03583,12.820302 -47.35777,-1.759778 -12.77225,10.118723 c 2.15263,5.865925 4.44876,16.864535 6.31436,29.036332 1.72211,12.171796 3.01369,25.223476 3.01369,35.048906 l 59.9865,-10.41202 7.17542,-17.304479 -48.93636,7.039111 c -0.14351,-3.372907 -0.43052,-7.185759 -0.86105,-11.585203 l 35.8771,-3.22626 1.72209,-14.078222 -38.46024,2.199722 -2.15262,-10.558665 12.62873,-0.439945 c 9.32805,0 18.22556,0.439945 28.12765,1.026537 z"
       id="path106393"
       style="font-size:132.743px;line-height:1.25;letter-spacing:11.9468px;fill:none;stroke:#ff0000;stroke-width:0.435209" />
  </g>
</svg>
